<svg width="232" height="232" viewBox="0 0 232 232" fill="none" xmlns="http://www.w3.org/2000/svg">
<g clip-path="url(#clip0_1645_1282)">
<mask id="mask0_1645_1282" style="mask-type:luminance" maskUnits="userSpaceOnUse" x="0" y="0" width="232" height="232">
<path d="M0.168945 0.168701H231.769V231.769H0.168945V0.168701Z" fill="white"/>
</mask>
<g mask="url(#mask0_1645_1282)">
<mask id="mask1_1645_1282" style="mask-type:luminance" maskUnits="userSpaceOnUse" x="0" y="0" width="232" height="232">
<path d="M115.997 0.168701C52.0283 0.168701 0.168945 52.0281 0.168945 115.997C0.168945 179.969 52.0283 231.825 115.997 231.825C179.969 231.825 231.825 179.969 231.825 115.997C231.825 52.0281 179.969 0.168701 115.997 0.168701Z" fill="white"/>
</mask>
<g mask="url(#mask1_1645_1282)">
<path d="M115.997 0.168701C52.0283 0.168701 0.168945 52.0281 0.168945 115.997C0.168945 179.969 52.0283 231.825 115.997 231.825C179.969 231.825 231.825 179.969 231.825 115.997C231.825 52.0281 179.969 0.168701 115.997 0.168701Z" stroke="#716657" stroke-width="6"/>
</g>
</g>
<mask id="mask2_1645_1282" style="mask-type:luminance" maskUnits="userSpaceOnUse" x="16" y="111" width="16" height="16">
<path d="M16.8999 111.931H31.8999V126.931H16.8999V111.931Z" fill="white"/>
</mask>
<g mask="url(#mask2_1645_1282)">
<path d="M24.3812 111.931C23.6499 118.094 23.0593 118.684 16.8999 119.412C16.9124 119.412 16.9249 119.416 16.9374 119.416C23.0624 120.144 23.653 120.747 24.3812 126.894C25.1093 120.731 25.6999 120.141 31.8624 119.412C25.6999 118.684 25.1093 118.094 24.3812 111.931Z" fill="#716657"/>
</g>
<mask id="mask3_1645_1282" style="mask-type:luminance" maskUnits="userSpaceOnUse" x="200" y="111" width="16" height="16">
<path d="M200.719 111.931H215.719V126.931H200.719V111.931Z" fill="white"/>
</mask>
<g mask="url(#mask3_1645_1282)">
<path d="M208.2 111.931C207.469 118.094 206.878 118.684 200.719 119.412C200.731 119.412 200.744 119.416 200.756 119.416C206.881 120.144 207.472 120.747 208.2 126.894C208.928 120.731 209.519 120.141 215.681 119.412C209.519 118.684 208.928 118.094 208.2 111.931Z" fill="#716657"/>
</g>
<path d="M102.716 127.197C102.331 127.25 101.991 127.303 101.869 127.325L102.472 127.472L102.447 127.609C102.447 127.609 101.931 127.525 101.738 127.503C101.7 127.662 101.694 127.884 101.694 127.884C101.75 127.894 102.047 127.956 102.469 128.053L102.716 127.197Z" fill="#716657"/>
<path d="M106.972 129.059L108.5 128.978V128.056C107.965 128.191 107.431 128.328 106.909 128.497C106.931 128.684 106.953 128.872 106.972 129.059Z" fill="#716657"/>
<path d="M115.094 140.022C114.772 139.622 114.578 139.134 114.453 138.641C114.34 138.141 114.287 137.622 114.287 137.103C114.284 136.584 114.315 136.062 114.375 135.544C114.425 135.022 114.5 134.503 114.572 133.978C114.64 133.453 114.712 132.928 114.775 132.403C114.909 131.356 115.031 130.309 115.181 129.259C114.894 130.281 114.678 131.319 114.494 132.362C114.315 133.406 114.131 134.444 114.009 135.506C113.909 136.562 113.875 137.659 114.178 138.716C114.334 139.234 114.581 139.741 114.959 140.137C115.147 140.334 115.362 140.503 115.594 140.644C115.825 140.778 116.075 140.878 116.328 140.953C116.087 140.841 115.859 140.712 115.647 140.562C115.437 140.406 115.253 140.222 115.094 140.022Z" fill="#716657"/>
<path d="M115.6 138.547C115.456 137.378 116.1 133.894 116.334 130.359C116.597 126.456 113.728 126.478 113.181 127.822C113.175 127.838 113.178 127.847 113.181 127.859C113.172 127.891 113.169 127.928 113.166 127.963C113.175 127.781 113.216 127.597 113.244 127.391C113.084 127.522 112.962 127.694 112.887 127.894C112.812 128.094 112.797 128.334 112.872 128.556C112.941 128.775 113.116 128.984 113.35 129.056C113.572 129.131 113.844 129.078 113.962 128.897C113.762 128.941 113.597 128.881 113.469 128.797C113.347 128.709 113.269 128.584 113.219 128.438C113.172 128.303 113.156 128.159 113.162 128.003C113.159 128.278 113.331 128.566 113.656 128.613C114.128 128.794 114.759 128.197 114.434 127.647C114.291 127.403 114.041 127.313 113.8 127.338C114.181 127.134 114.584 127.234 114.934 127.488C115.366 127.8 115.584 128.331 115.516 128.859C115.187 131.45 114.203 135.972 114.731 138.575C115.003 139.919 116.787 141.547 118.231 140.503C118.691 140.172 119.072 139.453 118.766 138.922C118.5 138.466 117.781 138.313 117.412 138.738C117.109 139.091 117.187 139.625 117.537 139.944C116.575 140.431 115.728 139.578 115.6 138.547Z" fill="#716657"/>
<path d="M123.753 113.8C123.65 114.366 123.61 114.953 123.685 115.534C123.766 116.109 123.975 116.675 124.35 117.103C124.116 116.591 124.022 116.047 124.044 115.513C124.053 114.975 124.166 114.447 124.313 113.928C124.613 112.891 125.069 111.888 125.475 110.841C125.875 109.806 126.291 108.744 126.5 107.613C126.61 107.05 126.656 106.472 126.628 105.897C126.594 105.325 126.481 104.756 126.263 104.238C126.4 105.356 126.253 106.441 125.947 107.481C125.641 108.525 125.203 109.534 124.794 110.575C124.397 111.609 123.963 112.663 123.753 113.8Z" fill="#716657"/>
<path d="M102.681 101.081C103.15 100.366 103.697 99.7063 104.281 99.0782C105.456 97.8251 106.859 96.7845 108.416 95.9751C106.741 96.5063 105.178 97.4501 103.881 98.6751C103.225 99.2813 102.638 99.9626 102.113 100.688C101.597 101.422 101.147 102.203 100.778 103.022C100.416 103.844 100.131 104.7 99.9407 105.578L99.8751 105.909C99.8563 106.028 99.8376 106.141 99.8251 106.259C99.8001 106.491 99.7907 106.722 99.7907 106.95C99.7907 107.406 99.8313 107.847 99.8688 108.281C99.9032 108.713 99.9251 109.138 99.9032 109.556C99.8845 109.978 99.822 110.403 99.7376 110.825C99.5657 111.666 99.2595 112.481 98.8501 113.259C99.9345 111.878 100.528 110.056 100.438 108.253C100.431 107.813 100.416 107.381 100.431 106.963C100.441 106.75 100.456 106.544 100.488 106.344C100.5 106.241 100.522 106.141 100.541 106.044L100.616 105.734C100.816 104.906 101.091 104.094 101.444 103.319C101.784 102.534 102.206 101.794 102.681 101.081Z" fill="#716657"/>
<path d="M93.2561 134.159C92.7811 135.044 92.2217 135.9 91.7592 136.819C91.2842 137.728 90.8811 138.666 90.453 139.581L90.1342 140.269L89.8217 140.975C89.7123 141.206 89.6248 141.45 89.5248 141.687L89.3842 142.05L89.253 142.412C88.9186 143.391 88.6373 144.387 88.4623 145.406C88.2936 146.428 88.1905 147.459 88.2092 148.494C88.2186 150.562 88.6967 152.616 89.553 154.462C88.9811 152.506 88.6842 150.5 88.778 148.503C88.828 147.506 88.9405 146.512 89.1436 145.537C89.3342 144.556 89.6092 143.594 89.9436 142.653L90.0655 142.3L90.1998 141.95C90.2905 141.719 90.3748 141.481 90.478 141.253L91.0842 139.862C91.478 138.922 91.8655 137.987 92.2717 137.066C92.6811 136.15 93.1655 135.256 93.5748 134.312C93.9811 133.375 94.303 132.366 94.3092 131.341C94.1405 132.35 93.7405 133.278 93.2561 134.159Z" fill="#716657"/>
<path d="M111.163 95.5845C110.613 95.6876 110.075 95.8376 109.56 96.0376C110.06 95.9845 110.556 95.947 111.05 95.9313C111.085 95.8126 111.122 95.697 111.163 95.5845Z" fill="#716657"/>
<path d="M96.1562 135.959C96.303 135.966 96.453 135.941 96.5905 135.884C96.8655 135.769 97.0843 135.553 97.2593 135.322C97.6062 134.85 97.8218 134.306 98.003 133.763C98.1874 133.222 98.3093 132.659 98.4562 132.119C98.6062 131.566 98.7093 131.003 98.8187 130.447C98.9218 129.894 99.0312 129.344 99.178 128.803C99.2499 128.534 99.3343 128.275 99.4312 128.006C99.5249 127.741 99.6155 127.475 99.7187 127.213C99.9218 126.694 100.15 126.181 100.484 125.741C100.653 125.522 100.844 125.319 101.072 125.159C101.3 125.003 101.559 124.888 101.831 124.812C101.55 124.85 101.272 124.934 101.019 125.078C100.766 125.222 100.544 125.413 100.347 125.628C99.9593 126.063 99.6843 126.581 99.453 127.103C99.3374 127.366 99.2312 127.631 99.1312 127.897C99.028 128.159 98.928 128.434 98.8468 128.709C98.6812 129.263 98.5687 129.825 98.4593 130.381C98.3562 130.938 98.2562 131.491 98.1218 132.034C97.9937 132.594 97.878 133.141 97.7312 133.681C97.578 134.219 97.403 134.753 97.1124 135.222C96.9687 135.453 96.7874 135.669 96.5499 135.797C96.3093 135.925 96.0155 135.931 95.7437 135.847C95.8749 135.9 96.0093 135.95 96.1562 135.959Z" fill="#716657"/>
<path d="M94.3501 136.194C94.2376 135.969 94.1719 135.719 94.1563 135.456C94.1407 135.194 94.1751 134.925 94.2563 134.644C94.0407 134.847 93.9126 135.141 93.8719 135.444C93.8313 135.75 93.8782 136.072 94.0219 136.356C94.1626 136.644 94.3938 136.875 94.6626 137.025C94.9282 137.178 95.2438 137.25 95.5344 137.2C95.2594 137.097 95.0251 136.959 94.8219 136.791C94.6219 136.622 94.4626 136.419 94.3501 136.194Z" fill="#716657"/>
<path d="M124.141 65.1626C123.941 65.1407 123.747 65.2126 123.6 65.3407C123.587 65.3501 123.578 65.3657 123.566 65.3751C123.547 65.3938 123.528 65.4095 123.512 65.4313C123.5 65.447 123.491 65.4626 123.481 65.4813C123.416 65.5782 123.372 65.6907 123.366 65.8157C123.353 66.2063 123.766 66.672 124.181 66.5157C124.216 66.5001 124.244 66.4782 124.269 66.4563C124.419 66.3938 124.534 66.2657 124.603 66.1157C124.772 65.7595 124.637 65.2188 124.141 65.1626Z" fill="#716657"/>
<path d="M126.731 60.3999L126.484 60.4249C126.581 60.4343 126.656 60.4249 126.731 60.3999Z" fill="#716657"/>
<mask id="mask4_1645_1282" style="mask-type:luminance" maskUnits="userSpaceOnUse" x="86" y="56" width="44" height="120">
<path d="M86.8252 56.1343H129.941V175.859H86.8252V56.1343Z" fill="white"/>
</mask>
<g mask="url(#mask4_1645_1282)">
<path d="M127.481 65.3374L127.138 65.2093L127.209 64.9561L127.388 64.3593L127.472 64.0561L127.491 63.9843L127.834 64.0655L127.803 64.1749L127.481 65.3374ZM125.041 64.2811C125.078 64.078 125.172 64.0061 125.303 63.803L127.209 64.3093L127.05 64.8561C126.347 64.7218 125.719 64.4905 125.041 64.2811ZM124.647 66.3593C124.459 66.6905 124.288 67.0968 124.131 67.4468L123.609 67.2655C123.519 67.2311 123.416 67.2468 123.341 67.3093C123.109 67.503 122.813 67.5186 122.994 68.3155L123.013 68.4093L123.519 68.5843C123.478 68.6405 123.434 68.6999 123.397 68.753C123.294 68.8968 123.169 69.1655 123.072 69.2624C122.984 69.3499 122.9 69.4061 122.803 69.4405C122.656 69.3468 122.494 69.2718 122.338 69.1905C122.225 69.1311 122.106 69.0624 121.981 69.0186C121.959 68.9686 121.938 68.9218 121.919 68.8718C121.85 68.6686 121.806 68.4468 121.794 68.228C121.825 68.0593 121.863 67.8905 121.906 67.7249C122.109 66.9249 122.406 66.153 122.797 65.4374C122.888 65.253 123 65.0811 123.1 64.9061C123.216 64.7374 123.322 64.5624 123.447 64.403C123.553 64.2499 123.672 64.103 123.794 63.9624C123.863 63.8968 123.928 63.8311 123.997 63.7624C124.416 63.3905 124.806 62.9968 125.194 62.5874C125.372 62.403 125.559 62.2124 125.741 62.0218C125.881 61.8843 126.041 61.7155 126.141 61.5593C126.416 61.5905 126.713 61.4843 126.928 61.3436C127.047 61.2655 127.2 61.1374 127.319 60.9874C127.472 62.2905 126.816 62.9686 126.263 63.803C125.897 63.7124 125.144 63.578 125.144 63.578C125.144 63.578 124.703 63.7999 124.722 64.5061C124.722 64.5499 124.744 64.5968 124.791 64.6061L125.606 64.8155C125.622 64.8218 125.638 64.828 125.656 64.8343C125.303 65.3311 124.906 65.8874 124.647 66.3593ZM125.813 68.3249L125.613 68.8561C125.288 68.6249 124.875 68.5155 124.503 68.3718C124.094 68.2124 123.681 68.0686 123.266 67.9343C123.253 67.7468 123.313 67.678 123.506 67.5218L125.813 68.3249ZM125.984 68.3874L126.088 68.0999L126.397 68.1686L126.413 68.1718L126.431 68.1749L126.375 68.3405L126.228 68.7749L125.988 69.4436C125.984 69.4499 125.919 69.4218 125.919 69.4218L125.65 69.2968L125.753 69.003L125.984 68.3874ZM126.531 68.9155C126.566 68.7905 126.566 68.6811 126.663 68.6093C126.794 68.5124 126.947 68.428 127.113 68.4061C127.275 68.3874 127.444 68.4218 127.584 68.5061C127.534 68.4749 127.484 68.3686 127.441 68.3249C127.384 68.2655 127.338 68.228 127.263 68.1999C127.106 68.1436 126.931 68.1374 126.766 68.1686C126.953 67.8124 127.213 67.9655 127.259 67.9655C129.588 68.6436 126.075 70.9093 126.45 69.1999L126.531 68.9155ZM126.963 70.4061C126.797 70.3436 126.619 70.3561 126.459 70.2374C126.384 70.1811 126.328 70.1093 126.281 70.028C126.281 70.0218 126.278 70.0124 126.275 70.0061C126.281 70.0124 126.3 70.0186 126.347 70.0343L126.647 70.1218C126.744 70.1499 126.838 70.1655 126.934 70.1686C127.191 70.1811 127.428 70.128 127.628 70.028C127.459 70.2624 127.244 70.4218 126.963 70.4061ZM122.431 70.3593C122.319 70.553 122.25 70.7718 122.116 70.953C121.906 71.2374 121.675 71.1936 121.409 71.178L121.706 69.9186C121.819 69.9686 121.934 70.0218 122.047 70.0749C122.131 70.0999 122.219 70.1249 122.309 70.1405C122.391 70.1561 122.478 70.1624 122.566 70.1624C122.516 70.2249 122.472 70.2936 122.431 70.3593ZM121.363 66.3686C121.188 66.6874 121.059 67.0811 121 67.4874L120.438 68.5343C120.422 68.5655 120.406 68.5999 120.394 68.6374C120.384 68.6655 120.375 68.6936 120.366 68.7218L120.35 68.7749L120.241 69.1686L120.181 69.3811L113.153 94.4405L112.969 95.103L106.244 119.078C106.253 119.081 106.263 119.081 106.269 119.084C106.159 119.422 106.056 119.762 105.956 120.103C105.888 120.337 105.819 120.569 105.753 120.8C105.681 121.062 105.609 121.325 105.541 121.587C105.478 121.825 105.416 122.066 105.356 122.303C105.284 122.547 105.209 122.787 105.134 123.031C105.091 123.178 105.047 123.325 105 123.472C104.763 124.253 104.528 125.037 104.3 125.822L103.938 127.062L103.609 128.178C103.6 128.25 103.597 128.3 103.591 128.35C103.491 129.334 103.409 130.322 103.316 131.306L103.034 134.416L102.906 135.962L102.897 136.097L102.7 136.081C102.703 136.034 102.469 138.697 102.409 139.578C102.188 139.541 101.975 139.5 101.781 139.459C101.844 138.828 101.906 138.197 101.969 137.569L102.263 134.506L102.559 131.444L102.888 128.4L102.941 128.2C103.084 128.234 103.234 128.266 103.388 128.303C103.397 128.212 103.4 128.206 103.4 128.203L103.713 127.091C103.572 127.109 103.406 127.131 103.231 127.153L103.366 126.666C103.581 126.584 103.734 126.375 103.763 126.153C103.769 126.144 103.772 126.134 103.772 126.119C103.769 125.947 103.725 125.778 103.653 125.622L103.919 124.659L104.253 123.406C104.441 122.712 104.622 122.016 104.803 121.319C104.85 121.197 104.897 121.072 104.938 120.947C105.072 120.553 105.194 120.156 105.309 119.756C105.381 119.5 105.45 119.244 105.516 118.984C105.659 118.997 105.813 119.016 105.972 119.037L112.688 95.0905L112.875 94.4249L119.969 69.1186L120.019 68.9499L120.075 68.7436L120.103 68.6468C120.106 68.628 120.116 68.6093 120.122 68.5874C120.141 68.528 120.166 68.4655 120.194 68.4093L121.513 65.9561C121.459 66.0905 121.413 66.2249 121.369 66.3624C121.366 66.3655 121.363 66.3655 121.363 66.3686ZM121.213 69.6936L114.678 94.5999L114.506 95.253L108.556 117.947C108.416 118.334 108.288 118.725 108.169 119.122C108.134 119.237 108.1 119.353 108.069 119.469C107.963 119.837 107.859 120.206 107.763 120.575C107.641 121.062 107.519 121.553 107.416 122.044C107.366 122.266 107.322 122.487 107.281 122.706L106.988 123.816C106.784 124.587 106.578 125.362 106.388 126.137L106.05 127.466L105.797 128.462C105.784 128.606 105.775 128.725 105.763 128.847C105.688 129.756 105.616 130.666 105.55 131.575L105.322 134.669L105.216 136.325L105.031 136.312C104.941 137.766 104.859 139.078 104.806 139.9C104.541 139.872 104.244 139.837 103.934 139.8C104.009 139.075 104.081 138.353 104.153 137.628L104.447 134.472L104.713 131.316C104.788 130.428 104.859 129.541 104.928 128.653C105.131 128.7 105.328 128.747 105.513 128.787C105.541 128.366 105.544 128.35 105.547 128.341L105.791 127.409C105.588 127.362 105.388 127.319 105.203 127.281L105.609 125.762C105.828 124.956 106.034 124.15 106.244 123.341L106.4 122.731C106.581 122.137 106.75 121.541 106.909 120.941C107.05 120.394 107.188 119.841 107.313 119.287C107.509 119.331 107.703 119.378 107.888 119.422L114.234 95.2186L114.406 94.5624L120.956 69.5811L120.972 69.528L120.988 69.4624L121.028 69.3093L121.056 69.2093L121.091 69.0718C121.103 69.1561 121.116 69.2436 121.134 69.328C121.138 69.353 121.141 69.378 121.147 69.3999C121.153 69.4374 121.178 69.4561 121.206 69.4624C121.228 69.4686 121.253 69.4686 121.275 69.4561L121.213 69.6936ZM116.616 93.4718L116.644 93.5905L116.653 93.6218C116.65 93.6343 116.653 93.6405 116.65 93.6561C116.647 93.6811 116.65 93.703 116.656 93.7249C116.669 93.778 116.672 93.7718 116.675 93.7811C116.681 93.7936 116.691 93.8124 116.694 93.8186C116.709 93.8436 116.719 93.8561 116.731 93.8686L116.781 93.928L116.872 94.0343C116.994 94.1655 117.119 94.2905 117.244 94.4155C117.678 94.8343 118.144 95.2218 118.634 95.5749C117.941 95.3155 117.231 95.1061 116.513 94.9374C116.513 94.8093 116.513 94.6811 116.509 94.553C116.413 94.6499 116.35 94.7686 116.288 94.8843C116.278 94.8843 116.266 94.8811 116.259 94.878C116.25 94.9124 116.238 94.9468 116.228 94.9811C116.169 95.1218 116.116 95.2436 116.069 95.3686C115.963 95.6499 115.878 95.9374 115.813 96.2249C115.778 96.3718 115.747 96.5155 115.722 96.6561C115.716 96.678 115.713 96.6968 115.709 96.7186C115.519 96.7155 115.328 96.7218 115.131 96.7405L116.284 92.0561C116.309 92.1905 116.334 92.328 116.366 92.4624C116.434 92.8061 116.534 93.1405 116.616 93.4718ZM104.853 141.619C104.775 141.584 104.684 141.587 104.609 141.625C104.534 141.659 104.484 141.728 104.466 141.803C104.428 141.95 104.513 142.081 104.625 142.128C104.731 142.181 104.888 142.156 104.975 142.031C105.019 141.969 105.034 141.884 105.013 141.806C104.994 141.725 104.931 141.656 104.853 141.619C105.009 141.687 105.116 141.878 105.059 142.069C105.031 142.162 104.959 142.25 104.863 142.294C104.769 142.341 104.65 142.341 104.55 142.297C104.45 142.25 104.372 142.162 104.344 142.059C104.313 141.956 104.331 141.847 104.381 141.762C104.488 141.594 104.7 141.547 104.853 141.619ZM104.953 140.8C104.95 140.819 104.95 140.837 104.95 140.859C104.95 140.837 104.953 140.819 104.953 140.8L105.025 140.806C105.025 140.806 105.034 140.672 105.047 140.431C105.066 140.472 105.072 140.516 105.072 140.562C105.197 140.622 105.284 140.744 105.284 140.887C105.284 141.091 105.119 141.253 104.909 141.253C104.703 141.253 104.534 141.091 104.534 140.887C104.534 140.737 104.631 140.606 104.766 140.55C104.756 140.703 104.75 140.787 104.75 140.787L104.953 140.8ZM119.422 96.6468C121.144 97.4655 122.669 98.7218 123.638 100.359C124.613 101.987 125.034 103.922 124.969 105.822C124.963 106.062 124.947 106.297 124.922 106.534C124.894 106.772 124.866 107 124.813 107.222C124.7 107.672 124.538 108.128 124.369 108.581C124.028 109.487 123.65 110.391 123.306 111.312C122.966 112.231 122.644 113.169 122.438 114.15C122.334 114.637 122.263 115.141 122.269 115.659C122.272 116.169 122.359 116.712 122.653 117.191L122.541 117.203C122.294 117.228 122.047 117.253 121.797 117.294C121.297 117.375 120.784 117.512 120.319 117.775C119.853 118.034 119.459 118.422 119.172 118.859C118.884 119.297 118.681 119.775 118.534 120.259C118.25 121.219 118.063 122.187 117.931 123.169C117.806 124.15 117.744 125.137 117.753 126.128C117.766 127.119 117.85 128.112 118.047 129.091C118.247 130.069 118.559 131.044 119.113 131.909C119.391 132.341 119.738 132.741 120.163 133.056C120.584 133.375 121.081 133.597 121.6 133.697L121.678 133.712C121.691 133.716 121.697 133.719 121.706 133.722C121.725 133.731 121.741 133.744 121.753 133.759C121.766 133.775 121.769 133.791 121.775 133.806C121.775 133.828 121.778 133.816 121.766 133.9L121.722 134.278L121.697 134.653C121.669 135.15 121.669 135.644 121.678 136.137C121.722 138.106 121.906 140.056 122.122 142.003C122.175 142.487 122.238 142.975 122.3 143.459L122.394 144.191C122.428 144.419 122.447 144.656 122.459 144.897C123.025 155.794 116.669 163.959 104.194 163.578C108.016 163.491 111.903 162.325 115.15 160.278C119.906 157.309 121.866 151.447 121.722 145.841C121.706 145.344 121.666 144.85 121.622 144.356C121.853 156.975 113.509 163.537 102.284 162.875C102.553 162.647 102.731 162.309 102.744 161.928C102.875 158.241 103.181 149.122 103.428 148.531C103.731 147.8 105.863 140.006 105.863 140.006C105.863 140.006 105.55 139.978 105.081 139.931C105.094 139.703 105.109 139.441 105.128 139.144C105.175 138.687 105.219 138.231 105.266 137.772L105.55 134.687L105.809 131.597C105.884 130.7 105.956 129.803 106.022 128.906C106.366 128.984 106.631 129.047 106.763 129.075C106.744 128.922 106.722 128.766 106.706 128.616L106.194 128.487L106.181 128.353C106.181 128.353 106.547 128.372 106.747 128.378C107.269 128.212 107.797 128.081 108.331 127.969C108.006 127.897 107.153 127.709 106.297 127.519L106.619 126.194C106.809 125.419 106.991 124.641 107.172 123.859L107.472 122.572C107.522 122.412 107.572 122.256 107.622 122.097C107.769 121.616 107.9 121.131 108.028 120.644C108.122 120.272 108.213 119.9 108.297 119.525C108.547 119.591 108.775 119.653 108.959 119.703C109.231 119.781 109.513 119.616 109.581 119.341L115.088 96.928C115.275 97.0155 115.469 97.0843 115.663 97.1436L115.769 97.1749L115.825 97.1905C115.859 97.1999 115.9 97.1999 115.931 97.1936C116 97.1874 116.075 97.1218 116.084 97.0999L116.1 97.078C116.106 97.0655 116.119 97.0499 116.125 97.0374C116.175 96.9311 116.194 96.8686 116.222 96.7905C116.272 96.6436 116.309 96.4999 116.344 96.353C116.4 96.1124 116.441 95.8686 116.469 95.6218C117.488 95.8686 118.481 96.1999 119.422 96.6468ZM124.603 99.2186C125.425 99.8374 126.166 100.547 126.803 101.337C127.119 101.734 127.409 102.15 127.656 102.591C127.909 103.028 128.122 103.487 128.291 103.959C128.638 104.906 128.813 105.912 128.819 106.919C128.822 107.422 128.784 107.928 128.709 108.428L128.678 108.616C128.672 108.675 128.659 108.728 128.647 108.784C128.619 108.9 128.588 109.019 128.55 109.137C128.478 109.375 128.391 109.619 128.3 109.856C127.931 110.825 127.509 111.791 127.138 112.784C126.769 113.781 126.422 114.797 126.234 115.881C126.144 116.422 126.094 116.984 126.147 117.562C126.175 117.85 126.228 118.144 126.328 118.431C126.338 118.466 126.356 118.503 126.369 118.537C126.375 118.553 126.381 118.575 126.388 118.594C126.288 118.547 126.188 118.497 126.088 118.45C125.744 118.081 125.109 117.978 124.659 117.769C124.247 117.578 123.844 117.362 123.434 117.166C123.422 117.059 123.372 116.944 123.319 116.869L123.281 116.812C123.088 116.506 123.003 116.091 123 115.653C122.994 115.212 123.056 114.753 123.15 114.297C123.341 113.381 123.65 112.469 123.984 111.566C124.319 110.656 124.691 109.759 125.038 108.831C125.209 108.366 125.378 107.9 125.506 107.387C125.534 107.262 125.563 107.119 125.581 106.991C125.6 106.862 125.616 106.737 125.628 106.609C125.653 106.356 125.672 106.1 125.678 105.847C125.744 103.825 125.291 101.759 124.234 100.003C123.759 99.2124 123.166 98.4936 122.491 97.8749C123.228 98.2718 123.938 98.7155 124.603 99.2186ZM125.931 119.009C125.734 119.066 125.544 119.144 125.366 119.241L122.522 117.947C122.553 117.944 122.581 117.937 122.613 117.937L122.791 117.919C122.797 117.919 122.831 117.916 122.888 117.906C122.934 117.897 122.978 117.881 123.022 117.862C123.075 117.837 123.122 117.809 123.169 117.775C124.034 118.244 125.009 118.675 125.931 118.984C125.944 118.991 125.953 118.994 125.966 119L125.931 119.009ZM123.894 120.669C123.584 121.147 123.353 121.656 123.159 122.169C122.966 122.684 122.819 123.2 122.691 123.728C122.434 124.775 122.275 125.844 122.216 126.922C122.156 127.997 122.194 129.084 122.372 130.162C122.553 131.234 122.878 132.312 123.459 133.281C123.575 133.469 123.7 133.653 123.838 133.828C123.372 133.659 122.903 133.503 122.434 133.375C122.416 133.344 122.394 133.309 122.372 133.278C122.284 133.169 122.175 133.081 122.05 133.022C121.991 132.991 121.925 132.969 121.859 132.953L121.753 132.931C121.341 132.85 120.963 132.681 120.628 132.434C120.294 132.184 120.003 131.859 119.763 131.491C119.284 130.747 118.988 129.853 118.8 128.937C118.613 128.022 118.528 127.072 118.516 126.122C118.503 125.169 118.559 124.212 118.681 123.266C118.803 122.325 118.984 121.375 119.25 120.478C119.513 119.606 119.959 118.819 120.684 118.422C121.041 118.216 121.459 118.097 121.913 118.025L121.819 118.228L122.025 118.322C121.9 118.341 121.775 118.372 121.653 118.412C121.325 118.528 121.028 118.725 120.769 118.959C120.247 119.444 119.938 120.103 119.741 120.756C119.641 121.084 119.563 121.412 119.5 121.741C119.434 122.066 119.372 122.391 119.313 122.719C119.197 123.375 119.119 124.037 119.05 124.703C119 125.372 118.984 126.044 119.006 126.719C119.047 127.391 119.125 128.069 119.281 128.728C119.438 129.387 119.678 130.028 119.981 130.631C120.3 131.225 120.7 131.772 121.166 132.244C120.828 131.672 120.525 131.094 120.309 130.487C120.094 129.875 119.944 129.25 119.841 128.619C119.659 127.347 119.666 126.056 119.778 124.766C119.831 124.116 119.906 123.472 119.994 122.822C120.081 122.175 120.166 121.519 120.291 120.9C120.344 120.662 120.409 120.425 120.488 120.197C120.925 119.469 121.597 118.884 122.494 118.534L124.828 119.597C124.45 119.906 124.147 120.281 123.894 120.669ZM124.413 134.737C124.538 134.778 124.663 134.831 124.794 134.884C124.884 134.922 124.978 134.959 125.072 134.997C125.372 135.197 125.688 135.369 126.022 135.5C126.156 135.55 126.294 135.597 126.431 135.637L126.481 135.653C126.45 135.791 126.428 135.912 126.409 136.034L122.5 134.419L122.503 134.35L122.538 134.053C123.156 134.3 123.788 134.516 124.413 134.737ZM123.266 144.85C123.25 144.6 123.231 144.341 123.194 144.081L123.097 143.356C123.034 142.878 122.975 142.394 122.919 141.912C122.7 139.984 122.516 138.044 122.466 136.122C122.456 135.881 122.459 135.644 122.459 135.406C122.463 135.272 122.466 135.134 122.469 135L122.944 135.197C123.116 137.45 123.378 139.691 123.547 141.931C123.625 143.072 123.7 144.209 123.709 145.347C123.728 146.484 123.703 147.622 123.591 148.747C123.491 149.875 123.303 150.987 123.013 152.078C122.734 153.172 122.35 154.241 121.9 155.278C121.547 156.081 121.144 156.862 120.694 157.619C120.281 158.141 119.85 158.647 119.394 159.122C118.659 159.869 117.872 160.562 117.006 161.137C116.147 161.725 115.231 162.197 114.241 162.531C114.238 162.531 114.231 162.534 114.228 162.537C115.1 162.106 115.928 161.587 116.706 160.997C117.506 160.378 118.25 159.678 118.906 158.909C120.228 157.372 121.222 155.581 121.916 153.7C122.609 151.816 123.031 149.844 123.203 147.856C123.291 146.859 123.319 145.862 123.266 144.85ZM126.959 144.062C127.163 145.062 127.225 146.084 127.222 147.116C127.219 148.144 127.138 149.172 126.988 150.191C126.684 152.228 126.091 154.228 125.166 156.059C124.244 157.891 122.972 159.547 121.4 160.866C120.622 161.531 119.763 162.1 118.866 162.6C117.966 163.094 117.016 163.5 116.041 163.831C114.084 164.497 112.022 164.837 109.953 164.972C109.584 164.994 109.219 165.012 108.85 165.022C109.3 164.981 109.75 164.909 110.188 164.806C110.616 164.784 111.044 164.744 111.472 164.687C111.8 164.637 112.128 164.587 112.456 164.528L113.431 164.309C113.753 164.225 114.072 164.125 114.394 164.034L115.341 163.709L116.263 163.328C116.566 163.184 116.869 163.047 117.166 162.9L118.044 162.419C118.328 162.247 118.609 162.069 118.888 161.887C119.994 161.15 121.016 160.284 121.881 159.284C120.813 160.059 119.725 160.772 118.591 161.403C118.303 161.55 118.019 161.7 117.734 161.856L116.866 162.278C116.569 162.406 116.275 162.541 115.981 162.672L115.081 163.028L114.172 163.356C114.009 163.406 113.847 163.456 113.684 163.506C113.953 163.409 114.222 163.312 114.491 163.219C115.516 162.856 116.513 162.341 117.403 161.706C118.291 161.066 119.103 160.328 119.813 159.509C120.663 158.531 121.394 157.456 121.997 156.319C122.009 156.294 122.025 156.266 122.041 156.237C122.059 156.2 122.078 156.162 122.1 156.125C122.206 155.925 122.316 155.725 122.419 155.519C122.941 154.478 123.353 153.381 123.681 152.259C124 151.137 124.203 149.978 124.316 148.816C124.528 146.491 124.394 144.162 124.113 141.872C123.838 139.628 123.419 137.412 122.959 135.203L126.344 136.6C126.309 136.978 126.3 137.353 126.297 137.725C126.297 138.8 126.378 139.859 126.494 140.916C126.609 141.969 126.766 143.019 126.959 144.062ZM100.75 174.697L100.288 174.975L100.181 174.325L101.691 164.784C101.863 164.834 102.034 164.887 102.206 164.934L100.75 174.697ZM102.253 153.753C102.347 152.428 102.416 151.112 102.559 149.775C102.778 148.447 103.166 147.175 103.578 145.912C103.441 146.562 103.294 147.209 103.169 147.862C103.041 148.512 102.916 149.162 102.841 149.812L102.619 153.778C102.531 155.103 102.441 156.428 102.328 157.75C102.219 159.072 102.091 160.394 101.934 161.716C101.947 160.387 101.984 159.059 102.044 157.731C102.097 156.406 102.172 155.078 102.253 153.753ZM102.497 141.428C102.425 141.466 102.375 141.531 102.356 141.603C102.322 141.75 102.403 141.884 102.516 141.931C102.625 141.981 102.781 141.956 102.866 141.831C102.894 141.791 102.909 141.737 102.913 141.681C102.934 141.75 102.938 141.828 102.916 141.903C102.888 141.997 102.816 142.084 102.719 142.128C102.625 142.175 102.506 142.175 102.406 142.131C102.306 142.087 102.228 141.997 102.2 141.894C102.169 141.794 102.188 141.681 102.238 141.6C102.3 141.5 102.397 141.447 102.497 141.428ZM103.575 142.019C103.684 142.069 103.841 142.044 103.928 141.919C103.969 141.859 103.984 141.775 103.963 141.694C103.944 141.612 103.881 141.544 103.806 141.509C103.963 141.575 104.066 141.766 104.009 141.956C103.981 142.05 103.913 142.137 103.816 142.184C103.719 142.228 103.6 142.228 103.5 142.184C103.4 142.141 103.322 142.05 103.294 141.947C103.263 141.847 103.281 141.734 103.334 141.653C103.438 141.481 103.653 141.434 103.803 141.509C103.728 141.475 103.634 141.475 103.559 141.512C103.488 141.55 103.434 141.619 103.419 141.691C103.381 141.837 103.463 141.972 103.575 142.019ZM103.959 140.362C103.959 140.387 103.959 140.412 103.953 140.437C103.953 140.459 103.953 140.469 103.95 140.478C104.109 140.522 104.225 140.659 104.225 140.828C104.225 141.028 104.059 141.194 103.85 141.194C103.644 141.194 103.475 141.028 103.475 140.828C103.475 140.728 103.519 140.644 103.584 140.578C103.588 140.569 103.578 140.697 103.578 140.697L103.834 140.712C103.831 140.737 103.831 140.759 103.831 140.781C103.831 140.759 103.834 140.737 103.838 140.712C103.853 140.716 103.878 140.316 103.878 140.316C103.881 140.281 103.888 140.247 103.891 140.212C103.931 140.231 103.969 140.272 103.963 140.319C103.963 140.331 103.959 140.341 103.956 140.35C103.959 140.353 103.959 140.359 103.959 140.362ZM104.581 127.825C104.6 127.706 104.644 127.509 104.728 127.178C104.497 127.128 104.313 127.091 104.2 127.069L104.534 125.891C104.759 125.103 104.981 124.316 105.194 123.525C105.203 123.497 105.209 123.466 105.219 123.437C105.516 122.591 105.772 121.734 106.019 120.875C106.178 120.294 106.334 119.706 106.475 119.119C106.606 119.144 106.738 119.169 106.872 119.197C106.925 118.997 106.978 118.797 107.034 118.594C108.369 113.687 110.244 106.847 112.6 98.2686C112.888 97.2218 113.175 96.178 113.459 95.1374C113.522 94.9155 113.581 94.6968 113.644 94.4749C116.741 83.2186 119.663 72.6218 120.503 69.5843C120.538 69.453 120.572 69.3343 120.6 69.2343C120.653 69.0374 120.694 68.8968 120.716 68.8124C120.731 68.7561 120.741 68.7249 120.741 68.7186L120.747 68.6999L120.966 67.9218C120.963 68.1686 120.984 68.4155 121.047 68.6468L121.016 68.7499L121.006 68.7936C121.003 68.7999 121 68.8155 120.994 68.8405C120.975 68.9093 120.931 69.0593 120.872 69.2811C120.85 69.3593 120.825 69.4468 120.797 69.5436C120.006 72.4155 117.066 83.0686 113.922 94.503C113.859 94.7218 113.8 94.9405 113.741 95.1593C111.469 103.416 109.113 112.009 107.391 118.319C107.291 118.625 107.194 118.931 107.1 119.241C106.938 119.781 106.788 120.325 106.644 120.872C106.488 121.481 106.338 122.091 106.203 122.703C106.178 122.812 106.156 122.925 106.131 123.037L106.059 123.291C105.975 123.578 105.894 123.866 105.813 124.153C105.666 124.669 105.519 125.181 105.378 125.7L104.953 127.228L104.709 128.112C104.691 128.287 104.678 128.441 104.666 128.594C104.591 129.494 104.522 130.394 104.456 131.294L104.219 134.456L104.106 136.147L104.022 136.141L103.884 136.131L103.641 139.762C103.322 139.722 102.994 139.675 102.681 139.625C102.684 139.572 102.688 139.519 102.694 139.466C102.769 138.822 102.844 138.181 102.919 137.537L103.253 134.437L103.569 131.331C103.663 130.356 103.766 129.384 103.853 128.409C104.072 128.459 104.294 128.509 104.513 128.559L104.569 127.875C104.581 127.862 104.581 127.844 104.584 127.828L104.581 127.825ZM102.553 140.597C102.553 140.609 102.553 140.625 102.55 140.637C102.553 140.625 102.556 140.609 102.556 140.597L102.619 140.6C102.619 140.594 102.631 140.381 102.656 140.031C102.666 140.031 102.675 140.034 102.684 140.037C102.756 140.037 102.828 140.1 102.816 140.191C102.806 140.237 102.797 140.281 102.784 140.325C102.944 140.369 103.063 140.5 103.063 140.659C103.063 140.853 102.888 141.009 102.675 141.009C102.463 141.009 102.294 140.853 102.294 140.659C102.294 140.591 102.316 140.528 102.353 140.475C102.347 140.544 102.347 140.581 102.347 140.584L102.553 140.597ZM100.566 158.137L100.309 159.787L100.188 160.616L100.131 161.028L100.109 161.234C100.106 161.303 100.088 161.375 100.106 161.441C100.081 161.375 100.094 161.303 100.091 161.234L100.097 161.025C100.1 160.884 100.109 160.747 100.119 160.606L100.184 159.772C100.234 159.219 100.288 158.662 100.347 158.109C100.466 157 100.597 155.894 100.741 154.787C100.878 153.684 101.034 152.581 101.188 151.478C101.35 150.378 101.503 149.281 101.678 148.184C101.672 147.047 101.675 145.909 101.688 144.772C101.691 144.203 101.7 143.631 101.713 143.059C101.719 142.709 101.725 142.359 101.734 142.012C101.7 142.028 101.666 142.044 101.631 142.05C101.525 142.069 101.413 142.041 101.325 141.969C101.241 141.9 101.191 141.794 101.188 141.687C101.184 141.581 101.231 141.478 101.303 141.412C101.375 141.344 101.469 141.312 101.559 141.312C101.494 141.337 101.438 141.381 101.406 141.437C101.334 141.572 101.381 141.719 101.475 141.794C101.55 141.859 101.669 141.881 101.772 141.834C101.784 141.828 101.8 141.819 101.813 141.809C101.822 141.803 101.831 141.797 101.841 141.791C101.884 141.753 101.916 141.7 101.928 141.641C101.938 141.722 101.925 141.806 101.875 141.881C101.853 141.919 101.822 141.953 101.784 141.978C101.803 142.337 101.822 142.697 101.838 143.056C101.866 143.628 101.891 144.197 101.909 144.769C101.95 145.909 101.984 147.053 102.009 148.194C102.006 148.219 101.55 151.528 101.55 151.528L101.066 154.834L100.566 158.137ZM101.888 140.509C101.888 140.719 101.747 140.887 101.575 140.887C101.403 140.887 101.266 140.719 101.266 140.509C101.266 140.356 101.338 140.228 101.444 140.166C101.438 140.344 101.431 140.444 101.431 140.45L101.669 140.456C101.666 140.516 101.663 140.572 101.659 140.628C101.666 140.572 101.672 140.516 101.678 140.456L101.706 140.459C101.706 140.453 101.713 140.297 101.722 140.031C101.725 140.022 101.725 140.012 101.725 140C101.769 140.041 101.794 140.103 101.75 140.169C101.747 140.172 101.744 140.181 101.741 140.184C101.828 140.253 101.888 140.372 101.888 140.509ZM99.3438 162.469C98.8719 162.356 98.4 162.237 97.9375 162.084C97.4719 161.941 97.0188 161.766 96.5688 161.578C96.1282 161.378 95.6907 161.172 95.2719 160.922C94.4282 160.434 93.6375 159.853 92.8938 159.216C91.4032 157.937 90.125 156.406 89.1469 154.681C89.5657 155.581 90.0875 156.431 90.6813 157.228C91.2782 158.025 91.9375 158.781 92.6657 159.466C93.3907 160.156 94.1844 160.775 95.0344 161.316C95.4594 161.584 95.9032 161.825 96.3625 162.044C96.8219 162.25 97.2844 162.447 97.7594 162.609C98.1844 162.759 98.6125 162.887 99.0469 163C98.7282 162.937 98.4125 162.866 98.1 162.787C98.0344 162.753 97.9657 162.722 97.9 162.684L97.8782 162.728C97.5157 162.634 97.1594 162.531 96.8063 162.416C94.9938 161.816 93.2907 160.884 91.9032 159.587C90.5125 158.3 89.4532 156.672 88.7719 154.894C88.0844 153.119 87.75 151.209 87.675 149.294C87.6094 147.381 87.7844 145.447 88.2407 143.591C88.3563 143.131 88.4875 142.672 88.6532 142.234C88.7344 142.009 88.8219 141.803 88.9219 141.584C89.0188 141.362 89.1188 141.144 89.225 140.925C89.6344 140.05 90.0782 139.187 90.5407 138.334L91.9532 135.766C92.4219 134.903 92.8813 134.019 93.2157 133.059C93.3844 132.581 93.5125 132.081 93.5844 131.569C93.6219 131.312 93.6407 131.056 93.6438 130.794V130.6C93.6438 130.553 93.6438 130.572 93.6469 130.562C93.6532 130.534 93.6657 130.519 93.6844 130.512C93.6907 130.512 93.6875 130.512 93.7032 130.506L93.8 130.487C93.8625 130.475 93.9282 130.462 93.9907 130.447C94.1157 130.416 94.2438 130.381 94.3688 130.344C94.6157 130.266 94.8594 130.172 95.0938 130.062C95.5657 129.847 96.0063 129.575 96.4125 129.262C97.225 128.634 97.8969 127.856 98.45 127.016C99.0063 126.178 99.45 125.272 99.8094 124.344C100.169 123.412 100.453 122.466 100.675 121.494C100.891 120.525 101.034 119.531 101.038 118.525C101.041 118.019 101.006 117.512 100.906 117.006C100.809 116.503 100.644 115.997 100.366 115.541C100.091 115.081 99.6782 114.684 99.1875 114.447C98.8063 114.259 98.3938 114.166 97.9844 114.137C98.0438 114.066 98.1 113.991 98.1563 113.916C98.3094 113.709 98.4469 113.491 98.5688 113.269C98.8157 112.822 99.0125 112.353 99.1532 111.866C99.4469 110.894 99.5313 109.872 99.4688 108.872C99.4532 108.622 99.4313 108.372 99.3938 108.125L99.35 107.769C99.3375 107.653 99.3282 107.537 99.325 107.419C99.3032 106.953 99.3344 106.478 99.3969 106.009C99.5282 105.069 99.7875 104.141 100.138 103.25C100.844 101.472 101.919 99.8343 103.294 98.503C104.666 97.1749 106.353 96.178 108.184 95.6311C109.266 95.303 110.384 95.1343 111.513 95.0905C108.409 105.653 105.394 115.934 104.706 118.519C104.644 118.744 104.816 118.959 105.047 118.959L111.878 95.0811L112.069 94.4093L119.338 69.0061L119.366 68.9061C119.391 68.8218 119.422 68.7405 119.463 68.6624C119.466 68.6561 119.469 68.6436 119.475 68.6343L119.497 68.5936L119.553 68.4874L119.584 68.4343C119.584 68.353 119.588 68.2686 119.591 68.1874C119.638 68.203 119.7 68.1936 119.731 68.1405C119.806 68.0186 119.872 67.8874 119.931 67.7593C119.931 67.7686 119.931 67.778 119.931 67.7874L122.047 63.8655L122.288 63.9936L122.181 64.1936L122.284 64.2249L122.141 64.7436C121.897 65.1186 121.688 65.5218 121.519 65.9405L121.822 64.8561L120 68.2374C120.003 68.2811 120 68.3218 120.003 68.3655C120 68.4311 120 68.4999 120.003 68.5655C119.984 68.4655 119.981 68.3686 119.981 68.2686L119.947 68.3374C119.95 68.4124 119.956 68.4874 119.966 68.5593L119.838 68.5374L119.75 68.6999L119.716 68.7624C119.684 68.8218 119.659 68.8843 119.641 68.9499C119.634 68.9686 119.631 68.9749 119.631 68.9811L119.609 69.053L112.356 94.4124L112.163 95.0811L105.653 117.841C105.569 118.056 105.491 118.275 105.419 118.491C105.363 118.65 105.313 118.809 105.263 118.966C105.188 119.203 105.116 119.444 105.047 119.681C104.934 120.081 104.825 120.484 104.731 120.887C104.681 121.109 104.631 121.331 104.591 121.553C104.588 121.572 104.584 121.587 104.581 121.603C104.525 121.794 104.469 121.984 104.413 122.172C104.297 122.566 104.178 122.959 104.063 123.353L103.697 124.597L103.481 125.35C103.422 125.275 103.353 125.206 103.278 125.144C102.444 124.45 100.769 124.606 99.9219 127.369C98.8844 130.753 98.2469 134.237 97.6938 135.281C97.2094 136.2 96.1125 136.694 95.3907 135.894C95.8282 135.725 96.0907 135.253 95.9344 134.812C95.7407 134.284 95.0157 134.172 94.6063 134.503C94.1282 134.891 94.2282 135.7 94.5407 136.175C95.5188 137.659 97.7625 136.775 98.4969 135.616C100.038 133.175 100.722 127.984 101.378 125.644C101.944 125.184 102.722 124.931 103.228 125.319C103.278 125.356 103.325 125.397 103.369 125.447C103.316 125.422 103.263 125.4 103.209 125.387C103.028 125.347 102.834 125.378 102.666 125.509C102.234 125.853 102.456 126.478 102.847 126.647C102.909 126.672 102.978 126.687 103.05 126.687C103.066 126.691 103.081 126.691 103.097 126.694L102.956 127.191L102.684 128.144L102.628 128.337C102.5 129.378 102.403 130.4 102.306 131.422C102.213 132.441 102.119 133.462 102.041 134.487L101.944 135.872L101.706 135.853C101.591 137.181 101.516 138.528 101.475 139.419C101.222 139.447 101.022 139.7 101.047 139.975L101.172 144.175C101.375 146.456 101.309 148.887 100.959 151.15L99.5563 161.616C99.5032 161.959 99.5875 162.287 99.7688 162.553C99.6282 162.525 99.4844 162.497 99.3438 162.469ZM122.178 64.6843L122.263 64.3374L122.372 64.3655L122.959 63.2686L123.203 63.3999L123.125 63.5405C122.863 63.7936 122.619 64.0718 122.397 64.3718C122.353 64.428 122.313 64.4905 122.272 64.5499C122.241 64.5968 122.206 64.6374 122.178 64.6843ZM119.663 67.3311C119.7 66.7655 119.797 66.1999 119.981 65.6624C120.55 63.9843 121.766 62.9468 123.278 62.0936C123.425 62.1124 123.575 62.1218 123.725 62.1186C123.884 62.1124 124.044 62.0874 124.2 62.0593C124.334 61.9999 124.775 61.7749 124.897 61.7343C125.041 61.6874 125.397 61.553 125.669 61.5405C125.447 61.803 125.238 62.0811 125.019 62.3405C124.953 62.3905 124.9 62.4374 124.866 62.4686C124.441 62.8843 123.988 63.2749 123.594 63.7186C123.578 63.7311 123.575 63.7499 123.575 63.7655C123.269 64.0999 122.994 64.4624 122.753 64.8499C122.728 64.828 122.684 64.8218 122.663 64.8593C122.509 65.1249 122.356 65.403 122.213 65.6936C121.766 66.5811 121.413 67.5655 121.513 68.5218C121.519 68.5686 121.522 68.6155 121.531 68.6624C121.525 68.7218 121.525 68.7811 121.522 68.8405L121.5 68.8374C121.494 68.8249 121.488 68.8093 121.481 68.7968C121.456 68.3249 121.463 67.8593 121.513 67.3968C121.513 67.3811 121.516 67.3686 121.519 67.3561C121.578 67.0468 121.653 66.7436 121.744 66.4468C121.906 65.9061 122.128 65.3905 122.409 64.8905C122.722 64.3343 123.116 63.7999 123.597 63.2749C123.838 63.053 124.091 62.8436 124.356 62.6561L124.725 62.3968L124.288 62.353C123.919 62.3155 123.544 62.3499 123.197 62.4686C122.844 62.5843 122.522 62.7749 122.234 62.9936C121.656 63.4374 121.188 64.0093 120.819 64.6374C120.453 65.2655 120.184 65.9561 120.05 66.6718C120.022 66.8124 120.003 66.9499 119.984 67.0905C119.85 67.3218 119.722 67.5593 119.619 67.803C119.634 67.6218 119.653 67.4561 119.663 67.3311ZM119.694 64.0936C119.666 64.0874 119.638 64.0936 119.616 64.1061L119.747 63.5155L120.553 63.7218C120.434 63.8905 120.322 64.0655 120.219 64.2468C120.041 64.1811 119.869 64.1249 119.694 64.0936ZM119.413 64.1718L119.341 64.4874L119.328 64.5468L118.975 64.5124L119 64.3999L119.288 63.0593L119.638 63.1718L119.572 63.4686L119.413 64.1718ZM117.875 62.7155C117.838 62.7624 117.9 62.8311 117.947 62.7843C118.066 62.6686 118.247 62.6499 118.406 62.7093C118.572 62.7718 118.659 62.953 118.7 63.1186C118.759 63.3749 118.663 63.628 118.672 63.8811C118.609 64.028 118.547 64.1186 118.416 64.178C118.303 64.2311 118.175 64.2374 118.059 64.1905L117.781 64.078C117.309 63.8905 117.078 63.3405 117.259 62.853C117.647 61.8124 119.194 62.3061 118.994 63.0061C118.956 62.8968 118.9 62.7999 118.828 62.7218C118.566 62.4374 118.128 62.3999 117.875 62.7155ZM118.222 64.6968C118.081 64.678 117.941 64.6624 117.806 64.6343C117.7 64.5936 117.591 64.5593 117.484 64.5186C117.466 64.5093 117.444 64.4968 117.425 64.4843C117.188 64.328 117.025 64.0593 117.006 63.7749C117.284 64.3093 117.913 64.6343 118.4 64.5374C118.347 64.6093 118.291 64.6686 118.222 64.6968ZM122.497 60.978C122.272 60.7311 122.122 60.453 122.038 60.0874C121.959 59.7436 121.913 59.3968 121.916 59.0468C121.919 58.4936 122.041 57.9374 122.338 57.4655C122.809 56.7093 123.694 56.2499 124.584 56.3686C122.688 56.4811 121.622 59.903 123.381 60.7186C122.944 59.7124 122.488 59.0436 123.188 57.6718C123.334 57.4655 123.534 57.3093 123.759 57.1811C123.506 57.5624 123.363 58.0124 123.375 58.4624C123.381 59.1436 123.694 59.8124 124.216 60.2061C123.803 59.7061 123.619 59.0718 123.659 58.4718C123.684 58.1686 123.756 57.878 123.903 57.6186C124.044 57.3593 124.222 57.1155 124.459 56.9405C124.484 56.9218 124.506 56.9061 124.528 56.8905C123.944 57.428 123.9 58.3405 124.034 59.0718C124.106 59.4624 124.225 59.8843 124.434 60.2249C124.513 60.3499 125.15 61.1624 125.325 61.028C124.859 61.3843 124.169 61.4093 123.684 61.0843C123.641 61.0561 123.588 61.0249 123.541 61.0436C123.45 61.0811 123.503 61.2124 123.497 61.3093C123.488 61.4311 123.353 61.5124 123.231 61.503C123.109 61.4936 123 61.4218 122.903 61.3468C122.75 61.2249 122.613 61.1061 122.497 60.978ZM126.263 57.1468C126.544 57.428 126.734 57.7874 126.919 58.1405C126.759 57.9843 126.516 57.9436 126.297 57.9811C125.634 58.0905 125.425 58.6843 125.509 59.3124C125.559 59.6686 125.784 60.1499 126.128 60.2999C126.341 60.3936 126.572 60.4218 126.788 60.3811C126.819 60.3718 126.85 60.3561 126.881 60.3436C126.906 60.3343 126.938 60.3249 126.969 60.3155C126.966 60.3218 126.963 60.328 126.959 60.3343C126.903 60.3561 126.847 60.3718 126.788 60.3811C126.769 60.3905 126.75 60.3936 126.731 60.3999L126.938 60.378C126.903 60.453 126.863 60.5218 126.819 60.5905C126.653 60.678 126.481 60.753 126.434 60.7624C126.159 60.8249 125.847 60.8061 125.575 60.7186C125.506 60.6968 125.441 60.6718 125.375 60.6405C125.344 60.6061 125.313 60.5718 125.288 60.5374C125.253 60.4905 125.2 60.4874 125.163 60.5093C124.972 60.2749 124.819 60.028 124.769 59.9436C124.497 59.4874 124.303 58.9561 124.269 58.4186C124.194 57.2843 125.216 56.0999 126.263 57.1468ZM127.106 58.6561C126.756 58.5405 126.366 58.6093 126.247 59.003C126.153 59.328 126.297 59.6749 126.606 59.8186C126.725 59.8718 126.863 59.8843 126.988 59.8499C126.988 59.903 126.991 59.953 126.994 60.0061C126.856 60.028 126.731 60.0405 126.609 60.0311C126.6 60.0311 126.594 60.028 126.584 60.028C126.063 59.753 125.769 59.203 126.091 58.553C126.166 58.3999 126.569 58.278 126.725 58.2968C126.781 58.3061 126.831 58.3311 126.878 58.3655C126.972 58.4405 127.041 58.5624 127.106 58.6561ZM126.947 59.5843C126.628 59.5811 126.413 59.178 126.584 58.903C126.681 58.7499 126.819 58.728 126.956 58.778C127.325 58.9186 127.656 59.5936 126.947 59.5843ZM127.944 65.4124C128.019 65.228 128.075 65.028 128.122 64.8343C128.159 64.7186 128.153 64.7624 128.172 64.6593C128.206 64.5311 128.288 64.428 128.4 64.3655C128.778 64.153 129.622 64.3311 129.341 65.303L129.25 65.6186C129.103 66.1343 128.594 66.3811 128.088 66.2686C127.966 66.2405 127.847 66.1686 127.797 66.053C128.266 66.2061 128.797 66.0968 129.134 65.7186C129.172 65.6749 129.122 65.5968 129.072 65.6343C128.722 65.878 128.319 65.9843 127.931 65.7593C127.872 65.7249 127.841 65.6936 127.825 65.6593C127.866 65.5843 127.906 65.503 127.934 65.4093L127.944 65.4124ZM128.853 63.8155L129.034 63.8374C129.35 63.9343 129.519 64.2686 129.541 64.6218C129.253 64.0436 128.894 63.8655 128.384 64.0093C128.488 63.8343 128.628 63.7468 128.853 63.8155ZM119.272 67.8499C119.013 67.7655 118.716 67.6499 118.441 67.6436C118.419 67.6405 118.4 67.6499 118.384 67.6593L118.525 67.0343L119.306 67.1936C119.3 67.4374 119.313 67.6749 119.344 67.903C119.328 67.8811 119.306 67.8624 119.272 67.8499ZM118.188 67.7061L118.147 67.878C118.131 67.8624 118.109 67.8499 118.081 67.8468C117.988 67.8249 117.897 67.8155 117.8 67.8155L117.903 67.3311L117.938 67.1843L118.072 66.5624L118.097 66.5686L118.328 66.6436L118.419 66.6749L118.347 66.9968L118.188 67.7061ZM116.65 65.928C116.619 65.953 116.634 66.0061 116.678 65.9968C117.206 65.8655 117.584 66.3155 117.616 66.8124C117.625 66.9936 117.6 67.1718 117.566 67.353L117.522 67.5343C117.491 67.6624 117.413 67.7686 117.306 67.8374C117.197 67.903 117.069 67.9249 116.947 67.8936L116.678 67.8218C116.491 67.7749 116.344 67.678 116.238 67.5593C116.066 67.1624 116.003 66.7499 116.078 66.3436C116.247 65.8624 116.656 65.4905 117.209 65.6343L117.478 65.703C117.725 65.7655 117.875 66.0218 117.825 66.2749C117.816 66.2593 117.806 66.2405 117.797 66.2218C117.575 65.8249 117.028 65.6405 116.65 65.928ZM116.878 68.4061L116.347 68.2686C115.984 68.178 115.853 67.8843 115.822 67.5468C115.969 67.828 116.216 68.0561 116.597 68.153L116.866 68.2249C116.919 68.2374 116.972 68.2468 117.025 68.2499C117.134 68.253 117.241 68.2343 117.344 68.1936C117.253 68.3624 117.063 68.4561 116.878 68.4061ZM127.463 66.3093C127.581 66.5061 128.063 66.7468 128.278 66.7561C129.225 66.7999 129.634 65.9405 129.841 65.0093C130.163 63.8874 129.075 62.7749 128.047 63.978L128.063 63.9155L127.344 63.8343L127.294 64.0093L126.841 63.9155C126.85 63.8843 126.85 63.853 126.869 63.828C127.541 62.8874 128.122 62.0874 127.831 60.5249C127.803 60.3749 127.603 60.0155 127.494 59.7624C127.478 59.6999 127.453 59.6374 127.428 59.5749C127.416 59.5468 127.397 59.5311 127.378 59.5218C127.456 59.4593 127.513 59.3686 127.541 59.2686C127.572 59.1468 127.566 59.0155 127.528 58.8936C127.491 58.778 127.422 58.6749 127.328 58.5968C127.369 58.1843 127.109 57.6999 126.881 57.3905C126.656 57.0843 126.369 56.8249 126.028 56.6624C125.856 56.5093 125.622 56.3874 125.231 56.2905C125.025 56.2405 124.716 56.2593 124.525 56.1999C122.888 55.6718 120.328 58.5061 121.972 60.978C122.034 61.0686 122.103 61.153 122.181 61.2343C122.3 61.3624 122.431 61.4811 122.566 61.5811C122.559 61.5655 122.553 61.5468 122.544 61.5311C122.553 61.5343 122.559 61.5436 122.566 61.5468C122.644 61.5968 122.422 61.8249 122.506 61.8624C122.513 61.8999 122.513 61.9374 122.513 61.9749C122.003 62.1999 121.519 62.6374 121.159 62.9936C121.003 63.1499 120.863 63.3155 120.731 63.4843L119.819 63.1968L119.853 63.0499L119.344 62.8874C119.363 62.0436 117.984 61.5468 117.259 62.2468L117.256 62.2311C117.253 62.2343 117.25 62.2405 117.247 62.2468C117.238 62.2436 117.228 62.2436 117.222 62.253C116.966 62.5093 116.731 62.9124 116.681 63.303C116.616 63.5343 116.597 63.7936 116.691 64.0999C116.906 64.8343 117.503 64.8405 117.803 65.0093C118.191 65.1624 118.625 64.9561 118.772 64.5593L118.784 64.5249L118.753 64.6749L119.469 64.7436L119.519 64.5311L120.009 64.6561C119.991 64.6968 119.969 64.7343 119.95 64.778C119.597 65.453 119.388 66.1624 119.325 66.8499L118.6 66.6999L118.634 66.5499L118.138 66.3936C118.25 65.9374 117.988 65.4811 117.559 65.3718C117.422 65.3561 116.916 65.0905 116.341 65.4499C115.656 65.8749 115.378 66.7999 115.553 67.5593C115.663 68.0405 115.919 68.4436 116.4 68.6061C116.906 68.7718 117.525 68.8436 117.7 68.1936L118.253 68.2468L118.291 68.078L119.416 68.3061C119.428 68.3624 119.444 68.4155 119.459 68.4686L119.228 68.428C119.078 68.3999 118.938 68.4999 118.909 68.6499C118.884 68.7968 118.981 68.9405 119.131 68.9686C118.575 71.0843 115.119 82.8218 111.709 94.4155C110.456 94.4499 109.203 94.6311 107.994 94.9999C106.069 95.5874 104.291 96.6468 102.856 98.053C101.419 99.453 100.306 101.169 99.5782 103.028C99.2157 103.959 98.9469 104.931 98.8157 105.928C98.7469 106.428 98.7188 106.934 98.7438 107.447C98.7469 107.575 98.7594 107.703 98.7719 107.831L98.8219 108.2C98.8563 108.437 98.8782 108.672 98.8938 108.909C98.9563 109.853 98.8813 110.803 98.6157 111.706C98.4875 112.156 98.3063 112.591 98.0844 113C97.9719 113.203 97.8469 113.403 97.7125 113.591C97.5782 113.772 97.4219 113.962 97.2782 114.1L97.6407 114.512C97.6407 114.509 97.6407 114.672 97.6407 114.672C98.0969 114.675 98.5469 114.756 98.9344 114.953C99.325 115.147 99.6407 115.459 99.8657 115.841C100.094 116.222 100.234 116.662 100.316 117.119C100.4 117.572 100.428 118.044 100.419 118.516C100.403 119.466 100.256 120.416 100.038 121.35C99.8188 122.284 99.5344 123.209 99.1844 124.1C98.8313 124.987 98.4 125.847 97.8719 126.631C97.3469 127.416 96.7157 128.131 95.975 128.694C95.6063 128.975 95.2094 129.212 94.7938 129.403C94.5844 129.497 94.3688 129.575 94.15 129.644C94.0438 129.678 93.9313 129.706 93.8219 129.731C93.7657 129.747 93.7094 129.753 93.6563 129.766L93.5719 129.781C93.525 129.791 93.4657 129.806 93.4125 129.828C93.2032 129.909 93.0313 130.084 92.9532 130.3C92.9344 130.353 92.9188 130.409 92.9125 130.466C92.9032 130.516 92.9063 130.594 92.9032 130.609V130.781C92.8969 131.009 92.8782 131.237 92.8438 131.466C92.775 131.919 92.6594 132.369 92.5 132.809C92.1844 133.694 91.7375 134.547 91.2719 135.394L89.8375 137.95C89.3657 138.812 88.9063 139.684 88.4813 140.572C88.375 140.794 88.2719 141.019 88.1688 141.241C88.0657 141.466 87.9594 141.712 87.875 141.947C87.6969 142.425 87.5594 142.906 87.4344 143.394C86.9563 145.337 86.7719 147.334 86.8375 149.328C86.9125 151.319 87.2594 153.319 87.9844 155.2C88.7032 157.081 89.8344 158.831 91.325 160.212C93.5125 162.259 96.1719 163.312 99.075 163.884C99.6875 164.162 100.303 164.334 100.941 164.547L99.6219 174.316L99.8782 175.859L101.244 175.041L102.738 165.069C105.119 165.656 106.947 165.319 109.997 165.687C112.103 165.944 114.244 165.231 116.281 164.556C117.3 164.219 118.294 163.8 119.244 163.294C120.188 162.778 121.094 162.184 121.922 161.487C123.591 160.109 124.95 158.369 125.931 156.45C126.922 154.531 127.553 152.447 127.884 150.328C128.044 149.266 128.125 148.194 128.131 147.122C128.131 146.584 128.116 146.047 128.072 145.509C128.05 145.237 128.022 144.969 127.988 144.7C127.969 144.562 127.947 144.428 127.925 144.294L127.853 143.897C127.484 141.862 127.197 139.784 127.172 137.731C127.172 137.219 127.188 136.706 127.256 136.219C127.272 136.097 127.294 135.975 127.319 135.862L127.344 135.747C127.356 135.681 127.359 135.612 127.353 135.547C127.344 135.416 127.3 135.284 127.225 135.175C127.156 135.062 127.053 134.972 126.938 134.909C126.881 134.878 126.806 134.853 126.763 134.841L126.675 134.816C126.559 134.784 126.444 134.744 126.334 134.703C125.431 134.369 124.681 133.694 124.169 132.853C123.65 132.009 123.341 131.031 123.163 130.028C122.988 129.025 122.941 127.994 122.988 126.962C123.038 125.934 123.181 124.906 123.419 123.903C123.656 122.903 123.972 121.906 124.506 121.062C124.775 120.641 125.1 120.262 125.497 119.997C125.694 119.862 125.906 119.759 126.125 119.697L126.216 119.672C126.253 119.659 126.297 119.647 126.334 119.631C126.416 119.603 126.491 119.566 126.559 119.522C126.7 119.434 126.825 119.325 126.922 119.184C127.022 119.044 127.1 118.872 127.106 118.675C127.109 118.578 127.097 118.475 127.063 118.384L126.994 118.2C126.916 117.975 126.866 117.737 126.844 117.491C126.794 117.003 126.834 116.497 126.916 115.994C127.084 114.987 127.409 113.997 127.769 113.019C128.128 112.041 128.541 111.078 128.913 110.087C129.003 109.837 129.094 109.584 129.172 109.325C129.209 109.197 129.247 109.066 129.278 108.928C129.294 108.859 129.306 108.787 129.319 108.719L129.347 108.519C129.425 107.987 129.463 107.45 129.453 106.912C129.444 105.834 129.247 104.759 128.872 103.747C128.688 103.241 128.456 102.75 128.184 102.287C127.922 101.816 127.606 101.378 127.272 100.959C126.594 100.128 125.809 99.3874 124.953 98.7499C123.444 97.6218 121.747 96.7999 120.006 96.1343C119.706 95.8999 119.419 95.653 119.131 95.4061C118.616 94.9561 118.116 94.4905 117.622 94.0218C117.5 93.903 117.378 93.7843 117.263 93.6655L117.181 93.5811L117.172 93.5343L117.153 93.4593C117.141 93.4124 117.128 93.3718 117.113 93.328C117 92.9936 116.894 92.6718 116.775 92.3468C116.666 92.0249 116.55 91.703 116.45 91.3749L121.344 71.4655C121.656 71.5936 122.034 71.553 122.288 71.3124C122.453 71.153 122.55 70.9374 122.647 70.7311C122.788 70.4343 122.938 70.2374 123.225 70.0686C123.269 70.0436 123.281 69.9936 123.272 69.953C123.278 69.9468 123.284 69.9436 123.294 69.9374C123.391 69.8655 123.475 69.778 123.544 69.6874C123.566 69.653 123.588 69.6218 123.609 69.5874C123.781 69.3811 123.944 69.0061 124.016 68.7874C124.019 68.778 124.019 68.7686 124.022 68.7593L125.469 69.2624L125.422 69.3968L125.978 69.6499C125.975 69.6686 125.969 69.6843 125.969 69.6843C125.791 70.3186 126.35 70.7186 126.922 70.7436C127.5 70.7718 128.022 70.2593 128.184 69.6905C128.209 69.3593 128.378 68.9468 128.119 68.4561C127.753 67.7718 126.916 67.4061 126.506 68.0061L125.969 67.8874L125.928 68.003L124.525 67.5155C124.703 67.2218 124.884 66.9311 125.078 66.653C125.384 66.2124 125.738 65.8124 126.094 65.3655C126.141 65.303 126.222 65.1374 126.266 65.0718L126.938 65.2405L126.916 65.3186L127.491 65.5374C127.381 66.203 127.428 66.253 127.463 66.3093Z" fill="#716657"/>
</g>
<path d="M125.872 63.0062C126.131 63.3312 126.662 63.1749 126.775 62.7937C126.887 62.403 126.462 62.0312 126.084 62.1593C125.803 62.253 125.684 62.5999 125.794 62.8562C125.812 62.9124 125.834 62.9624 125.872 63.0062Z" fill="#716657"/>
<path d="M125.316 60.1438C125.563 60.4313 125.919 60.6406 126.288 60.6563C125.963 60.4906 125.722 60.25 125.541 59.9719C125.363 59.6938 125.25 59.3781 125.203 59.0594C125.166 58.7438 125.197 58.4156 125.375 58.1719C125.553 57.9219 125.881 57.7938 126.241 57.7406C126.066 57.6906 125.878 57.6781 125.688 57.7125C125.5 57.7469 125.31 57.8375 125.163 57.9844C125.01 58.1281 124.922 58.3219 124.872 58.5156C124.822 58.7125 124.819 58.9125 124.844 59.1063C124.894 59.4938 125.063 59.8563 125.316 60.1438Z" fill="#716657"/>
<mask id="mask5_1645_1282" style="mask-type:luminance" maskUnits="userSpaceOnUse" x="134" y="63" width="12" height="110">
<path d="M134.31 63.7095H145.025V172.953H134.31V63.7095Z" fill="white"/>
</mask>
<g mask="url(#mask5_1645_1282)">
<path d="M137.885 66.9563C137.969 67.4313 137.969 67.8969 137.941 68.3563C137.913 68.8188 137.857 69.275 137.76 69.7282C137.713 69.2688 137.7 68.8125 137.675 68.3563C137.653 67.9032 137.632 67.45 137.547 67.0219C137.472 66.5938 137.307 66.1969 136.978 65.9344C136.647 65.6688 136.219 65.5 135.778 65.3719C136.241 65.3532 136.722 65.4469 137.141 65.7125C137.353 65.8438 137.525 66.0469 137.65 66.2625C137.769 66.4844 137.841 66.7188 137.885 66.9563ZM143.182 161.234C143.191 161.206 143.197 161.172 143.203 161.125C143.2 161.172 143.191 161.206 143.182 161.234ZM144.719 171.516C144.328 171.75 144.013 171.691 143.588 171.672L143.544 171.131C143.835 171.181 144.253 171.1 144.647 170.975L144.719 171.516ZM144.813 172.409C144.419 172.641 144.11 172.584 143.682 172.563L143.638 172.025C143.928 172.075 144.35 171.994 144.741 171.869L144.813 172.409ZM141.785 163.638C141.66 163.719 141.513 163.753 141.372 163.753C141.228 163.75 141.094 163.725 140.966 163.681C141.232 163.7 141.513 163.681 141.71 163.528C141.907 163.378 141.994 163.125 142.038 162.872C142.088 162.616 142.097 162.35 142.103 162.081C142.11 161.816 142.11 161.541 142.132 161.269C142.219 161.803 142.303 162.347 142.21 162.906C142.182 163.044 142.141 163.181 142.075 163.313C142.01 163.441 141.913 163.559 141.785 163.638ZM141.51 167.428C141.21 167.463 140.91 167.488 140.61 167.513L140.485 167.522L140.466 167.384C140.416 166.972 140.372 166.563 140.338 166.15C140.297 165.738 140.272 165.322 140.244 164.909C140.219 164.497 140.2 164.081 140.191 163.669C140.185 163.253 140.185 162.838 140.2 162.419C140.288 162.828 140.353 163.238 140.413 163.65C140.472 164.059 140.519 164.472 140.566 164.884C140.603 165.297 140.644 165.706 140.672 166.122C140.7 166.491 140.722 166.863 140.738 167.238C140.991 167.241 141.247 167.244 141.503 167.253C141.803 167.266 142.107 167.278 142.407 167.306C142.107 167.359 141.81 167.394 141.51 167.428ZM143.207 160.681C143.188 160.15 143.113 159.163 142.947 157.281C142.85 156.169 142.66 154.081 142.594 153.509L143.103 153.456L143.66 160.678L143.207 160.681ZM143.016 161.388C143.038 161.381 143.06 161.369 143.082 161.356C143.063 161.372 143.038 161.381 143.016 161.388ZM142.922 161.494C142.991 162 143.032 162.506 143.063 163.009C143.1 163.516 143.125 164.022 143.15 164.528C143.169 165.031 143.191 165.538 143.2 166.044C143.207 166.553 143.21 167.059 143.188 167.572C143.069 167.072 142.991 166.569 142.932 166.063C142.869 165.559 142.835 165.05 142.807 164.544C142.788 164.034 142.778 163.525 142.797 163.019C142.813 162.506 142.847 162 142.922 161.494ZM142.935 161.025L142.928 160.903L142.938 161.025H142.935ZM143.11 160.678L142.947 160.681C142.947 160.678 143.11 160.678 143.11 160.678ZM142.428 160.853L142.697 160.85C142.697 160.853 142.428 160.853 142.428 160.853ZM142.072 153.391C142.069 153.422 142.069 153.453 142.075 153.484C142.078 153.5 142.082 153.528 142.085 153.563C142.172 154.306 142.616 159.206 142.694 160.681C142.691 160.681 142.494 160.681 142.494 160.681L141.932 153.578L142.085 153.563C142.082 153.528 142.075 153.5 142.072 153.484C142.066 153.453 142.069 153.422 142.072 153.391ZM137.96 65.7157C137.666 65.1844 137.172 65.1282 136.653 64.9438C136.457 64.8719 136.335 64.8375 136.185 64.6844C136.072 64.5688 135.96 64.1157 135.813 64.0875C135.782 64.0782 134.394 63.8782 134.394 63.8782L134.585 66.3469L134.488 66.3532L139.972 161.113L139.882 161.109L139.794 162.384L139.791 162.45L140.516 162.378L140.538 162.375L140.453 161.131L140.316 161.125L134.882 67.1938C135.8 67.0094 136.725 67.4938 137.094 68.3657C137.094 68.3657 137.078 83.2032 138.582 114.594C138.891 121.031 140.453 138.991 141.738 153.253C141.632 153.266 141.494 153.413 141.5 153.506L142.032 160.866C142.032 160.884 142.038 160.903 142.044 160.916L141.641 161.138L141.778 162.747C141.822 163.128 141.513 163.459 141.125 163.441C140.582 163.416 140.525 162.706 140.519 162.378L139.791 162.45L139.794 162.384C139.778 162.384 139.766 162.384 139.753 162.384L140.1 167.931L142.991 168.091L143.1 168.106C143.363 170.966 143.525 172.691 143.525 172.691C143.525 172.691 144.088 173.016 145.163 172.603C144.894 171.038 144.419 166.766 143.841 161.022C143.863 161.022 143.878 161.022 143.891 161.016C143.922 161.009 143.95 160.991 143.972 160.966C144.007 160.931 144.022 160.884 144.019 160.838L143.432 153.253C143.428 153.206 143.407 153.166 143.372 153.134C143.335 153.106 143.288 153.091 143.241 153.097L143.075 153.113L142.397 153.184C142.353 153.172 142.307 153.169 142.26 153.181C142.241 153.188 142.222 153.197 142.207 153.206L142.082 153.219L142.203 153.203C142.222 153.197 142.238 153.188 142.26 153.181C142.307 153.169 142.353 153.172 142.397 153.184L143.075 153.113C142.038 142.15 140.869 128.659 140.035 117.878C138.735 101.056 138.207 76.375 138.328 68.1782C138.341 67.5313 138.263 66.2532 137.96 65.7157Z" fill="#716657"/>
</g>
<path d="M24.4845 81.5851L21.8345 88.4601C21.9095 88.2695 22.0813 88.1351 22.347 88.0601C22.6063 87.9789 22.9032 87.9914 23.2345 88.0976L37.8845 93.7476C38.2032 93.8914 38.4345 94.082 38.5845 94.3226C38.7251 94.557 38.7595 94.7695 38.6845 94.9601L40.1345 91.2226C40.0501 91.432 39.8626 91.5695 39.572 91.6351C39.2876 91.7039 38.972 91.6695 38.622 91.5351L33.522 89.5726L35.022 85.6851C35.5063 84.3851 35.6845 83.2414 35.5595 82.2476C35.4345 81.257 35.0688 80.4164 34.4595 79.7226C33.8532 79.0226 33.0907 78.4976 32.172 78.1476C31.172 77.7414 30.1845 77.5539 29.2095 77.5851C28.2282 77.6195 27.3282 77.9476 26.5095 78.5726C25.6938 79.1976 25.0188 80.2039 24.4845 81.5851ZM23.297 85.2351L23.9595 83.5101C24.3188 82.5789 24.7345 81.8476 25.2095 81.3226C25.6782 80.7976 26.172 80.4289 26.697 80.2101C27.2157 79.9945 27.7282 79.8726 28.2345 79.8476C28.7438 79.8226 29.2157 79.857 29.647 79.9476C30.072 80.0414 30.4345 80.1445 30.7345 80.2601C31.0282 80.3789 31.2157 80.4539 31.297 80.4851C31.4563 80.5445 31.7095 80.6664 32.0595 80.8476C32.4095 81.0226 32.7813 81.2695 33.172 81.5851C33.5657 81.9039 33.9063 82.3101 34.197 82.8101C34.4813 83.3101 34.647 83.9289 34.697 84.6601C34.7407 85.3851 34.5782 86.2351 34.2095 87.2101L33.322 89.4976L24.1595 85.9601C23.9438 85.8789 23.7595 85.7695 23.6095 85.6351C23.4595 85.5039 23.3563 85.3695 23.297 85.2351Z" fill="#716657"/>
<path d="M30.9849 67.9602C31.0036 67.9352 31.0224 67.9102 31.0474 67.8852C31.0724 67.8602 31.1067 67.832 31.1474 67.7977C31.2817 67.682 31.4567 67.6602 31.6724 67.7352C31.8817 67.8102 32.0974 67.9727 32.3224 68.2227L42.9599 80.4852C43.2286 80.7945 43.3974 81.1164 43.4724 81.4477C43.5474 81.7727 43.5255 82.032 43.4099 82.2227L44.5724 80.3227C44.4536 80.5227 44.2786 80.6039 44.0474 80.5602C43.813 80.5195 43.5724 80.3727 43.3224 80.1227L38.2599 74.2727C38.0849 74.082 38.0786 73.857 38.2349 73.5977L40.4599 69.9852C40.5536 69.8445 40.6536 69.757 40.7599 69.7227C40.8599 69.682 40.9661 69.6789 41.0724 69.7102L48.5724 71.6227C48.9224 71.707 49.163 71.8477 49.2974 72.0477C49.4286 72.2477 49.438 72.4445 49.3224 72.6352L51.4349 69.1977C51.3161 69.3914 51.0911 69.5289 50.7599 69.6102C50.4349 69.6852 50.0755 69.6789 49.6849 69.5852L33.9474 65.5852C33.5661 65.4789 33.2974 65.3289 33.1474 65.1352C32.9911 64.9445 32.9724 64.7445 33.0974 64.5352L30.9849 67.9602ZM40.1474 69.4727C40.2161 69.4914 40.2786 69.5227 40.3349 69.5727C40.3942 69.6227 40.3849 69.7102 40.3099 69.8352L38.0349 73.5227C37.9599 73.6414 37.8911 73.6852 37.8224 73.6602C37.7474 73.6352 37.6849 73.5977 37.6349 73.5477L32.5349 67.6852C32.4786 67.6102 32.4317 67.5539 32.3974 67.5102C32.4411 67.5195 32.4786 67.5289 32.5099 67.5352C32.5442 67.5445 32.5817 67.5477 32.6224 67.5477L40.1474 69.4727Z" fill="#716657"/>
<path d="M60.6042 56.0143C60.4448 56.1831 60.2198 56.2456 59.9292 56.2018C59.6448 56.1518 59.3605 55.9987 59.0792 55.7393L55.9042 52.7643C55.6198 52.4987 55.448 52.2268 55.3917 51.9518C55.3417 51.6768 55.3948 51.4581 55.5542 51.2893L52.8167 54.2268C52.9667 54.0706 53.173 54.0081 53.4417 54.0393C53.7073 54.0643 53.9792 54.1893 54.2542 54.4143L58.4417 58.3393C58.673 58.5737 58.8073 58.7956 58.8417 59.0018C58.8823 59.2018 58.8698 59.4237 58.8042 59.6643C58.6698 60.0987 58.5042 60.5143 58.3042 60.9143C58.1105 61.3081 57.8948 61.6487 57.6542 61.9393C57.1292 62.6237 56.4573 63.1237 55.6417 63.4393C54.8323 63.7487 53.9323 63.8831 52.9417 63.8393C51.948 63.7987 50.9386 63.5768 49.9042 63.1768C48.8636 62.7768 47.8605 62.2112 46.8917 61.4768C45.9355 60.7268 45.1261 59.8956 44.4667 58.9768C43.8105 58.0612 43.3355 57.1331 43.0417 56.1893C42.7511 55.2393 42.6542 54.3331 42.7542 53.4643C42.8542 52.5893 43.173 51.8206 43.7042 51.1518C44.1542 50.6206 44.648 50.1893 45.1792 49.8643C45.7042 49.5331 46.2261 49.3081 46.7417 49.1893C47.2511 49.0737 47.7011 49.0831 48.0917 49.2143C48.2917 49.2893 48.3761 49.4393 48.3417 49.6643C48.3011 49.8831 48.2355 50.0487 48.1417 50.1643L50.1792 47.5393C50.048 47.7393 49.8042 47.8362 49.4542 47.8268C49.0042 47.7612 48.4417 47.8143 47.7667 47.9893C47.0917 48.1643 46.3886 48.4956 45.6542 48.9768C44.9136 49.4518 44.2042 50.1331 43.5292 51.0143C42.8136 51.9487 42.323 52.9737 42.0542 54.0893C41.7886 55.1987 41.7417 56.3112 41.9167 57.4268C42.0917 58.5456 42.4792 59.6143 43.0792 60.6393C43.673 61.6643 44.4605 62.5612 45.4417 63.3268C46.4167 64.0862 47.4761 64.6237 48.6167 64.9393C49.7511 65.2487 50.8855 65.3487 52.0167 65.2393C53.1573 65.1237 54.2292 64.7987 55.2292 64.2643C56.2355 63.7331 57.1042 62.9987 57.8292 62.0643C58.2355 61.5331 58.5698 60.9831 58.8292 60.4143C59.0855 59.8393 59.298 59.2768 59.4667 58.7268C59.6417 58.1768 59.8167 57.6643 59.9917 57.1893C60.1667 56.7143 60.3698 56.3237 60.6042 56.0143Z" fill="#716657"/>
<path d="M73.8008 46.4157C73.6164 46.5407 73.3883 46.5532 73.1133 46.4532C72.8383 46.3532 72.5883 46.147 72.3633 45.8282L69.8383 42.2907C69.6133 41.9657 69.5039 41.6657 69.5133 41.3907C69.5195 41.1095 69.6164 40.9032 69.8008 40.7782L66.5258 43.1032C66.7008 42.9782 66.9164 42.9595 67.1758 43.0407C67.432 43.1251 67.6695 43.3032 67.8883 43.5782L71.2133 48.2532C71.3883 48.5282 71.4758 48.772 71.4758 48.9782C71.4758 49.1876 71.4164 49.4001 71.3008 49.6157C71.082 50.0251 70.8383 50.4001 70.5633 50.7407C70.2945 51.0845 70.0164 51.3845 69.7258 51.6407C69.0758 52.2001 68.3164 52.5501 67.4508 52.6907C66.5914 52.8345 65.6789 52.7876 64.7133 52.5532C63.7539 52.3126 62.807 51.8907 61.8758 51.2907C60.9445 50.6845 60.0727 49.9251 59.2633 49.0157C58.482 48.0907 57.8602 47.1157 57.4008 46.0907C56.9352 45.0595 56.6508 44.0501 56.5508 43.0657C56.4508 42.0751 56.5383 41.1657 56.8133 40.3407C57.0883 39.5095 57.5602 38.8157 58.2258 38.2657C58.7602 37.8345 59.3227 37.5095 59.9133 37.2907C60.507 37.0751 61.0633 36.9626 61.5883 36.9532C62.107 36.9376 62.5414 37.0345 62.9008 37.2407C63.0758 37.3657 63.1195 37.5345 63.0383 37.7407C62.9633 37.9407 62.8664 38.0907 62.7508 38.1907L65.2758 36.0157C65.1008 36.1907 64.8445 36.2376 64.5133 36.1532C64.0789 36.0032 63.5133 35.9501 62.8133 35.9907C62.1227 36.0251 61.3695 36.2032 60.5508 36.5282C59.7352 36.8532 58.907 37.3782 58.0633 38.1032C57.1727 38.872 56.4883 39.7751 56.0133 40.8157C55.532 41.8501 55.2602 42.9345 55.2008 44.0657C55.1445 45.1907 55.307 46.3157 55.6883 47.4407C56.0727 48.5595 56.6633 49.5907 57.4633 50.5407C58.2883 51.4907 59.2258 52.2345 60.2758 52.7657C61.3195 53.2907 62.4039 53.6126 63.5383 53.7282C64.6789 53.847 65.7914 53.747 66.8758 53.4282C67.9664 53.1032 68.9633 52.5595 69.8633 51.7907C70.3789 51.3501 70.8164 50.8751 71.1758 50.3657C71.5414 49.8595 71.8633 49.3501 72.1383 48.8407C72.4195 48.3345 72.6914 47.8657 72.9508 47.4407C73.2164 47.0157 73.5008 46.6751 73.8008 46.4157Z" fill="#716657"/>
<path d="M72.918 29.222C72.943 29.2064 72.9773 29.1939 73.018 29.1845C73.0523 29.1783 73.093 29.1689 73.143 29.1595C73.318 29.1533 73.4742 29.2408 73.6055 29.422C73.7398 29.597 73.8305 29.8533 73.8805 30.1845L75.7555 46.3095C75.7961 46.7033 75.7555 47.0595 75.6305 47.3845C75.5117 47.7033 75.3492 47.9064 75.143 47.997L77.1805 47.0845C76.9617 47.1845 76.768 47.1533 76.593 46.9845C76.4242 46.8189 76.318 46.5595 76.268 46.2095L75.3805 38.5095C75.3367 38.2689 75.4555 38.0845 75.7305 37.9595L79.593 36.2345C79.7492 36.1689 79.8836 36.147 79.993 36.172C80.0992 36.197 80.193 36.2533 80.268 36.3345L85.3805 42.1345C85.6117 42.4095 85.7305 42.6689 85.7305 42.9095C85.7305 43.1533 85.6305 43.3189 85.4305 43.4095L89.118 41.7595C88.9086 41.8533 88.643 41.8408 88.318 41.722C87.9992 41.597 87.7086 41.3908 87.443 41.097L76.7055 28.922C76.4461 28.6158 76.3055 28.3408 76.2805 28.097C76.2617 27.847 76.368 27.672 76.593 27.572L72.918 29.222ZM79.6305 35.622C79.6805 35.6814 79.7117 35.747 79.7305 35.822C79.7555 35.8908 79.6961 35.9533 79.5555 36.0095L75.593 37.7845C75.4742 37.8345 75.393 37.8314 75.343 37.772C75.2992 37.7158 75.2711 37.647 75.2555 37.572L74.343 29.8595C74.3367 29.7595 74.3367 29.6908 74.343 29.647C74.368 29.6658 74.393 29.6908 74.418 29.722C74.443 29.7564 74.468 29.7783 74.493 29.7845L79.6305 35.622Z" fill="#716657"/>
<path d="M89.0266 23.1782L85.1266 24.1282C85.1359 24.1282 85.1391 24.1282 85.1391 24.1282C85.1391 24.1282 85.1484 24.125 85.1641 24.1157L85.1016 24.1407C85.3203 24.0844 85.5391 24.15 85.7641 24.3407C85.9828 24.5344 86.1359 24.8125 86.2266 25.1782L89.8766 40.2407C89.9578 40.6094 89.9516 40.9282 89.8516 41.2032C89.7578 41.4719 89.5953 41.6344 89.3641 41.6907L90.1766 41.4907L90.7141 41.3657L91.5266 41.1657C91.3172 41.2157 91.1078 41.1532 90.9016 40.9782C90.6922 40.8032 90.5391 40.5532 90.4391 40.2282L86.7266 24.9532C86.7203 24.9375 86.7141 24.9282 86.7141 24.9282C86.7141 24.9219 86.7141 24.9094 86.7141 24.8907C86.7141 24.9094 86.7359 24.925 86.7766 24.9407L97.7516 38.4157C97.9922 38.7251 98.1078 38.9907 98.1016 39.2157C98.0922 39.4344 97.9828 39.5657 97.7766 39.6157L101.664 38.6907C101.33 38.7751 101.089 38.7126 100.939 38.5032C100.795 38.2876 100.677 38.0376 100.577 37.7532L96.8766 22.4782C96.8078 22.1469 96.8266 21.8532 96.9266 21.6032C97.0266 21.3469 97.1828 21.1875 97.4016 21.1282L95.2516 21.6532C95.4672 21.6032 95.6828 21.675 95.9016 21.8657C96.1266 22.05 96.2828 22.325 96.3766 22.6907L100.027 37.7657C100.027 37.7751 100.027 37.7907 100.027 37.8157C100.033 37.8407 100.042 37.8719 100.052 37.9032C100.027 37.8719 100.005 37.8469 99.9891 37.8282C99.9797 37.8032 99.9672 37.7876 99.9516 37.7782L89.1016 24.4657C88.8359 24.125 88.7016 23.8407 88.7016 23.6157C88.6953 23.3844 88.8016 23.2375 89.0266 23.1782Z" fill="#716657"/>
<path d="M100.073 20.8235C100.283 20.7985 100.483 20.886 100.673 21.086C100.867 21.286 100.992 21.5579 101.048 21.8985L103.011 37.486C103.036 37.8204 102.979 38.1079 102.848 38.3485C102.714 38.5922 102.542 38.7235 102.336 38.7485L106.311 38.2485C106.092 38.2735 105.886 38.1829 105.686 37.9735C105.492 37.7579 105.373 37.461 105.323 37.086L103.386 21.711C103.336 21.3204 103.376 20.9985 103.511 20.7485C103.651 20.4922 103.829 20.3485 104.048 20.3235L100.073 20.8235Z" fill="#716657"/>
<path d="M110.799 19.7785L106.787 19.8285C106.796 19.8285 106.799 19.8285 106.799 19.8285C106.799 19.8285 106.809 19.8285 106.824 19.8285H106.762C106.987 19.8285 107.18 19.9472 107.349 20.1785C107.515 20.4035 107.602 20.7097 107.612 21.091L107.762 36.591C107.762 36.966 107.68 37.2785 107.524 37.5285C107.374 37.7722 107.177 37.891 106.937 37.891L107.774 37.8785H108.324L109.162 37.866C108.943 37.866 108.752 37.7597 108.587 37.541C108.427 37.3253 108.337 37.0472 108.312 36.7035L108.149 20.991C108.149 20.9753 108.149 20.966 108.149 20.966C108.149 20.9597 108.149 20.9472 108.149 20.9285C108.149 20.9472 108.165 20.966 108.199 20.991L115.849 36.591C116.015 36.9503 116.065 37.2378 115.999 37.4535C115.94 37.6628 115.805 37.766 115.599 37.766L119.599 37.741C119.255 37.7503 119.037 37.6347 118.937 37.391C118.843 37.1503 118.78 36.8785 118.749 36.5785L118.599 20.866C118.605 20.5253 118.69 20.2472 118.849 20.0285C119.005 19.8035 119.199 19.6878 119.424 19.6785L117.212 19.7035C117.437 19.7035 117.63 19.8222 117.799 20.0535C117.965 20.2878 118.052 20.5972 118.062 20.9785L118.212 36.4785C118.212 36.4878 118.212 36.5035 118.212 36.5285C118.212 36.5535 118.212 36.5847 118.212 36.616C118.193 36.5847 118.18 36.5535 118.174 36.5285C118.165 36.5035 118.152 36.4878 118.137 36.4785L110.574 21.066C110.39 20.666 110.324 20.3535 110.374 20.1285C110.424 19.9035 110.565 19.7878 110.799 19.7785Z" fill="#716657"/>
<path d="M122.088 19.9937C122.294 20.0187 122.469 20.1499 122.613 20.3812C122.763 20.6155 122.825 20.903 122.8 21.2437L121.2 36.8687C121.141 37.2124 121.016 37.4874 120.825 37.6937C120.641 37.8937 120.444 37.9812 120.238 37.9562L124.225 38.3687C124 38.3437 123.816 38.2062 123.675 37.9562C123.541 37.7062 123.491 37.3937 123.525 37.0187L125.113 21.5937C125.153 21.203 125.266 20.903 125.45 20.6937C125.641 20.478 125.85 20.3812 126.075 20.4062L122.088 19.9937Z" fill="#716657"/>
<path d="M137.455 37.2844C137.486 37.1781 137.542 37.0469 137.617 36.8969C137.698 36.7469 137.817 36.6188 137.967 36.5094C138.117 36.4031 138.308 36.3688 138.542 36.4094L134.867 35.1344C135.008 35.2281 135.142 35.3656 135.267 35.5469C135.392 35.7219 135.473 35.9156 135.517 36.1219C135.498 36.5156 135.558 36.9781 135.692 37.5094C135.823 38.0438 136.055 38.5906 136.38 39.1469C136.705 39.7031 137.158 40.2281 137.742 40.7219C138.323 41.2125 139.061 41.6125 139.955 41.9219C141.986 42.6375 143.661 42.7906 144.98 42.3844C146.305 41.975 147.233 41.0625 147.767 39.6469C148.098 38.7719 148.211 37.9938 148.105 37.3094C147.995 36.6188 147.742 35.9906 147.342 35.4219C146.948 34.8469 146.473 34.3188 145.917 33.8344C145.358 33.3438 144.786 32.8656 144.205 32.3969C143.63 31.9219 143.105 31.4406 142.63 30.9469C142.161 30.4469 141.808 29.9094 141.567 29.3344C141.333 28.7531 141.286 28.1063 141.43 27.3969C141.57 26.7656 141.83 26.2219 142.205 25.7719C142.586 25.3156 143.095 25.0156 143.73 24.8719C144.361 24.7219 145.117 24.8094 145.992 25.1344C146.483 25.3188 146.898 25.6406 147.242 26.0969C147.583 26.5469 147.723 27.1156 147.667 27.7969C147.658 27.8719 147.633 28.0031 147.592 28.1844C147.548 28.3688 147.455 28.5188 147.305 28.6344C147.155 28.7438 146.895 28.7469 146.53 28.6469L150.28 29.9469C150.12 29.8469 149.97 29.6938 149.83 29.4844C149.695 29.2781 149.62 29.0469 149.605 28.7969C149.536 27.9313 149.18 27.1469 148.53 26.4469C147.88 25.7469 146.895 25.1813 145.58 24.7469C144.645 24.4313 143.745 24.3313 142.88 24.4469C142.011 24.5563 141.245 24.8156 140.58 25.2219C139.92 25.6219 139.436 26.1188 139.13 26.7094C138.68 27.5844 138.473 28.3781 138.517 29.0844C138.558 29.7844 138.78 30.4281 139.18 31.0094C139.58 31.5844 140.061 32.1313 140.63 32.6469C141.195 33.1656 141.783 33.6719 142.392 34.1719C142.998 34.6656 143.536 35.1719 144.005 35.6969C144.48 36.2156 144.808 36.7688 144.992 37.3594C145.183 37.9531 145.136 38.6031 144.855 39.3094C144.636 39.9 144.286 40.4344 143.805 40.9094C143.33 41.3844 142.755 41.7 142.08 41.8594C141.411 42.0156 140.667 41.9469 139.842 41.6469C139.023 41.3281 138.417 40.9 138.017 40.3594C137.623 39.8156 137.395 39.2688 137.33 38.7094C137.261 38.1438 137.305 37.6688 137.455 37.2844Z" fill="#716657"/>
<path d="M155.196 28.3105L153.996 30.498C153.996 30.498 154.075 30.4199 154.234 30.2605C154.4 30.1043 154.665 29.9543 155.034 29.8105C155.409 29.6699 155.89 29.6293 156.484 29.6855C157.084 29.7449 157.809 29.998 158.659 30.448L159.484 30.898C159.584 31.198 159.537 31.5449 159.346 31.9355L151.759 45.698C151.584 45.9887 151.365 46.1887 151.109 46.298C150.859 46.4137 150.64 46.423 150.459 46.323L153.984 48.2605C153.775 48.1418 153.653 47.9418 153.621 47.6605C153.587 47.3762 153.662 47.0668 153.846 46.7355L161.321 33.148C161.546 32.7418 161.834 32.4855 162.184 32.3855L163.009 32.848C163.84 33.323 164.44 33.798 164.809 34.273C165.184 34.7418 165.409 35.1699 165.484 35.5605C165.565 35.9543 165.584 36.2605 165.534 36.4855C165.49 36.7105 165.471 36.823 165.471 36.823L166.671 34.6355L155.196 28.3105Z" fill="#716657"/>
<path d="M162.366 46.7605C161.641 47.6605 161.241 48.6074 161.166 49.598C161.097 50.5886 161.297 51.548 161.766 52.473C162.231 53.4042 162.909 54.2355 163.803 54.9605C164.678 55.6605 165.597 56.1417 166.566 56.4105C167.531 56.6855 168.478 56.7042 169.403 56.473C170.328 56.2386 171.159 55.7167 171.903 54.9105C171.909 54.9011 172.047 54.7292 172.316 54.398C172.591 54.0636 172.944 53.6261 173.378 53.0855C173.819 52.5417 174.297 51.9511 174.816 51.3105C175.331 50.6761 175.847 50.0417 176.366 49.398C176.881 48.7574 177.356 48.1699 177.791 47.6355C178.222 47.0949 178.569 46.6667 178.828 46.348C179.094 46.023 179.228 45.8605 179.228 45.8605C179.469 45.5542 179.728 45.3605 180.003 45.2855C180.284 45.2105 180.522 45.248 180.716 45.398L177.566 42.8605C177.731 42.9949 177.806 43.198 177.791 43.473C177.781 43.748 177.681 44.023 177.491 44.298L168.978 54.823C168.519 55.3792 168.003 55.7292 167.428 55.873C166.853 56.0136 166.266 55.9855 165.666 55.7855C165.072 55.5917 164.494 55.2667 163.928 54.8105C163.369 54.3511 162.928 53.848 162.603 53.298C162.284 52.7542 162.134 52.1917 162.153 51.6105C162.178 51.0261 162.419 50.4574 162.878 49.898L171.328 39.448C171.559 39.148 171.816 38.9605 172.091 38.8855C172.372 38.8105 172.603 38.8449 172.778 38.9855L169.641 36.448C169.816 36.5917 169.894 36.798 169.878 37.073C169.859 37.3417 169.753 37.6105 169.553 37.8855C169.553 37.8855 169.422 38.0449 169.166 38.3605C168.906 38.6792 168.566 39.098 168.141 39.623C167.716 40.148 167.247 40.7292 166.741 41.3605C166.231 41.9855 165.722 42.6105 165.216 43.2355C164.706 43.8605 164.241 44.4417 163.816 44.973C163.391 45.498 163.044 45.9292 162.778 46.2605C162.509 46.5855 162.372 46.7542 162.366 46.7605Z" fill="#716657"/>
<path d="M172.774 63.2589C173.755 64.3996 174.74 65.2277 175.724 65.7464C176.705 66.2621 177.665 66.5464 178.599 66.5964C179.54 66.6464 180.427 66.5339 181.261 66.2589C182.093 65.9839 182.852 65.6246 183.536 65.1839C184.218 64.7402 184.805 64.3089 185.299 63.8839C185.74 63.4996 186.215 63.0089 186.724 62.4089C187.23 61.8089 187.677 61.1089 188.061 60.3089C188.443 59.5183 188.686 58.6558 188.786 57.7214C188.886 56.7902 188.765 55.7964 188.424 54.7464C188.08 53.6964 187.427 52.6152 186.461 51.4964L183.261 47.7839C183.393 47.9433 183.43 48.1558 183.374 48.4214C183.315 48.6902 183.165 48.9433 182.924 49.1839L171.024 59.4464C170.749 59.6464 170.474 59.7527 170.199 59.7714C169.924 59.7964 169.718 59.7277 169.586 59.5714L172.774 63.2589ZM185.424 50.5839L185.549 50.7339C186.415 51.7589 186.986 52.7308 187.261 53.6464C187.536 54.5652 187.615 55.4277 187.499 56.2339C187.38 57.0433 187.14 57.7808 186.774 58.4464C186.405 59.1058 186.005 59.6839 185.574 60.1839C185.14 60.6839 184.74 61.0871 184.374 61.3964C184.015 61.7121 183.786 61.9121 183.686 61.9964C183.593 62.0714 183.361 62.2527 182.986 62.5464C182.618 62.8464 182.149 63.1652 181.574 63.5089C180.999 63.8589 180.343 64.1527 179.611 64.3964C178.886 64.6464 178.102 64.7652 177.261 64.7589C176.418 64.7589 175.561 64.5589 174.686 64.1589C173.818 63.7589 172.949 63.0714 172.074 62.0964C172.074 61.9527 172.118 61.7964 172.211 61.6214C172.311 61.4527 172.452 61.2902 172.636 61.1339L184.374 51.0089C184.549 50.8589 184.727 50.7527 184.911 50.6839C185.102 50.6089 185.274 50.5777 185.424 50.5839Z" fill="#716657"/>
<path d="M193.61 60.3477C193.725 60.5227 193.738 60.7445 193.647 61.0102C193.553 61.2695 193.372 61.5039 193.097 61.7102L180.06 70.4852C179.766 70.6508 179.485 70.7258 179.21 70.7102C178.935 70.7008 178.738 70.6102 178.622 70.4352L180.86 73.7602C180.735 73.5758 180.722 73.3508 180.822 73.0852C180.922 72.8164 181.135 72.5758 181.46 72.3602L194.31 63.7102C194.635 63.4852 194.938 63.3789 195.222 63.3852C195.513 63.3945 195.722 63.4914 195.847 63.6727L193.61 60.3477Z" fill="#716657"/>
<path d="M201.585 73.7477C201.075 72.6915 200.385 71.7977 199.51 71.0727C198.635 70.3415 197.65 69.804 196.56 69.4602C195.475 69.1196 194.347 68.9852 193.172 69.0602C191.997 69.1352 190.841 69.4477 189.71 69.9977C188.6 70.5415 187.65 71.254 186.86 72.1352C186.075 73.0102 185.479 73.979 185.072 75.0477C184.663 76.1133 184.475 77.2133 184.51 78.3477C184.541 79.4883 184.813 80.5883 185.322 81.6477C185.838 82.7133 186.535 83.6102 187.41 84.3352C188.285 85.0602 189.263 85.5883 190.347 85.9227C191.438 86.2633 192.572 86.3915 193.747 86.3102C194.929 86.2352 196.075 85.9258 197.185 85.3852C198.316 84.8352 199.275 84.1227 200.06 83.2477C200.841 82.3727 201.438 81.4008 201.847 80.3352C202.254 79.2758 202.441 78.179 202.41 77.0477C202.375 75.9133 202.1 74.8133 201.585 73.7477ZM201.36 73.8477C201.735 74.6227 201.879 75.4415 201.797 76.3102C201.722 77.1852 201.441 78.054 200.96 78.9227C200.485 79.7883 199.838 80.5977 199.022 81.3477C198.204 82.0977 197.247 82.7352 196.147 83.2602C195.063 83.7915 193.972 84.1508 192.872 84.3352C191.772 84.5165 190.735 84.5258 189.76 84.3602C188.785 84.2008 187.925 83.8852 187.185 83.4102C186.45 82.9415 185.897 82.3227 185.522 81.5477C185.147 80.7727 185 79.9477 185.085 79.0727C185.166 78.1977 185.447 77.3258 185.922 76.4602C186.404 75.6008 187.054 74.7915 187.872 74.0352C188.688 73.2852 189.638 72.6446 190.722 72.1102C191.822 71.5852 192.922 71.2352 194.022 71.0602C195.122 70.879 196.16 70.8665 197.135 71.0227C198.11 71.1821 198.963 71.4977 199.697 71.9727C200.429 72.4477 200.985 73.0727 201.36 73.8477Z" fill="#716657"/>
<path d="M28.0117 154.076L34.9367 147.051L35.2992 147.951L30.0242 153.263L37.4992 153.363L37.8617 154.251L28.0117 154.076Z" fill="#716657"/>
<path d="M33.758 164.794L33.333 164.032L40.808 159.844L41.233 160.607L33.758 164.794Z" fill="#716657"/>
<path d="M46.0414 175.271C46.8071 174.687 47.2602 173.912 47.4039 172.946C47.5352 171.987 47.3102 171.115 46.7289 170.334C46.1446 169.568 45.3727 169.115 44.4164 168.971C43.4477 168.84 42.5821 169.065 41.8164 169.646C41.0321 170.231 40.5727 171.006 40.4414 171.971C40.2977 172.937 40.5196 173.802 41.1039 174.571C41.6852 175.352 42.4602 175.812 43.4289 175.946C44.3852 176.077 45.2571 175.852 46.0414 175.271ZM46.5789 175.971C46.0852 176.327 45.5602 176.584 45.0039 176.734C44.4289 176.865 43.8664 176.89 43.3164 176.809C42.7477 176.74 42.2102 176.559 41.7039 176.259C41.2039 175.974 40.7696 175.587 40.4039 175.096C40.0352 174.621 39.7852 174.099 39.6539 173.534C39.5102 172.965 39.4852 172.399 39.5789 171.834C39.6446 171.284 39.8227 170.756 40.1164 170.246C40.3977 169.731 40.7852 169.293 41.2789 168.934C41.7539 168.568 42.2789 168.318 42.8539 168.184C43.4196 168.052 43.9852 168.021 44.5539 168.096C45.0946 168.181 45.6227 168.368 46.1414 168.659C46.6414 168.943 47.0727 169.321 47.4414 169.796C47.8071 170.29 48.0571 170.818 48.1914 171.384C48.3227 171.959 48.3571 172.521 48.2914 173.071C48.2071 173.627 48.0227 174.162 47.7414 174.671C47.4414 175.171 47.0539 175.602 46.5789 175.971Z" fill="#716657"/>
<path d="M49.7412 184.351L51.9162 186.501L51.2912 187.139L49.1162 184.989L48.8037 184.689L48.4912 184.376L54.5037 178.276L55.1287 178.889L49.7412 184.351Z" fill="#716657"/>
<path d="M57.6179 192.548L56.9429 191.998L62.2679 185.286L62.9429 185.836L57.6179 192.548Z" fill="#716657"/>
<path d="M68.2924 192.418L65.0049 197.805L64.2549 197.355L69.0049 189.58L69.5299 197.943L72.8174 192.568L73.5674 193.018L68.8299 200.768L68.2924 192.418Z" fill="#716657"/>
<path d="M80.3545 201.035C79.7608 201.178 79.3451 201.297 79.1045 201.397C78.5701 201.616 78.2358 201.885 78.1045 202.21C77.9358 202.603 77.9326 203.01 78.092 203.435C78.242 203.866 78.5108 204.166 78.9045 204.335C79.3358 204.516 79.917 204.466 80.642 204.185C80.817 204.116 80.9858 204.05 81.1545 203.985L80.3545 201.035ZM80.817 199.697C80.867 199.832 80.9108 199.972 80.9545 200.122C81.1108 200.072 81.2733 200.032 81.442 199.997C81.6076 199.966 81.767 199.919 81.917 199.86C82.267 199.719 82.4983 199.507 82.617 199.222C82.742 198.922 82.742 198.653 82.617 198.41C82.492 198.178 82.3108 198.003 82.0795 197.885C81.8451 197.778 81.6045 197.757 81.3545 197.822C81.0858 197.907 80.8826 198.119 80.742 198.46C80.5983 198.803 80.6233 199.216 80.817 199.697ZM83.8295 203.585C83.6451 203.694 83.1108 203.978 82.2295 204.447L82.8545 206.785L81.767 206.36L81.392 204.872C80.8326 205.097 80.4076 205.238 80.117 205.297C79.5233 205.388 79.042 205.36 78.667 205.21C78.3076 205.06 78.0108 204.866 77.7795 204.635C77.5451 204.4 77.3701 204.138 77.2545 203.847C76.9951 203.232 77.0045 202.594 77.2795 201.935C77.5951 201.178 78.242 200.678 79.217 200.435C79.4983 200.369 79.7951 200.297 80.1045 200.222C79.8108 199.341 79.7701 198.653 79.9795 198.16C80.1795 197.669 80.5045 197.328 80.9545 197.135C81.3951 196.944 81.8701 196.957 82.3795 197.172C82.8701 197.382 83.2076 197.703 83.392 198.135C83.592 198.569 83.592 199.032 83.392 199.522C83.1733 200.022 82.6576 200.397 81.842 200.647C81.6233 200.722 81.4201 200.791 81.2295 200.847L81.9795 203.597C82.2201 203.482 82.4483 203.36 82.667 203.235L83.3295 202.86L83.8295 203.585Z" fill="#716657"/>
<path d="M93.5413 210.544L91.9038 200.794L92.8413 201.031L94.0538 208.431L98.5163 202.406L99.4538 202.631L93.5413 210.544Z" fill="#716657"/>
<path d="M105.599 212.152L104.724 212.052L105.699 203.552L106.574 203.652L105.599 212.152Z" fill="#716657"/>
<path d="M121.268 208.324C121.249 207.358 120.893 206.537 120.193 205.862C119.493 205.187 118.655 204.858 117.68 204.874C116.712 204.893 115.893 205.255 115.218 205.962C114.543 206.662 114.212 207.496 114.23 208.462C114.255 209.437 114.618 210.262 115.318 210.937C116.018 211.612 116.849 211.943 117.818 211.924C118.793 211.908 119.618 211.546 120.293 210.837C120.968 210.137 121.293 209.299 121.268 208.324ZM122.155 208.299C122.171 208.908 122.071 209.483 121.855 210.024C121.63 210.568 121.321 211.037 120.93 211.437C120.537 211.855 120.074 212.183 119.543 212.424C119.008 212.668 118.437 212.793 117.83 212.799C117.23 212.815 116.662 212.712 116.13 212.487C115.587 212.271 115.112 211.962 114.705 211.562C114.296 211.18 113.974 210.721 113.743 210.187C113.493 209.655 113.358 209.083 113.343 208.474C113.333 207.874 113.446 207.305 113.68 206.762C113.887 206.221 114.187 205.746 114.58 205.337C114.971 204.937 115.433 204.618 115.968 204.374C116.493 204.133 117.055 204.005 117.655 203.987C118.262 203.98 118.837 204.087 119.38 204.312C119.921 204.53 120.396 204.83 120.805 205.212C121.212 205.605 121.543 206.068 121.793 206.599C122.024 207.133 122.146 207.699 122.155 208.299Z" fill="#716657"/>
<path d="M130.812 210.657L133.837 210.144L133.987 211.019L130.962 211.532L130.525 211.607L130.1 211.669L128.675 203.232L129.537 203.094L130.812 210.657Z" fill="#716657"/>
<path d="M141.716 205.887L144.679 204.949L142.029 201.649L141.716 205.887ZM147.729 207.312L146.816 207.599L145.254 205.637L141.654 206.762L141.466 209.262L140.554 209.549L141.416 199.674L147.729 207.312Z" fill="#716657"/>
<path d="M154.884 199.556C154.609 200.091 154.425 200.481 154.334 200.731C154.15 201.275 154.134 201.703 154.284 202.019C154.475 202.403 154.778 202.675 155.197 202.831C155.622 203.006 156.025 203 156.409 202.806C156.825 202.6 157.172 202.137 157.447 201.419C157.512 201.228 157.575 201.053 157.634 200.894L154.884 199.556ZM154.184 198.319C154.325 198.369 154.462 198.428 154.597 198.494C154.662 198.353 154.741 198.203 154.834 198.044C154.916 197.903 154.987 197.756 155.047 197.606C155.153 197.241 155.141 196.919 155.009 196.644C154.866 196.362 154.666 196.191 154.409 196.131C154.141 196.066 153.891 196.078 153.659 196.169C153.419 196.278 153.241 196.453 153.122 196.694C153.016 196.937 153.044 197.228 153.209 197.569C153.369 197.894 153.694 198.144 154.184 198.319ZM159.084 198.606C159.05 198.825 158.922 199.416 158.697 200.381L160.859 201.456L159.834 201.994L158.472 201.306C158.272 201.875 158.097 202.287 157.947 202.544C157.622 203.053 157.278 203.394 156.922 203.569C156.572 203.737 156.234 203.831 155.909 203.856C155.575 203.891 155.262 203.856 154.972 203.756C154.328 203.531 153.853 203.103 153.547 202.469C153.181 201.728 153.228 200.906 153.684 200.006C153.828 199.75 153.966 199.481 154.109 199.206C153.259 198.85 152.719 198.428 152.484 197.944C152.253 197.469 152.206 197 152.347 196.531C152.497 196.075 152.822 195.725 153.322 195.481C153.797 195.25 154.259 195.203 154.709 195.344C155.166 195.487 155.512 195.794 155.747 196.269C155.987 196.762 155.937 197.394 155.597 198.169C155.503 198.387 155.412 198.587 155.322 198.769L157.897 200.019C157.953 199.762 158.009 199.503 158.059 199.244L158.222 198.506L159.084 198.606Z" fill="#716657"/>
<path d="M172.83 190.52C173.036 191.389 172.995 192.233 172.705 193.058C172.405 193.892 171.898 194.564 171.192 195.07C170.223 195.764 169.145 195.995 167.955 195.77C166.789 195.555 165.855 194.958 165.155 193.983C164.814 193.502 164.577 192.97 164.442 192.395C164.317 191.845 164.289 191.292 164.355 190.733C164.53 189.542 165.102 188.602 166.067 187.908C166.777 187.402 167.57 187.133 168.455 187.108C169.33 187.102 170.136 187.339 170.88 187.82L170.08 188.383C169.211 187.958 168.323 187.902 167.417 188.208C167.117 188.327 166.811 188.495 166.492 188.72C166.177 188.945 165.902 189.255 165.667 189.645C165.452 190.045 165.314 190.464 165.255 190.895C165.105 191.83 165.311 192.689 165.867 193.47C166.417 194.239 167.164 194.708 168.105 194.883C169.045 195.077 169.898 194.895 170.667 194.345C171.192 193.97 171.57 193.489 171.805 192.895C172.045 192.32 172.12 191.72 172.03 191.095L172.83 190.52Z" fill="#716657"/>
<path d="M183.838 184.03L180.2 187.593L174.213 181.468L177.85 177.905L178.425 178.493L175.413 181.443L177.538 183.618L180.463 180.755L181.05 181.355L178.125 184.218L180.25 186.393L183.263 183.443L183.838 184.03Z" fill="#716657"/>
<path d="M189.129 176.637L191.029 174.237L191.729 174.787L189.829 177.187L189.567 177.537L189.292 177.875L182.554 172.587L183.092 171.9L189.129 176.637Z" fill="#716657"/>
<path d="M195.649 167.384L197.236 164.771L197.999 165.234L196.411 167.846L196.186 168.221L195.949 168.596L188.624 164.159L189.086 163.409L195.649 167.384Z" fill="#716657"/>
<path d="M200.502 149.891C199.611 149.525 198.714 149.525 197.814 149.891C196.914 150.26 196.277 150.891 195.902 151.791C195.527 152.685 195.523 153.579 195.889 154.479C196.258 155.379 196.886 156.013 197.777 156.379C198.677 156.763 199.577 156.772 200.477 156.404C201.383 156.038 202.027 155.41 202.402 154.516C202.777 153.616 202.777 152.716 202.402 151.816C202.033 150.916 201.402 150.275 200.502 149.891ZM200.839 149.066C201.395 149.31 201.88 149.635 202.289 150.041C202.695 150.475 203.002 150.95 203.202 151.466C203.433 152 203.552 152.56 203.552 153.141C203.552 153.725 203.433 154.297 203.202 154.854C202.967 155.404 202.642 155.879 202.227 156.279C201.808 156.688 201.333 157 200.802 157.216C200.286 157.435 199.736 157.538 199.152 157.529C198.561 157.554 197.986 157.447 197.427 157.204C196.877 156.979 196.402 156.647 196.002 156.204C195.595 155.797 195.283 155.329 195.064 154.804C194.858 154.279 194.748 153.725 194.739 153.141C194.733 152.56 194.845 151.991 195.077 151.441C195.311 150.885 195.639 150.404 196.064 150.004C196.489 149.597 196.958 149.279 197.464 149.054C197.998 148.847 198.558 148.735 199.139 148.716C199.723 148.725 200.289 148.841 200.839 149.066Z" fill="#716657"/>
</g>
<defs>
<clipPath id="clip0_1645_1282">
<rect width="232" height="232" fill="white"/>
</clipPath>
</defs>
</svg>
