<svg width="300" height="300" viewBox="0 0 300 300" fill="none" xmlns="http://www.w3.org/2000/svg">
<mask id="mask0_681_6754" style="mask-type:luminance" maskUnits="userSpaceOnUse" x="34" y="34" width="232" height="232">
<path d="M34.1689 34.1687H265.769V265.769H34.1689V34.1687Z" fill="white"/>
</mask>
<g mask="url(#mask0_681_6754)">
<mask id="mask1_681_6754" style="mask-type:luminance" maskUnits="userSpaceOnUse" x="34" y="34" width="232" height="232">
<path d="M149.997 34.1687C86.0283 34.1687 34.1689 86.0281 34.1689 149.997C34.1689 213.969 86.0283 265.825 149.997 265.825C213.969 265.825 265.825 213.969 265.825 149.997C265.825 86.0281 213.969 34.1687 149.997 34.1687Z" fill="white"/>
</mask>
<g mask="url(#mask1_681_6754)">
<path d="M149.997 34.1687C86.0283 34.1687 34.1689 86.0281 34.1689 149.997C34.1689 213.969 86.0283 265.825 149.997 265.825C213.969 265.825 265.825 213.969 265.825 149.997C265.825 86.0281 213.969 34.1687 149.997 34.1687Z" stroke="white" stroke-width="6"/>
</g>
</g>
<mask id="mask2_681_6754" style="mask-type:luminance" maskUnits="userSpaceOnUse" x="50" y="145" width="16" height="16">
<path d="M50.8999 145.931H65.8999V160.931H50.8999V145.931Z" fill="white"/>
</mask>
<g mask="url(#mask2_681_6754)">
<path d="M58.3812 145.931C57.6499 152.094 57.0593 152.684 50.8999 153.412C50.9124 153.412 50.9249 153.416 50.9374 153.416C57.0624 154.144 57.653 154.747 58.3812 160.894C59.1093 154.731 59.6999 154.141 65.8624 153.412C59.6999 152.684 59.1093 152.094 58.3812 145.931Z" fill="#FEFBF6"/>
</g>
<mask id="mask3_681_6754" style="mask-type:luminance" maskUnits="userSpaceOnUse" x="234" y="145" width="16" height="16">
<path d="M234.719 145.931H249.719V160.931H234.719V145.931Z" fill="white"/>
</mask>
<g mask="url(#mask3_681_6754)">
<path d="M242.2 145.931C241.469 152.094 240.878 152.684 234.719 153.412C234.731 153.412 234.744 153.416 234.756 153.416C240.881 154.144 241.472 154.747 242.2 160.894C242.928 154.731 243.519 154.141 249.681 153.412C243.519 152.684 242.928 152.094 242.2 145.931Z" fill="#FEFBF6"/>
</g>
<path d="M136.716 161.197C136.331 161.25 135.991 161.303 135.869 161.325L136.472 161.472L136.447 161.609C136.447 161.609 135.931 161.525 135.738 161.503C135.7 161.662 135.694 161.884 135.694 161.884C135.75 161.894 136.047 161.956 136.469 162.053L136.716 161.197Z" fill="white"/>
<path d="M140.972 163.059L142.5 162.978V162.056C141.965 162.191 141.431 162.328 140.909 162.497C140.931 162.684 140.953 162.872 140.972 163.059Z" fill="white"/>
<path d="M149.094 174.022C148.772 173.622 148.578 173.134 148.453 172.641C148.34 172.141 148.287 171.622 148.287 171.103C148.284 170.584 148.315 170.062 148.375 169.544C148.425 169.022 148.5 168.503 148.572 167.978C148.64 167.453 148.712 166.928 148.775 166.403C148.909 165.356 149.031 164.309 149.181 163.259C148.894 164.281 148.678 165.319 148.494 166.362C148.315 167.406 148.131 168.444 148.009 169.506C147.909 170.562 147.875 171.659 148.178 172.716C148.334 173.234 148.581 173.741 148.959 174.137C149.147 174.334 149.362 174.503 149.594 174.644C149.825 174.778 150.075 174.878 150.328 174.953C150.087 174.841 149.859 174.712 149.647 174.562C149.437 174.406 149.253 174.222 149.094 174.022Z" fill="white"/>
<path d="M149.6 172.547C149.456 171.378 150.1 167.894 150.334 164.359C150.597 160.456 147.728 160.478 147.181 161.822C147.175 161.838 147.178 161.847 147.181 161.859C147.172 161.891 147.169 161.928 147.166 161.963C147.175 161.781 147.216 161.597 147.244 161.391C147.084 161.522 146.962 161.694 146.887 161.894C146.812 162.094 146.797 162.334 146.872 162.556C146.941 162.775 147.116 162.984 147.35 163.056C147.572 163.131 147.844 163.078 147.962 162.897C147.762 162.941 147.597 162.881 147.469 162.797C147.347 162.709 147.269 162.584 147.219 162.438C147.172 162.303 147.156 162.159 147.162 162.003C147.159 162.278 147.331 162.566 147.656 162.613C148.128 162.794 148.759 162.197 148.434 161.647C148.291 161.403 148.041 161.313 147.8 161.338C148.181 161.134 148.584 161.234 148.934 161.488C149.366 161.8 149.584 162.331 149.516 162.859C149.187 165.45 148.203 169.972 148.731 172.575C149.003 173.919 150.787 175.547 152.231 174.503C152.691 174.172 153.072 173.453 152.766 172.922C152.5 172.466 151.781 172.313 151.412 172.738C151.109 173.091 151.187 173.625 151.537 173.944C150.575 174.431 149.728 173.578 149.6 172.547Z" fill="white"/>
<path d="M157.753 147.8C157.65 148.366 157.61 148.953 157.685 149.534C157.766 150.109 157.975 150.675 158.35 151.103C158.116 150.591 158.022 150.047 158.044 149.513C158.053 148.975 158.166 148.447 158.313 147.928C158.613 146.891 159.069 145.888 159.475 144.841C159.875 143.806 160.291 142.744 160.5 141.613C160.61 141.05 160.656 140.472 160.628 139.897C160.594 139.325 160.481 138.756 160.263 138.238C160.4 139.356 160.253 140.441 159.947 141.481C159.641 142.525 159.203 143.534 158.794 144.575C158.397 145.609 157.963 146.663 157.753 147.8Z" fill="white"/>
<path d="M136.681 135.081C137.15 134.366 137.697 133.706 138.281 133.078C139.456 131.825 140.859 130.784 142.416 129.975C140.741 130.506 139.178 131.45 137.881 132.675C137.225 133.281 136.638 133.963 136.113 134.688C135.597 135.422 135.147 136.203 134.778 137.022C134.416 137.844 134.131 138.7 133.941 139.578L133.875 139.909C133.856 140.028 133.838 140.141 133.825 140.259C133.8 140.491 133.791 140.722 133.791 140.95C133.791 141.406 133.831 141.847 133.869 142.281C133.903 142.713 133.925 143.138 133.903 143.556C133.884 143.978 133.822 144.403 133.738 144.825C133.566 145.666 133.259 146.481 132.85 147.259C133.934 145.878 134.528 144.056 134.438 142.253C134.431 141.813 134.416 141.381 134.431 140.963C134.441 140.75 134.456 140.544 134.488 140.344C134.5 140.241 134.522 140.141 134.541 140.044L134.616 139.734C134.816 138.906 135.091 138.094 135.444 137.319C135.784 136.534 136.206 135.794 136.681 135.081Z" fill="white"/>
<path d="M127.256 168.159C126.781 169.044 126.222 169.9 125.759 170.819C125.284 171.728 124.881 172.666 124.453 173.581L124.134 174.269L123.822 174.975C123.712 175.206 123.625 175.45 123.525 175.687L123.384 176.05L123.253 176.412C122.919 177.391 122.637 178.387 122.462 179.406C122.294 180.428 122.19 181.459 122.209 182.494C122.219 184.562 122.697 186.616 123.553 188.462C122.981 186.506 122.684 184.5 122.778 182.503C122.828 181.506 122.94 180.512 123.144 179.537C123.334 178.556 123.609 177.594 123.944 176.653L124.065 176.3L124.2 175.95C124.29 175.719 124.375 175.481 124.478 175.253L125.084 173.862C125.478 172.922 125.865 171.987 126.272 171.066C126.681 170.15 127.165 169.256 127.575 168.312C127.981 167.375 128.303 166.366 128.309 165.341C128.14 166.35 127.74 167.278 127.256 168.159Z" fill="white"/>
<path d="M145.163 129.584C144.613 129.688 144.075 129.838 143.56 130.038C144.06 129.984 144.556 129.947 145.05 129.931C145.085 129.813 145.122 129.697 145.163 129.584Z" fill="white"/>
<path d="M130.156 169.959C130.303 169.966 130.453 169.941 130.591 169.884C130.866 169.769 131.084 169.553 131.259 169.322C131.606 168.85 131.822 168.306 132.003 167.763C132.187 167.222 132.309 166.659 132.456 166.119C132.606 165.566 132.709 165.003 132.819 164.447C132.922 163.894 133.031 163.344 133.178 162.803C133.25 162.534 133.334 162.275 133.431 162.006C133.525 161.741 133.616 161.475 133.719 161.213C133.922 160.694 134.15 160.181 134.484 159.741C134.653 159.522 134.844 159.319 135.072 159.159C135.3 159.003 135.559 158.888 135.831 158.812C135.55 158.85 135.272 158.934 135.019 159.078C134.766 159.222 134.544 159.413 134.347 159.628C133.959 160.063 133.684 160.581 133.453 161.103C133.337 161.366 133.231 161.631 133.131 161.897C133.028 162.159 132.928 162.434 132.847 162.709C132.681 163.263 132.569 163.825 132.459 164.381C132.356 164.938 132.256 165.491 132.122 166.034C131.994 166.594 131.878 167.141 131.731 167.681C131.578 168.219 131.403 168.753 131.112 169.222C130.969 169.453 130.787 169.669 130.55 169.797C130.309 169.925 130.016 169.931 129.744 169.847C129.875 169.9 130.009 169.95 130.156 169.959Z" fill="white"/>
<path d="M128.35 170.194C128.238 169.969 128.172 169.719 128.156 169.456C128.141 169.194 128.175 168.925 128.256 168.644C128.041 168.847 127.913 169.141 127.872 169.444C127.831 169.75 127.878 170.072 128.022 170.356C128.163 170.644 128.394 170.875 128.663 171.025C128.928 171.178 129.244 171.25 129.534 171.2C129.259 171.097 129.025 170.959 128.822 170.791C128.622 170.622 128.463 170.419 128.35 170.194Z" fill="white"/>
<path d="M158.141 99.1626C157.941 99.1407 157.747 99.2126 157.6 99.3407C157.587 99.3501 157.578 99.3657 157.566 99.3751C157.547 99.3938 157.528 99.4095 157.512 99.4313C157.5 99.447 157.491 99.4626 157.481 99.4813C157.416 99.5782 157.372 99.6907 157.366 99.8157C157.353 100.206 157.766 100.672 158.181 100.516C158.216 100.5 158.244 100.478 158.269 100.456C158.419 100.394 158.534 100.266 158.603 100.116C158.772 99.7595 158.637 99.2188 158.141 99.1626Z" fill="white"/>
<path d="M160.731 94.3999L160.484 94.4249C160.581 94.4343 160.656 94.4249 160.731 94.3999Z" fill="white"/>
<mask id="mask4_681_6754" style="mask-type:luminance" maskUnits="userSpaceOnUse" x="120" y="90" width="44" height="120">
<path d="M120.825 90.1343H163.941V209.859H120.825V90.1343Z" fill="white"/>
</mask>
<g mask="url(#mask4_681_6754)">
<path d="M161.481 99.3374L161.138 99.2093L161.209 98.9561L161.388 98.3593L161.472 98.0561L161.491 97.9843L161.834 98.0655L161.803 98.1749L161.481 99.3374ZM159.041 98.2811C159.078 98.078 159.172 98.0061 159.303 97.803L161.209 98.3093L161.05 98.8561C160.347 98.7218 159.719 98.4905 159.041 98.2811ZM158.647 100.359C158.459 100.691 158.288 101.097 158.131 101.447L157.609 101.266C157.519 101.231 157.416 101.247 157.341 101.309C157.109 101.503 156.813 101.519 156.994 102.316L157.013 102.409L157.519 102.584C157.478 102.641 157.434 102.7 157.397 102.753C157.294 102.897 157.169 103.166 157.072 103.262C156.984 103.35 156.9 103.406 156.803 103.441C156.656 103.347 156.494 103.272 156.338 103.191C156.225 103.131 156.106 103.062 155.981 103.019C155.959 102.969 155.938 102.922 155.919 102.872C155.85 102.669 155.806 102.447 155.794 102.228C155.825 102.059 155.863 101.891 155.906 101.725C156.109 100.925 156.406 100.153 156.797 99.4374C156.888 99.253 157 99.0811 157.1 98.9061C157.216 98.7374 157.322 98.5624 157.447 98.403C157.553 98.2499 157.672 98.103 157.794 97.9624C157.863 97.8968 157.928 97.8311 157.997 97.7624C158.416 97.3905 158.806 96.9968 159.194 96.5874C159.372 96.403 159.559 96.2124 159.741 96.0218C159.881 95.8843 160.041 95.7155 160.141 95.5593C160.416 95.5905 160.713 95.4843 160.928 95.3436C161.047 95.2655 161.2 95.1374 161.319 94.9874C161.472 96.2905 160.816 96.9686 160.263 97.803C159.897 97.7124 159.144 97.578 159.144 97.578C159.144 97.578 158.703 97.7999 158.722 98.5061C158.722 98.5499 158.744 98.5968 158.791 98.6061L159.606 98.8155C159.622 98.8218 159.638 98.828 159.656 98.8343C159.303 99.3311 158.906 99.8874 158.647 100.359ZM159.813 102.325L159.613 102.856C159.288 102.625 158.875 102.516 158.503 102.372C158.094 102.212 157.681 102.069 157.266 101.934C157.253 101.747 157.313 101.678 157.506 101.522L159.813 102.325ZM159.984 102.387L160.088 102.1L160.397 102.169L160.413 102.172L160.431 102.175L160.375 102.341L160.228 102.775L159.988 103.444C159.984 103.45 159.919 103.422 159.919 103.422L159.65 103.297L159.753 103.003L159.984 102.387ZM160.531 102.916C160.566 102.791 160.566 102.681 160.663 102.609C160.794 102.512 160.947 102.428 161.113 102.406C161.275 102.387 161.444 102.422 161.584 102.506C161.534 102.475 161.484 102.369 161.441 102.325C161.384 102.266 161.338 102.228 161.263 102.2C161.106 102.144 160.931 102.137 160.766 102.169C160.953 101.812 161.213 101.966 161.259 101.966C163.588 102.644 160.075 104.909 160.45 103.2L160.531 102.916ZM160.963 104.406C160.797 104.344 160.619 104.356 160.459 104.237C160.384 104.181 160.328 104.109 160.281 104.028C160.281 104.022 160.278 104.012 160.275 104.006C160.281 104.012 160.3 104.019 160.347 104.034L160.647 104.122C160.744 104.15 160.838 104.166 160.934 104.169C161.191 104.181 161.428 104.128 161.628 104.028C161.459 104.262 161.244 104.422 160.963 104.406ZM156.431 104.359C156.319 104.553 156.25 104.772 156.116 104.953C155.906 105.237 155.675 105.194 155.409 105.178L155.706 103.919C155.819 103.969 155.934 104.022 156.047 104.075C156.131 104.1 156.219 104.125 156.309 104.141C156.391 104.156 156.478 104.162 156.566 104.162C156.516 104.225 156.472 104.294 156.431 104.359ZM155.363 100.369C155.188 100.687 155.059 101.081 155 101.487L154.438 102.534C154.422 102.566 154.406 102.6 154.394 102.637C154.384 102.666 154.375 102.694 154.366 102.722L154.35 102.775L154.241 103.169L154.181 103.381L147.153 128.441L146.969 129.103L140.244 153.078C140.253 153.081 140.263 153.081 140.269 153.084C140.159 153.422 140.056 153.762 139.956 154.103C139.888 154.337 139.819 154.569 139.753 154.8C139.681 155.062 139.609 155.325 139.541 155.587C139.478 155.825 139.416 156.066 139.356 156.303C139.284 156.547 139.209 156.787 139.134 157.031C139.091 157.178 139.047 157.325 139 157.472C138.763 158.253 138.528 159.037 138.3 159.822L137.938 161.062L137.609 162.178C137.6 162.25 137.597 162.3 137.591 162.35C137.491 163.334 137.409 164.322 137.316 165.306L137.034 168.416L136.906 169.962L136.897 170.097L136.7 170.081C136.703 170.034 136.469 172.697 136.409 173.578C136.188 173.541 135.975 173.5 135.781 173.459C135.844 172.828 135.906 172.197 135.969 171.569L136.263 168.506L136.559 165.444L136.888 162.4L136.941 162.2C137.084 162.234 137.234 162.266 137.388 162.303C137.397 162.212 137.4 162.206 137.4 162.203L137.713 161.091C137.572 161.109 137.406 161.131 137.231 161.153L137.366 160.666C137.581 160.584 137.734 160.375 137.763 160.153C137.769 160.144 137.772 160.134 137.772 160.119C137.769 159.947 137.725 159.778 137.653 159.622L137.919 158.659L138.253 157.406C138.441 156.712 138.622 156.016 138.803 155.319C138.85 155.197 138.897 155.072 138.938 154.947C139.072 154.553 139.194 154.156 139.309 153.756C139.381 153.5 139.45 153.244 139.516 152.984C139.659 152.997 139.813 153.016 139.972 153.037L146.688 129.091L146.875 128.425L153.969 103.119L154.019 102.95L154.075 102.744L154.103 102.647C154.106 102.628 154.116 102.609 154.122 102.587C154.141 102.528 154.166 102.466 154.194 102.409L155.513 99.9561C155.459 100.091 155.413 100.225 155.369 100.362C155.366 100.366 155.363 100.366 155.363 100.369ZM155.213 103.694L148.678 128.6L148.506 129.253L142.556 151.947C142.416 152.334 142.288 152.725 142.169 153.122C142.134 153.237 142.1 153.353 142.069 153.469C141.963 153.837 141.859 154.206 141.763 154.575C141.641 155.062 141.519 155.553 141.416 156.044C141.366 156.266 141.322 156.487 141.281 156.706L140.988 157.816C140.784 158.587 140.578 159.362 140.388 160.137L140.05 161.466L139.797 162.462C139.784 162.606 139.775 162.725 139.763 162.847C139.688 163.756 139.616 164.666 139.55 165.575L139.322 168.669L139.216 170.325L139.031 170.312C138.941 171.766 138.859 173.078 138.806 173.9C138.541 173.872 138.244 173.837 137.934 173.8C138.009 173.075 138.081 172.353 138.153 171.628L138.447 168.472L138.713 165.316C138.788 164.428 138.859 163.541 138.928 162.653C139.131 162.7 139.328 162.747 139.513 162.787C139.541 162.366 139.544 162.35 139.547 162.341L139.791 161.409C139.588 161.362 139.388 161.319 139.203 161.281L139.609 159.762C139.828 158.956 140.034 158.15 140.244 157.341L140.4 156.731C140.581 156.137 140.75 155.541 140.909 154.941C141.05 154.394 141.188 153.841 141.313 153.287C141.509 153.331 141.703 153.378 141.888 153.422L148.234 129.219L148.406 128.562L154.956 103.581L154.972 103.528L154.988 103.462L155.028 103.309L155.056 103.209L155.091 103.072C155.103 103.156 155.116 103.244 155.134 103.328C155.138 103.353 155.141 103.378 155.147 103.4C155.153 103.437 155.178 103.456 155.206 103.462C155.228 103.469 155.253 103.469 155.275 103.456L155.213 103.694ZM150.616 127.472L150.644 127.591L150.653 127.622C150.65 127.634 150.653 127.641 150.65 127.656C150.647 127.681 150.65 127.703 150.656 127.725C150.669 127.778 150.672 127.772 150.675 127.781C150.681 127.794 150.691 127.812 150.694 127.819C150.709 127.844 150.719 127.856 150.731 127.869L150.781 127.928L150.872 128.034C150.994 128.166 151.119 128.291 151.244 128.416C151.678 128.834 152.144 129.222 152.634 129.575C151.941 129.316 151.231 129.106 150.513 128.937C150.513 128.809 150.513 128.681 150.509 128.553C150.413 128.65 150.35 128.769 150.288 128.884C150.278 128.884 150.266 128.881 150.259 128.878C150.25 128.912 150.238 128.947 150.228 128.981C150.169 129.122 150.116 129.244 150.069 129.369C149.963 129.65 149.878 129.937 149.813 130.225C149.778 130.372 149.747 130.516 149.722 130.656C149.716 130.678 149.713 130.697 149.709 130.719C149.519 130.716 149.328 130.722 149.131 130.741L150.284 126.056C150.309 126.191 150.334 126.328 150.366 126.462C150.434 126.806 150.534 127.141 150.616 127.472ZM138.853 175.619C138.775 175.584 138.684 175.587 138.609 175.625C138.534 175.659 138.484 175.728 138.466 175.803C138.428 175.95 138.513 176.081 138.625 176.128C138.731 176.181 138.888 176.156 138.975 176.031C139.019 175.969 139.034 175.884 139.013 175.806C138.994 175.725 138.931 175.656 138.853 175.619C139.009 175.687 139.116 175.878 139.059 176.069C139.031 176.162 138.959 176.25 138.863 176.294C138.769 176.341 138.65 176.341 138.55 176.297C138.45 176.25 138.372 176.162 138.344 176.059C138.313 175.956 138.331 175.847 138.381 175.762C138.488 175.594 138.7 175.547 138.853 175.619ZM138.953 174.8C138.95 174.819 138.95 174.837 138.95 174.859C138.95 174.837 138.953 174.819 138.953 174.8L139.025 174.806C139.025 174.806 139.034 174.672 139.047 174.431C139.066 174.472 139.072 174.516 139.072 174.562C139.197 174.622 139.284 174.744 139.284 174.887C139.284 175.091 139.119 175.253 138.909 175.253C138.703 175.253 138.534 175.091 138.534 174.887C138.534 174.737 138.631 174.606 138.766 174.55C138.756 174.703 138.75 174.787 138.75 174.787L138.953 174.8ZM153.422 130.647C155.144 131.466 156.669 132.722 157.638 134.359C158.613 135.987 159.034 137.922 158.969 139.822C158.963 140.062 158.947 140.297 158.922 140.534C158.894 140.772 158.866 141 158.813 141.222C158.7 141.672 158.538 142.128 158.369 142.581C158.028 143.487 157.65 144.391 157.306 145.312C156.966 146.231 156.644 147.169 156.438 148.15C156.334 148.637 156.263 149.141 156.269 149.659C156.272 150.169 156.359 150.712 156.653 151.191L156.541 151.203C156.294 151.228 156.047 151.253 155.797 151.294C155.297 151.375 154.784 151.512 154.319 151.775C153.853 152.034 153.459 152.422 153.172 152.859C152.884 153.297 152.681 153.775 152.534 154.259C152.25 155.219 152.063 156.187 151.931 157.169C151.806 158.15 151.744 159.137 151.753 160.128C151.766 161.119 151.85 162.112 152.047 163.091C152.247 164.069 152.559 165.044 153.113 165.909C153.391 166.341 153.738 166.741 154.163 167.056C154.584 167.375 155.081 167.597 155.6 167.697L155.678 167.712C155.691 167.716 155.697 167.719 155.706 167.722C155.725 167.731 155.741 167.744 155.753 167.759C155.766 167.775 155.769 167.791 155.775 167.806C155.775 167.828 155.778 167.816 155.766 167.9L155.722 168.278L155.697 168.653C155.669 169.15 155.669 169.644 155.678 170.137C155.722 172.106 155.906 174.056 156.122 176.003C156.175 176.487 156.238 176.975 156.3 177.459L156.394 178.191C156.428 178.419 156.447 178.656 156.459 178.897C157.025 189.794 150.669 197.959 138.194 197.578C142.016 197.491 145.903 196.325 149.15 194.278C153.906 191.309 155.866 185.447 155.722 179.841C155.706 179.344 155.666 178.85 155.622 178.356C155.853 190.975 147.509 197.537 136.284 196.875C136.553 196.647 136.731 196.309 136.744 195.928C136.875 192.241 137.181 183.122 137.428 182.531C137.731 181.8 139.863 174.006 139.863 174.006C139.863 174.006 139.55 173.978 139.081 173.931C139.094 173.703 139.109 173.441 139.128 173.144C139.175 172.687 139.219 172.231 139.266 171.772L139.55 168.687L139.809 165.597C139.884 164.7 139.956 163.803 140.022 162.906C140.366 162.984 140.631 163.047 140.763 163.075C140.744 162.922 140.722 162.766 140.706 162.616L140.194 162.487L140.181 162.353C140.181 162.353 140.547 162.372 140.747 162.378C141.269 162.212 141.797 162.081 142.331 161.969C142.006 161.897 141.153 161.709 140.297 161.519L140.619 160.194C140.809 159.419 140.991 158.641 141.172 157.859L141.472 156.572C141.522 156.412 141.572 156.256 141.622 156.097C141.769 155.616 141.9 155.131 142.028 154.644C142.122 154.272 142.213 153.9 142.297 153.525C142.547 153.591 142.775 153.653 142.959 153.703C143.231 153.781 143.513 153.616 143.581 153.341L149.088 130.928C149.275 131.016 149.469 131.084 149.663 131.144L149.769 131.175L149.825 131.191C149.859 131.2 149.9 131.2 149.931 131.194C150 131.187 150.075 131.122 150.084 131.1L150.1 131.078C150.106 131.066 150.119 131.05 150.125 131.037C150.175 130.931 150.194 130.869 150.222 130.791C150.272 130.644 150.309 130.5 150.344 130.353C150.4 130.112 150.441 129.869 150.469 129.622C151.488 129.869 152.481 130.2 153.422 130.647ZM158.603 133.219C159.425 133.837 160.166 134.547 160.803 135.337C161.119 135.734 161.409 136.15 161.656 136.591C161.909 137.028 162.122 137.487 162.291 137.959C162.638 138.906 162.813 139.912 162.819 140.919C162.822 141.422 162.784 141.928 162.709 142.428L162.678 142.616C162.672 142.675 162.659 142.728 162.647 142.784C162.619 142.9 162.588 143.019 162.55 143.137C162.478 143.375 162.391 143.619 162.3 143.856C161.931 144.825 161.509 145.791 161.138 146.784C160.769 147.781 160.422 148.797 160.234 149.881C160.144 150.422 160.094 150.984 160.147 151.562C160.175 151.85 160.228 152.144 160.328 152.431C160.338 152.466 160.356 152.503 160.369 152.537C160.375 152.553 160.381 152.575 160.388 152.594C160.288 152.547 160.188 152.497 160.088 152.45C159.744 152.081 159.109 151.978 158.659 151.769C158.247 151.578 157.844 151.362 157.434 151.166C157.422 151.059 157.372 150.944 157.319 150.869L157.281 150.812C157.088 150.506 157.003 150.091 157 149.653C156.994 149.212 157.056 148.753 157.15 148.297C157.341 147.381 157.65 146.469 157.984 145.566C158.319 144.656 158.691 143.759 159.038 142.831C159.209 142.366 159.378 141.9 159.506 141.387C159.534 141.262 159.563 141.119 159.581 140.991C159.6 140.862 159.616 140.737 159.628 140.609C159.653 140.356 159.672 140.1 159.678 139.847C159.744 137.825 159.291 135.759 158.234 134.003C157.759 133.212 157.166 132.494 156.491 131.875C157.228 132.272 157.938 132.716 158.603 133.219ZM159.931 153.009C159.734 153.066 159.544 153.144 159.366 153.241L156.522 151.947C156.553 151.944 156.581 151.937 156.613 151.937L156.791 151.919C156.797 151.919 156.831 151.916 156.888 151.906C156.934 151.897 156.978 151.881 157.022 151.862C157.075 151.837 157.122 151.809 157.169 151.775C158.034 152.244 159.009 152.675 159.931 152.984C159.944 152.991 159.953 152.994 159.966 153L159.931 153.009ZM157.894 154.669C157.584 155.147 157.353 155.656 157.159 156.169C156.966 156.684 156.819 157.2 156.691 157.728C156.434 158.775 156.275 159.844 156.216 160.922C156.156 161.997 156.194 163.084 156.372 164.162C156.553 165.234 156.878 166.312 157.459 167.281C157.575 167.469 157.7 167.653 157.838 167.828C157.372 167.659 156.903 167.503 156.434 167.375C156.416 167.344 156.394 167.309 156.372 167.278C156.284 167.169 156.175 167.081 156.05 167.022C155.991 166.991 155.925 166.969 155.859 166.953L155.753 166.931C155.341 166.85 154.963 166.681 154.628 166.434C154.294 166.184 154.003 165.859 153.763 165.491C153.284 164.747 152.988 163.853 152.8 162.937C152.613 162.022 152.528 161.072 152.516 160.122C152.503 159.169 152.559 158.212 152.681 157.266C152.803 156.325 152.984 155.375 153.25 154.478C153.513 153.606 153.959 152.819 154.684 152.422C155.041 152.216 155.459 152.097 155.913 152.025L155.819 152.228L156.025 152.322C155.9 152.341 155.775 152.372 155.653 152.412C155.325 152.528 155.028 152.725 154.769 152.959C154.247 153.444 153.938 154.103 153.741 154.756C153.641 155.084 153.563 155.412 153.5 155.741C153.434 156.066 153.372 156.391 153.313 156.719C153.197 157.375 153.119 158.037 153.05 158.703C153 159.372 152.984 160.044 153.006 160.719C153.047 161.391 153.125 162.069 153.281 162.728C153.438 163.387 153.678 164.028 153.981 164.631C154.3 165.225 154.7 165.772 155.166 166.244C154.828 165.672 154.525 165.094 154.309 164.487C154.094 163.875 153.944 163.25 153.841 162.619C153.659 161.347 153.666 160.056 153.778 158.766C153.831 158.116 153.906 157.472 153.994 156.822C154.081 156.175 154.166 155.519 154.291 154.9C154.344 154.662 154.409 154.425 154.488 154.197C154.925 153.469 155.597 152.884 156.494 152.534L158.828 153.597C158.45 153.906 158.147 154.281 157.894 154.669ZM158.413 168.737C158.538 168.778 158.663 168.831 158.794 168.884C158.884 168.922 158.978 168.959 159.072 168.997C159.372 169.197 159.688 169.369 160.022 169.5C160.156 169.55 160.294 169.597 160.431 169.637L160.481 169.653C160.45 169.791 160.428 169.912 160.409 170.034L156.5 168.419L156.503 168.35L156.538 168.053C157.156 168.3 157.788 168.516 158.413 168.737ZM157.266 178.85C157.25 178.6 157.231 178.341 157.194 178.081L157.097 177.356C157.034 176.878 156.975 176.394 156.919 175.912C156.7 173.984 156.516 172.044 156.466 170.122C156.456 169.881 156.459 169.644 156.459 169.406C156.463 169.272 156.466 169.134 156.469 169L156.944 169.197C157.116 171.45 157.378 173.691 157.547 175.931C157.625 177.072 157.7 178.209 157.709 179.347C157.728 180.484 157.703 181.622 157.591 182.747C157.491 183.875 157.303 184.987 157.013 186.078C156.734 187.172 156.35 188.241 155.9 189.278C155.547 190.081 155.144 190.862 154.694 191.619C154.281 192.141 153.85 192.647 153.394 193.122C152.659 193.869 151.872 194.562 151.006 195.137C150.147 195.725 149.231 196.197 148.241 196.531C148.238 196.531 148.231 196.534 148.228 196.537C149.1 196.106 149.928 195.587 150.706 194.997C151.506 194.378 152.25 193.678 152.906 192.909C154.228 191.372 155.222 189.581 155.916 187.7C156.609 185.816 157.031 183.844 157.203 181.856C157.291 180.859 157.319 179.862 157.266 178.85ZM160.959 178.062C161.163 179.062 161.225 180.084 161.222 181.116C161.219 182.144 161.138 183.172 160.988 184.191C160.684 186.228 160.091 188.228 159.166 190.059C158.244 191.891 156.972 193.547 155.4 194.866C154.622 195.531 153.763 196.1 152.866 196.6C151.966 197.094 151.016 197.5 150.041 197.831C148.084 198.497 146.022 198.837 143.953 198.972C143.584 198.994 143.219 199.012 142.85 199.022C143.3 198.981 143.75 198.909 144.188 198.806C144.616 198.784 145.044 198.744 145.472 198.687C145.8 198.637 146.128 198.587 146.456 198.528L147.431 198.309C147.753 198.225 148.072 198.125 148.394 198.034L149.341 197.709L150.263 197.328C150.566 197.184 150.869 197.047 151.166 196.9L152.044 196.419C152.328 196.247 152.609 196.069 152.888 195.887C153.994 195.15 155.016 194.284 155.881 193.284C154.813 194.059 153.725 194.772 152.591 195.403C152.303 195.55 152.019 195.7 151.734 195.856L150.866 196.278C150.569 196.406 150.275 196.541 149.981 196.672L149.081 197.028L148.172 197.356C148.009 197.406 147.847 197.456 147.684 197.506C147.953 197.409 148.222 197.312 148.491 197.219C149.516 196.856 150.513 196.341 151.403 195.706C152.291 195.066 153.103 194.328 153.813 193.509C154.663 192.531 155.394 191.456 155.997 190.319C156.009 190.294 156.025 190.266 156.041 190.237C156.059 190.2 156.078 190.162 156.1 190.125C156.206 189.925 156.316 189.725 156.419 189.519C156.941 188.478 157.353 187.381 157.681 186.259C158 185.137 158.203 183.978 158.316 182.816C158.528 180.491 158.394 178.162 158.113 175.872C157.838 173.628 157.419 171.412 156.959 169.203L160.344 170.6C160.309 170.978 160.3 171.353 160.297 171.725C160.297 172.8 160.378 173.859 160.494 174.916C160.609 175.969 160.766 177.019 160.959 178.062ZM134.75 208.697L134.288 208.975L134.181 208.325L135.691 198.784C135.863 198.834 136.034 198.887 136.206 198.934L134.75 208.697ZM136.253 187.753C136.347 186.428 136.416 185.112 136.559 183.775C136.778 182.447 137.166 181.175 137.578 179.912C137.441 180.562 137.294 181.209 137.169 181.862C137.041 182.512 136.916 183.162 136.841 183.812L136.619 187.778C136.531 189.103 136.441 190.428 136.328 191.75C136.219 193.072 136.091 194.394 135.934 195.716C135.947 194.387 135.984 193.059 136.044 191.731C136.097 190.406 136.172 189.078 136.253 187.753ZM136.497 175.428C136.425 175.466 136.375 175.531 136.356 175.603C136.322 175.75 136.403 175.884 136.516 175.931C136.625 175.981 136.781 175.956 136.866 175.831C136.894 175.791 136.909 175.737 136.913 175.681C136.934 175.75 136.938 175.828 136.916 175.903C136.888 175.997 136.816 176.084 136.719 176.128C136.625 176.175 136.506 176.175 136.406 176.131C136.306 176.087 136.228 175.997 136.2 175.894C136.169 175.794 136.188 175.681 136.238 175.6C136.3 175.5 136.397 175.447 136.497 175.428ZM137.575 176.019C137.684 176.069 137.841 176.044 137.928 175.919C137.969 175.859 137.984 175.775 137.963 175.694C137.944 175.612 137.881 175.544 137.806 175.509C137.963 175.575 138.066 175.766 138.009 175.956C137.981 176.05 137.913 176.137 137.816 176.184C137.719 176.228 137.6 176.228 137.5 176.184C137.4 176.141 137.322 176.05 137.294 175.947C137.263 175.847 137.281 175.734 137.334 175.653C137.438 175.481 137.653 175.434 137.803 175.509C137.728 175.475 137.634 175.475 137.559 175.512C137.488 175.55 137.434 175.619 137.419 175.691C137.381 175.837 137.463 175.972 137.575 176.019ZM137.959 174.362C137.959 174.387 137.959 174.412 137.953 174.437C137.953 174.459 137.953 174.469 137.95 174.478C138.109 174.522 138.225 174.659 138.225 174.828C138.225 175.028 138.059 175.194 137.85 175.194C137.644 175.194 137.475 175.028 137.475 174.828C137.475 174.728 137.519 174.644 137.584 174.578C137.588 174.569 137.578 174.697 137.578 174.697L137.834 174.712C137.831 174.737 137.831 174.759 137.831 174.781C137.831 174.759 137.834 174.737 137.838 174.712C137.853 174.716 137.878 174.316 137.878 174.316C137.881 174.281 137.888 174.247 137.891 174.212C137.931 174.231 137.969 174.272 137.963 174.319C137.963 174.331 137.959 174.341 137.956 174.35C137.959 174.353 137.959 174.359 137.959 174.362ZM138.581 161.825C138.6 161.706 138.644 161.509 138.728 161.178C138.497 161.128 138.313 161.091 138.2 161.069L138.534 159.891C138.759 159.103 138.981 158.316 139.194 157.525C139.203 157.497 139.209 157.466 139.219 157.437C139.516 156.591 139.772 155.734 140.019 154.875C140.178 154.294 140.334 153.706 140.475 153.119C140.606 153.144 140.738 153.169 140.872 153.197C140.925 152.997 140.978 152.797 141.034 152.594C142.369 147.687 144.244 140.847 146.6 132.269C146.888 131.222 147.175 130.178 147.459 129.137C147.522 128.916 147.581 128.697 147.644 128.475C150.741 117.219 153.663 106.622 154.503 103.584C154.538 103.453 154.572 103.334 154.6 103.234C154.653 103.037 154.694 102.897 154.716 102.812C154.731 102.756 154.741 102.725 154.741 102.719L154.747 102.7L154.966 101.922C154.963 102.169 154.984 102.416 155.047 102.647L155.016 102.75L155.006 102.794C155.003 102.8 155 102.816 154.994 102.841C154.975 102.909 154.931 103.059 154.872 103.281C154.85 103.359 154.825 103.447 154.797 103.544C154.006 106.416 151.066 117.069 147.922 128.503C147.859 128.722 147.8 128.941 147.741 129.159C145.469 137.416 143.113 146.009 141.391 152.319C141.291 152.625 141.194 152.931 141.1 153.241C140.938 153.781 140.788 154.325 140.644 154.872C140.488 155.481 140.338 156.091 140.203 156.703C140.178 156.812 140.156 156.925 140.131 157.037L140.059 157.291C139.975 157.578 139.894 157.866 139.813 158.153C139.666 158.669 139.519 159.181 139.378 159.7L138.953 161.228L138.709 162.112C138.691 162.287 138.678 162.441 138.666 162.594C138.591 163.494 138.522 164.394 138.456 165.294L138.219 168.456L138.106 170.147L138.022 170.141L137.884 170.131L137.641 173.762C137.322 173.722 136.994 173.675 136.681 173.625C136.684 173.572 136.688 173.519 136.694 173.466C136.769 172.822 136.844 172.181 136.919 171.537L137.253 168.437L137.569 165.331C137.663 164.356 137.766 163.384 137.853 162.409C138.072 162.459 138.294 162.509 138.513 162.559L138.569 161.875C138.581 161.862 138.581 161.844 138.584 161.828L138.581 161.825ZM136.553 174.597C136.553 174.609 136.553 174.625 136.55 174.637C136.553 174.625 136.556 174.609 136.556 174.597L136.619 174.6C136.619 174.594 136.631 174.381 136.656 174.031C136.666 174.031 136.675 174.034 136.684 174.037C136.756 174.037 136.828 174.1 136.816 174.191C136.806 174.237 136.797 174.281 136.784 174.325C136.944 174.369 137.063 174.5 137.063 174.659C137.063 174.853 136.888 175.009 136.675 175.009C136.463 175.009 136.294 174.853 136.294 174.659C136.294 174.591 136.316 174.528 136.353 174.475C136.347 174.544 136.347 174.581 136.347 174.584L136.553 174.597ZM134.566 192.137L134.309 193.787L134.188 194.616L134.131 195.028L134.109 195.234C134.106 195.303 134.088 195.375 134.106 195.441C134.081 195.375 134.094 195.303 134.091 195.234L134.097 195.025C134.1 194.884 134.109 194.747 134.119 194.606L134.184 193.772C134.234 193.219 134.288 192.662 134.347 192.109C134.466 191 134.597 189.894 134.741 188.787C134.878 187.684 135.034 186.581 135.188 185.478C135.35 184.378 135.503 183.281 135.678 182.184C135.672 181.047 135.675 179.909 135.688 178.772C135.691 178.203 135.7 177.631 135.713 177.059C135.719 176.709 135.725 176.359 135.734 176.012C135.7 176.028 135.666 176.044 135.631 176.05C135.525 176.069 135.413 176.041 135.325 175.969C135.241 175.9 135.191 175.794 135.188 175.687C135.184 175.581 135.231 175.478 135.303 175.412C135.375 175.344 135.469 175.312 135.559 175.312C135.494 175.337 135.438 175.381 135.406 175.437C135.334 175.572 135.381 175.719 135.475 175.794C135.55 175.859 135.669 175.881 135.772 175.834C135.784 175.828 135.8 175.819 135.813 175.809C135.822 175.803 135.831 175.797 135.841 175.791C135.884 175.753 135.916 175.7 135.928 175.641C135.938 175.722 135.925 175.806 135.875 175.881C135.853 175.919 135.822 175.953 135.784 175.978C135.803 176.337 135.822 176.697 135.838 177.056C135.866 177.628 135.891 178.197 135.909 178.769C135.95 179.909 135.984 181.053 136.009 182.194C136.006 182.219 135.55 185.528 135.55 185.528L135.066 188.834L134.566 192.137ZM135.888 174.509C135.888 174.719 135.747 174.887 135.575 174.887C135.403 174.887 135.266 174.719 135.266 174.509C135.266 174.356 135.338 174.228 135.444 174.166C135.438 174.344 135.431 174.444 135.431 174.45L135.669 174.456C135.666 174.516 135.663 174.572 135.659 174.628C135.666 174.572 135.672 174.516 135.678 174.456L135.706 174.459C135.706 174.453 135.713 174.297 135.722 174.031C135.725 174.022 135.725 174.012 135.725 174C135.769 174.041 135.794 174.103 135.75 174.169C135.747 174.172 135.744 174.181 135.741 174.184C135.828 174.253 135.888 174.372 135.888 174.509ZM133.344 196.469C132.872 196.356 132.4 196.237 131.938 196.084C131.472 195.941 131.019 195.766 130.569 195.578C130.128 195.378 129.691 195.172 129.272 194.922C128.428 194.434 127.638 193.853 126.894 193.216C125.403 191.937 124.125 190.406 123.147 188.681C123.566 189.581 124.088 190.431 124.681 191.228C125.278 192.025 125.938 192.781 126.666 193.466C127.391 194.156 128.184 194.775 129.034 195.316C129.459 195.584 129.903 195.825 130.363 196.044C130.822 196.25 131.284 196.447 131.759 196.609C132.184 196.759 132.613 196.887 133.047 197C132.728 196.937 132.413 196.866 132.1 196.787C132.034 196.753 131.966 196.722 131.9 196.684L131.878 196.728C131.516 196.634 131.159 196.531 130.806 196.416C128.994 195.816 127.291 194.884 125.903 193.587C124.513 192.3 123.453 190.672 122.772 188.894C122.084 187.119 121.75 185.209 121.675 183.294C121.609 181.381 121.784 179.447 122.241 177.591C122.356 177.131 122.488 176.672 122.653 176.234C122.734 176.009 122.822 175.803 122.922 175.584C123.019 175.362 123.119 175.144 123.225 174.925C123.634 174.05 124.078 173.187 124.541 172.334L125.953 169.766C126.422 168.903 126.881 168.019 127.216 167.059C127.384 166.581 127.513 166.081 127.584 165.569C127.622 165.312 127.641 165.056 127.644 164.794V164.6C127.644 164.553 127.644 164.572 127.647 164.562C127.653 164.534 127.666 164.519 127.684 164.512C127.691 164.512 127.688 164.512 127.703 164.506L127.8 164.487C127.863 164.475 127.928 164.462 127.991 164.447C128.116 164.416 128.244 164.381 128.369 164.344C128.616 164.266 128.859 164.172 129.094 164.062C129.566 163.847 130.006 163.575 130.413 163.262C131.225 162.634 131.897 161.856 132.45 161.016C133.006 160.178 133.45 159.272 133.809 158.344C134.169 157.412 134.453 156.466 134.675 155.494C134.891 154.525 135.034 153.531 135.038 152.525C135.041 152.019 135.006 151.512 134.906 151.006C134.809 150.503 134.644 149.997 134.366 149.541C134.091 149.081 133.678 148.684 133.188 148.447C132.806 148.259 132.394 148.166 131.984 148.137C132.044 148.066 132.1 147.991 132.156 147.916C132.309 147.709 132.447 147.491 132.569 147.269C132.816 146.822 133.013 146.353 133.153 145.866C133.447 144.894 133.531 143.872 133.469 142.872C133.453 142.622 133.431 142.372 133.394 142.125L133.35 141.769C133.338 141.653 133.328 141.537 133.325 141.419C133.303 140.953 133.334 140.478 133.397 140.009C133.528 139.069 133.788 138.141 134.138 137.25C134.844 135.472 135.919 133.834 137.294 132.503C138.666 131.175 140.353 130.178 142.184 129.631C143.266 129.303 144.384 129.134 145.513 129.091C142.409 139.653 139.394 149.934 138.706 152.519C138.644 152.744 138.816 152.959 139.047 152.959L145.878 129.081L146.069 128.409L153.338 103.006L153.366 102.906C153.391 102.822 153.422 102.741 153.463 102.662C153.466 102.656 153.469 102.644 153.475 102.634L153.497 102.594L153.553 102.487L153.584 102.434C153.584 102.353 153.588 102.269 153.591 102.187C153.638 102.203 153.7 102.194 153.731 102.141C153.806 102.019 153.872 101.887 153.931 101.759C153.931 101.769 153.931 101.778 153.931 101.787L156.047 97.8655L156.288 97.9936L156.181 98.1936L156.284 98.2249L156.141 98.7436C155.897 99.1186 155.688 99.5218 155.519 99.9405L155.822 98.8561L154 102.237C154.003 102.281 154 102.322 154.003 102.366C154 102.431 154 102.5 154.003 102.566C153.984 102.466 153.981 102.369 153.981 102.269L153.947 102.337C153.95 102.412 153.956 102.487 153.966 102.559L153.838 102.537L153.75 102.7L153.716 102.762C153.684 102.822 153.659 102.884 153.641 102.95C153.634 102.969 153.631 102.975 153.631 102.981L153.609 103.053L146.356 128.412L146.163 129.081L139.653 151.841C139.569 152.056 139.491 152.275 139.419 152.491C139.363 152.65 139.313 152.809 139.263 152.966C139.188 153.203 139.116 153.444 139.047 153.681C138.934 154.081 138.825 154.484 138.731 154.887C138.681 155.109 138.631 155.331 138.591 155.553C138.588 155.572 138.584 155.587 138.581 155.603C138.525 155.794 138.469 155.984 138.413 156.172C138.297 156.566 138.178 156.959 138.063 157.353L137.697 158.597L137.481 159.35C137.422 159.275 137.353 159.206 137.278 159.144C136.444 158.45 134.769 158.606 133.922 161.369C132.884 164.753 132.247 168.237 131.694 169.281C131.209 170.2 130.113 170.694 129.391 169.894C129.828 169.725 130.091 169.253 129.934 168.812C129.741 168.284 129.016 168.172 128.606 168.503C128.128 168.891 128.228 169.7 128.541 170.175C129.519 171.659 131.763 170.775 132.497 169.616C134.038 167.175 134.722 161.984 135.378 159.644C135.944 159.184 136.722 158.931 137.228 159.319C137.278 159.356 137.325 159.397 137.369 159.447C137.316 159.422 137.263 159.4 137.209 159.387C137.028 159.347 136.834 159.378 136.666 159.509C136.234 159.853 136.456 160.478 136.847 160.647C136.909 160.672 136.978 160.687 137.05 160.687C137.066 160.691 137.081 160.691 137.097 160.694L136.956 161.191L136.684 162.144L136.628 162.337C136.5 163.378 136.403 164.4 136.306 165.422C136.213 166.441 136.119 167.462 136.041 168.487L135.944 169.872L135.706 169.853C135.591 171.181 135.516 172.528 135.475 173.419C135.222 173.447 135.022 173.7 135.047 173.975L135.172 178.175C135.375 180.456 135.309 182.887 134.959 185.15L133.556 195.616C133.503 195.959 133.588 196.287 133.769 196.553C133.628 196.525 133.484 196.497 133.344 196.469ZM156.178 98.6843L156.263 98.3374L156.372 98.3655L156.959 97.2686L157.203 97.3999L157.125 97.5405C156.863 97.7936 156.619 98.0718 156.397 98.3718C156.353 98.428 156.313 98.4905 156.272 98.5499C156.241 98.5968 156.206 98.6374 156.178 98.6843ZM153.663 101.331C153.7 100.766 153.797 100.2 153.981 99.6624C154.55 97.9843 155.766 96.9468 157.278 96.0936C157.425 96.1124 157.575 96.1218 157.725 96.1186C157.884 96.1124 158.044 96.0874 158.2 96.0593C158.334 95.9999 158.775 95.7749 158.897 95.7343C159.041 95.6874 159.397 95.553 159.669 95.5405C159.447 95.803 159.238 96.0811 159.019 96.3405C158.953 96.3905 158.9 96.4374 158.866 96.4686C158.441 96.8843 157.988 97.2749 157.594 97.7186C157.578 97.7311 157.575 97.7499 157.575 97.7655C157.269 98.0999 156.994 98.4624 156.753 98.8499C156.728 98.828 156.684 98.8218 156.663 98.8593C156.509 99.1249 156.356 99.403 156.213 99.6936C155.766 100.581 155.413 101.566 155.513 102.522C155.519 102.569 155.522 102.616 155.531 102.662C155.525 102.722 155.525 102.781 155.522 102.841L155.5 102.837C155.494 102.825 155.488 102.809 155.481 102.797C155.456 102.325 155.463 101.859 155.513 101.397C155.513 101.381 155.516 101.369 155.519 101.356C155.578 101.047 155.653 100.744 155.744 100.447C155.906 99.9061 156.128 99.3905 156.409 98.8905C156.722 98.3343 157.116 97.7999 157.597 97.2749C157.838 97.053 158.091 96.8436 158.356 96.6561L158.725 96.3968L158.288 96.353C157.919 96.3155 157.544 96.3499 157.197 96.4686C156.844 96.5843 156.522 96.7749 156.234 96.9936C155.656 97.4374 155.188 98.0093 154.819 98.6374C154.453 99.2655 154.184 99.9561 154.05 100.672C154.022 100.812 154.003 100.95 153.984 101.091C153.85 101.322 153.722 101.559 153.619 101.803C153.634 101.622 153.653 101.456 153.663 101.331ZM153.694 98.0936C153.666 98.0874 153.638 98.0936 153.616 98.1061L153.747 97.5155L154.553 97.7218C154.434 97.8905 154.322 98.0655 154.219 98.2468C154.041 98.1811 153.869 98.1249 153.694 98.0936ZM153.413 98.1718L153.341 98.4874L153.328 98.5468L152.975 98.5124L153 98.3999L153.288 97.0593L153.638 97.1718L153.572 97.4686L153.413 98.1718ZM151.875 96.7155C151.838 96.7624 151.9 96.8311 151.947 96.7843C152.066 96.6686 152.247 96.6499 152.406 96.7093C152.572 96.7718 152.659 96.953 152.7 97.1186C152.759 97.3749 152.663 97.628 152.672 97.8811C152.609 98.028 152.547 98.1186 152.416 98.178C152.303 98.2311 152.175 98.2374 152.059 98.1905L151.781 98.078C151.309 97.8905 151.078 97.3405 151.259 96.853C151.647 95.8124 153.194 96.3061 152.994 97.0061C152.956 96.8968 152.9 96.7999 152.828 96.7218C152.566 96.4374 152.128 96.3999 151.875 96.7155ZM152.222 98.6968C152.081 98.678 151.941 98.6624 151.806 98.6343C151.7 98.5936 151.591 98.5593 151.484 98.5186C151.466 98.5093 151.444 98.4968 151.425 98.4843C151.188 98.328 151.025 98.0593 151.006 97.7749C151.284 98.3093 151.913 98.6343 152.4 98.5374C152.347 98.6093 152.291 98.6686 152.222 98.6968ZM156.497 94.978C156.272 94.7311 156.122 94.453 156.038 94.0874C155.959 93.7436 155.913 93.3968 155.916 93.0468C155.919 92.4936 156.041 91.9374 156.338 91.4655C156.809 90.7093 157.694 90.2499 158.584 90.3686C156.688 90.4811 155.622 93.903 157.381 94.7186C156.944 93.7124 156.488 93.0436 157.188 91.6718C157.334 91.4655 157.534 91.3093 157.759 91.1811C157.506 91.5624 157.363 92.0124 157.375 92.4624C157.381 93.1436 157.694 93.8124 158.216 94.2061C157.803 93.7061 157.619 93.0718 157.659 92.4718C157.684 92.1686 157.756 91.878 157.903 91.6186C158.044 91.3593 158.222 91.1155 158.459 90.9405C158.484 90.9218 158.506 90.9061 158.528 90.8905C157.944 91.428 157.9 92.3405 158.034 93.0718C158.106 93.4624 158.225 93.8843 158.434 94.2249C158.513 94.3499 159.15 95.1624 159.325 95.028C158.859 95.3843 158.169 95.4093 157.684 95.0843C157.641 95.0561 157.588 95.0249 157.541 95.0436C157.45 95.0811 157.503 95.2124 157.497 95.3093C157.488 95.4311 157.353 95.5124 157.231 95.503C157.109 95.4936 157 95.4218 156.903 95.3468C156.75 95.2249 156.613 95.1061 156.497 94.978ZM160.263 91.1468C160.544 91.428 160.734 91.7874 160.919 92.1405C160.759 91.9843 160.516 91.9436 160.297 91.9811C159.634 92.0905 159.425 92.6843 159.509 93.3124C159.559 93.6686 159.784 94.1499 160.128 94.2999C160.341 94.3936 160.572 94.4218 160.788 94.3811C160.819 94.3718 160.85 94.3561 160.881 94.3436C160.906 94.3343 160.938 94.3249 160.969 94.3155C160.966 94.3218 160.963 94.328 160.959 94.3343C160.903 94.3561 160.847 94.3718 160.788 94.3811C160.769 94.3905 160.75 94.3936 160.731 94.3999L160.938 94.378C160.903 94.453 160.863 94.5218 160.819 94.5905C160.653 94.678 160.481 94.753 160.434 94.7624C160.159 94.8249 159.847 94.8061 159.575 94.7186C159.506 94.6968 159.441 94.6718 159.375 94.6405C159.344 94.6061 159.313 94.5718 159.288 94.5374C159.253 94.4905 159.2 94.4874 159.163 94.5093C158.972 94.2749 158.819 94.028 158.769 93.9436C158.497 93.4874 158.303 92.9561 158.269 92.4186C158.194 91.2843 159.216 90.0999 160.263 91.1468ZM161.106 92.6561C160.756 92.5405 160.366 92.6093 160.247 93.003C160.153 93.328 160.297 93.6749 160.606 93.8186C160.725 93.8718 160.863 93.8843 160.988 93.8499C160.988 93.903 160.991 93.953 160.994 94.0061C160.856 94.028 160.731 94.0405 160.609 94.0311C160.6 94.0311 160.594 94.028 160.584 94.028C160.063 93.753 159.769 93.203 160.091 92.553C160.166 92.3999 160.569 92.278 160.725 92.2968C160.781 92.3061 160.831 92.3311 160.878 92.3655C160.972 92.4405 161.041 92.5624 161.106 92.6561ZM160.947 93.5843C160.628 93.5811 160.413 93.178 160.584 92.903C160.681 92.7499 160.819 92.728 160.956 92.778C161.325 92.9186 161.656 93.5936 160.947 93.5843ZM161.944 99.4124C162.019 99.228 162.075 99.028 162.122 98.8343C162.159 98.7186 162.153 98.7624 162.172 98.6593C162.206 98.5311 162.288 98.428 162.4 98.3655C162.778 98.153 163.622 98.3311 163.341 99.303L163.25 99.6186C163.103 100.134 162.594 100.381 162.088 100.269C161.966 100.241 161.847 100.169 161.797 100.053C162.266 100.206 162.797 100.097 163.134 99.7186C163.172 99.6749 163.122 99.5968 163.072 99.6343C162.722 99.878 162.319 99.9843 161.931 99.7593C161.872 99.7249 161.841 99.6936 161.825 99.6593C161.866 99.5843 161.906 99.503 161.934 99.4093L161.944 99.4124ZM162.853 97.8155L163.034 97.8374C163.35 97.9343 163.519 98.2686 163.541 98.6218C163.253 98.0436 162.894 97.8655 162.384 98.0093C162.488 97.8343 162.628 97.7468 162.853 97.8155ZM153.272 101.85C153.013 101.766 152.716 101.65 152.441 101.644C152.419 101.641 152.4 101.65 152.384 101.659L152.525 101.034L153.306 101.194C153.3 101.437 153.313 101.675 153.344 101.903C153.328 101.881 153.306 101.862 153.272 101.85ZM152.188 101.706L152.147 101.878C152.131 101.862 152.109 101.85 152.081 101.847C151.988 101.825 151.897 101.816 151.8 101.816L151.903 101.331L151.938 101.184L152.072 100.562L152.097 100.569L152.328 100.644L152.419 100.675L152.347 100.997L152.188 101.706ZM150.65 99.928C150.619 99.953 150.634 100.006 150.678 99.9968C151.206 99.8655 151.584 100.316 151.616 100.812C151.625 100.994 151.6 101.172 151.566 101.353L151.522 101.534C151.491 101.662 151.413 101.769 151.306 101.837C151.197 101.903 151.069 101.925 150.947 101.894L150.678 101.822C150.491 101.775 150.344 101.678 150.238 101.559C150.066 101.162 150.003 100.75 150.078 100.344C150.247 99.8624 150.656 99.4905 151.209 99.6343L151.478 99.703C151.725 99.7655 151.875 100.022 151.825 100.275C151.816 100.259 151.806 100.241 151.797 100.222C151.575 99.8249 151.028 99.6405 150.65 99.928ZM150.878 102.406L150.347 102.269C149.984 102.178 149.853 101.884 149.822 101.547C149.969 101.828 150.216 102.056 150.597 102.153L150.866 102.225C150.919 102.237 150.972 102.247 151.025 102.25C151.134 102.253 151.241 102.234 151.344 102.194C151.253 102.362 151.063 102.456 150.878 102.406ZM161.463 100.309C161.581 100.506 162.063 100.747 162.278 100.756C163.225 100.8 163.634 99.9405 163.841 99.0093C164.163 97.8874 163.075 96.7749 162.047 97.978L162.063 97.9155L161.344 97.8343L161.294 98.0093L160.841 97.9155C160.85 97.8843 160.85 97.853 160.869 97.828C161.541 96.8874 162.122 96.0874 161.831 94.5249C161.803 94.3749 161.603 94.0155 161.494 93.7624C161.478 93.6999 161.453 93.6374 161.428 93.5749C161.416 93.5468 161.397 93.5311 161.378 93.5218C161.456 93.4593 161.513 93.3686 161.541 93.2686C161.572 93.1468 161.566 93.0155 161.528 92.8936C161.491 92.778 161.422 92.6749 161.328 92.5968C161.369 92.1843 161.109 91.6999 160.881 91.3905C160.656 91.0843 160.369 90.8249 160.028 90.6624C159.856 90.5093 159.622 90.3874 159.231 90.2905C159.025 90.2405 158.716 90.2593 158.525 90.1999C156.888 89.6718 154.328 92.5061 155.972 94.978C156.034 95.0686 156.103 95.153 156.181 95.2343C156.3 95.3624 156.431 95.4811 156.566 95.5811C156.559 95.5655 156.553 95.5468 156.544 95.5311C156.553 95.5343 156.559 95.5436 156.566 95.5468C156.644 95.5968 156.422 95.8249 156.506 95.8624C156.513 95.8999 156.513 95.9374 156.513 95.9749C156.003 96.1999 155.519 96.6374 155.159 96.9936C155.003 97.1499 154.863 97.3155 154.731 97.4843L153.819 97.1968L153.853 97.0499L153.344 96.8874C153.363 96.0436 151.984 95.5468 151.259 96.2468L151.256 96.2311C151.253 96.2343 151.25 96.2405 151.247 96.2468C151.238 96.2436 151.228 96.2436 151.222 96.253C150.966 96.5093 150.731 96.9124 150.681 97.303C150.616 97.5343 150.597 97.7936 150.691 98.0999C150.906 98.8343 151.503 98.8405 151.803 99.0093C152.191 99.1624 152.625 98.9561 152.772 98.5593L152.784 98.5249L152.753 98.6749L153.469 98.7436L153.519 98.5311L154.009 98.6561C153.991 98.6968 153.969 98.7343 153.95 98.778C153.597 99.453 153.388 100.162 153.325 100.85L152.6 100.7L152.634 100.55L152.138 100.394C152.25 99.9374 151.988 99.4811 151.559 99.3718C151.422 99.3561 150.916 99.0905 150.341 99.4499C149.656 99.8749 149.378 100.8 149.553 101.559C149.663 102.041 149.919 102.444 150.4 102.606C150.906 102.772 151.525 102.844 151.7 102.194L152.253 102.247L152.291 102.078L153.416 102.306C153.428 102.362 153.444 102.416 153.459 102.469L153.228 102.428C153.078 102.4 152.938 102.5 152.909 102.65C152.884 102.797 152.981 102.941 153.131 102.969C152.575 105.084 149.119 116.822 145.709 128.416C144.456 128.45 143.203 128.631 141.994 129C140.069 129.587 138.291 130.647 136.856 132.053C135.419 133.453 134.306 135.169 133.578 137.028C133.216 137.959 132.947 138.931 132.816 139.928C132.747 140.428 132.719 140.934 132.744 141.447C132.747 141.575 132.759 141.703 132.772 141.831L132.822 142.2C132.856 142.437 132.878 142.672 132.894 142.909C132.956 143.853 132.881 144.803 132.616 145.706C132.488 146.156 132.306 146.591 132.084 147C131.972 147.203 131.847 147.403 131.713 147.591C131.578 147.772 131.422 147.962 131.278 148.1L131.641 148.512C131.641 148.509 131.641 148.672 131.641 148.672C132.097 148.675 132.547 148.756 132.934 148.953C133.325 149.147 133.641 149.459 133.866 149.841C134.094 150.222 134.234 150.662 134.316 151.119C134.4 151.572 134.428 152.044 134.419 152.516C134.403 153.466 134.256 154.416 134.038 155.35C133.819 156.284 133.534 157.209 133.184 158.1C132.831 158.987 132.4 159.847 131.872 160.631C131.347 161.416 130.716 162.131 129.975 162.694C129.606 162.975 129.209 163.212 128.794 163.403C128.584 163.497 128.369 163.575 128.15 163.644C128.044 163.678 127.931 163.706 127.822 163.731C127.766 163.747 127.709 163.753 127.656 163.766L127.572 163.781C127.525 163.791 127.466 163.806 127.413 163.828C127.203 163.909 127.031 164.084 126.953 164.3C126.934 164.353 126.919 164.409 126.913 164.466C126.903 164.516 126.906 164.594 126.903 164.609V164.781C126.897 165.009 126.878 165.237 126.844 165.466C126.775 165.919 126.659 166.369 126.5 166.809C126.184 167.694 125.738 168.547 125.272 169.394L123.838 171.95C123.366 172.812 122.906 173.684 122.481 174.572C122.375 174.794 122.272 175.019 122.169 175.241C122.066 175.466 121.959 175.712 121.875 175.947C121.697 176.425 121.559 176.906 121.434 177.394C120.956 179.337 120.772 181.334 120.838 183.328C120.913 185.319 121.259 187.319 121.984 189.2C122.703 191.081 123.834 192.831 125.325 194.212C127.513 196.259 130.172 197.312 133.075 197.884C133.688 198.162 134.303 198.334 134.941 198.547L133.622 208.316L133.878 209.859L135.244 209.041L136.738 199.069C139.119 199.656 140.947 199.319 143.997 199.687C146.103 199.944 148.244 199.231 150.281 198.556C151.3 198.219 152.294 197.8 153.244 197.294C154.188 196.778 155.094 196.184 155.922 195.487C157.591 194.109 158.95 192.369 159.931 190.45C160.922 188.531 161.553 186.447 161.884 184.328C162.044 183.266 162.125 182.194 162.131 181.122C162.131 180.584 162.116 180.047 162.072 179.509C162.05 179.237 162.022 178.969 161.988 178.7C161.969 178.562 161.947 178.428 161.925 178.294L161.853 177.897C161.484 175.862 161.197 173.784 161.172 171.731C161.172 171.219 161.188 170.706 161.256 170.219C161.272 170.097 161.294 169.975 161.319 169.862L161.344 169.747C161.356 169.681 161.359 169.612 161.353 169.547C161.344 169.416 161.3 169.284 161.225 169.175C161.156 169.062 161.053 168.972 160.938 168.909C160.881 168.878 160.806 168.853 160.763 168.841L160.675 168.816C160.559 168.784 160.444 168.744 160.334 168.703C159.431 168.369 158.681 167.694 158.169 166.853C157.65 166.009 157.341 165.031 157.163 164.028C156.988 163.025 156.941 161.994 156.988 160.962C157.038 159.934 157.181 158.906 157.419 157.903C157.656 156.903 157.972 155.906 158.506 155.062C158.775 154.641 159.1 154.262 159.497 153.997C159.694 153.862 159.906 153.759 160.125 153.697L160.216 153.672C160.253 153.659 160.297 153.647 160.334 153.631C160.416 153.603 160.491 153.566 160.559 153.522C160.7 153.434 160.825 153.325 160.922 153.184C161.022 153.044 161.1 152.872 161.106 152.675C161.109 152.578 161.097 152.475 161.063 152.384L160.994 152.2C160.916 151.975 160.866 151.737 160.844 151.491C160.794 151.003 160.834 150.497 160.916 149.994C161.084 148.987 161.409 147.997 161.769 147.019C162.128 146.041 162.541 145.078 162.913 144.087C163.003 143.837 163.094 143.584 163.172 143.325C163.209 143.197 163.247 143.066 163.278 142.928C163.294 142.859 163.306 142.787 163.319 142.719L163.347 142.519C163.425 141.987 163.463 141.45 163.453 140.912C163.444 139.834 163.247 138.759 162.872 137.747C162.688 137.241 162.456 136.75 162.184 136.287C161.922 135.816 161.606 135.378 161.272 134.959C160.594 134.128 159.809 133.387 158.953 132.75C157.444 131.622 155.747 130.8 154.006 130.134C153.706 129.9 153.419 129.653 153.131 129.406C152.616 128.956 152.116 128.491 151.622 128.022C151.5 127.903 151.378 127.784 151.263 127.666L151.181 127.581L151.172 127.534L151.153 127.459C151.141 127.412 151.128 127.372 151.113 127.328C151 126.994 150.894 126.672 150.775 126.347C150.666 126.025 150.55 125.703 150.45 125.375L155.344 105.466C155.656 105.594 156.034 105.553 156.288 105.312C156.453 105.153 156.55 104.937 156.647 104.731C156.788 104.434 156.938 104.237 157.225 104.069C157.269 104.044 157.281 103.994 157.272 103.953C157.278 103.947 157.284 103.944 157.294 103.937C157.391 103.866 157.475 103.778 157.544 103.687C157.566 103.653 157.588 103.622 157.609 103.587C157.781 103.381 157.944 103.006 158.016 102.787C158.019 102.778 158.019 102.769 158.022 102.759L159.469 103.262L159.422 103.397L159.978 103.65C159.975 103.669 159.969 103.684 159.969 103.684C159.791 104.319 160.35 104.719 160.922 104.744C161.5 104.772 162.022 104.259 162.184 103.691C162.209 103.359 162.378 102.947 162.119 102.456C161.753 101.772 160.916 101.406 160.506 102.006L159.969 101.887L159.928 102.003L158.525 101.516C158.703 101.222 158.884 100.931 159.078 100.653C159.384 100.212 159.738 99.8124 160.094 99.3655C160.141 99.303 160.222 99.1374 160.266 99.0718L160.938 99.2405L160.916 99.3186L161.491 99.5374C161.381 100.203 161.428 100.253 161.463 100.309Z" fill="white"/>
</g>
<path d="M159.872 97.0062C160.131 97.3312 160.662 97.1749 160.775 96.7937C160.887 96.403 160.462 96.0312 160.084 96.1593C159.803 96.253 159.684 96.5999 159.794 96.8562C159.812 96.9124 159.834 96.9624 159.872 97.0062Z" fill="white"/>
<path d="M159.316 94.1438C159.563 94.4313 159.919 94.6406 160.288 94.6563C159.963 94.4906 159.722 94.25 159.541 93.9719C159.363 93.6938 159.25 93.3781 159.203 93.0594C159.166 92.7438 159.197 92.4156 159.375 92.1719C159.553 91.9219 159.881 91.7938 160.241 91.7406C160.066 91.6906 159.878 91.6781 159.688 91.7125C159.5 91.7469 159.31 91.8375 159.163 91.9844C159.01 92.1281 158.922 92.3219 158.872 92.5156C158.822 92.7125 158.819 92.9125 158.844 93.1063C158.894 93.4938 159.063 93.8563 159.316 94.1438Z" fill="white"/>
<mask id="mask5_681_6754" style="mask-type:luminance" maskUnits="userSpaceOnUse" x="168" y="97" width="12" height="110">
<path d="M168.31 97.7095H179.025V206.953H168.31V97.7095Z" fill="white"/>
</mask>
<g mask="url(#mask5_681_6754)">
<path d="M171.885 100.956C171.969 101.431 171.969 101.897 171.941 102.356C171.913 102.819 171.857 103.275 171.76 103.728C171.713 103.269 171.7 102.813 171.675 102.356C171.653 101.903 171.632 101.45 171.547 101.022C171.472 100.594 171.307 100.197 170.978 99.9344C170.647 99.6688 170.219 99.5 169.778 99.3719C170.241 99.3532 170.722 99.4469 171.141 99.7125C171.353 99.8438 171.525 100.047 171.65 100.263C171.769 100.484 171.841 100.719 171.885 100.956ZM177.182 195.234C177.191 195.206 177.197 195.172 177.203 195.125C177.2 195.172 177.191 195.206 177.182 195.234ZM178.719 205.516C178.328 205.75 178.013 205.691 177.588 205.672L177.544 205.131C177.835 205.181 178.253 205.1 178.647 204.975L178.719 205.516ZM178.813 206.409C178.419 206.641 178.11 206.584 177.682 206.563L177.638 206.025C177.928 206.075 178.35 205.994 178.741 205.869L178.813 206.409ZM175.785 197.638C175.66 197.719 175.513 197.753 175.372 197.753C175.228 197.75 175.094 197.725 174.966 197.681C175.232 197.7 175.513 197.681 175.71 197.528C175.907 197.378 175.994 197.125 176.038 196.872C176.088 196.616 176.097 196.35 176.103 196.081C176.11 195.816 176.11 195.541 176.132 195.269C176.219 195.803 176.303 196.347 176.21 196.906C176.182 197.044 176.141 197.181 176.075 197.313C176.01 197.441 175.913 197.559 175.785 197.638ZM175.51 201.428C175.21 201.463 174.91 201.488 174.61 201.513L174.485 201.522L174.466 201.384C174.416 200.972 174.372 200.563 174.338 200.15C174.297 199.738 174.272 199.322 174.244 198.909C174.219 198.497 174.2 198.081 174.191 197.669C174.185 197.253 174.185 196.838 174.2 196.419C174.288 196.828 174.353 197.238 174.413 197.65C174.472 198.059 174.519 198.472 174.566 198.884C174.603 199.297 174.644 199.706 174.672 200.122C174.7 200.491 174.722 200.863 174.738 201.238C174.991 201.241 175.247 201.244 175.503 201.253C175.803 201.266 176.107 201.278 176.407 201.306C176.107 201.359 175.81 201.394 175.51 201.428ZM177.207 194.681C177.188 194.15 177.113 193.163 176.947 191.281C176.85 190.169 176.66 188.081 176.594 187.509L177.103 187.456L177.66 194.678L177.207 194.681ZM177.016 195.388C177.038 195.381 177.06 195.369 177.082 195.356C177.063 195.372 177.038 195.381 177.016 195.388ZM176.922 195.494C176.991 196 177.032 196.506 177.063 197.009C177.1 197.516 177.125 198.022 177.15 198.528C177.169 199.031 177.191 199.538 177.2 200.044C177.207 200.553 177.21 201.059 177.188 201.572C177.069 201.072 176.991 200.569 176.932 200.063C176.869 199.559 176.835 199.05 176.807 198.544C176.788 198.034 176.778 197.525 176.797 197.019C176.813 196.506 176.847 196 176.922 195.494ZM176.935 195.025L176.928 194.903L176.938 195.025H176.935ZM177.11 194.678L176.947 194.681C176.947 194.678 177.11 194.678 177.11 194.678ZM176.428 194.853L176.697 194.85C176.697 194.853 176.428 194.853 176.428 194.853ZM176.072 187.391C176.069 187.422 176.069 187.453 176.075 187.484C176.078 187.5 176.082 187.528 176.085 187.563C176.172 188.306 176.616 193.206 176.694 194.681C176.691 194.681 176.494 194.681 176.494 194.681L175.932 187.578L176.085 187.563C176.082 187.528 176.075 187.5 176.072 187.484C176.066 187.453 176.069 187.422 176.072 187.391ZM171.96 99.7157C171.666 99.1844 171.172 99.1282 170.653 98.9438C170.457 98.8719 170.335 98.8375 170.185 98.6844C170.072 98.5688 169.96 98.1157 169.813 98.0875C169.782 98.0782 168.394 97.8782 168.394 97.8782L168.585 100.347L168.488 100.353L173.972 195.113L173.882 195.109L173.794 196.384L173.791 196.45L174.516 196.378L174.538 196.375L174.453 195.131L174.316 195.125L168.882 101.194C169.8 101.009 170.725 101.494 171.094 102.366C171.094 102.366 171.078 117.203 172.582 148.594C172.891 155.031 174.453 172.991 175.738 187.253C175.632 187.266 175.494 187.413 175.5 187.506L176.032 194.866C176.032 194.884 176.038 194.903 176.044 194.916L175.641 195.138L175.778 196.747C175.822 197.128 175.513 197.459 175.125 197.441C174.582 197.416 174.525 196.706 174.519 196.378L173.791 196.45L173.794 196.384C173.778 196.384 173.766 196.384 173.753 196.384L174.1 201.931L176.991 202.091L177.1 202.106C177.363 204.966 177.525 206.691 177.525 206.691C177.525 206.691 178.088 207.016 179.163 206.603C178.894 205.038 178.419 200.766 177.841 195.022C177.863 195.022 177.878 195.022 177.891 195.016C177.922 195.009 177.95 194.991 177.972 194.966C178.007 194.931 178.022 194.884 178.019 194.838L177.432 187.253C177.428 187.206 177.407 187.166 177.372 187.134C177.335 187.106 177.288 187.091 177.241 187.097L177.075 187.113L176.397 187.184C176.353 187.172 176.307 187.169 176.26 187.181C176.241 187.188 176.222 187.197 176.207 187.206L176.082 187.219L176.203 187.203C176.222 187.197 176.238 187.188 176.26 187.181C176.307 187.169 176.353 187.172 176.397 187.184L177.075 187.113C176.038 176.15 174.869 162.659 174.035 151.878C172.735 135.056 172.207 110.375 172.328 102.178C172.341 101.531 172.263 100.253 171.96 99.7157Z" fill="white"/>
</g>
<path d="M58.4845 115.585L55.8345 122.46C55.9095 122.27 56.0813 122.135 56.347 122.06C56.6063 121.979 56.9032 121.991 57.2345 122.098L71.8845 127.748C72.2032 127.891 72.4345 128.082 72.5845 128.323C72.7251 128.557 72.7595 128.77 72.6845 128.96L74.1345 125.223C74.0501 125.432 73.8626 125.57 73.572 125.635C73.2876 125.704 72.972 125.67 72.622 125.535L67.522 123.573L69.022 119.685C69.5063 118.385 69.6845 117.241 69.5595 116.248C69.4345 115.257 69.0688 114.416 68.4595 113.723C67.8532 113.023 67.0907 112.498 66.172 112.148C65.172 111.741 64.1845 111.554 63.2095 111.585C62.2282 111.62 61.3282 111.948 60.5095 112.573C59.6938 113.198 59.0188 114.204 58.4845 115.585ZM57.297 119.235L57.9595 117.51C58.3188 116.579 58.7345 115.848 59.2095 115.323C59.6782 114.798 60.172 114.429 60.697 114.21C61.2157 113.995 61.7282 113.873 62.2345 113.848C62.7438 113.823 63.2157 113.857 63.647 113.948C64.072 114.041 64.4345 114.145 64.7345 114.26C65.0282 114.379 65.2157 114.454 65.297 114.485C65.4563 114.545 65.7095 114.666 66.0595 114.848C66.4095 115.023 66.7813 115.27 67.172 115.585C67.5657 115.904 67.9063 116.31 68.197 116.81C68.4813 117.31 68.647 117.929 68.697 118.66C68.7407 119.385 68.5782 120.235 68.2095 121.21L67.322 123.498L58.1595 119.96C57.9438 119.879 57.7595 119.77 57.6095 119.635C57.4595 119.504 57.3563 119.37 57.297 119.235Z" fill="white"/>
<path d="M64.9849 101.96C65.0036 101.935 65.0224 101.91 65.0474 101.885C65.0724 101.86 65.1067 101.832 65.1474 101.798C65.2817 101.682 65.4567 101.66 65.6724 101.735C65.8817 101.81 66.0974 101.973 66.3224 102.223L76.9599 114.485C77.2286 114.795 77.3974 115.116 77.4724 115.448C77.5474 115.773 77.5255 116.032 77.4099 116.223L78.5724 114.323C78.4536 114.523 78.2786 114.604 78.0474 114.56C77.813 114.52 77.5724 114.373 77.3224 114.123L72.2599 108.273C72.0849 108.082 72.0786 107.857 72.2349 107.598L74.4599 103.985C74.5536 103.845 74.6536 103.757 74.7599 103.723C74.8599 103.682 74.9661 103.679 75.0724 103.71L82.5724 105.623C82.9224 105.707 83.163 105.848 83.2974 106.048C83.4286 106.248 83.438 106.445 83.3224 106.635L85.4349 103.198C85.3161 103.391 85.0911 103.529 84.7599 103.61C84.4349 103.685 84.0755 103.679 83.6849 103.585L67.9474 99.5852C67.5661 99.4789 67.2974 99.3289 67.1474 99.1352C66.9911 98.9445 66.9724 98.7445 67.0974 98.5352L64.9849 101.96ZM74.1474 103.473C74.2161 103.491 74.2786 103.523 74.3349 103.573C74.3942 103.623 74.3849 103.71 74.3099 103.835L72.0349 107.523C71.9599 107.641 71.8911 107.685 71.8224 107.66C71.7474 107.635 71.6849 107.598 71.6349 107.548L66.5349 101.685C66.4786 101.61 66.4317 101.554 66.3974 101.51C66.4411 101.52 66.4786 101.529 66.5099 101.535C66.5442 101.545 66.5817 101.548 66.6224 101.548L74.1474 103.473Z" fill="white"/>
<path d="M94.6042 90.0143C94.4448 90.1831 94.2198 90.2456 93.9292 90.2018C93.6448 90.1518 93.3605 89.9987 93.0792 89.7393L89.9042 86.7643C89.6198 86.4987 89.448 86.2268 89.3917 85.9518C89.3417 85.6768 89.3948 85.4581 89.5542 85.2893L86.8167 88.2268C86.9667 88.0706 87.173 88.0081 87.4417 88.0393C87.7073 88.0643 87.9792 88.1893 88.2542 88.4143L92.4417 92.3393C92.673 92.5737 92.8073 92.7956 92.8417 93.0018C92.8823 93.2018 92.8698 93.4237 92.8042 93.6643C92.6698 94.0987 92.5042 94.5143 92.3042 94.9143C92.1105 95.3081 91.8948 95.6487 91.6542 95.9393C91.1292 96.6237 90.4573 97.1237 89.6417 97.4393C88.8323 97.7487 87.9323 97.8831 86.9417 97.8393C85.948 97.7987 84.9386 97.5768 83.9042 97.1768C82.8636 96.7768 81.8605 96.2112 80.8917 95.4768C79.9355 94.7268 79.1261 93.8956 78.4667 92.9768C77.8105 92.0612 77.3355 91.1331 77.0417 90.1893C76.7511 89.2393 76.6542 88.3331 76.7542 87.4643C76.8542 86.5893 77.173 85.8206 77.7042 85.1518C78.1542 84.6206 78.648 84.1893 79.1792 83.8643C79.7042 83.5331 80.2261 83.3081 80.7417 83.1893C81.2511 83.0737 81.7011 83.0831 82.0917 83.2143C82.2917 83.2893 82.3761 83.4393 82.3417 83.6643C82.3011 83.8831 82.2355 84.0487 82.1417 84.1643L84.1792 81.5393C84.048 81.7393 83.8042 81.8362 83.4542 81.8268C83.0042 81.7612 82.4417 81.8143 81.7667 81.9893C81.0917 82.1643 80.3886 82.4956 79.6542 82.9768C78.9136 83.4518 78.2042 84.1331 77.5292 85.0143C76.8136 85.9487 76.323 86.9737 76.0542 88.0893C75.7886 89.1987 75.7417 90.3112 75.9167 91.4268C76.0917 92.5456 76.4792 93.6143 77.0792 94.6393C77.673 95.6643 78.4605 96.5612 79.4417 97.3268C80.4167 98.0862 81.4761 98.6237 82.6167 98.9393C83.7511 99.2487 84.8855 99.3487 86.0167 99.2393C87.1573 99.1237 88.2292 98.7987 89.2292 98.2643C90.2355 97.7331 91.1042 96.9987 91.8292 96.0643C92.2355 95.5331 92.5698 94.9831 92.8292 94.4143C93.0855 93.8393 93.298 93.2768 93.4667 92.7268C93.6417 92.1768 93.8167 91.6643 93.9917 91.1893C94.1667 90.7143 94.3698 90.3237 94.6042 90.0143Z" fill="white"/>
<path d="M107.801 80.4157C107.616 80.5407 107.388 80.5532 107.113 80.4532C106.838 80.3532 106.588 80.147 106.363 79.8282L103.838 76.2907C103.613 75.9657 103.504 75.6657 103.513 75.3907C103.52 75.1095 103.616 74.9032 103.801 74.7782L100.526 77.1032C100.701 76.9782 100.916 76.9595 101.176 77.0407C101.432 77.1251 101.67 77.3032 101.888 77.5782L105.213 82.2532C105.388 82.5282 105.476 82.772 105.476 82.9782C105.476 83.1876 105.416 83.4001 105.301 83.6157C105.082 84.0251 104.838 84.4001 104.563 84.7407C104.295 85.0845 104.016 85.3845 103.726 85.6407C103.076 86.2001 102.316 86.5501 101.451 86.6907C100.591 86.8345 99.6789 86.7876 98.7133 86.5532C97.7539 86.3126 96.807 85.8907 95.8758 85.2907C94.9445 84.6845 94.0727 83.9251 93.2633 83.0157C92.482 82.0907 91.8602 81.1157 91.4008 80.0907C90.9352 79.0595 90.6508 78.0501 90.5508 77.0657C90.4508 76.0751 90.5383 75.1657 90.8133 74.3407C91.0883 73.5095 91.5602 72.8157 92.2258 72.2657C92.7602 71.8345 93.3227 71.5095 93.9133 71.2907C94.507 71.0751 95.0633 70.9626 95.5883 70.9532C96.107 70.9376 96.5414 71.0345 96.9008 71.2407C97.0758 71.3657 97.1195 71.5345 97.0383 71.7407C96.9633 71.9407 96.8664 72.0907 96.7508 72.1907L99.2758 70.0157C99.1008 70.1907 98.8445 70.2376 98.5133 70.1532C98.0789 70.0032 97.5133 69.9501 96.8133 69.9907C96.1227 70.0251 95.3695 70.2032 94.5508 70.5282C93.7352 70.8532 92.907 71.3782 92.0633 72.1032C91.1727 72.872 90.4883 73.7751 90.0133 74.8157C89.532 75.8501 89.2602 76.9345 89.2008 78.0657C89.1445 79.1907 89.307 80.3157 89.6883 81.4407C90.0727 82.5595 90.6633 83.5907 91.4633 84.5407C92.2883 85.4907 93.2258 86.2345 94.2758 86.7657C95.3195 87.2907 96.4039 87.6126 97.5383 87.7282C98.6789 87.847 99.7914 87.747 100.876 87.4282C101.966 87.1032 102.963 86.5595 103.863 85.7907C104.379 85.3501 104.816 84.8751 105.176 84.3657C105.541 83.8595 105.863 83.3501 106.138 82.8407C106.42 82.3345 106.691 81.8657 106.951 81.4407C107.216 81.0157 107.501 80.6751 107.801 80.4157Z" fill="white"/>
<path d="M106.918 63.222C106.943 63.2064 106.977 63.1939 107.018 63.1845C107.052 63.1783 107.093 63.1689 107.143 63.1595C107.318 63.1533 107.474 63.2408 107.605 63.422C107.74 63.597 107.83 63.8533 107.88 64.1845L109.755 80.3095C109.796 80.7033 109.755 81.0595 109.63 81.3845C109.512 81.7033 109.349 81.9064 109.143 81.997L111.18 81.0845C110.962 81.1845 110.768 81.1533 110.593 80.9845C110.424 80.8189 110.318 80.5595 110.268 80.2095L109.38 72.5095C109.337 72.2689 109.455 72.0845 109.73 71.9595L113.593 70.2345C113.749 70.1689 113.884 70.147 113.993 70.172C114.099 70.197 114.193 70.2533 114.268 70.3345L119.38 76.1345C119.612 76.4095 119.73 76.6689 119.73 76.9095C119.73 77.1533 119.63 77.3189 119.43 77.4095L123.118 75.7595C122.909 75.8533 122.643 75.8408 122.318 75.722C121.999 75.597 121.709 75.3908 121.443 75.097L110.705 62.922C110.446 62.6158 110.305 62.3408 110.28 62.097C110.262 61.847 110.368 61.672 110.593 61.572L106.918 63.222ZM113.63 69.622C113.68 69.6814 113.712 69.747 113.73 69.822C113.755 69.8908 113.696 69.9533 113.555 70.0095L109.593 71.7845C109.474 71.8345 109.393 71.8314 109.343 71.772C109.299 71.7158 109.271 71.647 109.255 71.572L108.343 63.8595C108.337 63.7595 108.337 63.6908 108.343 63.647C108.368 63.6658 108.393 63.6908 108.418 63.722C108.443 63.7564 108.468 63.7783 108.493 63.7845L113.63 69.622Z" fill="white"/>
<path d="M123.027 57.1782L119.127 58.1282C119.136 58.1282 119.139 58.1282 119.139 58.1282C119.139 58.1282 119.148 58.125 119.164 58.1157L119.102 58.1407C119.32 58.0844 119.539 58.15 119.764 58.3407C119.983 58.5344 120.136 58.8125 120.227 59.1782L123.877 74.2407C123.958 74.6094 123.952 74.9282 123.852 75.2032C123.758 75.4719 123.595 75.6344 123.364 75.6907L124.177 75.4907L124.714 75.3657L125.527 75.1657C125.317 75.2157 125.108 75.1532 124.902 74.9782C124.692 74.8032 124.539 74.5532 124.439 74.2282L120.727 58.9532C120.72 58.9375 120.714 58.9282 120.714 58.9282C120.714 58.9219 120.714 58.9094 120.714 58.8907C120.714 58.9094 120.736 58.925 120.777 58.9407L131.752 72.4157C131.992 72.725 132.108 72.9907 132.102 73.2157C132.092 73.4344 131.983 73.5657 131.777 73.6157L135.664 72.6907C135.33 72.7751 135.089 72.7126 134.939 72.5032C134.795 72.2875 134.677 72.0375 134.577 71.7532L130.877 56.4782C130.808 56.1469 130.827 55.8532 130.927 55.6032C131.027 55.3469 131.183 55.1875 131.402 55.1282L129.252 55.6532C129.467 55.6032 129.683 55.675 129.902 55.8657C130.127 56.05 130.283 56.325 130.377 56.6907L134.027 71.7657C134.027 71.7751 134.027 71.7907 134.027 71.8157C134.033 71.8407 134.042 71.8719 134.052 71.9032C134.027 71.8719 134.005 71.8469 133.989 71.8282C133.98 71.8032 133.967 71.7875 133.952 71.7782L123.102 58.4657C122.836 58.125 122.702 57.8407 122.702 57.6157C122.695 57.3844 122.802 57.2375 123.027 57.1782Z" fill="white"/>
<path d="M134.073 54.8235C134.283 54.7985 134.483 54.886 134.673 55.086C134.867 55.286 134.992 55.5579 135.048 55.8985L137.011 71.486C137.036 71.8204 136.979 72.1079 136.848 72.3485C136.714 72.5922 136.542 72.7235 136.336 72.7485L140.311 72.2485C140.092 72.2735 139.886 72.1829 139.686 71.9735C139.492 71.7579 139.373 71.461 139.323 71.086L137.386 55.711C137.336 55.3204 137.376 54.9985 137.511 54.7485C137.651 54.4922 137.829 54.3485 138.048 54.3235L134.073 54.8235Z" fill="white"/>
<path d="M144.799 53.7785L140.787 53.8285C140.796 53.8285 140.799 53.8285 140.799 53.8285C140.799 53.8285 140.809 53.8285 140.824 53.8285H140.762C140.987 53.8285 141.18 53.9472 141.349 54.1785C141.515 54.4035 141.602 54.7097 141.612 55.091L141.762 70.591C141.762 70.966 141.68 71.2785 141.524 71.5285C141.374 71.7722 141.177 71.891 140.937 71.891L141.774 71.8785H142.324L143.162 71.866C142.943 71.866 142.752 71.7597 142.587 71.541C142.427 71.3253 142.337 71.0472 142.312 70.7035L142.149 54.991C142.149 54.9753 142.149 54.966 142.149 54.966C142.149 54.9597 142.149 54.9472 142.149 54.9285C142.149 54.9472 142.165 54.966 142.199 54.991L149.849 70.591C150.015 70.9503 150.065 71.2378 149.999 71.4535C149.94 71.6628 149.805 71.766 149.599 71.766L153.599 71.741C153.255 71.7503 153.037 71.6347 152.937 71.391C152.843 71.1503 152.78 70.8785 152.749 70.5785L152.599 54.866C152.605 54.5253 152.69 54.2472 152.849 54.0285C153.005 53.8035 153.199 53.6878 153.424 53.6785L151.212 53.7035C151.437 53.7035 151.63 53.8222 151.799 54.0535C151.965 54.2878 152.052 54.5972 152.062 54.9785L152.212 70.4785C152.212 70.4878 152.212 70.5035 152.212 70.5285C152.212 70.5535 152.212 70.5847 152.212 70.616C152.193 70.5847 152.18 70.5535 152.174 70.5285C152.165 70.5035 152.152 70.4878 152.137 70.4785L144.574 55.066C144.39 54.666 144.324 54.3535 144.374 54.1285C144.424 53.9035 144.565 53.7878 144.799 53.7785Z" fill="white"/>
<path d="M156.088 53.9937C156.294 54.0187 156.469 54.1499 156.613 54.3812C156.763 54.6155 156.825 54.903 156.8 55.2437L155.2 70.8687C155.141 71.2124 155.016 71.4874 154.825 71.6937C154.641 71.8937 154.444 71.9812 154.238 71.9562L158.225 72.3687C158 72.3437 157.816 72.2062 157.675 71.9562C157.541 71.7062 157.491 71.3937 157.525 71.0187L159.113 55.5937C159.153 55.203 159.266 54.903 159.45 54.6937C159.641 54.478 159.85 54.3812 160.075 54.4062L156.088 53.9937Z" fill="white"/>
<path d="M171.455 71.2844C171.486 71.1781 171.542 71.0469 171.617 70.8969C171.698 70.7469 171.817 70.6188 171.967 70.5094C172.117 70.4031 172.308 70.3688 172.542 70.4094L168.867 69.1344C169.008 69.2281 169.142 69.3656 169.267 69.5469C169.392 69.7219 169.473 69.9156 169.517 70.1219C169.498 70.5156 169.558 70.9781 169.692 71.5094C169.823 72.0438 170.055 72.5906 170.38 73.1469C170.705 73.7031 171.158 74.2281 171.742 74.7219C172.323 75.2125 173.061 75.6125 173.955 75.9219C175.986 76.6375 177.661 76.7906 178.98 76.3844C180.305 75.975 181.233 75.0625 181.767 73.6469C182.098 72.7719 182.211 71.9938 182.105 71.3094C181.995 70.6188 181.742 69.9906 181.342 69.4219C180.948 68.8469 180.473 68.3188 179.917 67.8344C179.358 67.3438 178.786 66.8656 178.205 66.3969C177.63 65.9219 177.105 65.4406 176.63 64.9469C176.161 64.4469 175.808 63.9094 175.567 63.3344C175.333 62.7531 175.286 62.1063 175.43 61.3969C175.57 60.7656 175.83 60.2219 176.205 59.7719C176.586 59.3156 177.095 59.0156 177.73 58.8719C178.361 58.7219 179.117 58.8094 179.992 59.1344C180.483 59.3188 180.898 59.6406 181.242 60.0969C181.583 60.5469 181.723 61.1156 181.667 61.7969C181.658 61.8719 181.633 62.0031 181.592 62.1844C181.548 62.3688 181.455 62.5188 181.305 62.6344C181.155 62.7438 180.895 62.7469 180.53 62.6469L184.28 63.9469C184.12 63.8469 183.97 63.6938 183.83 63.4844C183.695 63.2781 183.62 63.0469 183.605 62.7969C183.536 61.9313 183.18 61.1469 182.53 60.4469C181.88 59.7469 180.895 59.1813 179.58 58.7469C178.645 58.4313 177.745 58.3313 176.88 58.4469C176.011 58.5563 175.245 58.8156 174.58 59.2219C173.92 59.6219 173.436 60.1188 173.13 60.7094C172.68 61.5844 172.473 62.3781 172.517 63.0844C172.558 63.7844 172.78 64.4281 173.18 65.0094C173.58 65.5844 174.061 66.1313 174.63 66.6469C175.195 67.1656 175.783 67.6719 176.392 68.1719C176.998 68.6656 177.536 69.1719 178.005 69.6969C178.48 70.2156 178.808 70.7688 178.992 71.3594C179.183 71.9531 179.136 72.6031 178.855 73.3094C178.636 73.9 178.286 74.4344 177.805 74.9094C177.33 75.3844 176.755 75.7 176.08 75.8594C175.411 76.0156 174.667 75.9469 173.842 75.6469C173.023 75.3281 172.417 74.9 172.017 74.3594C171.623 73.8156 171.395 73.2688 171.33 72.7094C171.261 72.1438 171.305 71.6688 171.455 71.2844Z" fill="white"/>
<path d="M189.196 62.3105L187.996 64.498C187.996 64.498 188.075 64.4199 188.234 64.2605C188.4 64.1043 188.665 63.9543 189.034 63.8105C189.409 63.6699 189.89 63.6293 190.484 63.6855C191.084 63.7449 191.809 63.998 192.659 64.448L193.484 64.898C193.584 65.198 193.537 65.5449 193.346 65.9355L185.759 79.698C185.584 79.9887 185.365 80.1887 185.109 80.298C184.859 80.4137 184.64 80.423 184.459 80.323L187.984 82.2605C187.775 82.1418 187.653 81.9418 187.621 81.6605C187.587 81.3762 187.662 81.0668 187.846 80.7355L195.321 67.148C195.546 66.7418 195.834 66.4855 196.184 66.3855L197.009 66.848C197.84 67.323 198.44 67.798 198.809 68.273C199.184 68.7418 199.409 69.1699 199.484 69.5605C199.565 69.9543 199.584 70.2605 199.534 70.4855C199.49 70.7105 199.471 70.823 199.471 70.823L200.671 68.6355L189.196 62.3105Z" fill="white"/>
<path d="M196.366 80.7605C195.641 81.6605 195.241 82.6074 195.166 83.598C195.097 84.5886 195.297 85.548 195.766 86.473C196.231 87.4042 196.909 88.2355 197.803 88.9605C198.678 89.6605 199.597 90.1417 200.566 90.4105C201.531 90.6855 202.478 90.7042 203.403 90.473C204.328 90.2386 205.159 89.7167 205.903 88.9105C205.909 88.9011 206.047 88.7292 206.316 88.398C206.591 88.0636 206.944 87.6261 207.378 87.0855C207.819 86.5417 208.297 85.9511 208.816 85.3105C209.331 84.6761 209.847 84.0417 210.366 83.398C210.881 82.7574 211.356 82.1699 211.791 81.6355C212.222 81.0949 212.569 80.6667 212.828 80.348C213.094 80.023 213.228 79.8605 213.228 79.8605C213.469 79.5542 213.728 79.3605 214.003 79.2855C214.284 79.2105 214.522 79.248 214.716 79.398L211.566 76.8605C211.731 76.9949 211.806 77.198 211.791 77.473C211.781 77.748 211.681 78.023 211.491 78.298L202.978 88.823C202.519 89.3792 202.003 89.7292 201.428 89.873C200.853 90.0136 200.266 89.9855 199.666 89.7855C199.072 89.5917 198.494 89.2667 197.928 88.8105C197.369 88.3511 196.928 87.848 196.603 87.298C196.284 86.7542 196.134 86.1917 196.153 85.6105C196.178 85.0261 196.419 84.4574 196.878 83.898L205.328 73.448C205.559 73.148 205.816 72.9605 206.091 72.8855C206.372 72.8105 206.603 72.8449 206.778 72.9855L203.641 70.448C203.816 70.5917 203.894 70.798 203.878 71.073C203.859 71.3417 203.753 71.6105 203.553 71.8855C203.553 71.8855 203.422 72.0449 203.166 72.3605C202.906 72.6792 202.566 73.098 202.141 73.623C201.716 74.148 201.247 74.7292 200.741 75.3605C200.231 75.9855 199.722 76.6105 199.216 77.2355C198.706 77.8605 198.241 78.4417 197.816 78.973C197.391 79.498 197.044 79.9292 196.778 80.2605C196.509 80.5855 196.372 80.7542 196.366 80.7605Z" fill="white"/>
<path d="M206.774 97.2589C207.755 98.3996 208.74 99.2277 209.724 99.7464C210.705 100.262 211.665 100.546 212.599 100.596C213.54 100.646 214.427 100.534 215.261 100.259C216.093 99.9839 216.852 99.6246 217.536 99.1839C218.218 98.7402 218.805 98.3089 219.299 97.8839C219.74 97.4996 220.215 97.0089 220.724 96.4089C221.23 95.8089 221.677 95.1089 222.061 94.3089C222.443 93.5183 222.686 92.6558 222.786 91.7214C222.886 90.7902 222.765 89.7964 222.424 88.7464C222.08 87.6964 221.427 86.6152 220.461 85.4964L217.261 81.7839C217.393 81.9433 217.43 82.1558 217.374 82.4214C217.315 82.6902 217.165 82.9433 216.924 83.1839L205.024 93.4464C204.749 93.6464 204.474 93.7527 204.199 93.7714C203.924 93.7964 203.718 93.7277 203.586 93.5714L206.774 97.2589ZM219.424 84.5839L219.549 84.7339C220.415 85.7589 220.986 86.7308 221.261 87.6464C221.536 88.5652 221.615 89.4277 221.499 90.2339C221.38 91.0433 221.14 91.7808 220.774 92.4464C220.405 93.1058 220.005 93.6839 219.574 94.1839C219.14 94.6839 218.74 95.0871 218.374 95.3964C218.015 95.7121 217.786 95.9121 217.686 95.9964C217.593 96.0714 217.361 96.2527 216.986 96.5464C216.618 96.8464 216.149 97.1652 215.574 97.5089C214.999 97.8589 214.343 98.1527 213.611 98.3964C212.886 98.6464 212.102 98.7652 211.261 98.7589C210.418 98.7589 209.561 98.5589 208.686 98.1589C207.818 97.7589 206.949 97.0714 206.074 96.0964C206.074 95.9527 206.118 95.7964 206.211 95.6214C206.311 95.4527 206.452 95.2902 206.636 95.1339L218.374 85.0089C218.549 84.8589 218.727 84.7527 218.911 84.6839C219.102 84.6089 219.274 84.5777 219.424 84.5839Z" fill="white"/>
<path d="M227.61 94.3477C227.725 94.5227 227.738 94.7445 227.647 95.0102C227.553 95.2695 227.372 95.5039 227.097 95.7102L214.06 104.485C213.766 104.651 213.485 104.726 213.21 104.71C212.935 104.701 212.738 104.61 212.622 104.435L214.86 107.76C214.735 107.576 214.722 107.351 214.822 107.085C214.922 106.816 215.135 106.576 215.46 106.36L228.31 97.7102C228.635 97.4852 228.938 97.3789 229.222 97.3852C229.513 97.3945 229.722 97.4914 229.847 97.6727L227.61 94.3477Z" fill="white"/>
<path d="M235.585 107.748C235.075 106.691 234.385 105.798 233.51 105.073C232.635 104.341 231.65 103.804 230.56 103.46C229.475 103.12 228.347 102.985 227.172 103.06C225.997 103.135 224.841 103.448 223.71 103.998C222.6 104.541 221.65 105.254 220.86 106.135C220.075 107.01 219.479 107.979 219.072 109.048C218.663 110.113 218.475 111.213 218.51 112.348C218.541 113.488 218.813 114.588 219.322 115.648C219.838 116.713 220.535 117.61 221.41 118.335C222.285 119.06 223.263 119.588 224.347 119.923C225.438 120.263 226.572 120.391 227.747 120.31C228.929 120.235 230.075 119.926 231.185 119.385C232.316 118.835 233.275 118.123 234.06 117.248C234.841 116.373 235.438 115.401 235.847 114.335C236.254 113.276 236.441 112.179 236.41 111.048C236.375 109.913 236.1 108.813 235.585 107.748ZM235.36 107.848C235.735 108.623 235.879 109.441 235.797 110.31C235.722 111.185 235.441 112.054 234.96 112.923C234.485 113.788 233.838 114.598 233.022 115.348C232.204 116.098 231.247 116.735 230.147 117.26C229.063 117.791 227.972 118.151 226.872 118.335C225.772 118.516 224.735 118.526 223.76 118.36C222.785 118.201 221.925 117.885 221.185 117.41C220.45 116.941 219.897 116.323 219.522 115.548C219.147 114.773 219 113.948 219.085 113.073C219.166 112.198 219.447 111.326 219.922 110.46C220.404 109.601 221.054 108.791 221.872 108.035C222.688 107.285 223.638 106.645 224.722 106.11C225.822 105.585 226.922 105.235 228.022 105.06C229.122 104.879 230.16 104.866 231.135 105.023C232.11 105.182 232.963 105.498 233.697 105.973C234.429 106.448 234.985 107.073 235.36 107.848Z" fill="white"/>
<path d="M62.0117 188.076L68.9367 181.051L69.2992 181.951L64.0242 187.263L71.4992 187.363L71.8617 188.251L62.0117 188.076Z" fill="#FEFBF6"/>
<path d="M67.758 198.794L67.333 198.032L74.808 193.844L75.233 194.607L67.758 198.794Z" fill="#FEFBF6"/>
<path d="M80.0414 209.271C80.8071 208.687 81.2602 207.912 81.4039 206.946C81.5352 205.987 81.3102 205.115 80.7289 204.334C80.1446 203.568 79.3727 203.115 78.4164 202.971C77.4477 202.84 76.5821 203.065 75.8164 203.646C75.0321 204.231 74.5727 205.006 74.4414 205.971C74.2977 206.937 74.5196 207.802 75.1039 208.571C75.6852 209.352 76.4602 209.812 77.4289 209.946C78.3852 210.077 79.2571 209.852 80.0414 209.271ZM80.5789 209.971C80.0852 210.327 79.5602 210.584 79.0039 210.734C78.4289 210.865 77.8664 210.89 77.3164 210.809C76.7477 210.74 76.2102 210.559 75.7039 210.259C75.2039 209.974 74.7696 209.587 74.4039 209.096C74.0352 208.621 73.7852 208.099 73.6539 207.534C73.5102 206.965 73.4852 206.399 73.5789 205.834C73.6446 205.284 73.8227 204.756 74.1164 204.246C74.3977 203.731 74.7852 203.293 75.2789 202.934C75.7539 202.568 76.2789 202.318 76.8539 202.184C77.4196 202.052 77.9852 202.021 78.5539 202.096C79.0946 202.181 79.6227 202.368 80.1414 202.659C80.6414 202.943 81.0727 203.321 81.4414 203.796C81.8071 204.29 82.0571 204.818 82.1914 205.384C82.3227 205.959 82.3571 206.521 82.2914 207.071C82.2071 207.627 82.0227 208.162 81.7414 208.671C81.4414 209.171 81.0539 209.602 80.5789 209.971Z" fill="#FEFBF6"/>
<path d="M83.7412 218.351L85.9162 220.501L85.2912 221.139L83.1162 218.989L82.8037 218.689L82.4912 218.376L88.5037 212.276L89.1287 212.889L83.7412 218.351Z" fill="#FEFBF6"/>
<path d="M91.6179 226.548L90.9429 225.998L96.2679 219.286L96.9429 219.836L91.6179 226.548Z" fill="#FEFBF6"/>
<path d="M102.292 226.418L99.0049 231.805L98.2549 231.355L103.005 223.58L103.53 231.943L106.817 226.568L107.567 227.018L102.83 234.768L102.292 226.418Z" fill="#FEFBF6"/>
<path d="M114.355 235.035C113.761 235.178 113.345 235.297 113.105 235.397C112.57 235.616 112.236 235.885 112.105 236.21C111.936 236.603 111.933 237.01 112.092 237.435C112.242 237.866 112.511 238.166 112.905 238.335C113.336 238.516 113.917 238.466 114.642 238.185C114.817 238.116 114.986 238.05 115.155 237.985L114.355 235.035ZM114.817 233.697C114.867 233.832 114.911 233.972 114.955 234.122C115.111 234.072 115.273 234.032 115.442 233.997C115.608 233.966 115.767 233.919 115.917 233.86C116.267 233.719 116.498 233.507 116.617 233.222C116.742 232.922 116.742 232.653 116.617 232.41C116.492 232.178 116.311 232.003 116.08 231.885C115.845 231.778 115.605 231.757 115.355 231.822C115.086 231.907 114.883 232.119 114.742 232.46C114.598 232.803 114.623 233.216 114.817 233.697ZM117.83 237.585C117.645 237.694 117.111 237.978 116.23 238.447L116.855 240.785L115.767 240.36L115.392 238.872C114.833 239.097 114.408 239.238 114.117 239.297C113.523 239.388 113.042 239.36 112.667 239.21C112.308 239.06 112.011 238.866 111.78 238.635C111.545 238.4 111.37 238.138 111.255 237.847C110.995 237.232 111.005 236.594 111.28 235.935C111.595 235.178 112.242 234.678 113.217 234.435C113.498 234.369 113.795 234.297 114.105 234.222C113.811 233.341 113.77 232.653 113.98 232.16C114.18 231.669 114.505 231.328 114.955 231.135C115.395 230.944 115.87 230.957 116.38 231.172C116.87 231.382 117.208 231.703 117.392 232.135C117.592 232.569 117.592 233.032 117.392 233.522C117.173 234.022 116.658 234.397 115.842 234.647C115.623 234.722 115.42 234.791 115.23 234.847L115.98 237.597C116.22 237.482 116.448 237.36 116.667 237.235L117.33 236.86L117.83 237.585Z" fill="#FEFBF6"/>
<path d="M127.541 244.544L125.904 234.794L126.841 235.031L128.054 242.431L132.516 236.406L133.454 236.631L127.541 244.544Z" fill="#FEFBF6"/>
<path d="M139.599 246.152L138.724 246.052L139.699 237.552L140.574 237.652L139.599 246.152Z" fill="#FEFBF6"/>
<path d="M155.268 242.324C155.249 241.358 154.893 240.537 154.193 239.862C153.493 239.187 152.655 238.858 151.68 238.874C150.712 238.893 149.893 239.255 149.218 239.962C148.543 240.662 148.212 241.496 148.23 242.462C148.255 243.437 148.618 244.262 149.318 244.937C150.018 245.612 150.849 245.943 151.818 245.924C152.793 245.908 153.618 245.546 154.293 244.837C154.968 244.137 155.293 243.299 155.268 242.324ZM156.155 242.299C156.171 242.908 156.071 243.483 155.855 244.024C155.63 244.568 155.321 245.037 154.93 245.437C154.537 245.855 154.074 246.183 153.543 246.424C153.008 246.668 152.437 246.793 151.83 246.799C151.23 246.815 150.662 246.712 150.13 246.487C149.587 246.271 149.112 245.962 148.705 245.562C148.296 245.18 147.974 244.721 147.743 244.187C147.493 243.655 147.358 243.083 147.343 242.474C147.333 241.874 147.446 241.305 147.68 240.762C147.887 240.221 148.187 239.746 148.58 239.337C148.971 238.937 149.433 238.618 149.968 238.374C150.493 238.133 151.055 238.005 151.655 237.987C152.262 237.98 152.837 238.087 153.38 238.312C153.921 238.53 154.396 238.83 154.805 239.212C155.212 239.605 155.543 240.068 155.793 240.599C156.024 241.133 156.146 241.699 156.155 242.299Z" fill="#FEFBF6"/>
<path d="M164.812 244.657L167.837 244.144L167.987 245.019L164.962 245.532L164.525 245.607L164.1 245.669L162.675 237.232L163.537 237.094L164.812 244.657Z" fill="#FEFBF6"/>
<path d="M175.716 239.887L178.679 238.949L176.029 235.649L175.716 239.887ZM181.729 241.312L180.816 241.599L179.254 239.637L175.654 240.762L175.466 243.262L174.554 243.549L175.416 233.674L181.729 241.312Z" fill="#FEFBF6"/>
<path d="M188.884 233.556C188.609 234.091 188.425 234.481 188.334 234.731C188.15 235.275 188.134 235.703 188.284 236.019C188.475 236.403 188.778 236.675 189.197 236.831C189.622 237.006 190.025 237 190.409 236.806C190.825 236.6 191.172 236.137 191.447 235.419C191.512 235.228 191.575 235.053 191.634 234.894L188.884 233.556ZM188.184 232.319C188.325 232.369 188.462 232.428 188.597 232.494C188.662 232.353 188.741 232.203 188.834 232.044C188.916 231.903 188.987 231.756 189.047 231.606C189.153 231.241 189.141 230.919 189.009 230.644C188.866 230.362 188.666 230.191 188.409 230.131C188.141 230.066 187.891 230.078 187.659 230.169C187.419 230.278 187.241 230.453 187.122 230.694C187.016 230.937 187.044 231.228 187.209 231.569C187.369 231.894 187.694 232.144 188.184 232.319ZM193.084 232.606C193.05 232.825 192.922 233.416 192.697 234.381L194.859 235.456L193.834 235.994L192.472 235.306C192.272 235.875 192.097 236.287 191.947 236.544C191.622 237.053 191.278 237.394 190.922 237.569C190.572 237.737 190.234 237.831 189.909 237.856C189.575 237.891 189.262 237.856 188.972 237.756C188.328 237.531 187.853 237.103 187.547 236.469C187.181 235.728 187.228 234.906 187.684 234.006C187.828 233.75 187.966 233.481 188.109 233.206C187.259 232.85 186.719 232.428 186.484 231.944C186.253 231.469 186.206 231 186.347 230.531C186.497 230.075 186.822 229.725 187.322 229.481C187.797 229.25 188.259 229.203 188.709 229.344C189.166 229.487 189.512 229.794 189.747 230.269C189.987 230.762 189.937 231.394 189.597 232.169C189.503 232.387 189.412 232.587 189.322 232.769L191.897 234.019C191.953 233.762 192.009 233.503 192.059 233.244L192.222 232.506L193.084 232.606Z" fill="#FEFBF6"/>
<path d="M206.83 224.52C207.036 225.389 206.995 226.233 206.705 227.058C206.405 227.892 205.898 228.564 205.192 229.07C204.223 229.764 203.145 229.995 201.955 229.77C200.789 229.555 199.855 228.958 199.155 227.983C198.814 227.502 198.577 226.97 198.442 226.395C198.317 225.845 198.289 225.292 198.355 224.733C198.53 223.542 199.102 222.602 200.067 221.908C200.777 221.402 201.57 221.133 202.455 221.108C203.33 221.102 204.136 221.339 204.88 221.82L204.08 222.383C203.211 221.958 202.323 221.902 201.417 222.208C201.117 222.327 200.811 222.495 200.492 222.72C200.177 222.945 199.902 223.255 199.667 223.645C199.452 224.045 199.314 224.464 199.255 224.895C199.105 225.83 199.311 226.689 199.867 227.47C200.417 228.239 201.164 228.708 202.105 228.883C203.045 229.077 203.898 228.895 204.667 228.345C205.192 227.97 205.57 227.489 205.805 226.895C206.045 226.32 206.12 225.72 206.03 225.095L206.83 224.52Z" fill="#FEFBF6"/>
<path d="M217.838 218.03L214.2 221.593L208.213 215.468L211.85 211.905L212.425 212.493L209.413 215.443L211.538 217.618L214.463 214.755L215.05 215.355L212.125 218.218L214.25 220.393L217.263 217.443L217.838 218.03Z" fill="#FEFBF6"/>
<path d="M223.129 210.637L225.029 208.237L225.729 208.787L223.829 211.187L223.567 211.537L223.292 211.875L216.554 206.587L217.092 205.9L223.129 210.637Z" fill="#FEFBF6"/>
<path d="M229.649 201.384L231.236 198.771L231.999 199.234L230.411 201.846L230.186 202.221L229.949 202.596L222.624 198.159L223.086 197.409L229.649 201.384Z" fill="#FEFBF6"/>
<path d="M234.502 183.891C233.611 183.525 232.714 183.525 231.814 183.891C230.914 184.26 230.277 184.891 229.902 185.791C229.527 186.685 229.523 187.579 229.889 188.479C230.258 189.379 230.886 190.013 231.777 190.379C232.677 190.763 233.577 190.772 234.477 190.404C235.383 190.038 236.027 189.41 236.402 188.516C236.777 187.616 236.777 186.716 236.402 185.816C236.033 184.916 235.402 184.275 234.502 183.891ZM234.839 183.066C235.395 183.31 235.88 183.635 236.289 184.041C236.695 184.475 237.002 184.95 237.202 185.466C237.433 186 237.552 186.56 237.552 187.141C237.552 187.725 237.433 188.297 237.202 188.854C236.967 189.404 236.642 189.879 236.227 190.279C235.808 190.688 235.333 191 234.802 191.216C234.286 191.435 233.736 191.538 233.152 191.529C232.561 191.554 231.986 191.447 231.427 191.204C230.877 190.979 230.402 190.647 230.002 190.204C229.595 189.797 229.283 189.329 229.064 188.804C228.858 188.279 228.748 187.725 228.739 187.141C228.733 186.56 228.845 185.991 229.077 185.441C229.311 184.885 229.639 184.404 230.064 184.004C230.489 183.597 230.958 183.279 231.464 183.054C231.998 182.847 232.558 182.735 233.139 182.716C233.723 182.725 234.289 182.841 234.839 183.066Z" fill="#FEFBF6"/>
</svg>
