<svg width="311" height="557" viewBox="0 0 311 557" fill="none" xmlns="http://www.w3.org/2000/svg">
<g clip-path="url(#clip0_1870_11945)">
<path d="M306.999 337.224C307.299 337.224 307.559 337.104 307.76 336.884C307.96 336.664 308.04 336.363 308 336.083C306.759 327.697 300.834 320.751 292.767 318.189V238.785C292.767 203.577 279.055 170.471 254.154 145.611C229.273 120.711 196.165 107 160.976 107C158.534 107 156.192 107.06 154.03 107.2C151.848 107.06 149.526 107 147.084 107C74.4025 107 15.2927 166.127 15.2927 238.785V318.149C7.20584 320.711 1.2408 327.657 -0.000245458 336.083C-0.0402792 336.363 0.0397883 336.664 0.239957 336.884C0.420109 337.104 0.700346 337.224 1.0006 337.224H5.24418C2.44182 340.427 0.600261 344.37 0.0197714 348.533C-0.0202624 348.813 0.0598052 349.114 0.259974 349.334C0.460143 349.554 0.720363 349.674 1.02062 349.674H15.3127V406.079C15.3127 439.226 27.6631 470.891 50.082 495.271C72.3208 519.43 102.466 534.342 135.034 537.304L145.943 543.269L153.169 556.48C153.349 556.8 153.689 557 154.05 557C154.41 557 154.75 556.8 154.931 556.48L162.157 543.269L173.066 537.304C205.633 534.362 235.779 519.45 258.018 495.271C280.436 470.891 292.787 439.226 292.787 406.079V349.674H307.019C307.319 349.674 307.579 349.554 307.78 349.334C307.98 349.114 308.06 348.813 308.02 348.533C307.399 344.33 305.558 340.407 302.795 337.224H307.039H306.999ZM305.798 335.223H300.794C300.473 334.942 300.133 334.682 299.793 334.422C299.513 334.202 299.232 333.962 298.952 333.741C298.532 333.441 298.111 333.181 297.671 332.921C297.371 332.741 297.091 332.54 296.77 332.36C296.29 332.08 295.769 331.86 295.269 331.62C295.009 331.5 294.749 331.339 294.468 331.239C293.668 330.919 292.867 330.639 292.046 330.399C287.242 329.038 282.018 329.358 277.494 331.239C276.894 331.5 276.293 331.78 275.713 332.08C275.512 332.18 275.312 332.32 275.112 332.42C274.752 332.62 274.391 332.821 274.051 333.041C273.811 333.181 273.611 333.361 273.371 333.501C273.07 333.701 272.77 333.902 272.49 334.122C272.27 334.302 272.049 334.482 271.829 334.662C271.609 334.842 271.389 335.022 271.169 335.203H266.164C266.505 333.581 267.045 332 267.746 330.539C269.888 326.115 273.591 322.532 278.235 320.611C281.718 319.17 285.621 318.749 289.384 319.39C290.085 319.51 290.785 319.65 291.466 319.85C298.752 321.892 304.257 327.857 305.778 335.203L305.798 335.223ZM268.266 338.385C267.906 338.845 267.586 339.326 267.265 339.806C267.205 339.906 267.145 340.006 267.085 340.106C266.845 340.507 266.605 340.907 266.385 341.327C266.285 341.508 266.204 341.688 266.124 341.868C265.944 342.208 265.784 342.568 265.624 342.909C265.544 343.109 265.464 343.309 265.384 343.509C265.244 343.849 265.104 344.21 264.983 344.57C264.923 344.77 264.843 344.97 264.783 345.171C264.663 345.551 264.563 345.951 264.463 346.331C264.423 346.512 264.363 346.672 264.323 346.852C264.203 347.412 264.083 347.993 264.003 348.573L263.842 349.714H276.893V406.119C276.893 467.488 233.397 520.871 173.426 533.221L162.157 527.076L154.05 512.224L145.943 527.056L134.673 533.201C74.6828 520.851 31.2061 467.468 31.2061 406.099V349.694H44.1971L44.0369 348.553C43.8968 347.612 43.6766 346.672 43.4164 345.771C43.3764 345.611 43.3363 345.451 43.2763 345.291C43.0161 344.41 42.6758 343.569 42.3155 342.729C42.2554 342.568 42.1754 342.428 42.0953 342.268C41.6949 341.408 41.2346 340.587 40.7341 339.786C40.7341 339.766 40.6941 339.746 40.6941 339.726C40.1937 338.946 39.6132 338.205 39.0127 337.484C38.9526 337.404 38.9126 337.324 38.8526 337.264H44.2371L44.077 336.123C43.9368 335.183 43.7367 334.242 43.4765 333.341C43.3964 333.061 43.2763 332.781 43.1762 332.5C42.976 331.9 42.7759 331.279 42.5357 330.699C42.3955 330.379 42.2154 330.058 42.0553 329.738C41.795 329.218 41.5548 328.697 41.2746 328.197C41.0744 327.877 40.8542 327.576 40.6541 327.256C40.3538 326.796 40.0536 326.315 39.7133 325.875C39.4731 325.555 39.2129 325.275 38.9526 324.974C38.5923 324.554 38.252 324.154 37.8717 323.753C37.5915 323.473 37.2712 323.213 36.971 322.933C36.5706 322.572 36.1903 322.212 35.77 321.892C35.4497 321.632 35.0894 321.412 34.7491 321.171C34.3287 320.871 33.9084 320.571 33.448 320.311C33.0677 320.09 32.6873 319.89 32.307 319.69C31.9467 319.51 31.6265 319.29 31.2461 319.13V238.845C31.1861 169.73 85.1316 112.825 154.03 109.202C185.977 110.863 216.102 124.294 238.861 147.012C263.382 171.512 276.874 204.098 276.874 238.785V319.05C276.493 319.21 276.153 319.43 275.793 319.63C275.412 319.83 275.032 320.01 274.672 320.231C274.231 320.491 273.811 320.791 273.371 321.091C273.03 321.331 272.67 321.552 272.33 321.812C271.929 322.132 271.549 322.492 271.169 322.833C270.848 323.113 270.528 323.373 270.248 323.673C269.888 324.054 269.547 324.454 269.207 324.854C268.947 325.175 268.647 325.475 268.406 325.795C268.086 326.215 267.786 326.676 267.506 327.116C267.285 327.456 267.045 327.757 266.845 328.117C266.565 328.597 266.325 329.118 266.064 329.638C265.904 329.978 265.704 330.299 265.564 330.639C265.324 331.219 265.124 331.82 264.923 332.42C264.823 332.721 264.703 333.001 264.623 333.301C264.363 334.222 264.163 335.142 264.023 336.083L263.863 337.224H269.247C269.047 337.464 268.867 337.705 268.667 337.945C268.546 338.085 268.426 338.225 268.326 338.385H268.266ZM290.765 238.785V317.629C290.665 317.608 290.545 317.588 290.445 317.568C290.225 317.528 290.025 317.488 289.804 317.448C289.424 317.388 289.044 317.328 288.643 317.268C288.443 317.248 288.223 317.228 288.023 317.208C287.623 317.168 287.222 317.148 286.842 317.128C286.642 317.128 286.442 317.128 286.241 317.128C285.841 317.128 285.441 317.128 285.04 317.148C284.84 317.148 284.64 317.148 284.44 317.168C284.04 317.188 283.639 317.248 283.239 317.288C283.039 317.308 282.839 317.328 282.638 317.368C282.238 317.428 281.838 317.508 281.457 317.588C281.257 317.628 281.077 317.669 280.877 317.709C280.457 317.809 280.056 317.929 279.656 318.049C279.496 318.089 279.316 318.129 279.155 318.189C279.055 318.229 278.975 318.249 278.875 318.289V238.805C278.875 203.597 265.164 170.491 240.263 145.631C221.667 127.056 198.247 114.626 172.886 109.582C203.051 112.304 231.055 125.355 252.733 147.052C277.254 171.552 290.745 204.138 290.745 238.825L290.765 238.785ZM17.2944 238.785C17.2944 171.331 69.038 115.747 134.914 109.582C74.3025 121.692 29.1844 175.175 29.1844 238.785V318.289C29.0843 318.249 28.9842 318.209 28.8841 318.189C28.704 318.129 28.5238 318.089 28.3437 318.029C27.9433 317.909 27.543 317.789 27.1427 317.709C26.9425 317.669 26.7423 317.628 26.5422 317.588C26.1618 317.508 25.7615 317.428 25.3612 317.368C25.161 317.328 24.9408 317.308 24.7406 317.288C24.3403 317.248 23.96 317.188 23.5596 317.168C23.3595 317.168 23.1393 317.148 22.9391 317.128C22.5388 317.128 22.1585 317.108 21.7581 317.108C21.558 317.108 21.3378 317.108 21.1376 317.108C20.7573 317.108 20.3569 317.148 19.9766 317.188C19.7564 317.188 19.5563 317.228 19.3361 317.248C18.9758 317.288 18.5955 317.348 18.2351 317.408C18.015 317.448 17.7948 317.488 17.5746 317.528C17.4745 317.528 17.3944 317.548 17.2944 317.568V238.745V238.785ZM16.5737 319.85C20.7773 318.649 25.5813 318.91 29.8049 320.651C35.9501 323.233 40.4739 328.737 41.8351 335.223H36.8308C36.6107 335.022 36.3504 334.822 36.1302 334.642C35.9301 334.482 35.7499 334.322 35.5498 334.162C35.2295 333.922 34.9092 333.701 34.5689 333.461C34.3688 333.321 34.1886 333.181 33.9884 333.061C33.6281 332.821 33.2278 332.6 32.8475 332.38C32.6673 332.28 32.5072 332.18 32.327 332.08C31.7466 331.78 31.1661 331.5 30.5656 331.239C25.9216 329.318 20.6372 329.038 16.0133 330.359C15.1726 330.599 14.3519 330.879 13.5512 331.199C13.271 331.319 12.9907 331.46 12.7105 331.6C12.2101 331.84 11.6896 332.06 11.2092 332.32C10.8889 332.5 10.5887 332.721 10.2684 332.921C9.84807 333.181 9.42771 333.421 9.04739 333.721C8.72712 333.942 8.42687 334.222 8.12661 334.462C7.80634 334.722 7.48607 334.942 7.18582 335.223H2.20161C3.7229 327.857 9.24756 321.892 16.5737 319.85ZM2.1816 347.673C3.02231 343.609 5.1441 339.846 8.26673 336.944C10.5687 334.782 13.4311 333.161 16.5537 332.3C20.7373 331.099 25.5813 331.359 29.7849 333.101C32.0268 334.042 34.0285 335.343 35.7499 336.964C38.8325 339.806 40.9743 343.569 41.815 347.673H2.1816ZM51.5433 493.91C29.4646 469.91 17.2944 438.705 17.2944 406.079V349.674H29.1844V406.079C29.1844 467.608 72.2808 521.231 132.011 534.622L131.491 534.902C100.845 531.239 72.581 516.788 51.5433 493.889V493.91ZM160.916 541.648C160.755 541.748 160.615 541.868 160.515 542.048L154.03 553.918L147.544 542.048C147.444 541.888 147.324 541.748 147.144 541.648L140.018 537.745H140.098L135.274 535.142L147.144 528.657L147.404 528.517L147.544 528.257L154.03 516.367L160.515 528.257L160.655 528.517L160.916 528.657L172.786 535.142L167.962 537.745H168.042L160.916 541.648ZM290.765 406.079C290.765 438.725 278.595 469.91 256.516 493.91C235.479 516.788 207.215 531.259 176.569 534.922L176.048 534.642C235.779 521.251 278.875 467.628 278.875 406.099V349.694H290.765V406.099V406.079ZM292.767 347.673H266.164C266.985 343.629 269.107 339.866 272.21 336.984C272.21 336.984 272.23 336.964 272.25 336.944C273.951 335.323 275.973 334.022 278.235 333.061C282.338 331.359 287.082 331.059 291.466 332.3C292.226 332.52 292.987 332.781 293.708 333.081C295.91 334.002 297.951 335.303 299.693 336.944C302.775 339.786 304.917 343.549 305.758 347.653H292.727L292.767 347.673Z" fill="#FEFBF6" fill-opacity="0.3"/>
<path d="M155.151 160.503C158.253 149.074 160.816 146.612 172.546 143.509C172.986 143.389 173.286 142.989 173.286 142.548C173.286 142.108 172.986 141.688 172.546 141.588C160.956 138.505 158.394 128.837 155.151 116.588L155.011 116.027C154.771 115.147 153.309 115.147 153.069 116.027L152.929 116.568C149.686 128.817 147.104 138.505 135.534 141.568C135.094 141.688 134.794 142.088 134.794 142.528C134.794 142.969 135.094 143.389 135.534 143.489C147.264 146.592 149.846 149.054 152.929 160.483L146.323 167.068L144.182 169.19H80.728V171.191H144.182L154.05 181.059L154.751 180.359L163.898 171.211H227.352V169.21H163.898L155.151 160.483V160.503ZM139.157 142.448C148.325 138.625 151.328 130.118 154.03 120.151C156.752 130.139 159.755 138.625 168.902 142.448C159.835 145.191 156.772 148.193 154.03 157.14C151.268 148.193 148.205 145.211 139.157 142.448ZM162.057 170.231L154.03 178.257L146.003 170.231L154.03 162.224L162.057 170.231Z" fill="#FEFBF6" fill-opacity="0.3"/>
<g clip-path="url(#clip1_1870_11945)">
<g clip-path="url(#clip2_1870_11945)">
<path d="M156.167 454.974C149.95 455.154 143.702 454.356 137.724 452.638C135.577 452.022 133.466 451.286 131.402 450.435C122.029 446.568 113.288 440.151 109.379 430.541C109.251 430.222 109.056 429.836 109.133 429.545C109.719 427.327 108.509 425.056 107.991 422.939C107.369 420.388 107.057 417.765 107.005 415.14C106.906 409.937 107.83 404.735 109.442 399.8C110.226 397.398 111.171 395.036 111.667 392.557C112.308 389.355 111.502 386.781 110.953 383.686C110.87 383.219 110.813 382.682 110.966 382.253C111.085 381.913 113.453 382.054 114.054 381.979C115.805 381.756 117.544 381.389 119.195 380.75C124.907 378.541 128.944 372.611 129.025 366.481C129.072 362.85 128.355 359.396 126.908 356.144C125.483 352.944 122.944 350.819 119.492 349.909C118.594 349.671 118.218 348.963 118.501 347.749C119.409 343.852 118.794 340.366 118.359 336.447C117.882 332.156 117.513 327.853 117.25 323.544C117.131 321.592 117.034 319.633 117.168 317.682C117.544 312.203 119.78 306.902 123.271 302.668C127.874 297.083 134.257 293.96 141.012 291.777C142.011 291.453 143.27 291.792 143.895 290.749C144.253 290.149 144.293 289.419 144.324 288.722C145.134 270.595 146.103 252.454 146.673 234.324C146.689 233.817 146.652 233.325 147.249 233.064C147.401 232.998 147.455 232.702 147.552 232.512C147.378 232.433 147.199 232.283 147.032 232.292C146.588 232.317 146.135 232.371 145.707 232.49C143.636 233.07 141.554 233.048 139.486 232.551C138.877 232.404 138.243 232.117 137.766 231.718C136.554 230.706 136.815 229.227 138.289 228.683C139.36 228.288 140.478 228.023 141.576 227.708C143.096 227.274 144.414 227.861 145.72 228.532C146.067 228.711 146.425 228.902 146.799 228.99C147.535 229.163 147.93 228.915 147.873 228.063C147.802 226.969 148.066 225.928 146.992 224.973C145.98 224.074 146.37 223.253 147.655 222.744C147.908 222.643 148.187 222.31 148.239 222.043C148.389 221.26 148.444 220.458 148.51 219.659C148.558 219.089 148.795 218.221 148.531 218.011C148.151 217.71 147.389 217.824 146.797 217.873C145.659 217.969 144.513 218.074 143.397 218.3C141.524 218.677 139.723 218.455 137.937 217.873C137.057 217.588 136.459 217.077 136.411 216.069C136.363 215.05 137.057 214.724 137.83 214.393C140.037 213.446 142.218 213.739 144.416 214.423C145.556 214.778 146.724 215.048 147.879 215.357C148.694 215.576 149.091 215.309 149.131 214.421C149.177 213.424 149.305 212.429 149.436 211.438C149.513 210.849 149.509 210.551 148.714 210.568C147.905 210.584 147.159 209.444 147.24 208.629C147.334 207.678 148.042 207.608 148.766 207.542C148.988 207.522 149.203 207.444 149.421 207.393C149.23 207.275 149.05 207.126 148.846 207.043C148.34 206.839 148.105 206.652 148.538 206.076C148.885 205.614 149.087 205.018 149.259 204.452C149.577 203.407 149.469 203.146 148.343 203.148C146.709 203.151 146.045 202.219 145.654 200.862C145.529 200.429 145.38 200.004 145.272 199.568C144.798 197.665 145.134 197.155 147.005 196.922C147.203 196.898 147.405 196.911 147.602 196.887C149.214 196.688 149.212 196.686 149.498 195.04C149.649 194.177 149.586 193.158 150.912 193.151C151.002 193.151 151.129 192.761 151.169 192.539C151.268 191.998 151.316 191.45 151.402 190.907C151.641 189.419 151.951 189.106 153.398 189.038C154.496 188.987 155.597 188.989 156.697 189.009C157.678 189.027 158.015 189.373 158.08 190.377C158.109 190.826 158.089 191.281 158.061 191.729C158.023 192.334 157.949 192.824 158.774 193.109C159.124 193.23 159.275 194.1 159.404 194.658C159.58 195.426 159.389 196.493 159.839 196.924C160.29 197.356 161.335 197.17 162.123 197.242C163.45 197.361 163.628 197.556 163.597 198.914C163.591 199.164 163.558 199.414 163.542 199.662C163.388 201.781 162.696 202.609 160.637 202.727C159.598 202.785 159.429 203.069 159.796 203.964C159.943 204.323 159.868 204.77 159.991 205.143C160.219 205.837 160.268 206.374 159.444 206.736C158.904 206.974 159.064 207.509 159.517 207.568C160.579 207.706 161.688 208.169 162.732 207.512C164.085 206.659 165.571 206.635 167.08 206.777C168.123 206.874 169.171 206.975 170.196 207.172C170.866 207.301 171.635 207.476 171.675 208.397C171.712 209.236 171.299 209.94 170.544 210.181C169.178 210.619 167.772 211.053 166.357 211.171C165.141 211.272 163.883 210.95 162.651 210.775C162.06 210.693 161.486 210.476 160.894 210.398C159.767 210.251 159.582 210.393 159.506 211.522C159.453 212.317 159.516 213.121 159.506 213.919C159.499 214.638 159.567 215.16 160.41 215.541C161.339 215.96 161.273 217.465 160.299 218.033C159.697 218.385 159.578 218.74 159.62 219.325C159.692 220.323 159.688 221.329 159.828 222.317C159.863 222.564 160.327 222.937 160.586 222.93C161.326 222.908 162.091 222.81 162.795 222.58C164.928 221.883 167.074 221.675 169.298 222.038C170.666 222.262 171.25 222.61 171.406 223.557C171.571 224.565 171.031 225.755 170.073 226.2C168.929 226.73 167.721 227.057 166.435 226.754C165.075 226.432 163.718 226.082 162.35 225.792C161.063 225.519 160.768 225.689 160.782 226.972C160.806 229.053 160.54 231.164 161.322 233.199C161.526 233.73 161.423 234.385 161.438 234.985C161.669 244.738 161.972 254.49 162.297 264.243C162.46 269.12 162.629 273.996 162.798 278.874C162.885 281.363 162.971 283.85 163.055 286.338C163.109 287.863 162.571 290.506 164.5 290.99C169.142 292.15 173.295 293.491 177.139 296.397C180.716 299.099 183.799 302.458 186.169 306.267C191.591 314.98 192.16 324.522 191.17 334.475C190.695 339.259 190.39 344.015 190.195 348.82C190.113 350.863 190.35 351.79 187.162 351.919C184.094 352.044 181.836 354.049 180.415 356.65C178.023 361.033 177.753 366.475 179.51 371.151C181.891 377.485 187.572 382.053 194.213 383.084C195.479 383.281 195.968 384.048 195.577 385.281C194.196 389.619 194.85 394.198 196.034 398.496C198.088 405.951 200.732 413.527 199.8 421.384C197.798 438.24 183.134 449.46 167.552 453.46C166.454 453.742 165.343 453.981 164.225 454.17C161.566 454.634 158.869 454.897 156.167 454.974ZM165.148 348.579C165.244 350.929 165.332 353.28 165.411 355.629C165.455 356.95 165.29 357.194 163.964 357.42C163.239 357.544 162.451 357.568 161.739 357.415C160.907 357.236 160.727 357.454 160.751 358.246C160.968 365.773 160.867 373.321 161.08 380.835C161.096 381.42 161.098 381.823 162 381.688C162.835 381.565 163.847 381.716 164.57 382.121C164.956 382.336 164.899 383.347 165.04 384C165.071 384.148 165.104 384.295 165.126 384.442C165.435 386.518 164.869 387.203 162.828 387.232C162.778 387.232 162.727 387.227 162.677 387.228C161.225 387.265 161.216 387.341 161.214 388.757C161.208 393.004 161.151 397.251 161.107 401.498C161.098 402.452 161.093 403.431 161.425 404.325C161.834 405.423 161.783 407.354 162.846 407.987C163.674 408.478 163.946 409.197 163.549 410.165C163.171 411.088 162.916 412.061 162.58 413.003C162.356 413.63 162.205 414.093 162.842 414.713C163.771 415.618 163.333 417.765 162.262 417.812C159.594 417.934 159.442 423.527 159.09 425.431C158.15 430.491 157.865 435.591 157.338 440.699C157.18 442.292 157.039 443.888 156.945 445.487C156.765 448.564 163.76 448.369 165.795 448.124C168.631 447.784 171.358 446.809 173.947 445.603C179.062 443.221 183.769 439.873 187.416 435.564C191.681 430.524 194.049 424.425 194.751 417.888C194.824 417.2 195.188 416.545 195.417 415.874C195.531 416.58 195.779 417.297 195.735 417.995C195.5 421.704 194.877 425.319 193.32 428.758C191.984 431.709 190.225 434.348 188.088 436.743C184.55 440.706 180.084 443.484 175.684 446.338C172.201 448.599 167.831 449.009 164.48 451.369C164.98 452.167 166.162 452.04 167.071 451.792C174.973 449.64 182.536 445.787 188.258 439.919C195.9 432.082 199.126 421.212 197.079 410.459C196.454 407.181 195.546 403.97 194.668 400.753C193.812 397.617 192.667 394.358 192.771 391.071C192.792 390.421 192.825 389.774 192.85 389.125C192.876 388.464 192.636 388.187 191.899 388.128C183.729 387.473 178.755 381.295 177.386 373.592C176.491 368.561 176.761 363.33 178.153 358.415C179.222 354.641 182.692 350.107 187.041 350.251C188.525 350.3 188.596 350.231 188.356 348.757C186.977 340.339 190.03 332.305 189.832 323.934C189.674 317.241 186.992 310.637 182.44 305.734C180.088 303.201 177.248 301.134 174.138 299.638C171.194 298.224 167.118 296.607 163.814 297.192C163.193 297.302 163.182 297.788 163.729 298.125C164.065 298.331 164.449 298.48 164.829 298.583C166.463 299.02 168.104 299.423 169.74 299.855C172.177 300.497 174.464 301.527 176.484 303.006C179.956 305.55 182.688 308.782 184.553 312.675C185.24 314.11 185.675 315.67 186.186 317.185C186.263 317.415 186.121 317.719 186.081 317.987C185.839 317.849 185.504 317.77 185.372 317.562C185.055 317.062 184.807 316.514 184.577 315.966C183.501 313.387 182.458 310.827 180.657 308.596C177.36 304.512 173.238 301.816 168.172 300.554C167.262 300.328 166.314 300.172 165.378 300.142C161.79 300.025 163.461 308.226 163.54 310.354C163.72 315.221 163.909 320.088 164.109 324.953C164.434 332.829 164.829 340.707 165.148 348.579ZM109.128 415.721C109.146 418.486 109.381 421.254 109.787 424.051C109.881 424.695 110.323 425.344 110.751 425.871C111.239 426.47 111.786 426.299 111.852 425.53C111.915 424.795 111.834 424.029 111.704 423.297C110.896 418.754 110.944 414.086 111.566 409.523C111.873 407.27 112.322 405.037 112.895 402.835C113.189 401.704 113.516 400.58 113.872 399.465C114.081 398.862 114.623 397.755 115.172 397.635C115.515 398.849 114.862 400.328 114.485 401.478C112.475 407.628 111.136 415.486 113.092 421.784C114.241 425.484 115.967 424.826 119.25 424.311C123.876 423.586 128.753 423.382 133.279 424.771C140.869 427.101 145.108 433.388 148.207 440.289C148.301 440.495 148.426 440.688 148.536 440.887C148.597 440.673 148.723 440.454 148.711 440.245C148.479 436.505 148.365 432.751 147.949 429.03C147.578 425.705 146.851 422.418 146.326 419.107C146.215 418.414 145.99 417.947 145.358 417.566C144.609 417.115 144.045 416.415 144.295 415.436C144.816 413.394 144.576 411.408 144.003 409.423C143.898 409.059 143.808 408.535 143.986 408.272C144.497 407.523 144.266 406.74 144.339 405.962C144.39 405.41 144.572 404.577 144.943 404.406C146.105 403.87 145.944 402.956 145.942 402.026C145.936 399.772 145.942 397.521 145.938 395.268C145.934 392.719 145.916 390.168 145.923 387.618C145.925 386.956 145.786 386.62 144.989 386.682C144.152 386.748 143.296 386.607 142.45 386.54C141.658 386.478 141.387 386.048 141.666 385.31C142.127 384.096 142.575 382.873 143.101 381.686C143.683 380.377 143.722 380.371 145.231 380.55C145.778 380.614 146.074 380.552 146.078 379.902C146.087 378.199 146.179 376.498 146.173 374.796C146.155 369.586 146.1 364.375 146.074 359.166C146.067 357.821 146.094 357.797 144.671 357.536C143.845 357.385 143.05 357.161 142.819 356.267C141.853 352.537 142.747 348.031 142.877 344.174C143.026 339.805 143.162 335.437 143.283 331.069C143.465 324.579 143.612 318.088 143.729 311.598C143.759 309.999 143.786 308.403 143.81 306.804C143.829 305.528 144.196 304.178 144.01 302.91C143.726 300.966 142.439 301.18 140.849 301.643C135.363 303.245 130.11 305.405 125.946 309.582C124.534 310.998 123.504 312.593 122.951 314.517C121.745 318.712 121.554 322.988 121.857 327.313C121.877 327.609 121.708 327.918 121.627 328.219C121.389 327.953 121.102 327.712 120.93 327.408C120.818 327.211 120.875 326.919 120.853 326.671C120.498 322.659 120.618 318.672 121.736 314.781C122.13 313.407 122.641 312.013 123.386 310.807C125.536 307.323 128.887 305.119 132.42 303.374C135.352 301.925 138.587 301.09 141.673 299.944C142.266 299.723 142.839 299.384 143.336 298.995C143.926 298.535 143.656 298.022 143.076 297.909C142.464 297.792 141.789 297.871 141.166 297.996C133.589 299.519 125.696 304.652 122.088 311.579C118.284 318.885 118.739 328.282 120.116 336.176C120.779 339.98 121.359 343.797 120.372 347.632C120.173 348.397 120.625 348.57 121.095 348.877C125.334 351.661 128.68 355.21 129.948 360.242C130.725 363.325 130.743 366.562 130.336 369.716C129.798 373.879 128.443 378.074 125.867 381.433C123.124 385.01 119.138 386.921 114.878 388.098C114.146 388.301 113.885 388.703 113.876 389.487C113.815 395.055 111.21 400.3 110.09 405.713C109.399 409.074 109.106 412.394 109.128 415.721ZM157.619 275.249C157.586 273.778 157.553 272.308 157.52 270.836C157.386 264.857 157.25 258.875 157.116 252.896C156.985 247.098 157.687 240.504 156.627 234.83C155.278 235.794 156.11 243.149 156.082 245.005C156.027 248.75 155.979 252.497 155.939 256.243C155.856 263.735 155.803 271.226 155.777 278.72C155.726 293.705 155.787 308.69 155.959 323.673C156.073 333.561 156.236 343.451 156.448 353.337C156.484 355.053 157.307 357.422 158.967 356.997C157.393 356.297 156.389 358.737 156.38 360.464C156.352 366.194 156.325 371.925 156.297 377.655C156.288 379.454 157.202 381.988 158.906 381.416C158.137 381.504 157.366 381.595 156.596 381.683C155.675 383.529 156.253 385.998 157.9 387.239C157.265 386.783 156.653 387.859 156.605 388.639C156.218 394.977 156.629 401.365 157.828 407.601C160.393 404.463 160.426 400.026 160.334 395.971C160.334 366.24 158.994 336.443 158.326 306.718C158.091 296.228 157.856 285.739 157.619 275.249ZM150.427 318.469C150.381 290.559 150.778 262.648 151.617 234.751C151.635 234.157 151.54 233.739 150.961 233.59C150.073 235.663 150.723 240.243 150.607 242.768C150.438 246.499 150.275 250.229 150.117 253.961C149.803 261.423 149.513 268.885 149.248 276.349C148.72 291.275 148.288 306.206 147.958 321.138C147.379 347.271 147.104 373.41 147.132 399.55C147.135 402.436 147.177 405.463 148.575 407.987C149.926 404.043 149.959 399.785 149.977 395.616C149.998 390.839 150.02 386.064 150.04 381.287C150.071 374.226 150.102 367.167 150.133 360.106C150.139 358.776 149.818 357.04 148.501 356.861C149.983 357.327 150.739 355.129 150.715 353.574C150.545 341.873 150.447 330.171 150.427 318.469ZM154.802 291.566C154.815 272.716 154.828 253.869 154.839 235.019C154.839 234.453 154.801 233.802 154.351 233.454C152.788 232.255 152.948 240.903 152.926 241.827C152.838 245.568 152.753 249.309 152.673 253.05C152.513 260.533 152.372 268.017 152.247 275.501C151.999 290.469 151.823 305.438 151.718 320.406C151.676 326.393 151.646 332.382 151.626 338.369C151.617 341.363 151.61 344.356 151.606 347.35C151.604 348.847 151.602 350.345 151.602 351.842C151.602 352.841 151.112 355.502 151.604 356.333C152.111 357.19 153.525 356.981 154.129 356.19C154.733 355.397 154.758 354.321 154.76 353.324C154.777 332.74 154.79 312.153 154.802 291.566ZM154.736 408.879C153.042 408.954 151.349 409.063 149.66 409.204C149.184 409.245 146.364 409.219 146.561 409.883C146.669 410.249 149.816 410.383 149.797 410.494C149.663 411.32 148.582 411.517 147.747 411.513C146.911 411.509 145.832 411.693 145.683 412.517C145.569 413.142 146.12 413.683 146.662 414.011C147.203 414.338 147.838 414.634 148.084 415.219C148.397 415.962 147.939 416.777 147.743 417.557C147.484 418.585 147.686 419.667 147.879 420.711C149.136 427.519 149.92 434.414 150.223 441.33C150.266 442.316 150.306 443.331 150.715 444.229C151.125 445.126 152.003 445.886 152.985 445.838C153.778 445.8 154.476 445.242 154.887 444.563C155.3 443.883 155.474 443.088 155.629 442.307C157.026 435.177 157.114 427.804 159.02 420.794C159.348 419.582 159.736 418.366 159.743 417.11C159.747 416.648 159.699 416.179 159.815 415.732C160.039 414.864 160.815 414.274 161.352 413.556C161.888 412.839 162.112 411.658 161.368 411.158C160.891 410.836 160.257 410.968 159.683 411.005C159.108 411.042 158.394 410.856 158.269 410.293C159.503 409.937 160.747 409.62 162.003 409.348C160.705 408.754 159.224 408.75 157.797 408.78C156.776 408.8 155.755 408.833 154.736 408.879ZM160.232 330.82C160.509 339.27 160.806 347.718 161.126 356.164C161.968 356.442 162.925 356.354 163.702 355.925C161.807 315.361 160.38 274.774 159.427 234.175C159.418 233.787 158.284 234.258 158.168 234.355C157.746 234.716 158.014 235.889 158.012 236.364C158.006 238.308 158.069 240.254 158.098 242.198C158.155 245.938 158.217 249.679 158.284 253.418C158.416 260.899 158.563 268.377 158.728 275.856C159.057 290.813 159.451 305.771 159.912 320.724C160.013 324.09 160.121 327.456 160.232 330.82ZM149.226 245.443C149.256 244.413 149.285 243.383 149.311 242.353C149.37 240.113 150.001 236.984 149.221 234.876C147.592 236.123 148.354 242.408 148.275 244.477C148.13 248.218 147.985 251.96 147.84 255.701C147.55 263.183 147.258 270.665 146.968 278.15C146.386 293.114 145.806 308.081 145.224 323.045C144.829 333.222 144.434 343.399 144.038 353.574C144.008 354.334 143.996 355.153 144.429 355.776C144.862 356.4 145.927 356.613 146.349 355.984C145.698 326.143 147.295 296.318 148.485 266.512C148.7 261.145 148.901 255.776 149.074 250.405C149.129 248.752 149.179 247.098 149.226 245.443ZM125.377 426.433C122.69 426.409 119.999 426.682 117.333 427.033C115.758 427.241 113.404 427.52 112.482 428.999C112.723 429.321 113.042 429.352 113.448 429.306C117.293 428.865 121.11 428.118 124.976 427.989C128.843 427.861 132.844 428.392 136.191 430.336C140.924 433.086 143.729 438.266 145.463 443.465C146.01 445.11 146.559 446.905 147.96 447.924C148.929 448.63 150.161 448.845 151.343 449.042C152.972 449.313 154.6 449.583 156.229 449.853C157.364 450.041 158.643 450.324 159.227 451.317C159.517 451.812 159.62 452.462 160.103 452.769C160.722 453.162 161.625 452.636 161.768 451.917C161.912 451.198 161.469 450.46 160.867 450.043C160.265 449.623 159.528 449.456 158.812 449.296C155.735 448.61 152.658 447.924 149.579 447.238C149.219 447.157 148.848 447.072 148.554 446.853C148.088 446.506 147.905 445.903 147.743 445.342C146.052 439.472 143.362 433.522 138.357 430.035C135.383 427.962 131.782 426.915 128.175 426.573C127.242 426.485 126.309 426.441 125.377 426.433ZM155.243 368.414C155.216 368.414 155.188 368.412 155.159 368.412C155.034 365.329 154.924 362.247 154.777 359.166C154.69 357.338 154.665 357.338 152.768 357.362C152.568 357.363 152.37 357.371 152.17 357.367C151.69 357.362 151.463 357.544 151.448 358.075C151.387 360.161 151.215 362.245 151.213 364.331C151.211 367.654 151.331 370.978 151.367 374.303C151.382 375.694 151.219 377.092 151.31 378.475C151.479 381.011 151.534 381.008 154.037 380.943C155.206 380.914 155.256 380.813 155.249 379.63C155.23 375.891 155.243 372.151 155.243 368.414ZM151.23 394.703C151.191 394.703 151.152 394.703 151.112 394.703C151.112 396.907 151.05 399.114 151.14 401.314C151.182 402.342 151.338 403.44 151.766 404.354C152.166 405.208 152.706 405.962 152.775 406.957C152.796 407.246 153.157 407.509 153.363 407.785C153.534 407.479 153.85 407.176 153.851 406.87C153.857 405.677 153.936 404.564 155.087 403.837C155.254 403.731 155.353 403.416 155.372 403.188C155.476 401.891 155.63 400.591 155.614 399.294C155.572 396.044 155.467 392.796 155.348 389.548C155.25 386.877 155.227 386.877 152.513 386.883C151.235 386.884 151.231 386.884 151.23 388.258C151.228 390.405 151.23 392.553 151.23 394.703ZM155.109 202.48C155.08 202.48 155.05 202.48 155.021 202.478C155.021 202.679 155.025 202.879 155.021 203.078C154.957 205.642 154.957 205.642 157.485 205.544C158.891 205.491 159 205.337 158.616 203.933C158.328 202.876 157.981 201.827 157.766 200.755C157.125 197.56 156.745 194.336 156.894 191.069C156.921 190.484 156.811 190.103 156.093 190.136C155.44 190.168 155.225 190.495 155.243 191.091C155.269 191.889 155.309 192.689 155.296 193.49C155.245 196.488 155.173 199.484 155.109 202.48ZM153.925 198.158C153.921 198.158 153.919 198.158 153.916 198.158C153.967 197.161 154.039 196.164 154.064 195.165C154.097 193.817 154.112 192.469 154.096 191.121C154.09 190.661 153.967 190.223 153.334 190.225C152.739 190.225 152.583 190.519 152.575 191.069C152.564 191.865 152.482 192.664 152.416 193.458C152.133 196.843 151.918 200.232 150.894 203.506C149.95 206.521 150.159 205.537 152.686 205.743C153.341 205.796 153.633 205.462 153.649 204.742C153.699 202.548 153.828 200.354 153.925 198.158ZM155.333 384.092C155.309 381.019 155.594 381.666 152.814 381.423C152.616 381.407 152.416 381.411 152.217 381.396C151.652 381.352 151.417 381.598 151.432 382.178C151.457 383.217 151.595 384.289 151.393 385.288C151.178 386.34 151.683 386.357 152.394 386.353C152.542 386.353 152.693 386.347 152.842 386.358C155.333 386.551 155.333 386.553 155.333 384.092ZM158.304 217.013C158.372 217.009 158.438 217.003 158.506 217C158.364 214.254 158.243 211.507 158.06 208.765C158.023 208.215 157.746 207.68 157.58 207.137C157.545 207.68 157.461 208.222 157.481 208.763C157.683 214.066 157.887 219.369 158.126 224.67C158.23 227.018 158.401 229.364 158.575 231.707C158.597 231.999 158.831 232.275 158.967 232.558C159.082 232.266 159.31 231.97 159.297 231.683C159.205 229.535 159.088 227.386 158.937 225.242C158.744 222.497 158.517 219.755 158.304 217.013ZM148.769 230.927C148.769 231.276 148.722 231.587 148.782 231.874C148.846 232.167 149.017 232.435 149.142 232.713C149.326 232.457 149.632 232.22 149.671 231.944C149.807 230.958 149.873 229.959 149.928 228.964C150.126 225.424 150.264 221.878 150.512 218.339C150.761 214.756 151.116 211.178 151.413 207.599C151.424 207.47 151.329 207.332 151.283 207.198C151.169 207.323 151.009 207.432 150.956 207.579C150.89 207.759 150.916 207.974 150.897 208.173C150.416 213.284 149.931 218.398 149.45 223.509C149.217 225.998 148.993 228.486 148.769 230.927ZM145.852 383.068C145.896 382.821 145.944 382.717 145.927 382.625C145.85 382.213 145.755 381.802 145.665 381.392C145.22 381.641 144.75 381.854 144.343 382.154C144.166 382.282 144.124 382.591 144.019 382.82C142.989 385.045 142.997 385.017 145.226 385.704C145.848 385.895 145.962 385.591 145.962 385.161C145.962 384.414 145.887 383.667 145.852 383.068ZM161.302 384.324C161.302 384.769 161.267 385.218 161.318 385.656C161.341 385.849 161.504 386.125 161.669 386.187C162.688 386.564 163.652 385.935 163.72 384.876C163.749 384.433 163.79 383.976 163.716 383.546C163.678 383.322 163.446 383.027 163.235 382.948C161.407 382.262 161.234 382.398 161.302 384.324ZM154.299 231.081C154.299 231.104 154.299 231.126 154.299 231.148C155.094 231.148 155.888 231.151 156.683 231.146C157.092 231.144 157.588 231.126 157.41 230.543C157.327 230.269 156.912 229.901 156.655 229.906C154.92 229.937 153.187 230.046 151.455 230.165C151.272 230.178 151.103 230.421 150.927 230.557C151.108 230.732 151.283 231.047 151.476 231.056C152.414 231.109 153.357 231.081 154.299 231.081ZM151.178 195.171C151.075 195.058 150.993 194.97 150.912 194.882C150.816 195.035 150.681 195.174 150.635 195.342C150.08 197.29 149.524 199.239 149.013 201.2C148.957 201.417 149.103 201.823 149.285 201.939C149.728 202.219 150.04 201.971 150.122 201.489C150.48 199.386 150.826 197.286 151.178 195.171ZM154.847 406.319C154.995 407.523 155.28 407.937 155.865 407.588C156.154 407.415 156.277 406.806 156.302 406.385C156.339 405.805 156.288 405.062 155.537 405.048C155.317 405.042 155.078 405.872 154.847 406.319ZM149.981 406.407C150.192 406.889 150.293 407.327 150.554 407.623C150.688 407.774 151.108 407.669 151.4 407.68C151.411 407.257 151.529 406.801 151.408 406.422C151.255 405.942 150.906 405.526 150.642 405.083C150.424 405.519 150.205 405.954 149.981 406.407ZM145.319 406.409C145.549 406.896 145.795 407.444 146.083 407.967C146.105 408.005 146.584 407.886 146.586 407.827C146.617 407.214 146.687 406.576 146.546 405.993C146.48 405.723 145.975 405.559 145.668 405.347C145.571 405.651 145.47 405.954 145.319 406.409ZM147.168 416.089C147.005 415.681 146.739 415.274 146.324 415.129C144.752 414.579 145.742 416.372 146.329 416.816C146.608 416.575 146.889 416.332 147.168 416.089ZM156.985 216.314C156.521 215.959 156.288 215.635 156.025 215.611C155.498 215.561 155.074 215.734 155.118 216.457C155.153 217.046 155.412 217.344 155.933 217.2C156.253 217.114 156.493 216.746 156.985 216.314ZM155.441 224.031C155.456 223.761 155.528 223.542 155.463 223.371C155.375 223.132 155.188 222.931 155.045 222.714C154.859 222.898 154.545 223.062 154.516 223.268C154.448 223.752 154.474 224.261 154.555 224.745C154.578 224.89 154.892 225.045 155.093 225.082C155.182 225.098 155.386 224.852 155.425 224.697C155.484 224.464 155.441 224.206 155.441 224.031ZM152.155 224.706C152.581 224.3 152.856 224.037 153.132 223.772C152.746 223.621 152.366 223.377 151.973 223.356C151.76 223.345 151.529 223.719 151.305 223.919C151.549 224.144 151.791 224.37 152.155 224.706ZM155.184 209.135C155.168 208.923 155.197 208.609 155.104 208.333C155.045 208.16 154.806 208.05 154.646 207.91C154.551 208.114 154.388 208.314 154.376 208.522C154.354 208.912 154.397 209.311 154.461 209.699C154.505 209.964 154.632 210.216 154.72 210.476C154.859 210.207 155.017 209.944 155.133 209.666C155.188 209.536 155.164 209.372 155.184 209.135ZM156.967 224.098C157.022 224.079 157.077 224.059 157.132 224.041C156.949 223.592 156.767 223.145 156.583 222.696C156.482 223.174 156.367 223.651 156.286 224.133C156.255 224.32 156.275 224.53 156.33 224.71C156.365 224.822 156.543 224.995 156.602 224.975C156.756 224.922 156.951 224.806 157 224.668C157.059 224.504 156.984 224.291 156.967 224.098ZM151.67 216.617C151.703 216.63 151.736 216.641 151.769 216.654C151.764 216.751 151.734 216.854 151.758 216.944C151.812 217.147 151.891 217.342 151.96 217.54C152.078 217.353 152.208 217.171 152.309 216.976C152.35 216.897 152.348 216.781 152.329 216.689C152.252 216.299 152.16 215.913 152.076 215.525C151.94 215.887 151.804 216.251 151.67 216.617ZM162.185 416.164C161.937 415.863 161.673 415.464 161.62 415.491C161.313 415.644 161.056 415.898 160.782 416.117C161.021 416.308 161.236 416.588 161.506 416.656C161.656 416.692 161.897 416.383 162.185 416.164ZM153.014 216.689C153.119 217.031 153.2 217.288 153.279 217.546C153.475 217.307 153.822 217.073 153.833 216.827C153.85 216.433 153.642 216.03 153.528 215.631C153.357 215.986 153.183 216.343 153.014 216.689ZM159.686 201.047C159.508 200.656 159.341 200.238 159.128 199.846C159.058 199.716 158.869 199.651 158.735 199.556C158.715 199.699 158.649 199.857 158.684 199.986C158.803 200.416 158.943 200.841 159.115 201.251C159.141 201.314 159.391 201.305 159.528 201.285C159.587 201.275 159.626 201.147 159.686 201.047ZM161.032 406.4C160.806 406.116 160.619 405.883 160.432 405.647C160.316 405.945 160.103 406.249 160.116 406.543C160.127 406.806 160.386 407.06 160.534 407.317C160.685 407.04 160.834 406.764 161.032 406.4ZM152.318 209.315C152.397 209.571 152.478 209.837 152.561 210.102C152.647 209.845 152.801 209.589 152.803 209.332C152.805 209.091 152.645 208.85 152.557 208.609C152.482 208.829 152.408 209.05 152.318 209.315ZM158.35 195.818C158.318 195.601 158.291 195.412 158.263 195.222C158.228 195.404 158.172 195.585 158.166 195.767C158.161 195.956 158.205 196.147 158.227 196.337C158.269 196.157 158.311 195.98 158.35 195.818ZM156.027 209.087C156.064 209.221 156.112 209.394 156.159 209.569C156.183 209.433 156.231 209.293 156.224 209.159C156.211 208.931 156.161 208.703 156.126 208.476C156.097 208.662 156.066 208.848 156.027 209.087ZM158.511 198.55C158.539 198.538 158.583 198.535 158.588 198.516C158.599 198.478 158.592 198.434 158.592 198.391C158.553 198.404 158.497 198.408 158.482 198.435C158.469 198.461 158.5 198.511 158.511 198.55ZM160.423 405.097C160.391 405.064 160.362 405.029 160.333 404.996C160.299 405.027 160.243 405.057 160.241 405.09C160.239 405.123 160.294 405.158 160.325 405.191C160.356 405.16 160.389 405.129 160.423 405.097Z" fill="#FEFBF6" fill-opacity="0.3"/>
<path d="M169.091 379.001C168.839 376.47 168.635 373.932 168.308 371.412C168.202 370.594 167.862 369.77 167.468 369.036C167.043 368.245 166.606 368.295 166.14 369.13C165.767 369.796 165.266 370.217 164.506 370.276C163.803 370.331 163.217 370.103 162.898 369.428C162.015 367.57 162.751 365.194 165.16 364.905C166.786 364.71 168.083 365.396 169.182 366.503C171.164 368.497 171.859 371.035 172.014 373.734C172.184 376.726 172.157 379.732 172.339 382.722C172.509 385.522 173.051 388.264 174.019 390.913C174.511 392.257 175.337 393.276 176.664 393.795C177.628 394.172 177.935 393.911 177.931 392.873C177.927 392.127 177.808 391.365 177.913 390.635C178.111 389.265 179.216 388.856 180.311 389.688C180.973 390.192 181.456 390.788 181.385 391.704C181.346 392.198 181.434 392.702 181.405 393.201C181.181 397.12 176.758 397.797 174.545 396.335C172.052 394.687 170.736 392.349 169.95 389.561C168.977 386.105 168.815 382.579 169.091 379.001Z" fill="#FEFBF6" fill-opacity="0.3"/>
<path d="M173.727 367.818C173.727 365.973 173.839 364.13 174.059 362.299C174.231 360.868 174.45 359.426 174.78 358.02C174.828 357.816 176.003 355.022 176.22 355.511C176.547 356.249 176.326 357.102 176.124 357.884C174.804 362.988 174.481 368.348 175.177 373.574C174.228 373.404 173.923 372.211 173.851 371.249C173.769 370.108 173.727 368.964 173.727 367.818Z" fill="#FEFBF6" fill-opacity="0.3"/>
<path d="M184.135 342.397C184.172 341.163 184.267 339.931 184.399 338.702C184.535 337.444 184.711 336.191 184.897 334.939C184.968 334.455 184.948 333.765 185.128 333.318C185.154 333.258 185.653 332.318 185.677 332.489C185.784 333.27 185.752 334.065 185.721 334.854C185.552 339.125 185.382 343.398 185.213 347.669C184.517 347.536 184.285 346.668 184.225 345.962C184.124 344.775 184.102 343.585 184.135 342.397Z" fill="#FEFBF6" fill-opacity="0.3"/>
<path d="M128.698 391.908C128.735 392.941 128.788 393.933 129.613 394.439C130.251 394.83 131.118 394.674 131.72 394.227C132.323 393.78 132.704 393.096 132.994 392.404C133.843 390.383 134.054 388.159 134.278 385.978C134.823 380.67 135.506 375.354 136.916 370.209C137.388 368.486 138.005 366.687 139.382 365.552C140.759 364.417 143.12 364.313 144.132 365.782C144.745 366.672 144.706 367.859 144.481 368.916C144.303 369.746 143.746 370.735 142.911 370.588C142.221 370.467 141.927 369.643 141.851 368.944C141.776 368.247 141.743 367.445 141.194 367.009C140.043 367.831 139.801 369.415 139.663 370.826C139.206 375.494 138.833 380.169 138.541 384.85C138.35 387.92 138.115 391.213 136.198 393.616C134.647 395.561 132.067 396.627 129.6 396.348C128.028 396.169 126.478 395.434 125.527 394.166C124.659 393.008 124.299 391.209 124.98 389.868C125.559 388.733 127.229 388.172 128.153 389.434C128.645 390.103 128.667 391.021 128.698 391.908Z" fill="#FEFBF6" fill-opacity="0.3"/>
<path d="M133.409 369.108C133.343 370.877 133.115 372.641 132.711 374.37C132.623 374.747 132.511 375.148 132.212 375.393C131.913 375.637 131.371 375.608 131.228 375.249C131.145 375.039 131.222 374.804 131.294 374.591C132.416 371.291 132.462 367.695 131.898 364.256C131.551 362.138 130.978 360.067 130.308 358.033C130.147 357.546 128.221 352.784 130.057 354.062C130.365 354.277 130.532 354.638 130.681 354.984C132.583 359.422 133.591 364.294 133.409 369.108Z" fill="#FEFBF6" fill-opacity="0.3"/>
<path d="M123.04 343.536C123.021 344.179 122.973 344.821 122.894 345.461C122.803 346.199 122.648 346.981 122.129 347.514C121.703 347.102 121.721 346.423 121.771 345.833C121.866 344.689 121.538 341.821 122.568 341.08C122.959 341.358 123.025 341.902 123.038 342.382C123.051 342.767 123.051 343.151 123.04 343.536Z" fill="#FEFBF6" fill-opacity="0.3"/>
<path d="M156.354 414.237C157.378 414.208 158.063 414.923 158.1 416.058C158.139 417.27 157.468 418.079 156.411 418.096C155.208 418.114 154.468 417.408 154.406 416.179C154.349 415.015 155.091 414.274 156.354 414.237ZM157 416.407C156.817 416.104 156.616 415.786 156.293 415.639C155.351 415.208 155.183 416.577 156.053 416.827C156.413 416.93 156.833 416.744 157 416.407Z" fill="#FEFBF6" fill-opacity="0.3"/>
<path d="M151.472 413.954C152.555 413.937 153.417 414.837 153.42 415.99C153.424 417.014 152.857 417.664 151.924 417.697C150.811 417.737 149.675 416.761 149.651 415.743C149.627 414.774 150.446 413.97 151.472 413.954ZM151.503 416.674C151.871 416.65 152.085 416.201 152.007 415.841C151.928 415.48 151.656 415.201 151.395 414.94C151.301 414.846 150.795 415.44 150.769 415.578C150.707 415.902 151.294 416.485 151.503 416.674Z" fill="#FEFBF6" fill-opacity="0.3"/>
</g>
</g>
</g>
<path d="M67.1117 89.4162C66.8555 89.7163 66.5772 89.9766 66.2768 90.197C65.9845 90.4244 65.7084 90.6164 65.4484 90.7731C65.1803 90.9229 64.9624 91.0385 64.7948 91.1198C64.6341 91.193 64.5538 91.2296 64.5538 91.2296L63.908 90.2365C63.908 90.2365 63.9883 90.1999 64.149 90.1267C64.3166 90.0453 64.531 89.9339 64.7922 89.7922C65.0452 89.6436 65.3144 89.4597 65.5998 89.2404C65.8851 89.0212 66.149 88.7696 66.3914 88.4857C66.5299 88.3234 66.6458 88.1629 66.7392 88.0042C66.8245 87.8386 66.8653 87.6841 66.8615 87.5406C66.8566 87.3821 66.8041 87.1971 66.7042 86.9856C66.6043 86.7741 66.4408 86.5714 66.2136 86.3774C65.8729 86.0866 65.544 85.9461 65.227 85.956C64.91 85.9659 64.5921 86.0591 64.2731 86.2356C63.9541 86.412 63.6294 86.6117 63.299 86.8345C63.0332 87.0144 62.7628 87.1832 62.4878 87.3411C62.2127 87.499 61.9266 87.6124 61.6294 87.6813C61.3391 87.742 61.032 87.7322 60.7078 87.6519C60.3825 87.5565 60.0374 87.353 59.6723 87.0413C59.0963 86.5496 58.7828 85.9804 58.7317 85.3338C58.6795 84.6721 59.0101 83.9235 59.7234 83.0879C59.9658 82.8039 60.2181 82.5495 60.4802 82.3245C60.7343 82.0926 60.9688 81.9001 61.1837 81.7469C61.3974 81.5787 61.562 81.4598 61.6776 81.3902L62.3943 82.2756C62.3943 82.2756 62.3337 82.322 62.2124 82.4148C62.0899 82.4925 61.9328 82.6108 61.7411 82.7697C61.5493 82.9286 61.3409 83.1153 61.1157 83.3298C60.8824 83.5374 60.655 83.7709 60.4333 84.0305C60.2256 84.2739 60.0756 84.4825 59.9834 84.6562C59.883 84.823 59.8301 84.9672 59.8246 85.0886C59.819 85.2101 59.8604 85.3506 59.9486 85.5101C60.0288 85.6627 60.154 85.8117 60.3244 85.9571C60.6651 86.248 61.0003 86.3728 61.33 86.3317C61.6665 86.2824 62.0041 86.1499 62.3427 85.934C62.6881 85.71 63.0446 85.4814 63.4121 85.2481C63.664 85.0844 63.9211 84.9393 64.1835 84.8127C64.4458 84.686 64.7193 84.6039 65.0038 84.5663C65.2953 84.5206 65.5927 84.5501 65.896 84.6548C66.2063 84.7513 66.5277 84.9416 66.8604 85.2255C67.5175 85.7865 67.8832 86.4424 67.9576 87.1931C68.0308 87.9288 67.7489 88.6698 67.1117 89.4162Z" fill="#FBF6E8" fill-opacity="0.35"/>
<path d="M76.0461 80.0781C75.714 80.3944 75.3728 80.6162 75.0227 80.7435C74.6651 80.863 74.2661 80.8306 73.8254 80.6463C73.3852 80.447 72.8634 80.0306 72.2602 79.3972L68.9169 75.8865L68.1522 76.6147L67.5784 76.0122L68.2234 75.0887L66.9776 73.2702L67.6496 72.6302L69.1613 74.2175L70.5053 72.9376L71.2446 73.7138L69.9006 74.9938L73.2881 78.5509C73.6927 78.9757 73.9985 79.2736 74.2056 79.4447C74.4127 79.6157 74.5883 79.6841 74.7325 79.6499C74.877 79.6007 75.0652 79.4657 75.2969 79.245C75.4205 79.1273 75.5286 79.0243 75.6213 78.936C75.7067 78.84 75.7764 78.7663 75.8304 78.7148C75.8772 78.6556 75.9005 78.626 75.9005 78.626L76.6398 79.4023C76.6398 79.4023 76.5892 79.4652 76.4881 79.5909C76.3943 79.7245 76.247 79.8868 76.0461 80.0781Z" fill="#FBF6E8" fill-opacity="0.35"/>
<path d="M84.9102 72.6014C84.324 73.0464 83.7122 73.3165 83.0748 73.4119C82.4395 73.4923 81.7827 73.3414 81.1042 72.9591C80.4193 72.5684 79.7157 71.8972 78.9935 70.9455C78.239 69.9514 77.7764 69.0772 77.6057 68.323C77.4435 67.5623 77.4963 66.8996 77.764 66.3349C78.0252 65.7616 78.432 65.2654 78.9843 64.8463C79.5366 64.4271 80.0877 64.1829 80.6378 64.1136C81.1963 64.0379 81.7742 64.1818 82.3714 64.5454C82.9623 64.9004 83.5866 65.5112 84.2443 66.3779L84.8537 67.1808L79.9596 70.8952L80.3116 70.3268C80.7032 70.9134 81.0577 71.354 81.3751 71.6488C81.6946 71.9285 81.9623 72.1137 82.1783 72.2042C82.4028 72.2882 82.5748 72.3385 82.6944 72.3548C82.8907 72.3665 83.0932 72.3334 83.3018 72.2554C83.5105 72.1774 83.738 72.0449 83.9844 71.8579C84.2308 71.6709 84.46 71.4701 84.6722 71.2555C84.8778 71.0325 85.0633 70.8181 85.2285 70.6124C85.3873 70.3981 85.528 70.2042 85.6508 70.0307C85.7671 69.8487 85.8665 69.7063 85.9492 69.6034L86.8649 70.2542C86.8142 70.3462 86.7139 70.5228 86.5639 70.7839C86.4075 71.0366 86.1926 71.3269 85.9193 71.6548C85.6544 71.9764 85.3181 72.2919 84.9102 72.6014ZM80.1665 70.1356L79.3212 70.054L83.5486 66.7051L83.4222 67.5442C82.9728 66.9345 82.5667 66.4259 82.2038 66.0183C81.8495 65.6043 81.513 65.3375 81.1945 65.2177C81.0641 65.1694 80.8976 65.1618 80.6951 65.1949C80.4862 65.2196 80.1736 65.3899 79.7572 65.7059C79.3239 66.0348 79.0322 66.3298 78.8823 66.5909C78.7408 66.8456 78.6686 67.0945 78.6657 67.3377C78.6673 67.9927 79.1676 68.9253 80.1665 70.1356Z" fill="#FBF6E8" fill-opacity="0.35"/>
<path d="M94.2993 65.8885L89.5667 57.8687L90.297 57.4378L90.9284 58.1613L91.011 58.1125C91.011 58.1125 91.0501 58.0213 91.1283 57.839C91.2156 57.6512 91.3362 57.4252 91.49 57.1611C91.6437 56.897 91.8194 56.6385 92.017 56.3856C92.2238 56.1274 92.442 55.9305 92.6716 55.7949C92.8094 55.7136 92.9462 55.6515 93.0819 55.6086C93.2121 55.5565 93.2773 55.5305 93.2773 55.5305L93.8313 56.6897C93.8313 56.6897 93.7689 56.7204 93.6441 56.7817C93.5192 56.843 93.4063 56.9034 93.3052 56.963C93.048 57.1148 92.8079 57.3061 92.5848 57.5368C92.371 57.7621 92.1863 57.9949 92.0309 58.2352C91.8755 58.4756 91.7633 58.6842 91.6943 58.8612L95.443 65.2135L94.2993 65.8885Z" fill="#FBF6E8" fill-opacity="0.35"/>
<path d="M107.654 59.1173C106.992 59.4139 106.34 59.5248 105.699 59.4499C105.057 59.375 104.449 59.0747 103.875 58.5491C103.296 58.0137 102.769 57.2155 102.293 56.1545C101.905 55.2882 101.675 54.5265 101.602 53.8693C101.539 53.2078 101.602 52.6422 101.789 52.1727C101.971 51.6934 102.256 51.2853 102.642 50.9484C103.029 50.6114 103.476 50.3295 103.982 50.1027C104.352 49.9369 104.737 49.7933 105.139 49.6718C105.55 49.546 105.89 49.4577 106.16 49.4071L106.472 50.4945C106.278 50.558 105.971 50.6548 105.55 50.785C105.125 50.9054 104.683 51.0682 104.226 51.2732C103.866 51.4346 103.572 51.6012 103.345 51.7731C103.128 51.9405 102.982 52.1229 102.907 52.3203C102.813 52.6076 102.821 53.0543 102.929 53.6605C103.042 54.2525 103.267 54.9233 103.603 55.6728C103.912 56.3639 104.217 56.8996 104.516 57.2799C104.81 57.6505 105.081 57.915 105.327 58.0734C105.569 58.2221 105.768 58.3141 105.924 58.3494C106.028 58.3729 106.155 58.3806 106.303 58.3726C106.461 58.3602 106.662 58.2994 106.905 58.1904C107.187 58.0639 107.459 57.9011 107.721 57.7021C107.982 57.5031 108.215 57.3052 108.419 57.1086C108.623 56.9119 108.783 56.7468 108.898 56.6132C109.024 56.4753 109.086 56.4063 109.086 56.4063L109.891 57.1852C109.891 57.1852 109.812 57.2965 109.655 57.519C109.498 57.7415 109.255 58.0081 108.927 58.3189C108.594 58.62 108.17 58.8861 107.654 59.1173Z" fill="#FBF6E8" fill-opacity="0.35"/>
<path d="M117.458 55.0487L114.622 46.1793L115.429 45.9209L115.884 46.7665L115.976 46.7372C115.976 46.7372 116.034 46.657 116.151 46.4965C116.278 46.3327 116.445 46.1391 116.654 45.9156C116.862 45.6922 117.091 45.4791 117.34 45.2763C117.599 45.0703 117.855 44.9267 118.109 44.8455C118.261 44.7967 118.409 44.7665 118.55 44.7547C118.689 44.7328 118.758 44.7218 118.758 44.7218L119.041 45.9751C119.041 45.9751 118.974 45.9912 118.838 46.0232C118.703 46.0553 118.58 46.0892 118.468 46.125C118.183 46.216 117.907 46.3492 117.638 46.5247C117.38 46.697 117.148 46.8831 116.943 47.083C116.738 47.2829 116.583 47.4614 116.476 47.6187L118.723 54.6441L117.458 55.0487Z" fill="#FBF6E8" fill-opacity="0.35"/>
<path d="M130.576 51.6823C130.094 51.7767 129.644 51.7508 129.224 51.6049C128.812 51.4463 128.46 51.173 128.166 50.7849C127.871 50.3862 127.663 49.8781 127.542 49.2605C127.396 48.5173 127.429 47.9077 127.64 47.4315C127.859 46.9429 128.224 46.5563 128.733 46.2717C129.243 45.9871 129.859 45.774 130.581 45.6325L132.245 45.3064C132.143 44.783 132.038 44.3308 131.93 43.9496C131.832 43.556 131.69 43.2793 131.507 43.1196C131.374 42.9935 131.209 42.928 131.012 42.9231C130.826 42.9161 130.633 42.9321 130.434 42.971C130.026 43.051 129.631 43.1718 129.25 43.3335C128.877 43.4827 128.539 43.6414 128.235 43.8096C127.941 43.9758 127.708 44.1192 127.536 44.2399C127.362 44.3501 127.275 44.4052 127.275 44.4052L126.62 43.4738C126.62 43.4738 126.711 43.4124 126.894 43.2897C127.074 43.1566 127.32 42.9996 127.633 42.8188C127.943 42.6276 128.294 42.4501 128.686 42.2864C129.086 42.1101 129.506 41.9789 129.946 41.8928C130.658 41.7533 131.251 41.7839 131.725 41.9845C132.197 42.1746 132.571 42.5035 132.847 42.9711C133.132 43.4261 133.34 43.9886 133.471 44.6586L134.65 50.6722L133.802 50.8384L133.426 49.9175L133.332 49.9359C133.241 50.0297 133.11 50.1641 132.938 50.3392C132.774 50.5017 132.574 50.6766 132.339 50.864C132.113 51.0388 131.851 51.1989 131.553 51.3441C131.258 51.4999 130.932 51.6126 130.576 51.6823ZM130.571 50.4931C130.948 50.4192 131.294 50.2972 131.608 50.1269C131.931 49.944 132.21 49.7589 132.445 49.5716C132.69 49.3822 132.873 49.2323 132.993 49.1219L132.482 46.5154C132.342 46.5212 132.134 46.5402 131.857 46.5726C131.579 46.5945 131.22 46.6486 130.78 46.7347C129.807 46.9254 129.225 47.1428 129.033 47.3868C128.918 47.5181 128.85 47.7271 128.83 48.0136C128.808 48.2896 128.834 48.6161 128.908 48.9929C129.029 49.6105 129.216 50.0411 129.471 50.2848C129.733 50.5159 130.1 50.5853 130.571 50.4931Z" fill="#FBF6E8" fill-opacity="0.35"/>
<path d="M143.655 49.5047L143.024 41.7865L141.987 41.8714L141.92 41.0581L142.94 40.7659C142.882 39.9252 142.944 39.2459 143.126 38.7279C143.308 38.1993 143.591 37.8016 143.976 37.5346C144.371 37.2668 144.845 37.1102 145.398 37.065C145.505 37.0563 145.627 37.0516 145.766 37.0509C145.905 37.0396 146.027 37.0349 146.134 37.0368C146.241 37.0281 146.294 37.0238 146.294 37.0238L146.29 38.1479C146.29 38.1479 146.215 38.154 146.066 38.1661C145.927 38.1668 145.767 38.1746 145.587 38.1894C145.416 38.1927 145.277 38.1987 145.171 38.2074C144.884 38.2309 144.665 38.3076 144.515 38.4376C144.365 38.557 144.271 38.7894 144.235 39.1348C144.198 39.4696 144.203 39.9776 144.248 40.6589L146.289 40.4917L146.376 41.5602L144.351 41.726L144.979 49.3963L143.655 49.5047Z" fill="#FBF6E8" fill-opacity="0.35"/>
<path d="M156.686 49.2749C156.227 49.269 155.828 49.1892 155.489 49.0355C155.15 48.8711 154.887 48.569 154.7 48.1292C154.525 47.6789 154.443 47.0165 154.454 46.1419L154.517 41.2943L153.461 41.2807L153.471 40.4488L154.578 40.239L154.958 38.0677L155.886 38.0797L155.858 40.2715L157.714 40.2955L157.7 41.3674L155.844 41.3434L155.781 46.255C155.773 46.8416 155.784 47.2685 155.812 47.5355C155.841 47.8026 155.918 47.9743 156.046 48.0506C156.183 48.1164 156.412 48.1513 156.732 48.1555C156.903 48.1577 157.052 48.1596 157.18 48.1612C157.308 48.1522 157.41 48.1482 157.484 48.1492C157.559 48.1394 157.597 48.1346 157.597 48.1346L157.583 49.2065C157.583 49.2065 157.503 49.2161 157.342 49.2354C157.182 49.2653 156.963 49.2785 156.686 49.2749Z" fill="#FBF6E8" fill-opacity="0.35"/>
<path d="M168.251 50.1228C167.521 50.0313 166.894 49.7969 166.372 49.4197C165.861 49.0332 165.497 48.4661 165.279 47.7185C165.062 46.9604 165.028 45.9886 165.177 44.8032C165.332 43.5649 165.612 42.6164 166.017 41.9576C166.433 41.3002 166.934 40.8631 167.52 40.6463C168.107 40.4189 168.745 40.3484 169.433 40.4346C170.121 40.5208 170.686 40.7314 171.127 41.0662C171.58 41.4024 171.893 41.9093 172.066 42.5867C172.24 43.2536 172.26 44.1268 172.124 45.2063L171.999 46.2065L165.903 45.4425L166.552 45.2819C166.422 45.9752 166.367 46.5381 166.388 46.9707C166.421 47.3941 166.483 47.7136 166.575 47.9293C166.676 48.1463 166.764 48.3025 166.838 48.3978C166.971 48.5433 167.139 48.6612 167.342 48.7512C167.546 48.8412 167.801 48.9055 168.108 48.9439C168.415 48.9824 168.72 48.999 169.021 48.9939C169.324 48.9781 169.607 48.9544 169.869 48.9227C170.132 48.8804 170.368 48.8402 170.577 48.8019C170.788 48.753 170.958 48.7206 171.089 48.7048L171.289 49.8102C171.189 49.8406 170.994 49.8968 170.704 49.9787C170.415 50.0501 170.059 50.1075 169.634 50.151C169.22 50.1959 168.759 50.1865 168.251 50.1228ZM166.582 45.0438L166.034 44.3947L171.398 44.9541L170.721 45.4659C170.826 44.7157 170.891 44.0681 170.916 43.523C170.952 42.9793 170.898 42.5533 170.754 42.2449C170.694 42.1192 170.581 41.9975 170.413 41.8797C170.246 41.7513 169.903 41.6546 169.385 41.5896C168.845 41.5219 168.43 41.5291 168.141 41.611C167.861 41.6943 167.636 41.8219 167.464 41.9938C167.007 42.4633 166.713 43.48 166.582 45.0438Z" fill="#FBF6E8" fill-opacity="0.35"/>
<path d="M181.962 52.6615C181.405 52.5169 180.951 52.2284 180.6 51.7959C180.259 51.3661 180.052 50.7835 179.979 50.0481C179.915 49.3154 180.019 48.4276 180.289 47.3847C180.549 46.3832 180.848 45.5902 181.187 45.0059C181.538 44.4139 181.915 43.9825 182.315 43.7117C182.716 43.441 183.12 43.2867 183.526 43.2488C183.946 43.2033 184.357 43.2327 184.76 43.3371C185.1 43.4255 185.395 43.5238 185.642 43.632C185.889 43.7402 186.099 43.8442 186.272 43.944C186.455 44.0465 186.596 44.1383 186.696 44.2194L187.423 41.416L188.709 41.7493L185.685 53.4118L184.833 53.1909L184.904 52.2175L184.826 52.1974C184.665 52.2659 184.442 52.3622 184.156 52.4865C183.873 52.6005 183.543 52.6856 183.165 52.7418C182.797 52.8007 182.396 52.7739 181.962 52.6615ZM182.337 51.5355C182.543 51.589 182.762 51.6181 182.992 51.6226C183.225 51.6169 183.455 51.5995 183.683 51.5704C183.921 51.544 184.14 51.5071 184.34 51.4597C184.55 51.415 184.721 51.3712 184.853 51.3283L186.387 45.4119C186.277 45.3282 186.116 45.2259 185.905 45.105C185.704 44.9869 185.469 44.871 185.201 44.7574C184.936 44.6335 184.648 44.5314 184.339 44.4511C183.76 44.3012 183.336 44.3234 183.065 44.5177C182.953 44.6099 182.819 44.7678 182.661 44.9915C182.515 45.2179 182.35 45.5554 182.167 46.004C181.998 46.4449 181.816 47.0422 181.62 47.796C181.401 48.6427 181.276 49.2935 181.246 49.7486C181.227 50.2064 181.252 50.5326 181.323 50.7272C181.394 50.9219 181.454 51.053 181.502 51.1207C181.566 51.2144 181.671 51.2968 181.818 51.368C181.968 51.4288 182.141 51.4846 182.337 51.5355Z" fill="#FBF6E8" fill-opacity="0.35"/>
<path d="M203.191 60.0402L204.821 50.4814L206.102 51.1026L204.421 59.374L204.508 59.4159L209.946 52.9663L211.227 53.5876L204.746 60.7941L203.191 60.0402Z" fill="#FBF6E8" fill-opacity="0.35"/>
<path d="M213.406 65.5267L218.276 57.5895L219.408 58.284L214.538 66.2212L213.406 65.5267ZM218.982 56.1641L219.693 55.0049L221.084 55.8583L220.373 57.0175L218.982 56.1641Z" fill="#FBF6E8" fill-opacity="0.35"/>
<path d="M223.787 72.8648C223.087 72.3235 222.654 71.7402 222.49 71.1149C222.335 70.496 222.395 69.8344 222.669 69.13C222.944 68.4256 223.388 67.6767 224.001 66.8832C224.614 66.0898 225.226 65.4713 225.839 65.0277C226.451 64.5842 227.076 64.3595 227.714 64.3537C228.36 64.3544 229.034 64.6254 229.735 65.1666C230.435 65.7079 230.863 66.288 231.019 66.9068C231.183 67.5321 231.127 68.197 230.853 68.9014C230.578 69.6058 230.134 70.3548 229.521 71.1482C228.908 71.9417 228.295 72.5602 227.683 73.0037C227.071 73.4473 226.441 73.6687 225.795 73.668C225.157 73.6738 224.488 73.4061 223.787 72.8648ZM224.491 71.9532C224.812 72.201 225.107 72.3684 225.377 72.4555C225.655 72.5491 225.936 72.5435 226.219 72.4387C226.511 72.3405 226.832 72.1168 227.182 71.7676C227.541 71.425 227.962 70.9414 228.445 70.3167C228.927 69.6921 229.289 69.1628 229.53 68.7289C229.779 68.3015 229.915 67.9343 229.936 67.6274C229.973 67.3185 229.907 67.0456 229.74 66.8085C229.588 66.5695 229.351 66.3261 229.03 66.0783C228.71 65.8305 228.41 65.6598 228.132 65.5662C227.869 65.4707 227.588 65.4762 227.29 65.5829C227.007 65.6877 226.686 65.9114 226.327 66.254C225.968 66.5967 225.547 67.0803 225.064 67.7049C224.582 68.3295 224.22 68.8588 223.979 69.2928C223.738 69.7267 223.603 70.0939 223.573 70.3943C223.551 70.7012 223.617 70.9741 223.769 71.2132C223.93 71.4587 224.171 71.7053 224.491 71.9532Z" fill="#FBF6E8" fill-opacity="0.35"/>
<path d="M232.969 80.4222L241.315 71.7334L242.273 72.6534L233.926 81.3422L232.969 80.4222Z" fill="#FBF6E8" fill-opacity="0.35"/>
<path d="M239.823 87.4976L246.826 81.3607L247.702 82.3596L240.698 88.4964L239.823 87.4976ZM247.923 80.2085L248.946 79.3123L250.021 80.5397L248.998 81.436L247.923 80.2085Z" fill="#FBF6E8" fill-opacity="0.35"/>
<circle cx="53" cy="97" r="4" fill="#FBF6E8" fill-opacity="0.35"/>
<circle cx="253" cy="97" r="4" fill="#FBF6E8" fill-opacity="0.35"/>
<defs>
<clipPath id="clip0_1870_11945">
<rect y="107" width="308" height="450" rx="154" fill="white"/>
</clipPath>
<clipPath id="clip1_1870_11945">
<rect width="93" height="266" fill="white" transform="translate(107 189)"/>
</clipPath>
<clipPath id="clip2_1870_11945">
<rect width="93" height="266" fill="white" transform="translate(107 189)"/>
</clipPath>
</defs>
</svg>
