<?xml version="1.0" encoding="utf-8"?>
<!-- Generator: Adobe Illustrator 25.1.0, SVG Export Plug-In . SVG Version: 6.00 Build 0)  -->
<svg version="1.1" id="圖層_1" xmlns="http://www.w3.org/2000/svg" xmlns:xlink="http://www.w3.org/1999/xlink" x="0px" y="0px"
	 viewBox="0 0 100 100" style="enable-background:new 0 0 100 100;" xml:space="preserve">
<style type="text/css">
	.st0{fill:#FFFFFF;filter:url(#Adobe_OpacityMaskFilter);}
	.st1{mask:url(#mask0_942_263_1_);}
	.st2{fill:#FFFFFF;filter:url(#Adobe_OpacityMaskFilter_1_);}
	.st3{mask:url(#mask1_942_263_1_);}
	.st4{fill:none;stroke:#FFFFFF;stroke-width:2;}
	.st5{fill:#FFFFFF;filter:url(#Adobe_OpacityMaskFilter_2_);}
	.st6{mask:url(#mask2_942_263_1_);}
	.st7{fill:#FEFBF6;}
	.st8{fill:#FFFFFF;filter:url(#Adobe_OpacityMaskFilter_3_);}
	.st9{mask:url(#mask3_942_263_1_);}
	.st10{fill:#FFFFFF;}
	.st11{fill:#FFFFFF;filter:url(#Adobe_OpacityMaskFilter_4_);}
	.st12{mask:url(#mask4_942_263_1_);}
	.st13{fill:#FFFFFF;filter:url(#Adobe_OpacityMaskFilter_5_);}
	.st14{mask:url(#mask5_942_263_1_);}
</style>
<g>
	<defs>
		<filter id="Adobe_OpacityMaskFilter" filterUnits="userSpaceOnUse" x="0.2" y="0.2" width="99.6" height="99.6">
			<feColorMatrix  type="matrix" values="1 0 0 0 0  0 1 0 0 0  0 0 1 0 0  0 0 0 1 0"/>
		</filter>
	</defs>
	<mask maskUnits="userSpaceOnUse" x="0.2" y="0.2" width="99.6" height="99.6" id="mask0_942_263_1_">
		<path class="st0" d="M1.2,1.2h97.6v97.6H1.2V1.2z"/>
	</mask>
	<g class="st1">
		<defs>
			<filter id="Adobe_OpacityMaskFilter_1_" filterUnits="userSpaceOnUse" x="0.2" y="0.2" width="99.6" height="99.6">
				<feColorMatrix  type="matrix" values="1 0 0 0 0  0 1 0 0 0  0 0 1 0 0  0 0 0 1 0"/>
			</filter>
		</defs>
		<mask maskUnits="userSpaceOnUse" x="0.2" y="0.2" width="99.6" height="99.6" id="mask1_942_263_1_">
			<path class="st2" d="M50,1.2C23,1.2,1.2,23,1.2,50C1.2,77,23,98.8,50,98.8C77,98.8,98.8,77,98.8,50C98.8,23,77,1.2,50,1.2z"/>
		</mask>
		<g class="st3">
			<path class="st4" d="M50,1.2C23,1.2,1.2,23,1.2,50C1.2,77,23,98.8,50,98.8C77,98.8,98.8,77,98.8,50C98.8,23,77,1.2,50,1.2z"/>
		</g>
	</g>
	<defs>
		<filter id="Adobe_OpacityMaskFilter_2_" filterUnits="userSpaceOnUse" x="8.2" y="48.3" width="6.3" height="6.3">
			<feColorMatrix  type="matrix" values="1 0 0 0 0  0 1 0 0 0  0 0 1 0 0  0 0 0 1 0"/>
		</filter>
	</defs>
	<mask maskUnits="userSpaceOnUse" x="8.2" y="48.3" width="6.3" height="6.3" id="mask2_942_263_1_">
		<path class="st5" d="M8.2,48.3h6.3v6.3H8.2V48.3z"/>
	</mask>
	<g class="st6">
		<path class="st7" d="M11.4,48.3c-0.3,2.6-0.6,2.8-3.2,3.2c0,0,0,0,0,0c2.6,0.3,2.8,0.6,3.1,3.2c0.3-2.6,0.6-2.8,3.2-3.2
			C11.9,51.1,11.7,50.9,11.4,48.3z"/>
	</g>
	<defs>
		<filter id="Adobe_OpacityMaskFilter_3_" filterUnits="userSpaceOnUse" x="85.7" y="48.3" width="6.3" height="6.3">
			<feColorMatrix  type="matrix" values="1 0 0 0 0  0 1 0 0 0  0 0 1 0 0  0 0 0 1 0"/>
		</filter>
	</defs>
	<mask maskUnits="userSpaceOnUse" x="85.7" y="48.3" width="6.3" height="6.3" id="mask3_942_263_1_">
		<path class="st8" d="M85.7,48.3H92v6.3h-6.3V48.3z"/>
	</mask>
	<g class="st9">
		<path class="st7" d="M88.9,48.3c-0.3,2.6-0.6,2.8-3.2,3.2c0,0,0,0,0,0c2.6,0.3,2.8,0.6,3.1,3.2c0.3-2.6,0.6-2.8,3.2-3.2
			C89.4,51.1,89.2,50.9,88.9,48.3z"/>
	</g>
	<path class="st10" d="M44.4,54.7c-0.2,0-0.3,0-0.4,0.1l0.3,0.1l0,0.1c0,0-0.2,0-0.3,0c0,0.1,0,0.2,0,0.2c0,0,0.1,0,0.3,0.1
		L44.4,54.7z"/>
	<path class="st10" d="M46.2,55.5l0.6,0v-0.4c-0.2,0.1-0.5,0.1-0.7,0.2C46.2,55.3,46.2,55.4,46.2,55.5z"/>
	<path class="st10" d="M49.6,60.1c-0.1-0.2-0.2-0.4-0.3-0.6c0-0.2-0.1-0.4-0.1-0.6c0-0.2,0-0.4,0-0.7c0-0.2,0.1-0.4,0.1-0.7
		c0-0.2,0.1-0.4,0.1-0.7c0.1-0.4,0.1-0.9,0.2-1.3c-0.1,0.4-0.2,0.9-0.3,1.3c-0.1,0.4-0.2,0.9-0.2,1.3c0,0.4-0.1,0.9,0.1,1.4
		C49.3,59.8,49.4,60,49.6,60.1c0,0.1,0.1,0.2,0.2,0.3c0.1,0.1,0.2,0.1,0.3,0.1c-0.1,0-0.2-0.1-0.3-0.2
		C49.8,60.3,49.7,60.2,49.6,60.1z"/>
	<path class="st10" d="M49.8,59.5c-0.1-0.5,0.2-2,0.3-3.5c0.1-1.6-1.1-1.6-1.3-1.1c0,0,0,0,0,0c0,0,0,0,0,0c0-0.1,0-0.2,0-0.2
		c-0.1,0.1-0.1,0.1-0.2,0.2c0,0.1,0,0.2,0,0.3c0,0.1,0.1,0.2,0.2,0.2c0.1,0,0.2,0,0.3-0.1c-0.1,0-0.2,0-0.2,0
		c-0.1,0-0.1-0.1-0.1-0.2c0-0.1,0-0.1,0-0.2c0,0.1,0.1,0.2,0.2,0.3c0.2,0.1,0.5-0.2,0.3-0.4c-0.1-0.1-0.2-0.1-0.3-0.1
		c0.2-0.1,0.3,0,0.5,0.1c0.2,0.1,0.3,0.4,0.2,0.6c-0.1,1.1-0.6,3-0.3,4.1c0.1,0.6,0.9,1.3,1.5,0.8c0.2-0.1,0.4-0.4,0.2-0.7
		c-0.1-0.2-0.4-0.3-0.6-0.1c-0.1,0.1-0.1,0.4,0.1,0.5C50.2,60.3,49.9,59.9,49.8,59.5z"/>
	<path class="st10" d="M53.3,49.1c0,0.2-0.1,0.5,0,0.7c0,0.2,0.1,0.5,0.3,0.7c-0.1-0.2-0.1-0.4-0.1-0.7c0-0.2,0.1-0.4,0.1-0.7
		c0.1-0.4,0.3-0.9,0.5-1.3c0.2-0.4,0.3-0.9,0.4-1.4c0-0.2,0.1-0.5,0.1-0.7c0-0.2-0.1-0.5-0.2-0.7c0.1,0.5,0,0.9-0.1,1.4
		c-0.1,0.4-0.3,0.9-0.5,1.3C53.5,48.2,53.4,48.6,53.3,49.1z"/>
	<path class="st10" d="M44.4,43.7c0.2-0.3,0.4-0.6,0.7-0.8c0.5-0.5,1.1-1,1.7-1.3c-0.7,0.2-1.4,0.6-1.9,1.1
		c-0.3,0.3-0.5,0.5-0.7,0.8c-0.2,0.3-0.4,0.6-0.6,1c-0.2,0.3-0.3,0.7-0.4,1.1l0,0.1c0,0.1,0,0.1,0,0.1c0,0.1,0,0.2,0,0.3
		c0,0.2,0,0.4,0,0.6c0,0.2,0,0.4,0,0.5c0,0.2,0,0.4-0.1,0.5c-0.1,0.4-0.2,0.7-0.4,1c0.5-0.6,0.7-1.3,0.7-2.1c0-0.2,0-0.4,0-0.5
		c0-0.1,0-0.2,0-0.3c0,0,0-0.1,0-0.1l0-0.1c0.1-0.3,0.2-0.7,0.3-1C44,44.3,44.2,44,44.4,43.7z"/>
	<path class="st10" d="M40.4,57.7c-0.2,0.4-0.4,0.7-0.6,1.1c-0.2,0.4-0.4,0.8-0.6,1.2l-0.1,0.3L39,60.5c0,0.1-0.1,0.2-0.1,0.3
		L38.8,61l-0.1,0.2c-0.1,0.4-0.3,0.8-0.3,1.3c-0.1,0.4-0.1,0.9-0.1,1.3c0,0.9,0.2,1.7,0.6,2.5c-0.2-0.8-0.4-1.7-0.3-2.5
		c0-0.4,0.1-0.8,0.2-1.2c0.1-0.4,0.2-0.8,0.3-1.2l0.1-0.1l0.1-0.1c0-0.1,0.1-0.2,0.1-0.3l0.3-0.6c0.2-0.4,0.3-0.8,0.5-1.2
		c0.2-0.4,0.4-0.8,0.5-1.2c0.2-0.4,0.3-0.8,0.3-1.3C40.8,56.9,40.6,57.3,40.4,57.7z"/>
	<path class="st10" d="M48,41.4c-0.2,0-0.5,0.1-0.7,0.2c0.2,0,0.4,0,0.6,0C47.9,41.5,47.9,41.4,48,41.4z"/>
	<path class="st10" d="M41.6,58.4c0.1,0,0.1,0,0.2,0c0.1,0,0.2-0.1,0.3-0.2c0.1-0.2,0.2-0.4,0.3-0.7c0.1-0.2,0.1-0.5,0.2-0.7
		c0.1-0.2,0.1-0.5,0.2-0.7c0-0.2,0.1-0.5,0.2-0.7c0-0.1,0.1-0.2,0.1-0.3c0-0.1,0.1-0.2,0.1-0.3c0.1-0.2,0.2-0.4,0.3-0.6
		c0.1-0.1,0.2-0.2,0.2-0.2c0.1-0.1,0.2-0.1,0.3-0.1c-0.1,0-0.2,0.1-0.3,0.1c-0.1,0.1-0.2,0.1-0.3,0.2c-0.2,0.2-0.3,0.4-0.4,0.6
		c0,0.1-0.1,0.2-0.1,0.3c0,0.1-0.1,0.2-0.1,0.3c-0.1,0.2-0.1,0.5-0.2,0.7c0,0.2-0.1,0.5-0.1,0.7c-0.1,0.2-0.1,0.5-0.2,0.7
		c-0.1,0.2-0.1,0.5-0.3,0.6c-0.1,0.1-0.1,0.2-0.2,0.2c-0.1,0.1-0.2,0.1-0.3,0C41.5,58.4,41.6,58.4,41.6,58.4z"/>
	<path class="st10" d="M40.9,58.5c0-0.1-0.1-0.2-0.1-0.3c0-0.1,0-0.2,0-0.3c-0.1,0.1-0.1,0.2-0.2,0.3c0,0.1,0,0.3,0.1,0.4
		c0.1,0.1,0.2,0.2,0.3,0.3c0.1,0.1,0.2,0.1,0.4,0.1c-0.1,0-0.2-0.1-0.3-0.2C41,58.7,40.9,58.6,40.9,58.5z"/>
	<path class="st10" d="M53.4,28.6c-0.1,0-0.2,0-0.2,0.1c0,0,0,0,0,0c0,0,0,0,0,0c0,0,0,0,0,0c0,0,0,0.1,0,0.1c0,0.2,0.2,0.4,0.3,0.3
		c0,0,0,0,0,0c0.1,0,0.1-0.1,0.1-0.1C53.7,28.8,53.6,28.6,53.4,28.6z"/>
	<path class="st10" d="M54.5,26.6l-0.1,0C54.5,26.6,54.5,26.6,54.5,26.6z"/>
	<defs>
		<filter id="Adobe_OpacityMaskFilter_4_" filterUnits="userSpaceOnUse" x="37.7" y="24.8" width="18.2" height="50.5">
			<feColorMatrix  type="matrix" values="1 0 0 0 0  0 1 0 0 0  0 0 1 0 0  0 0 0 1 0"/>
		</filter>
	</defs>
	<mask maskUnits="userSpaceOnUse" x="37.7" y="24.8" width="18.2" height="50.5" id="mask4_942_263_1_">
		<path class="st11" d="M37.7,24.8h18.2v50.5H37.7V24.8z"/>
	</mask>
	<g class="st12">
		<path class="st10" d="M54.8,28.7l-0.1-0.1l0-0.1l0.1-0.3l0-0.1l0,0l0.1,0l0,0L54.8,28.7z M53.8,28.2c0-0.1,0.1-0.1,0.1-0.2
			l0.8,0.2l-0.1,0.2C54.4,28.4,54.1,28.3,53.8,28.2z M53.6,29.1c-0.1,0.1-0.2,0.3-0.2,0.5l-0.2-0.1c0,0-0.1,0-0.1,0
			c-0.1,0.1-0.2,0.1-0.1,0.4l0,0l0.2,0.1c0,0,0,0-0.1,0.1c0,0.1-0.1,0.2-0.1,0.2c0,0-0.1,0.1-0.1,0.1c-0.1,0-0.1-0.1-0.2-0.1
			c0,0-0.1-0.1-0.2-0.1c0,0,0,0,0-0.1c0-0.1,0-0.2-0.1-0.3c0-0.1,0-0.1,0-0.2c0.1-0.3,0.2-0.7,0.4-1c0-0.1,0.1-0.2,0.1-0.2
			c0-0.1,0.1-0.1,0.1-0.2c0-0.1,0.1-0.1,0.1-0.2c0,0,0.1-0.1,0.1-0.1c0.2-0.2,0.3-0.3,0.5-0.5c0.1-0.1,0.2-0.2,0.2-0.2
			c0.1-0.1,0.1-0.1,0.2-0.2c0.1,0,0.2,0,0.3-0.1c0.1,0,0.1-0.1,0.2-0.2c0.1,0.5-0.2,0.8-0.4,1.2c-0.2,0-0.5-0.1-0.5-0.1
			s-0.2,0.1-0.2,0.4c0,0,0,0,0,0l0.3,0.1c0,0,0,0,0,0C53.9,28.6,53.8,28.9,53.6,29.1z M54.1,29.9l-0.1,0.2c-0.1-0.1-0.3-0.1-0.5-0.2
			c-0.2-0.1-0.3-0.1-0.5-0.2c0-0.1,0-0.1,0.1-0.2L54.1,29.9z M54.2,29.9l0-0.1l0.1,0l0,0l0,0l0,0.1l-0.1,0.2l-0.1,0.3c0,0,0,0,0,0
			l-0.1-0.1l0-0.1L54.2,29.9z M54.4,30.2c0-0.1,0-0.1,0.1-0.1c0.1,0,0.1-0.1,0.2-0.1c0.1,0,0.1,0,0.2,0c0,0,0-0.1-0.1-0.1
			c0,0,0,0-0.1-0.1c-0.1,0-0.1,0-0.2,0c0.1-0.2,0.2-0.1,0.2-0.1c1,0.3-0.5,1.2-0.3,0.5L54.4,30.2z M54.6,30.8c-0.1,0-0.1,0-0.2-0.1
			c0,0-0.1-0.1-0.1-0.1c0,0,0,0,0,0c0,0,0,0,0,0l0.1,0C54.5,30.7,54.6,30.7,54.6,30.8c0.1-0.1,0.2-0.1,0.3-0.2
			C54.8,30.7,54.7,30.8,54.6,30.8z M52.7,30.8c0,0.1-0.1,0.2-0.1,0.3c-0.1,0.1-0.2,0.1-0.3,0.1l0.1-0.5c0,0,0.1,0,0.1,0.1
			C52.6,30.7,52.6,30.7,52.7,30.8C52.7,30.7,52.7,30.7,52.7,30.8C52.7,30.7,52.7,30.7,52.7,30.8z M52.3,29.1
			c-0.1,0.1-0.1,0.3-0.2,0.5L51.9,30c0,0,0,0,0,0c0,0,0,0,0,0l0,0l0,0.2l0,0.1l-3,10.6l-0.1,0.3l-2.8,10.1c0,0,0,0,0,0
			c0,0.1-0.1,0.3-0.1,0.4c0,0.1-0.1,0.2-0.1,0.3c0,0.1-0.1,0.2-0.1,0.3c0,0.1-0.1,0.2-0.1,0.3c0,0.1-0.1,0.2-0.1,0.3
			c0,0.1,0,0.1-0.1,0.2c-0.1,0.3-0.2,0.7-0.3,1l-0.2,0.5l-0.1,0.5c0,0,0,0.1,0,0.1c0,0.4-0.1,0.8-0.1,1.2l-0.1,1.3l-0.1,0.7l0,0.1
			l-0.1,0c0,0-0.1,1.1-0.1,1.5c-0.1,0-0.2,0-0.3,0c0-0.3,0.1-0.5,0.1-0.8l0.1-1.3l0.1-1.3l0.1-1.3l0-0.1c0.1,0,0.1,0,0.2,0
			c0,0,0,0,0,0l0.1-0.5c-0.1,0-0.1,0-0.2,0l0.1-0.2c0.1,0,0.2-0.1,0.2-0.2c0,0,0,0,0,0c0-0.1,0-0.1-0.1-0.2l0.1-0.4l0.1-0.5
			c0.1-0.3,0.2-0.6,0.2-0.9c0-0.1,0-0.1,0.1-0.2c0.1-0.2,0.1-0.3,0.2-0.5c0-0.1,0.1-0.2,0.1-0.3c0.1,0,0.1,0,0.2,0l2.8-10.1l0.1-0.3
			l3-10.7l0-0.1l0-0.1l0,0c0,0,0,0,0,0c0,0,0-0.1,0-0.1l0.6-1C52.3,29,52.3,29,52.3,29.1C52.3,29.1,52.3,29.1,52.3,29.1z M52.2,30.5
			L49.4,41l-0.1,0.3l-2.5,9.6c-0.1,0.2-0.1,0.3-0.2,0.5c0,0,0,0.1,0,0.1c0,0.2-0.1,0.3-0.1,0.5c-0.1,0.2-0.1,0.4-0.1,0.6
			c0,0.1,0,0.2-0.1,0.3l-0.1,0.5c-0.1,0.3-0.2,0.7-0.3,1l-0.1,0.6l-0.1,0.4c0,0.1,0,0.1,0,0.2c0,0.4-0.1,0.8-0.1,1.1l-0.1,1.3l0,0.7
			l-0.1,0c0,0.6-0.1,1.2-0.1,1.5c-0.1,0-0.2,0-0.4,0c0-0.3,0.1-0.6,0.1-0.9l0.1-1.3l0.1-1.3c0-0.4,0.1-0.7,0.1-1.1
			c0.1,0,0.2,0,0.2,0.1c0-0.2,0-0.2,0-0.2l0.1-0.4c-0.1,0-0.2,0-0.2-0.1l0.2-0.6c0.1-0.3,0.2-0.7,0.3-1l0.1-0.3
			c0.1-0.3,0.1-0.5,0.2-0.8c0.1-0.2,0.1-0.5,0.2-0.7c0.1,0,0.2,0,0.2,0.1l2.7-10.2l0.1-0.3l2.8-10.5l0,0L52.2,30.5l-0.1-0.2l0,0
			l0-0.1c0,0,0,0.1,0,0.1c0,0,0,0,0,0C52.2,30.4,52.2,30.4,52.2,30.5c0-0.1,0-0.1,0-0.1L52.2,30.5z M50.3,40.5L50.3,40.5L50.3,40.5
			C50.3,40.6,50.3,40.6,50.3,40.5c0,0.1,0,0.1,0,0.1c0,0,0,0,0,0c0,0,0,0,0,0c0,0,0,0,0,0l0,0l0,0c0.1,0.1,0.1,0.1,0.2,0.2
			c0.2,0.2,0.4,0.3,0.6,0.5c-0.3-0.1-0.6-0.2-0.9-0.3c0-0.1,0-0.1,0-0.2c0,0-0.1,0.1-0.1,0.1c0,0,0,0,0,0c0,0,0,0,0,0
			c0,0.1,0,0.1-0.1,0.2c0,0.1-0.1,0.2-0.1,0.4c0,0.1,0,0.1,0,0.2c0,0,0,0,0,0c-0.1,0-0.2,0-0.2,0l0.5-2c0,0.1,0,0.1,0,0.2
			C50.2,40.2,50.2,40.4,50.3,40.5z M45.3,60.8c0,0-0.1,0-0.1,0c0,0-0.1,0-0.1,0.1c0,0.1,0,0.1,0.1,0.1c0,0,0.1,0,0.1,0
			C45.4,60.9,45.4,60.9,45.3,60.8C45.4,60.8,45.3,60.8,45.3,60.8c0.1,0,0.1,0.1,0.1,0.2c0,0,0,0.1-0.1,0.1c0,0-0.1,0-0.1,0
			c0,0-0.1-0.1-0.1-0.1c0,0,0-0.1,0-0.1C45.1,60.8,45.2,60.8,45.3,60.8z M45.3,60.5C45.3,60.5,45.3,60.5,45.3,60.5
			C45.3,60.5,45.3,60.5,45.3,60.5L45.3,60.5c0,0,0-0.1,0-0.2C45.4,60.3,45.4,60.3,45.3,60.5c0.1-0.1,0.1,0,0.1,0
			c0,0.1-0.1,0.2-0.2,0.2c-0.1,0-0.2-0.1-0.2-0.2c0-0.1,0-0.1,0.1-0.1C45.3,60.4,45.3,60.4,45.3,60.5L45.3,60.5z M51.4,41.8
			c0.7,0.3,1.4,0.9,1.8,1.6c0.4,0.7,0.6,1.5,0.6,2.3c0,0.1,0,0.2,0,0.3c0,0.1,0,0.2,0,0.3c0,0.2-0.1,0.4-0.2,0.6
			c-0.1,0.4-0.3,0.8-0.4,1.2c-0.1,0.4-0.3,0.8-0.4,1.2c0,0.2-0.1,0.4-0.1,0.6c0,0.2,0,0.4,0.2,0.6l0,0c-0.1,0-0.2,0-0.3,0
			c-0.2,0-0.4,0.1-0.6,0.2c-0.2,0.1-0.4,0.3-0.5,0.5c-0.1,0.2-0.2,0.4-0.3,0.6c-0.1,0.4-0.2,0.8-0.3,1.2c-0.1,0.4-0.1,0.8-0.1,1.2
			c0,0.4,0,0.8,0.1,1.2c0.1,0.4,0.2,0.8,0.4,1.2c0.1,0.2,0.3,0.4,0.4,0.5c0.2,0.1,0.4,0.2,0.6,0.3l0,0c0,0,0,0,0,0c0,0,0,0,0,0
			c0,0,0,0,0,0c0,0,0,0,0,0l0,0.2l0,0.2c0,0.2,0,0.4,0,0.6c0,0.8,0.1,1.7,0.2,2.5c0,0.2,0,0.4,0.1,0.6l0,0.3c0,0.1,0,0.2,0,0.3
			c0.2,4.6-2.4,8-7.7,7.9c1.6,0,3.2-0.5,4.6-1.4c2-1.3,2.8-3.7,2.8-6.1c0-0.2,0-0.4,0-0.6c0.1,5.3-3.4,8.1-8.1,7.8
			c0.1-0.1,0.2-0.2,0.2-0.4c0.1-1.6,0.2-5.4,0.3-5.6c0.1-0.3,1-3.6,1-3.6s-0.1,0-0.3,0c0-0.1,0-0.2,0-0.3c0-0.2,0-0.4,0.1-0.6
			l0.1-1.3l0.1-1.3c0-0.4,0.1-0.8,0.1-1.1c0.1,0,0.3,0.1,0.3,0.1c0-0.1,0-0.1,0-0.2l-0.2-0.1l0-0.1c0,0,0.2,0,0.2,0
			c0.2-0.1,0.4-0.1,0.7-0.2c-0.1,0-0.5-0.1-0.9-0.2l0.1-0.6c0.1-0.3,0.2-0.7,0.2-1l0.1-0.5c0-0.1,0-0.1,0.1-0.2
			c0.1-0.2,0.1-0.4,0.2-0.6c0-0.2,0.1-0.3,0.1-0.5c0.1,0,0.2,0.1,0.3,0.1c0.1,0,0.2,0,0.3-0.2l2.3-9.4c0.1,0,0.2,0.1,0.2,0.1l0,0
			l0,0c0,0,0,0,0,0c0,0,0.1,0,0.1,0l0,0c0,0,0,0,0,0c0,0,0-0.1,0-0.1c0-0.1,0-0.1,0.1-0.2c0-0.1,0-0.2,0.1-0.3
			C50.6,41.5,51,41.7,51.4,41.8z M53.6,42.9c0.3,0.3,0.7,0.6,0.9,0.9c0.1,0.2,0.3,0.3,0.4,0.5c0.1,0.2,0.2,0.4,0.3,0.6
			c0.1,0.4,0.2,0.8,0.2,1.2c0,0.2,0,0.4,0,0.6l0,0.1c0,0,0,0,0,0.1c0,0,0,0.1,0,0.1c0,0.1-0.1,0.2-0.1,0.3c-0.2,0.4-0.3,0.8-0.5,1.2
			c-0.2,0.4-0.3,0.8-0.4,1.3c0,0.2-0.1,0.5,0,0.7c0,0.1,0,0.2,0.1,0.4c0,0,0,0,0,0c0,0,0,0,0,0c0,0-0.1,0-0.1-0.1
			c-0.1-0.2-0.4-0.2-0.6-0.3c-0.2-0.1-0.3-0.2-0.5-0.3c0,0,0-0.1,0-0.1l0,0C53,50.2,53,50,53,49.9c0-0.2,0-0.4,0.1-0.6
			c0.1-0.4,0.2-0.8,0.4-1.2c0.1-0.4,0.3-0.8,0.4-1.2c0.1-0.2,0.1-0.4,0.2-0.6c0-0.1,0-0.1,0-0.2c0-0.1,0-0.1,0-0.2
			c0-0.1,0-0.2,0-0.3c0-0.9-0.2-1.7-0.6-2.5c-0.2-0.3-0.5-0.6-0.7-0.9C53,42.5,53.3,42.7,53.6,42.9z M54.2,51.3
			c-0.1,0-0.2,0.1-0.2,0.1l-1.2-0.5c0,0,0,0,0,0l0.1,0c0,0,0,0,0,0c0,0,0,0,0.1,0c0,0,0,0,0.1,0C53.4,50.9,53.8,51.1,54.2,51.3
			C54.2,51.3,54.2,51.3,54.2,51.3L54.2,51.3z M53.3,52c-0.1,0.2-0.2,0.4-0.3,0.6c-0.1,0.2-0.1,0.4-0.2,0.7c-0.1,0.4-0.2,0.9-0.2,1.3
			c0,0.5,0,0.9,0.1,1.4c0.1,0.5,0.2,0.9,0.5,1.3c0,0.1,0.1,0.2,0.2,0.2c-0.2-0.1-0.4-0.1-0.6-0.2c0,0,0,0,0,0c0,0-0.1-0.1-0.1-0.1
			c0,0-0.1,0-0.1,0l0,0c-0.2,0-0.3-0.1-0.5-0.2c-0.1-0.1-0.3-0.2-0.4-0.4c-0.2-0.3-0.3-0.7-0.4-1.1c-0.1-0.4-0.1-0.8-0.1-1.2
			c0-0.4,0-0.8,0.1-1.2c0.1-0.4,0.1-0.8,0.2-1.2c0.1-0.4,0.3-0.7,0.6-0.9c0.2-0.1,0.3-0.1,0.5-0.2l0,0.1l0.1,0c-0.1,0-0.1,0-0.2,0
			c-0.1,0-0.3,0.1-0.4,0.2c-0.2,0.2-0.4,0.5-0.4,0.8c0,0.1-0.1,0.3-0.1,0.4c0,0.1-0.1,0.3-0.1,0.4c0,0.3-0.1,0.6-0.1,0.8
			c0,0.3,0,0.6,0,0.8c0,0.3,0.1,0.6,0.1,0.8c0.1,0.3,0.2,0.5,0.3,0.8c0.1,0.3,0.3,0.5,0.5,0.7c-0.1-0.2-0.3-0.5-0.4-0.7
			c-0.1-0.3-0.2-0.5-0.2-0.8c-0.1-0.5-0.1-1.1,0-1.6c0-0.3,0.1-0.5,0.1-0.8c0-0.3,0.1-0.5,0.1-0.8c0-0.1,0.1-0.2,0.1-0.3
			c0.2-0.3,0.5-0.6,0.8-0.7l1,0.4C53.6,51.6,53.4,51.8,53.3,52z M53.5,57.9c0.1,0,0.1,0,0.2,0.1c0,0,0.1,0,0.1,0
			c0.1,0.1,0.3,0.2,0.4,0.2c0.1,0,0.1,0,0.2,0.1l0,0c0,0.1,0,0.1,0,0.2l-1.6-0.7l0,0l0-0.1C53,57.7,53.3,57.8,53.5,57.9z M53.1,62.2
			c0-0.1,0-0.2,0-0.3l0-0.3c0-0.2-0.1-0.4-0.1-0.6c-0.1-0.8-0.2-1.6-0.2-2.4c0-0.1,0-0.2,0-0.3c0-0.1,0-0.1,0-0.2l0.2,0.1
			c0.1,0.9,0.2,1.9,0.3,2.8c0,0.5,0.1,1,0.1,1.4c0,0.5,0,1-0.1,1.4c0,0.5-0.1,0.9-0.2,1.4c-0.1,0.5-0.3,0.9-0.5,1.3
			c-0.1,0.3-0.3,0.7-0.5,1c-0.2,0.2-0.4,0.4-0.5,0.6c-0.3,0.3-0.6,0.6-1,0.8c-0.4,0.2-0.7,0.4-1.2,0.6c0,0,0,0,0,0
			c0.4-0.2,0.7-0.4,1-0.6c0.3-0.3,0.7-0.6,0.9-0.9c0.6-0.6,1-1.4,1.3-2.2c0.3-0.8,0.5-1.6,0.5-2.5C53.1,63,53.1,62.6,53.1,62.2z
			 M54.6,61.8c0.1,0.4,0.1,0.9,0.1,1.3c0,0.4,0,0.9-0.1,1.3c-0.1,0.9-0.4,1.7-0.8,2.5c-0.4,0.8-0.9,1.5-1.6,2
			c-0.3,0.3-0.7,0.5-1.1,0.7c-0.4,0.2-0.8,0.4-1.2,0.5c-0.8,0.3-1.7,0.4-2.6,0.5c-0.2,0-0.3,0-0.5,0c0.2,0,0.4,0,0.6-0.1
			c0.2,0,0.4,0,0.5-0.1c0.1,0,0.3,0,0.4-0.1l0.4-0.1c0.1,0,0.3-0.1,0.4-0.1l0.4-0.1l0.4-0.2c0.1-0.1,0.3-0.1,0.4-0.2l0.4-0.2
			c0.1-0.1,0.2-0.1,0.4-0.2c0.5-0.3,0.9-0.7,1.3-1.1c-0.5,0.3-0.9,0.6-1.4,0.9c-0.1,0.1-0.2,0.1-0.4,0.2l-0.4,0.2
			c-0.1,0.1-0.2,0.1-0.4,0.2l-0.4,0.2L49.2,70c-0.1,0-0.1,0-0.2,0.1c0.1,0,0.2-0.1,0.3-0.1c0.4-0.2,0.9-0.4,1.2-0.6
			c0.4-0.3,0.7-0.6,1-0.9c0.4-0.4,0.7-0.9,0.9-1.3c0,0,0,0,0,0c0,0,0,0,0,0c0-0.1,0.1-0.2,0.1-0.3c0.2-0.4,0.4-0.9,0.5-1.4
			c0.1-0.5,0.2-1,0.3-1.5c0.1-1,0-2-0.1-2.9c-0.1-0.9-0.3-1.9-0.5-2.8l1.4,0.6c0,0.2,0,0.3,0,0.5c0,0.5,0,0.9,0.1,1.3
			C54.5,60.9,54.5,61.4,54.6,61.8z M43.6,74.7l-0.2,0.1l0-0.3l0.6-4c0.1,0,0.1,0,0.2,0.1L43.6,74.7z M44.2,65.9
			c0-0.6,0.1-1.1,0.1-1.7c0.1-0.6,0.3-1.1,0.4-1.6c-0.1,0.3-0.1,0.5-0.2,0.8c-0.1,0.3-0.1,0.5-0.1,0.8l-0.1,1.7
			c0,0.6-0.1,1.1-0.1,1.7c0,0.6-0.1,1.1-0.2,1.7c0-0.6,0-1.1,0-1.7C44.1,67,44.2,66.5,44.2,65.9z M44.3,60.7
			C44.3,60.7,44.3,60.8,44.3,60.7c-0.1,0.1,0,0.2,0,0.2c0,0,0.1,0,0.1,0c0,0,0,0,0-0.1c0,0,0,0.1,0,0.1c0,0,0,0.1-0.1,0.1
			c0,0-0.1,0-0.1,0c0,0-0.1-0.1-0.1-0.1c0,0,0-0.1,0-0.1C44.2,60.7,44.3,60.7,44.3,60.7z M44.8,61c0,0,0.1,0,0.1,0c0,0,0-0.1,0-0.1
			c0,0,0-0.1-0.1-0.1c0.1,0,0.1,0.1,0.1,0.2c0,0,0,0.1-0.1,0.1C44.8,61.1,44.8,61.1,44.8,61c-0.1,0.1-0.1,0-0.1,0c0,0,0-0.1,0-0.1
			c0-0.1,0.1-0.1,0.2-0.1c0,0-0.1,0-0.1,0c0,0-0.1,0-0.1,0.1C44.7,60.9,44.7,60.9,44.8,61z M44.9,60.3
			C44.9,60.3,44.9,60.3,44.9,60.3C44.9,60.3,44.9,60.3,44.9,60.3c0.1,0.1,0.1,0.1,0.1,0.2c0,0.1-0.1,0.2-0.2,0.2
			c-0.1,0-0.2-0.1-0.2-0.2c0,0,0-0.1,0-0.1c0,0,0,0,0,0l0.1,0c0,0,0,0,0,0c0,0,0,0,0,0C44.9,60.4,44.9,60.2,44.9,60.3
			C44.9,60.2,44.9,60.2,44.9,60.3C44.9,60.2,44.9,60.2,44.9,60.3C44.9,60.3,44.9,60.3,44.9,60.3C44.9,60.3,44.9,60.3,44.9,60.3z
			 M45.2,55c0-0.1,0-0.1,0.1-0.3c-0.1,0-0.2,0-0.2,0l0.1-0.5c0.1-0.3,0.2-0.7,0.3-1c0,0,0,0,0,0c0.1-0.4,0.2-0.7,0.3-1.1
			c0.1-0.2,0.1-0.5,0.2-0.7c0.1,0,0.1,0,0.2,0c0-0.1,0-0.2,0.1-0.3c0.6-2.1,1.4-5,2.3-8.6c0.1-0.4,0.2-0.9,0.4-1.3
			c0-0.1,0.1-0.2,0.1-0.3c1.3-4.7,2.5-9.2,2.9-10.5c0-0.1,0-0.1,0-0.1c0-0.1,0-0.1,0-0.2c0,0,0,0,0,0l0,0l0.1-0.3c0,0.1,0,0.2,0,0.3
			l0,0l0,0c0,0,0,0,0,0c0,0,0,0.1-0.1,0.2c0,0,0,0.1,0,0.1c-0.3,1.2-1.6,5.7-2.9,10.5c0,0.1-0.1,0.2-0.1,0.3c-1,3.5-2,7.1-2.7,9.8
			c0,0.1-0.1,0.3-0.1,0.4c-0.1,0.2-0.1,0.5-0.2,0.7c-0.1,0.3-0.1,0.5-0.2,0.8c0,0,0,0.1,0,0.1l0,0.1c0,0.1-0.1,0.2-0.1,0.4
			c-0.1,0.2-0.1,0.4-0.2,0.7l-0.2,0.6l-0.1,0.4c0,0.1,0,0.1,0,0.2c0,0.4-0.1,0.8-0.1,1.1L45,57.8l0,0.7l0,0l-0.1,0L44.8,60
			c-0.1,0-0.3,0-0.4-0.1c0,0,0,0,0-0.1c0-0.3,0.1-0.5,0.1-0.8l0.1-1.3l0.1-1.3c0-0.4,0.1-0.8,0.1-1.2c0.1,0,0.2,0,0.3,0.1L45.2,55
			C45.2,55,45.2,55,45.2,55L45.2,55z M44.3,60.4C44.3,60.4,44.3,60.4,44.3,60.4C44.3,60.4,44.3,60.4,44.3,60.4L44.3,60.4
			c0,0,0-0.1,0-0.2c0,0,0,0,0,0c0,0,0.1,0,0.1,0.1c0,0,0,0,0,0.1c0.1,0,0.1,0.1,0.1,0.1c0,0.1-0.1,0.1-0.2,0.1
			c-0.1,0-0.2-0.1-0.2-0.1C44.2,60.4,44.2,60.3,44.3,60.4C44.2,60.3,44.2,60.4,44.3,60.4L44.3,60.4z M43.5,67.8l-0.1,0.7l-0.1,0.3
			l0,0.2l0,0.1c0,0,0,0.1,0,0.1c0,0,0-0.1,0-0.1l0-0.1c0-0.1,0-0.1,0-0.2l0-0.4C43.4,68.2,43.4,68,43.5,67.8c0-0.5,0-0.9,0.1-1.4
			c0.1-0.5,0.1-0.9,0.2-1.4c0.1-0.5,0.1-0.9,0.2-1.4c0-0.5,0-1,0-1.4c0-0.2,0-0.5,0-0.7c0-0.1,0-0.3,0-0.4c0,0,0,0,0,0
			c0,0-0.1,0-0.1,0c0,0-0.1-0.1-0.1-0.1c0,0,0-0.1,0-0.1c0,0,0.1,0,0.1,0c0,0-0.1,0-0.1,0.1c0,0.1,0,0.1,0,0.2c0,0,0.1,0,0.1,0
			c0,0,0,0,0,0c0,0,0,0,0,0c0,0,0,0,0-0.1c0,0,0,0.1,0,0.1c0,0,0,0,0,0c0,0.2,0,0.3,0,0.5c0,0.2,0,0.5,0,0.7c0,0.5,0,1,0,1.4
			c0,0-0.2,1.4-0.2,1.4l-0.2,1.4L43.5,67.8z M44.1,60.3c0,0.1-0.1,0.2-0.1,0.2c-0.1,0-0.1-0.1-0.1-0.2c0-0.1,0-0.1,0.1-0.1
			c0,0.1,0,0.1,0,0.1L44.1,60.3C44,60.3,44,60.4,44.1,60.3C44,60.4,44,60.3,44.1,60.3L44.1,60.3c-0.1,0-0.1-0.1-0.1-0.2c0,0,0,0,0,0
			c0,0,0,0,0,0.1c0,0,0,0,0,0C44,60.2,44.1,60.3,44.1,60.3z M43,69.6c-0.2,0-0.4-0.1-0.6-0.2c-0.2-0.1-0.4-0.1-0.6-0.2
			c-0.2-0.1-0.4-0.2-0.5-0.3c-0.4-0.2-0.7-0.5-1-0.7c-0.6-0.5-1.2-1.2-1.6-1.9c0.2,0.4,0.4,0.7,0.6,1.1c0.3,0.3,0.5,0.7,0.8,0.9
			c0.3,0.3,0.6,0.6,1,0.8c0.2,0.1,0.4,0.2,0.6,0.3c0.2,0.1,0.4,0.2,0.6,0.2c0.2,0.1,0.4,0.1,0.5,0.2c-0.1,0-0.3-0.1-0.4-0.1
			c0,0-0.1,0-0.1,0l0,0c-0.2,0-0.3-0.1-0.5-0.1c-0.8-0.3-1.5-0.6-2.1-1.2c-0.6-0.5-1-1.2-1.3-2c-0.3-0.7-0.4-1.6-0.5-2.4
			c0-0.8,0-1.6,0.2-2.4c0-0.2,0.1-0.4,0.2-0.6c0-0.1,0.1-0.2,0.1-0.3c0-0.1,0.1-0.2,0.1-0.3c0.2-0.4,0.4-0.7,0.6-1.1l0.6-1.1
			c0.2-0.4,0.4-0.7,0.5-1.1c0.1-0.2,0.1-0.4,0.2-0.6c0-0.1,0-0.2,0-0.3v-0.1c0,0,0,0,0,0c0,0,0,0,0,0c0,0,0,0,0,0l0,0
			c0,0,0.1,0,0.1,0c0.1,0,0.1,0,0.2,0c0.1,0,0.2-0.1,0.3-0.1c0.2-0.1,0.4-0.2,0.6-0.3c0.3-0.3,0.6-0.6,0.9-0.9
			c0.2-0.4,0.4-0.7,0.6-1.1c0.2-0.4,0.3-0.8,0.4-1.2c0.1-0.4,0.2-0.8,0.2-1.3c0-0.2,0-0.4-0.1-0.6c0-0.2-0.1-0.4-0.2-0.6
			c-0.1-0.2-0.3-0.4-0.5-0.5c-0.2-0.1-0.3-0.1-0.5-0.1c0,0,0-0.1,0.1-0.1c0.1-0.1,0.1-0.2,0.2-0.3c0.1-0.2,0.2-0.4,0.2-0.6
			c0.1-0.4,0.2-0.8,0.1-1.3c0-0.1,0-0.2,0-0.3l0-0.2c0,0,0-0.1,0-0.1c0-0.2,0-0.4,0-0.6c0.1-0.4,0.2-0.8,0.3-1.2
			c0.3-0.7,0.8-1.4,1.3-2c0.6-0.6,1.3-1,2.1-1.2c0.5-0.1,0.9-0.2,1.4-0.2c-1.3,4.5-2.6,8.8-2.9,9.9c0,0.1,0,0.2,0.1,0.2l2.9-10.1
			l0.1-0.3l3.1-10.7l0,0c0,0,0-0.1,0-0.1c0,0,0,0,0,0l0,0l0,0l0,0c0,0,0-0.1,0-0.1c0,0,0,0,0.1,0c0-0.1,0.1-0.1,0.1-0.2c0,0,0,0,0,0
			l0.9-1.7l0.1,0.1l0,0.1l0,0l-0.1,0.2c-0.1,0.2-0.2,0.3-0.3,0.5l0.1-0.5l-0.8,1.4c0,0,0,0,0,0.1c0,0,0,0.1,0,0.1c0,0,0-0.1,0-0.1
			l0,0c0,0,0,0.1,0,0.1l-0.1,0l0,0.1l0,0c0,0,0,0.1,0,0.1c0,0,0,0,0,0l0,0l-3.1,10.7l-0.1,0.3l-2.7,9.6c0,0.1-0.1,0.2-0.1,0.3
			c0,0.1,0,0.1-0.1,0.2c0,0.1-0.1,0.2-0.1,0.3c0,0.2-0.1,0.3-0.1,0.5c0,0.1,0,0.2-0.1,0.3c0,0,0,0,0,0c0,0.1,0,0.2-0.1,0.2
			c0,0.2-0.1,0.3-0.1,0.5l-0.2,0.5l-0.1,0.3c0,0-0.1-0.1-0.1-0.1c-0.4-0.3-1.1-0.2-1.4,0.9c-0.4,1.4-0.7,2.9-0.9,3.3
			c-0.2,0.4-0.7,0.6-1,0.3c0.2-0.1,0.3-0.3,0.2-0.5c-0.1-0.2-0.4-0.3-0.6-0.1c-0.2,0.2-0.2,0.5,0,0.7c0.4,0.6,1.4,0.3,1.7-0.2
			c0.6-1,0.9-3.2,1.2-4.2c0.2-0.2,0.6-0.3,0.8-0.1c0,0,0,0,0.1,0.1c0,0,0,0-0.1,0c-0.1,0-0.2,0-0.2,0.1c-0.2,0.1-0.1,0.4,0.1,0.5
			c0,0,0.1,0,0.1,0c0,0,0,0,0,0l-0.1,0.2l-0.1,0.4l0,0.1c-0.1,0.4-0.1,0.9-0.1,1.3c0,0.4-0.1,0.9-0.1,1.3l0,0.6l-0.1,0
			c0,0.6-0.1,1.1-0.1,1.5c-0.1,0-0.2,0.1-0.2,0.2l0.1,1.8c0.1,1,0.1,2-0.1,2.9l-0.6,4.4c0,0.1,0,0.3,0.1,0.4
			C43.1,69.6,43,69.6,43,69.6z M52.6,28.4l0-0.1l0,0l0.2-0.5l0.1,0.1l0,0.1c-0.1,0.1-0.2,0.2-0.3,0.4C52.7,28.3,52.7,28.3,52.6,28.4
			C52.6,28.3,52.6,28.4,52.6,28.4z M51.5,29.5c0-0.2,0.1-0.5,0.1-0.7c0.2-0.7,0.8-1.1,1.4-1.5c0.1,0,0.1,0,0.2,0c0.1,0,0.1,0,0.2,0
			c0.1,0,0.2-0.1,0.3-0.1c0.1,0,0.2-0.1,0.3-0.1c-0.1,0.1-0.2,0.2-0.3,0.3c0,0,0,0-0.1,0.1c-0.2,0.2-0.4,0.3-0.5,0.5c0,0,0,0,0,0
			c-0.1,0.1-0.2,0.3-0.3,0.5c0,0,0,0,0,0c-0.1,0.1-0.1,0.2-0.2,0.4c-0.2,0.4-0.3,0.8-0.3,1.2c0,0,0,0,0,0.1c0,0,0,0.1,0,0.1l0,0
			c0,0,0,0,0,0c0-0.2,0-0.4,0-0.6c0,0,0,0,0,0c0-0.1,0.1-0.3,0.1-0.4c0.1-0.2,0.2-0.4,0.3-0.7c0.1-0.2,0.3-0.5,0.5-0.7
			c0.1-0.1,0.2-0.2,0.3-0.3l0.2-0.1l-0.2,0c-0.2,0-0.3,0-0.5,0c-0.1,0-0.3,0.1-0.4,0.2c-0.2,0.2-0.4,0.4-0.6,0.7
			c-0.2,0.3-0.3,0.6-0.3,0.9c0,0.1,0,0.1,0,0.2c-0.1,0.1-0.1,0.2-0.2,0.3C51.5,29.6,51.5,29.5,51.5,29.5z M51.6,28.1
			C51.5,28.1,51.5,28.1,51.6,28.1l0-0.2l0.3,0.1c0,0.1-0.1,0.1-0.1,0.2C51.7,28.2,51.6,28.1,51.6,28.1z M51.4,28.2l0,0.1l0,0l-0.1,0
			l0,0l0.1-0.6l0.1,0l0,0.1L51.4,28.2z M50.8,27.5C50.8,27.6,50.8,27.6,50.8,27.5c0.1,0,0.2,0,0.2,0c0.1,0,0.1,0.1,0.1,0.2
			c0,0.1,0,0.2,0,0.3c0,0.1-0.1,0.1-0.1,0.1c0,0-0.1,0-0.2,0l-0.1,0c-0.2-0.1-0.3-0.3-0.2-0.5c0.2-0.4,0.8-0.2,0.7,0.1
			c0,0,0-0.1-0.1-0.1C51.1,27.4,50.9,27.4,50.8,27.5z M50.9,28.4c-0.1,0-0.1,0-0.2,0c0,0-0.1,0-0.1,0c0,0,0,0,0,0
			c-0.1-0.1-0.2-0.2-0.2-0.3C50.5,28.2,50.8,28.4,50.9,28.4C51,28.3,51,28.4,50.9,28.4z M52.7,26.8c-0.1-0.1-0.2-0.2-0.2-0.4
			c0-0.1-0.1-0.3-0.1-0.4c0-0.2,0.1-0.5,0.2-0.7c0.2-0.3,0.6-0.5,0.9-0.5c-0.8,0-1.2,1.5-0.5,1.8c-0.2-0.4-0.4-0.7-0.1-1.3
			c0.1-0.1,0.1-0.2,0.2-0.2c-0.1,0.2-0.2,0.4-0.2,0.5c0,0.3,0.1,0.6,0.4,0.7c-0.2-0.2-0.3-0.5-0.2-0.7c0-0.1,0-0.3,0.1-0.4
			c0.1-0.1,0.1-0.2,0.2-0.3c0,0,0,0,0,0c-0.2,0.2-0.3,0.6-0.2,0.9c0,0.2,0.1,0.3,0.2,0.5c0,0.1,0.3,0.4,0.4,0.3
			c-0.2,0.2-0.5,0.2-0.7,0c0,0,0,0-0.1,0c0,0,0,0.1,0,0.1c0,0.1-0.1,0.1-0.1,0.1C53,27,53,27,52.9,27C52.8,26.9,52.8,26.9,52.7,26.8
			z M54.3,25.2c0.1,0.1,0.2,0.3,0.3,0.4c-0.1-0.1-0.2-0.1-0.3-0.1c-0.3,0-0.4,0.3-0.3,0.6c0,0.2,0.1,0.4,0.3,0.4
			c0.1,0,0.2,0.1,0.3,0c0,0,0,0,0,0c0,0,0,0,0,0c0,0,0,0,0,0c0,0,0,0-0.1,0c0,0,0,0,0,0l0.1,0c0,0,0,0.1-0.1,0.1
			c-0.1,0-0.1,0.1-0.2,0.1c-0.1,0-0.2,0-0.4,0c0,0-0.1,0-0.1,0c0,0,0,0,0,0c0,0,0,0-0.1,0c-0.1-0.1-0.1-0.2-0.2-0.2
			c-0.1-0.2-0.2-0.4-0.2-0.6C53.5,25.3,53.9,24.8,54.3,25.2z M54.7,25.8c-0.1,0-0.3,0-0.4,0.1c0,0.1,0,0.3,0.2,0.3c0,0,0.1,0,0.2,0
			c0,0,0,0,0,0.1c-0.1,0-0.1,0-0.2,0c0,0,0,0,0,0c-0.2-0.1-0.3-0.3-0.2-0.6c0-0.1,0.2-0.1,0.3-0.1c0,0,0,0,0.1,0
			C54.6,25.7,54.7,25.8,54.7,25.8z M54.6,26.2c-0.1,0-0.2-0.2-0.2-0.3c0-0.1,0.1-0.1,0.2-0.1C54.8,25.9,54.9,26.2,54.6,26.2z
			 M55,28.7c0-0.1,0.1-0.2,0.1-0.2c0,0,0,0,0-0.1c0-0.1,0-0.1,0.1-0.1c0.2-0.1,0.5,0,0.4,0.4l0,0.1c-0.1,0.2-0.3,0.3-0.5,0.3
			C55,29,55,29,55,29c0.2,0.1,0.4,0,0.6-0.1c0,0,0-0.1,0,0c-0.1,0.1-0.3,0.1-0.5,0.1c0,0,0,0,0,0C55,28.8,55,28.7,55,28.7L55,28.7z
			 M55.4,28L55.4,28c0.2,0.1,0.3,0.2,0.3,0.3c-0.1-0.2-0.3-0.3-0.5-0.3C55.3,28,55.3,28,55.4,28z M51.4,29.7c-0.1,0-0.2-0.1-0.4-0.1
			c0,0,0,0,0,0l0.1-0.3l0.3,0.1C51.4,29.5,51.4,29.6,51.4,29.7C51.4,29.7,51.4,29.7,51.4,29.7z M50.9,29.6L50.9,29.6
			C50.9,29.7,50.9,29.7,50.9,29.6c-0.1,0.1-0.1,0-0.2,0l0-0.2l0-0.1l0.1-0.3l0,0l0.1,0l0,0l0,0.1L50.9,29.6z M50.3,28.9
			C50.3,28.9,50.3,28.9,50.3,28.9c0.2,0,0.4,0.2,0.4,0.4c0,0.1,0,0.2,0,0.2l0,0.1c0,0.1,0,0.1-0.1,0.1c0,0-0.1,0-0.2,0l-0.1,0
			c-0.1,0-0.1-0.1-0.2-0.1C50,29.4,50,29.2,50,29.1c0.1-0.2,0.2-0.4,0.5-0.3l0.1,0c0.1,0,0.2,0.1,0.1,0.2c0,0,0,0,0,0
			C50.7,28.9,50.4,28.8,50.3,28.9z M50.4,29.9l-0.2-0.1c-0.2,0-0.2-0.2-0.2-0.3c0.1,0.1,0.2,0.2,0.3,0.3L50.4,29.9
			C50.4,29.9,50.4,29.9,50.4,29.9c0.1-0.1,0.2-0.1,0.2-0.1C50.5,29.9,50.4,30,50.4,29.9z M54.8,29.1c0,0.1,0.3,0.2,0.3,0.2
			c0.4,0,0.6-0.3,0.7-0.7c0.1-0.5-0.3-0.9-0.8-0.4l0,0l-0.3,0l0,0.1l-0.2,0c0,0,0,0,0,0c0.3-0.4,0.5-0.7,0.4-1.4
			c0-0.1-0.1-0.2-0.1-0.3c0,0,0-0.1,0-0.1c0,0,0,0,0,0c0,0,0.1-0.1,0.1-0.1c0-0.1,0-0.1,0-0.2c0,0,0-0.1-0.1-0.1
			c0-0.2-0.1-0.4-0.2-0.5c-0.1-0.1-0.2-0.2-0.4-0.3c-0.1-0.1-0.2-0.1-0.3-0.2c-0.1,0-0.2,0-0.3,0c-0.7-0.2-1.8,1-1.1,2
			c0,0,0.1,0.1,0.1,0.1c0.1,0.1,0.1,0.1,0.2,0.1c0,0,0,0,0,0c0,0,0,0,0,0c0,0-0.1,0.1,0,0.1c0,0,0,0,0,0c-0.2,0.1-0.4,0.3-0.6,0.4
			c-0.1,0.1-0.1,0.1-0.2,0.2l-0.4-0.1l0-0.1l-0.2-0.1c0-0.4-0.6-0.6-0.9-0.3l0,0c0,0,0,0,0,0c0,0,0,0,0,0c-0.1,0.1-0.2,0.3-0.2,0.4
			c0,0.1,0,0.2,0,0.3c0.1,0.3,0.3,0.3,0.5,0.4c0.2,0.1,0.3,0,0.4-0.2l0,0l0,0.1l0.3,0l0-0.1l0.2,0.1c0,0,0,0,0,0.1
			c-0.1,0.3-0.2,0.6-0.3,0.9l-0.3-0.1l0-0.1l-0.2-0.1c0-0.2-0.1-0.4-0.2-0.4c-0.1,0-0.3-0.1-0.5,0c-0.3,0.2-0.4,0.6-0.3,0.9
			c0,0.2,0.2,0.4,0.4,0.4c0.2,0.1,0.5,0.1,0.5-0.2l0.2,0l0-0.1l0.5,0.1c0,0,0,0,0,0.1l-0.1,0c-0.1,0-0.1,0-0.1,0.1
			c0,0.1,0,0.1,0.1,0.1c-0.2,0.9-1.7,5.8-3.1,10.7c-0.5,0-1.1,0.1-1.6,0.2c-0.8,0.2-1.6,0.7-2.2,1.3c-0.6,0.6-1.1,1.3-1.4,2.1
			c-0.2,0.4-0.3,0.8-0.3,1.2c0,0.2,0,0.4,0,0.6c0,0.1,0,0.1,0,0.2l0,0.2c0,0.1,0,0.2,0,0.3c0,0.4,0,0.8-0.1,1.2
			c-0.1,0.2-0.1,0.4-0.2,0.5c0,0.1-0.1,0.2-0.2,0.2c-0.1,0.1-0.1,0.2-0.2,0.2l0.2,0.2c0,0,0,0.1,0,0.1c0.2,0,0.4,0,0.5,0.1
			c0.2,0.1,0.3,0.2,0.4,0.4c0.1,0.2,0.2,0.3,0.2,0.5c0,0.2,0,0.4,0,0.6c0,0.4-0.1,0.8-0.2,1.2c-0.1,0.4-0.2,0.8-0.4,1.2
			c-0.1,0.4-0.3,0.7-0.6,1.1c-0.2,0.3-0.5,0.6-0.8,0.9c-0.2,0.1-0.3,0.2-0.5,0.3c-0.1,0-0.2,0.1-0.3,0.1c0,0-0.1,0-0.1,0
			c0,0,0,0-0.1,0l0,0c0,0,0,0-0.1,0c-0.1,0-0.2,0.1-0.2,0.2c0,0,0,0,0,0.1c0,0,0,0.1,0,0.1v0.1c0,0.1,0,0.2,0,0.3
			c0,0.2-0.1,0.4-0.1,0.6c-0.1,0.4-0.3,0.7-0.5,1.1L39,59.3c-0.2,0.4-0.4,0.7-0.6,1.1c0,0.1-0.1,0.2-0.1,0.3c0,0.1-0.1,0.2-0.1,0.3
			c-0.1,0.2-0.1,0.4-0.2,0.6c-0.2,0.8-0.3,1.7-0.3,2.5c0,0.8,0.2,1.7,0.5,2.5c0.3,0.8,0.8,1.5,1.4,2.1c0.9,0.9,2,1.3,3.3,1.5
			c0.3,0.1,0.5,0.2,0.8,0.3l-0.6,4.1l0.1,0.7l0.6-0.3l0.6-4.2c1,0.2,1.8,0.1,3.1,0.3c0.9,0.1,1.8-0.2,2.6-0.5
			c0.4-0.1,0.8-0.3,1.2-0.5c0.4-0.2,0.8-0.5,1.1-0.8c0.7-0.6,1.3-1.3,1.7-2.1c0.4-0.8,0.7-1.7,0.8-2.6c0.1-0.4,0.1-0.9,0.1-1.4
			c0-0.2,0-0.5,0-0.7c0-0.1,0-0.2,0-0.3c0-0.1,0-0.1,0-0.2l0-0.2c-0.2-0.9-0.3-1.7-0.3-2.6c0-0.2,0-0.4,0-0.6c0-0.1,0-0.1,0-0.2l0,0
			c0,0,0-0.1,0-0.1c0-0.1,0-0.1-0.1-0.2c0,0-0.1-0.1-0.1-0.1c0,0-0.1,0-0.1,0l0,0c0,0-0.1,0-0.1,0c-0.4-0.1-0.7-0.4-0.9-0.8
			c-0.2-0.4-0.3-0.8-0.4-1.2c-0.1-0.4-0.1-0.9-0.1-1.3c0-0.4,0.1-0.9,0.2-1.3c0.1-0.4,0.2-0.8,0.5-1.2c0.1-0.2,0.3-0.3,0.4-0.4
			c0.1-0.1,0.2-0.1,0.3-0.1l0,0c0,0,0,0,0,0c0,0,0.1,0,0.1,0c0.1,0,0.1-0.1,0.2-0.1c0-0.1,0.1-0.1,0.1-0.2c0,0,0-0.1,0-0.1l0-0.1
			c0-0.1-0.1-0.2-0.1-0.3c0-0.2,0-0.4,0-0.6c0.1-0.4,0.2-0.8,0.4-1.3c0.2-0.4,0.3-0.8,0.5-1.2c0-0.1,0.1-0.2,0.1-0.3
			c0-0.1,0-0.1,0-0.2c0,0,0-0.1,0-0.1l0-0.1c0-0.2,0-0.5,0-0.7c0-0.5-0.1-0.9-0.2-1.3c-0.1-0.2-0.2-0.4-0.3-0.6
			c-0.1-0.2-0.2-0.4-0.4-0.6c-0.3-0.4-0.6-0.7-1-0.9c-0.6-0.5-1.4-0.8-2.1-1.1c-0.1-0.1-0.2-0.2-0.4-0.3c-0.2-0.2-0.4-0.4-0.6-0.6
			c-0.1,0-0.1-0.1-0.2-0.2l0,0l0,0l0,0c0,0,0,0,0-0.1c0-0.1-0.1-0.3-0.1-0.4c0-0.1-0.1-0.3-0.1-0.4l2.1-8.4c0.1,0.1,0.3,0,0.4-0.1
			c0.1-0.1,0.1-0.2,0.2-0.2c0.1-0.1,0.1-0.2,0.2-0.3c0,0,0,0,0,0c0,0,0,0,0,0c0,0,0.1-0.1,0.1-0.1c0,0,0,0,0,0
			c0.1-0.1,0.1-0.2,0.2-0.3c0,0,0,0,0,0l0.6,0.2l0,0.1l0.2,0.1c0,0,0,0,0,0c-0.1,0.3,0.2,0.4,0.4,0.4c0.2,0,0.5-0.2,0.5-0.4
			c0-0.1,0.1-0.3,0-0.5c-0.2-0.3-0.5-0.4-0.7-0.2l-0.2-0.1l0,0l-0.6-0.2c0.1-0.1,0.2-0.2,0.2-0.4c0.1-0.2,0.3-0.4,0.4-0.5
			c0,0,0.1-0.1,0.1-0.1l0.3,0.1l0,0l0.2,0.1C54.8,29,54.8,29,54.8,29.1z"/>
	</g>
	<path class="st10" d="M54.2,27.7c0.1,0.1,0.3,0.1,0.4-0.1c0-0.2-0.1-0.3-0.3-0.3C54.1,27.4,54.1,27.5,54.2,27.7
		C54.1,27.6,54.1,27.7,54.2,27.7z"/>
	<path class="st10" d="M53.9,26.5c0.1,0.1,0.3,0.2,0.4,0.2C54.2,26.6,54.1,26.5,53.9,26.5c0-0.2,0-0.3,0-0.5c0-0.1,0-0.3,0.1-0.4
		c0.1-0.1,0.2-0.2,0.4-0.2c-0.1,0-0.2,0-0.2,0c-0.1,0-0.2,0.1-0.2,0.1c-0.1,0.1-0.1,0.1-0.1,0.2c0,0.1,0,0.2,0,0.2
		C53.7,26.2,53.8,26.3,53.9,26.5z"/>
	<defs>
		<filter id="Adobe_OpacityMaskFilter_5_" filterUnits="userSpaceOnUse" x="57.8" y="28" width="4.5" height="45.9">
			<feColorMatrix  type="matrix" values="1 0 0 0 0  0 1 0 0 0  0 0 1 0 0  0 0 0 1 0"/>
		</filter>
	</defs>
	<mask maskUnits="userSpaceOnUse" x="57.8" y="28" width="4.5" height="45.9" id="mask5_942_263_1_">
		<path class="st13" d="M57.7,28h4.5v46h-4.5V28z"/>
	</mask>
	<g class="st14">
		<path class="st10" d="M59.2,29.3c0,0.2,0,0.4,0,0.6c0,0.2,0,0.4-0.1,0.6c0-0.2,0-0.4,0-0.6c0-0.2,0-0.4-0.1-0.6
			c0-0.2-0.1-0.3-0.2-0.5c-0.1-0.1-0.3-0.2-0.5-0.2c0.2,0,0.4,0,0.6,0.1c0.1,0.1,0.2,0.1,0.2,0.2C59.2,29.1,59.2,29.2,59.2,29.3z
			 M61.5,69.1C61.5,69.1,61.5,69,61.5,69.1C61.5,69,61.5,69.1,61.5,69.1z M62.1,73.4c-0.2,0.1-0.3,0.1-0.5,0.1l0-0.2
			c0.1,0,0.3,0,0.5-0.1L62.1,73.4z M62.1,73.8c-0.2,0.1-0.3,0.1-0.5,0.1l0-0.2c0.1,0,0.3,0,0.5-0.1L62.1,73.8z M60.9,70.1
			c-0.1,0-0.1,0-0.2,0c-0.1,0-0.1,0-0.2,0C60.6,70.1,60.8,70.1,60.9,70.1c0.1-0.1,0.1-0.2,0.1-0.3c0-0.1,0-0.2,0-0.3
			c0-0.1,0-0.2,0-0.3c0,0.2,0.1,0.5,0,0.7c0,0.1,0,0.1-0.1,0.2C61,70,60.9,70,60.9,70.1z M60.8,71.7c-0.1,0-0.3,0-0.4,0l-0.1,0
			l0-0.1c0-0.2,0-0.3-0.1-0.5c0-0.2,0-0.3,0-0.5c0-0.2,0-0.3,0-0.5c0-0.2,0-0.4,0-0.5c0,0.2,0.1,0.3,0.1,0.5c0,0.2,0,0.3,0.1,0.5
			c0,0.2,0,0.3,0,0.5c0,0.2,0,0.3,0,0.5C60.5,71.6,60.6,71.6,60.8,71.7c0.1-0.1,0.3-0.1,0.4-0.1C61,71.6,60.9,71.7,60.8,71.7z
			 M61.5,68.8c0-0.2,0-0.6-0.1-1.4c0-0.5-0.1-1.3-0.1-1.6l0.2,0l0.2,3L61.5,68.8z M61.4,69.1C61.4,69.1,61.4,69.1,61.4,69.1
			C61.4,69.1,61.4,69.1,61.4,69.1z M61.3,69.2c0,0.2,0,0.4,0.1,0.6c0,0.2,0,0.4,0,0.6c0,0.2,0,0.4,0,0.6c0,0.2,0,0.4,0,0.6
			c-0.1-0.2-0.1-0.4-0.1-0.6c0-0.2,0-0.4-0.1-0.6c0-0.2,0-0.4,0-0.6C61.3,69.6,61.3,69.4,61.3,69.2z M61.4,69L61.4,69L61.4,69
			L61.4,69z M61.4,68.8L61.4,68.8C61.4,68.8,61.4,68.8,61.4,68.8z M61.1,68.9l0.1,0C61.3,68.9,61.1,68.9,61.1,68.9z M61,65.8
			C61,65.8,61,65.8,61,65.8C61,65.8,61,65.8,61,65.8c0,0.4,0.2,2.5,0.3,3.1c0,0-0.1,0-0.1,0L61,65.8L61,65.8
			C61,65.8,61,65.8,61,65.8C61,65.8,61,65.8,61,65.8z M59.3,28.8c-0.1-0.2-0.3-0.2-0.6-0.3c-0.1,0-0.1,0-0.2-0.1
			c0,0-0.1-0.2-0.2-0.3c0,0-0.6-0.1-0.6-0.1l0.1,1l0,0L60.1,69l0,0l0,0.5l0,0l0.3,0l0,0l0-0.5l-0.1,0L58,29.4
			c0.4-0.1,0.8,0.1,0.9,0.5c0,0,0,6.3,0.6,19.5c0.1,2.7,0.8,10.3,1.3,16.3c0,0-0.1,0.1-0.1,0.1l0.2,3.1c0,0,0,0,0,0L60.8,69l0.1,0.7
			c0,0.2-0.1,0.3-0.3,0.3c-0.2,0-0.3-0.3-0.3-0.4l-0.3,0l0,0c0,0,0,0,0,0l0.1,2.3l1.2,0.1l0,0c0.1,1.2,0.2,1.9,0.2,1.9
			s0.2,0.1,0.7,0c-0.1-0.7-0.3-2.5-0.6-4.9c0,0,0,0,0,0c0,0,0,0,0,0c0,0,0,0,0-0.1l-0.2-3.2c0,0,0,0,0-0.1c0,0,0,0-0.1,0l-0.1,0
			l-0.3,0c0,0,0,0-0.1,0c0,0,0,0,0,0l-0.1,0l0.1,0c0,0,0,0,0,0c0,0,0,0,0.1,0l0.3,0C61,61,60.5,55.3,60.1,50.8
			c-0.5-7.1-0.8-17.5-0.7-20.9C59.4,29.6,59.4,29,59.3,28.8z"/>
	</g>
	<path class="st10" d="M11.4,35.5l-1.1,2.9c0-0.1,0.1-0.1,0.2-0.2c0.1,0,0.2,0,0.4,0l6.2,2.4c0.1,0.1,0.2,0.1,0.3,0.2
		c0.1,0.1,0.1,0.2,0,0.3l0.6-1.6c0,0.1-0.1,0.1-0.2,0.2c-0.1,0-0.3,0-0.4,0l-2.1-0.8l0.6-1.6c0.2-0.5,0.3-1,0.2-1.4
		c-0.1-0.4-0.2-0.8-0.5-1.1c-0.3-0.3-0.6-0.5-1-0.7c-0.4-0.2-0.8-0.3-1.2-0.2c-0.4,0-0.8,0.2-1.1,0.4C11.9,34.5,11.7,34.9,11.4,35.5
		z M10.9,37l0.3-0.7c0.2-0.4,0.3-0.7,0.5-0.9c0.2-0.2,0.4-0.4,0.6-0.5c0.2-0.1,0.4-0.1,0.6-0.2c0.2,0,0.4,0,0.6,0
		c0.2,0,0.3,0.1,0.5,0.1c0.1,0.1,0.2,0.1,0.2,0.1c0.1,0,0.2,0.1,0.3,0.2c0.1,0.1,0.3,0.2,0.5,0.3c0.2,0.1,0.3,0.3,0.4,0.5
		c0.1,0.2,0.2,0.5,0.2,0.8c0,0.3-0.1,0.7-0.2,1.1l-0.4,1l-3.9-1.5c-0.1,0-0.2-0.1-0.2-0.1C11,37.1,11,37.1,10.9,37z"/>
	<path class="st10" d="M14.2,29.8C14.2,29.7,14.2,29.7,14.2,29.8C14.2,29.7,14.2,29.7,14.2,29.8c0.1-0.1,0.2-0.1,0.3-0.1
		c0.1,0,0.2,0.1,0.3,0.2l4.5,5.2c0.1,0.1,0.2,0.3,0.2,0.4c0,0.1,0,0.2,0,0.3l0.5-0.8c-0.1,0.1-0.1,0.1-0.2,0.1
		c-0.1,0-0.2-0.1-0.3-0.2l-2.1-2.5c-0.1-0.1-0.1-0.2,0-0.3l0.9-1.5c0-0.1,0.1-0.1,0.1-0.1c0,0,0.1,0,0.1,0l3.2,0.8
		c0.1,0,0.2,0.1,0.3,0.2c0.1,0.1,0.1,0.2,0,0.2l0.9-1.4c-0.1,0.1-0.1,0.1-0.3,0.2c-0.1,0-0.3,0-0.5,0l-6.6-1.7
		c-0.2,0-0.3-0.1-0.3-0.2c-0.1-0.1-0.1-0.2,0-0.3L14.2,29.8z M18,30.4C18.1,30.4,18.1,30.4,18,30.4c0.1,0.1,0.1,0.1,0.1,0.2l-1,1.6
		c0,0-0.1,0.1-0.1,0.1c0,0-0.1,0-0.1,0l-2.1-2.5c0,0,0-0.1-0.1-0.1c0,0,0,0,0,0c0,0,0,0,0,0L18,30.4z"/>
	<path class="st10" d="M26.7,24.7c-0.1,0.1-0.2,0.1-0.3,0.1c-0.1,0-0.2-0.1-0.4-0.2l-1.3-1.3c-0.1-0.1-0.2-0.2-0.2-0.3
		c0-0.1,0-0.2,0.1-0.3L23.4,24c0.1-0.1,0.2-0.1,0.3-0.1c0.1,0,0.2,0.1,0.3,0.2l1.8,1.7c0.1,0.1,0.2,0.2,0.2,0.3c0,0.1,0,0.2,0,0.3
		c-0.1,0.2-0.1,0.4-0.2,0.5c-0.1,0.2-0.2,0.3-0.3,0.4c-0.2,0.3-0.5,0.5-0.8,0.6C24.2,28,23.8,28,23.4,28c-0.4,0-0.8-0.1-1.3-0.3
		c-0.4-0.2-0.9-0.4-1.3-0.7c-0.4-0.3-0.7-0.7-1-1.1c-0.3-0.4-0.5-0.8-0.6-1.2c-0.1-0.4-0.2-0.8-0.1-1.1c0-0.4,0.2-0.7,0.4-1
		c0.2-0.2,0.4-0.4,0.6-0.5c0.2-0.1,0.4-0.2,0.7-0.3c0.2,0,0.4,0,0.6,0c0.1,0,0.1,0.1,0.1,0.2c0,0.1,0,0.2-0.1,0.2l0.9-1.1
		c-0.1,0.1-0.2,0.1-0.3,0.1c-0.2,0-0.4,0-0.7,0.1c-0.3,0.1-0.6,0.2-0.9,0.4c-0.3,0.2-0.6,0.5-0.9,0.9c-0.3,0.4-0.5,0.8-0.6,1.3
		c-0.1,0.5-0.1,0.9-0.1,1.4c0.1,0.5,0.2,0.9,0.5,1.4c0.3,0.4,0.6,0.8,1,1.1c0.4,0.3,0.9,0.5,1.3,0.7c0.5,0.1,1,0.2,1.4,0.1
		c0.5,0,0.9-0.2,1.4-0.4c0.4-0.2,0.8-0.5,1.1-0.9c0.2-0.2,0.3-0.5,0.4-0.7c0.1-0.2,0.2-0.5,0.3-0.7c0.1-0.2,0.1-0.4,0.2-0.6
		C26.5,25,26.6,24.9,26.7,24.7z"/>
	<path class="st10" d="M32.2,20.7c-0.1,0.1-0.2,0.1-0.3,0c-0.1,0-0.2-0.1-0.3-0.3l-1.1-1.5c-0.1-0.1-0.1-0.3-0.1-0.4
		c0-0.1,0-0.2,0.1-0.3l-1.4,1c0.1-0.1,0.2-0.1,0.3,0c0.1,0,0.2,0.1,0.3,0.2l1.4,2c0.1,0.1,0.1,0.2,0.1,0.3c0,0.1,0,0.2-0.1,0.3
		c-0.1,0.2-0.2,0.3-0.3,0.5c-0.1,0.1-0.2,0.3-0.4,0.4c-0.3,0.2-0.6,0.4-1,0.4c-0.4,0.1-0.7,0-1.2-0.1c-0.4-0.1-0.8-0.3-1.2-0.5
		c-0.4-0.3-0.8-0.6-1.1-1c-0.3-0.4-0.6-0.8-0.8-1.2c-0.2-0.4-0.3-0.9-0.4-1.3c0-0.4,0-0.8,0.1-1.1c0.1-0.4,0.3-0.6,0.6-0.9
		c0.2-0.2,0.5-0.3,0.7-0.4c0.3-0.1,0.5-0.1,0.7-0.1c0.2,0,0.4,0,0.6,0.1c0.1,0.1,0.1,0.1,0.1,0.2c0,0.1-0.1,0.1-0.1,0.2l1.1-0.9
		c-0.1,0.1-0.2,0.1-0.3,0.1c-0.2-0.1-0.4-0.1-0.7-0.1c-0.3,0-0.6,0.1-1,0.2c-0.3,0.1-0.7,0.4-1,0.7c-0.4,0.3-0.7,0.7-0.9,1.1
		c-0.2,0.4-0.3,0.9-0.3,1.4c0,0.5,0,0.9,0.2,1.4c0.2,0.5,0.4,0.9,0.7,1.3c0.3,0.4,0.7,0.7,1.2,0.9c0.4,0.2,0.9,0.4,1.4,0.4
		c0.5,0.1,0.9,0,1.4-0.1c0.5-0.1,0.9-0.4,1.3-0.7c0.2-0.2,0.4-0.4,0.6-0.6c0.2-0.2,0.3-0.4,0.4-0.6c0.1-0.2,0.2-0.4,0.3-0.6
		C32,20.9,32.1,20.8,32.2,20.7z"/>
	<path class="st10" d="M31.8,13.4C31.9,13.4,31.9,13.4,31.8,13.4C31.9,13.4,31.9,13.4,31.8,13.4c0.2,0,0.2,0,0.3,0.1
		c0.1,0.1,0.1,0.2,0.1,0.3l0.8,6.8c0,0.2,0,0.3-0.1,0.5c-0.1,0.1-0.1,0.2-0.2,0.3l0.9-0.4c-0.1,0-0.2,0-0.2,0
		c-0.1-0.1-0.1-0.2-0.1-0.3l-0.4-3.2c0-0.1,0-0.2,0.1-0.2l1.6-0.7c0.1,0,0.1,0,0.2,0c0,0,0.1,0,0.1,0.1l2.2,2.4
		c0.1,0.1,0.1,0.2,0.1,0.3c0,0.1,0,0.2-0.1,0.2l1.6-0.7c-0.1,0-0.2,0-0.3,0c-0.1-0.1-0.3-0.1-0.4-0.3l-4.5-5.1
		c-0.1-0.1-0.2-0.2-0.2-0.3c0-0.1,0-0.2,0.1-0.2L31.8,13.4z M34.7,16.1C34.7,16.2,34.7,16.2,34.7,16.1c0.1,0.1,0,0.1,0,0.2L33,17
		c0,0-0.1,0-0.1,0c0,0,0-0.1,0-0.1l-0.4-3.2c0,0,0-0.1,0-0.1c0,0,0,0,0,0c0,0,0,0,0,0L34.7,16.1z"/>
	<path class="st10" d="M38.6,10.9L37,11.3c0,0,0,0,0,0s0,0,0,0l0,0c0.1,0,0.2,0,0.3,0.1c0.1,0.1,0.2,0.2,0.2,0.4l1.5,6.3
		c0,0.2,0,0.3,0,0.4c0,0.1-0.1,0.2-0.2,0.2l0.3-0.1l0.2-0.1l0.3-0.1c-0.1,0-0.2,0-0.3-0.1c-0.1-0.1-0.2-0.2-0.2-0.3l-1.6-6.4
		c0,0,0,0,0,0c0,0,0,0,0,0c0,0,0,0,0,0l4.6,5.7c0.1,0.1,0.2,0.2,0.1,0.3c0,0.1-0.1,0.1-0.1,0.2l1.6-0.4c-0.1,0-0.2,0-0.3-0.1
		c-0.1-0.1-0.1-0.2-0.2-0.3l-1.6-6.4c0-0.1,0-0.3,0-0.4c0-0.1,0.1-0.2,0.2-0.2l-0.9,0.2c0.1,0,0.2,0,0.3,0.1
		c0.1,0.1,0.2,0.2,0.2,0.3l1.5,6.4c0,0,0,0,0,0c0,0,0,0,0,0c0,0,0,0,0,0c0,0,0,0,0,0l-4.6-5.6c-0.1-0.1-0.2-0.3-0.2-0.4
		C38.5,11,38.5,10.9,38.6,10.9z"/>
	<path class="st10" d="M43.3,9.9c0.1,0,0.2,0,0.3,0.1c0.1,0.1,0.1,0.2,0.2,0.3l0.8,6.6c0,0.1,0,0.3-0.1,0.4
		c-0.1,0.1-0.1,0.2-0.2,0.2l1.7-0.2c-0.1,0-0.2,0-0.3-0.1c-0.1-0.1-0.1-0.2-0.2-0.4l-0.8-6.5c0-0.2,0-0.3,0.1-0.4
		c0.1-0.1,0.1-0.2,0.2-0.2L43.3,9.9z"/>
	<path class="st10" d="M47.8,9.5l-1.7,0c0,0,0,0,0,0s0,0,0,0h0c0.1,0,0.2,0.1,0.2,0.1c0.1,0.1,0.1,0.2,0.1,0.4l0.1,6.5
		c0,0.2,0,0.3-0.1,0.4c-0.1,0.1-0.1,0.2-0.2,0.2l0.4,0h0.2l0.4,0c-0.1,0-0.2,0-0.2-0.1c-0.1-0.1-0.1-0.2-0.1-0.4L46.7,10
		c0,0,0,0,0,0c0,0,0,0,0,0c0,0,0,0,0,0l3.2,6.6c0.1,0.2,0.1,0.3,0.1,0.4c0,0.1-0.1,0.1-0.2,0.1l1.7,0c-0.1,0-0.2,0-0.3-0.1
		c0-0.1-0.1-0.2-0.1-0.3l-0.1-6.6c0-0.1,0-0.3,0.1-0.4c0.1-0.1,0.1-0.1,0.2-0.1l-0.9,0c0.1,0,0.2,0.1,0.2,0.1
		c0.1,0.1,0.1,0.2,0.1,0.4l0.1,6.5c0,0,0,0,0,0c0,0,0,0,0,0c0,0,0,0,0,0c0,0,0,0,0,0L47.7,10c-0.1-0.2-0.1-0.3-0.1-0.4
		C47.7,9.5,47.7,9.5,47.8,9.5z"/>
	<path class="st10" d="M52.6,9.5c0.1,0,0.2,0.1,0.2,0.2c0.1,0.1,0.1,0.2,0.1,0.4l-0.7,6.6c0,0.1-0.1,0.3-0.2,0.3
		c-0.1,0.1-0.2,0.1-0.2,0.1l1.7,0.2c-0.1,0-0.2-0.1-0.2-0.2c-0.1-0.1-0.1-0.2-0.1-0.4l0.7-6.5c0-0.2,0.1-0.3,0.1-0.4
		c0.1-0.1,0.2-0.1,0.3-0.1L52.6,9.5z"/>
	<path class="st10" d="M59,16.8c0,0,0-0.1,0.1-0.2c0-0.1,0.1-0.1,0.1-0.2c0.1,0,0.1-0.1,0.2,0L58,15.9c0.1,0,0.1,0.1,0.2,0.2
		c0.1,0.1,0.1,0.2,0.1,0.2c0,0.2,0,0.4,0.1,0.6c0.1,0.2,0.2,0.5,0.3,0.7c0.1,0.2,0.3,0.5,0.6,0.7c0.2,0.2,0.6,0.4,0.9,0.5
		c0.9,0.3,1.6,0.4,2.1,0.2c0.6-0.2,0.9-0.6,1.2-1.2c0.1-0.4,0.2-0.7,0.1-1c0-0.3-0.2-0.6-0.3-0.8c-0.2-0.2-0.4-0.5-0.6-0.7
		c-0.2-0.2-0.5-0.4-0.7-0.6c-0.2-0.2-0.5-0.4-0.7-0.6c-0.2-0.2-0.3-0.4-0.4-0.7c-0.1-0.2-0.1-0.5-0.1-0.8c0.1-0.3,0.2-0.5,0.3-0.7
		c0.2-0.2,0.4-0.3,0.6-0.4c0.3-0.1,0.6,0,1,0.1c0.2,0.1,0.4,0.2,0.5,0.4c0.1,0.2,0.2,0.4,0.2,0.7c0,0,0,0.1,0,0.2
		c0,0.1-0.1,0.1-0.1,0.2c-0.1,0-0.2,0-0.3,0l1.6,0.5c-0.1,0-0.1-0.1-0.2-0.2c-0.1-0.1-0.1-0.2-0.1-0.3c0-0.4-0.2-0.7-0.5-1
		c-0.3-0.3-0.7-0.5-1.2-0.7c-0.4-0.1-0.8-0.2-1.1-0.1c-0.4,0-0.7,0.2-1,0.3c-0.3,0.2-0.5,0.4-0.6,0.6c-0.2,0.4-0.3,0.7-0.3,1
		c0,0.3,0.1,0.6,0.3,0.8c0.2,0.2,0.4,0.5,0.6,0.7c0.2,0.2,0.5,0.4,0.7,0.6c0.3,0.2,0.5,0.4,0.7,0.6c0.2,0.2,0.3,0.5,0.4,0.7
		c0.1,0.3,0.1,0.5-0.1,0.8c-0.1,0.2-0.2,0.5-0.4,0.7c-0.2,0.2-0.4,0.3-0.7,0.4c-0.3,0.1-0.6,0-0.9-0.1c-0.3-0.1-0.6-0.3-0.8-0.5
		c-0.2-0.2-0.3-0.5-0.3-0.7C59,17.2,59,17,59,16.8z"/>
	<path class="st10" d="M66.5,13L66,14c0,0,0,0,0.1-0.1c0.1-0.1,0.2-0.1,0.3-0.2c0.2-0.1,0.4-0.1,0.6-0.1c0.3,0,0.6,0.1,0.9,0.3
		l0.3,0.2c0,0.1,0,0.3-0.1,0.4l-3.2,5.8c-0.1,0.1-0.2,0.2-0.3,0.3c-0.1,0-0.2,0.1-0.3,0l1.5,0.8c-0.1-0.1-0.1-0.1-0.2-0.3
		c0-0.1,0-0.3,0.1-0.4l3.1-5.7c0.1-0.2,0.2-0.3,0.4-0.3l0.3,0.2c0.4,0.2,0.6,0.4,0.8,0.6c0.2,0.2,0.3,0.4,0.3,0.5c0,0.2,0,0.3,0,0.4
		c0,0.1,0,0.1,0,0.1l0.5-0.9L66.5,13z"/>
	<path class="st10" d="M69.5,20.8c-0.3,0.4-0.5,0.8-0.5,1.2c0,0.4,0.1,0.8,0.3,1.2c0.2,0.4,0.5,0.7,0.9,1c0.4,0.3,0.8,0.5,1.2,0.6
		c0.4,0.1,0.8,0.1,1.2,0c0.4-0.1,0.7-0.3,1.1-0.7c0,0,0.1-0.1,0.2-0.2c0.1-0.1,0.3-0.3,0.4-0.6c0.2-0.2,0.4-0.5,0.6-0.7
		c0.2-0.3,0.4-0.5,0.7-0.8c0.2-0.3,0.4-0.5,0.6-0.7c0.2-0.2,0.3-0.4,0.4-0.5c0.1-0.1,0.2-0.2,0.2-0.2c0.1-0.1,0.2-0.2,0.3-0.2
		c0.1,0,0.2,0,0.3,0l-1.3-1.1c0.1,0.1,0.1,0.1,0.1,0.3c0,0.1,0,0.2-0.1,0.3l-3.6,4.4c-0.2,0.2-0.4,0.4-0.7,0.4c-0.2,0.1-0.5,0-0.7,0
		c-0.3-0.1-0.5-0.2-0.7-0.4c-0.2-0.2-0.4-0.4-0.6-0.6c-0.1-0.2-0.2-0.5-0.2-0.7c0-0.2,0.1-0.5,0.3-0.7l3.6-4.4
		c0.1-0.1,0.2-0.2,0.3-0.2c0.1,0,0.2,0,0.3,0l-1.3-1.1c0.1,0.1,0.1,0.1,0.1,0.3c0,0.1-0.1,0.2-0.1,0.3c0,0-0.1,0.1-0.2,0.2
		c-0.1,0.1-0.3,0.3-0.4,0.5c-0.2,0.2-0.4,0.5-0.6,0.7c-0.2,0.3-0.4,0.5-0.6,0.8c-0.2,0.3-0.4,0.5-0.6,0.7c-0.2,0.2-0.3,0.4-0.4,0.5
		C69.6,20.7,69.5,20.8,69.5,20.8z"/>
	<path class="st10" d="M73.9,27.8c0.4,0.5,0.8,0.8,1.2,1c0.4,0.2,0.8,0.3,1.2,0.4c0.4,0,0.8,0,1.1-0.1c0.4-0.1,0.7-0.3,1-0.5
		c0.3-0.2,0.5-0.4,0.7-0.5c0.2-0.2,0.4-0.4,0.6-0.6c0.2-0.3,0.4-0.5,0.6-0.9c0.2-0.3,0.3-0.7,0.3-1.1c0-0.4,0-0.8-0.2-1.3
		c-0.1-0.4-0.4-0.9-0.8-1.4l-1.3-1.6c0.1,0.1,0.1,0.2,0,0.3c0,0.1-0.1,0.2-0.2,0.3l-5,4.3c-0.1,0.1-0.2,0.1-0.3,0.1
		c-0.1,0-0.2,0-0.3-0.1L73.9,27.8z M79.3,22.4L79.3,22.4c0.4,0.5,0.7,0.9,0.8,1.3c0.1,0.4,0.1,0.8,0.1,1.1c-0.1,0.3-0.2,0.7-0.3,0.9
		c-0.2,0.3-0.3,0.5-0.5,0.7c-0.2,0.2-0.4,0.4-0.5,0.5c-0.2,0.1-0.2,0.2-0.3,0.3c0,0-0.1,0.1-0.3,0.2c-0.2,0.1-0.4,0.3-0.6,0.4
		c-0.2,0.1-0.5,0.3-0.8,0.4c-0.3,0.1-0.6,0.2-1,0.2c-0.4,0-0.7-0.1-1.1-0.3c-0.4-0.2-0.7-0.5-1.1-0.9c0-0.1,0-0.1,0.1-0.2
		c0-0.1,0.1-0.1,0.2-0.2l4.9-4.3c0.1-0.1,0.1-0.1,0.2-0.1C79.1,22.4,79.2,22.4,79.3,22.4z"/>
	<path class="st10" d="M82.7,26.5c0,0.1,0.1,0.2,0,0.3c0,0.1-0.1,0.2-0.2,0.3L77,30.8c-0.1,0.1-0.2,0.1-0.4,0.1
		c-0.1,0-0.2,0-0.2-0.1l0.9,1.4c-0.1-0.1-0.1-0.2,0-0.3c0-0.1,0.1-0.2,0.3-0.3L83,28c0.1-0.1,0.3-0.1,0.4-0.1c0.1,0,0.2,0,0.3,0.1
		L82.7,26.5z"/>
	<path class="st10" d="M86.1,32.2c-0.2-0.4-0.5-0.8-0.9-1.1c-0.4-0.3-0.8-0.5-1.2-0.7c-0.5-0.1-0.9-0.2-1.4-0.2
		c-0.5,0-1,0.2-1.5,0.4c-0.5,0.2-0.9,0.5-1.2,0.9c-0.3,0.4-0.6,0.8-0.8,1.2c-0.2,0.4-0.3,0.9-0.2,1.4c0,0.5,0.1,0.9,0.3,1.4
		c0.2,0.4,0.5,0.8,0.9,1.1c0.4,0.3,0.8,0.5,1.2,0.7c0.5,0.1,0.9,0.2,1.4,0.2c0.5,0,1-0.2,1.4-0.4c0.5-0.2,0.9-0.5,1.2-0.9
		c0.3-0.4,0.6-0.8,0.8-1.2c0.2-0.4,0.3-0.9,0.2-1.4C86.4,33.1,86.3,32.6,86.1,32.2z M86,32.2c0.2,0.3,0.2,0.7,0.2,1
		c0,0.4-0.2,0.7-0.4,1.1c-0.2,0.4-0.5,0.7-0.8,1c-0.3,0.3-0.7,0.6-1.2,0.8c-0.5,0.2-0.9,0.4-1.4,0.5c-0.5,0.1-0.9,0.1-1.3,0
		c-0.4-0.1-0.8-0.2-1.1-0.4c-0.3-0.2-0.5-0.5-0.7-0.8c-0.2-0.3-0.2-0.7-0.2-1c0-0.4,0.2-0.7,0.4-1.1c0.2-0.4,0.5-0.7,0.8-1
		c0.3-0.3,0.7-0.6,1.2-0.8c0.5-0.2,0.9-0.4,1.4-0.4c0.5-0.1,0.9-0.1,1.3,0c0.4,0.1,0.8,0.2,1.1,0.4C85.6,31.6,85.8,31.9,86,32.2z"/>
	<path class="st7" d="M12.9,66l2.9-3l0.2,0.4l-2.2,2.2l3.1,0l0.2,0.4L12.9,66z"/>
	<path class="st7" d="M15.3,70.6l-0.2-0.3l3.1-1.8l0.2,0.3L15.3,70.6z"/>
	<path class="st7" d="M20.5,75c0.3-0.2,0.5-0.6,0.6-1c0.1-0.4,0-0.8-0.3-1.1c-0.2-0.3-0.6-0.5-1-0.6c-0.4-0.1-0.8,0-1.1,0.3
		c-0.3,0.2-0.5,0.6-0.6,1c-0.1,0.4,0,0.8,0.3,1.1c0.2,0.3,0.6,0.5,1,0.6C19.8,75.3,20.2,75.2,20.5,75z M20.7,75.3
		c-0.2,0.2-0.4,0.3-0.7,0.3c-0.2,0.1-0.5,0.1-0.7,0c-0.2,0-0.5-0.1-0.7-0.2c-0.2-0.1-0.4-0.3-0.5-0.5c-0.2-0.2-0.3-0.4-0.3-0.7
		c-0.1-0.2-0.1-0.5,0-0.7c0-0.2,0.1-0.5,0.2-0.7c0.1-0.2,0.3-0.4,0.5-0.6c0.2-0.2,0.4-0.3,0.7-0.3c0.2-0.1,0.5-0.1,0.7,0
		c0.2,0,0.5,0.1,0.7,0.2c0.2,0.1,0.4,0.3,0.5,0.5c0.2,0.2,0.3,0.4,0.3,0.7c0.1,0.2,0.1,0.5,0,0.7c0,0.2-0.1,0.5-0.2,0.7
		C21.1,74.9,20.9,75.1,20.7,75.3z"/>
	<path class="st7" d="M22.1,78.8l0.9,0.9L22.7,80l-0.9-0.9l-0.1-0.1l-0.1-0.1l2.5-2.6l0.3,0.3L22.1,78.8z"/>
	<path class="st7" d="M25.4,82.3L25.1,82l2.2-2.8l0.3,0.2L25.4,82.3z"/>
	<path class="st7" d="M29.9,82.2l-1.4,2.3l-0.3-0.2l2-3.3l0.2,3.5l1.4-2.3l0.3,0.2l-2,3.3L29.9,82.2z"/>
	<path class="st7" d="M35,85.8c-0.3,0.1-0.4,0.1-0.5,0.2c-0.2,0.1-0.4,0.2-0.4,0.3c-0.1,0.2-0.1,0.3,0,0.5c0.1,0.2,0.2,0.3,0.3,0.4
		c0.2,0.1,0.4,0.1,0.7-0.1c0.1,0,0.1-0.1,0.2-0.1L35,85.8z M35.2,85.3c0,0.1,0,0.1,0.1,0.2c0.1,0,0.1,0,0.2-0.1c0.1,0,0.1,0,0.2-0.1
		c0.1-0.1,0.2-0.1,0.3-0.3c0.1-0.1,0.1-0.2,0-0.3c-0.1-0.1-0.1-0.2-0.2-0.2c-0.1,0-0.2-0.1-0.3,0c-0.1,0-0.2,0.1-0.3,0.3
		C35.1,84.9,35.1,85.1,35.2,85.3z M36.4,86.9c-0.1,0-0.3,0.2-0.7,0.4l0.3,1l-0.5-0.2l-0.2-0.6c-0.2,0.1-0.4,0.2-0.5,0.2
		c-0.3,0-0.5,0-0.6,0c-0.2-0.1-0.3-0.1-0.4-0.2c-0.1-0.1-0.2-0.2-0.2-0.3c-0.1-0.3-0.1-0.5,0-0.8c0.1-0.3,0.4-0.5,0.8-0.6
		c0.1,0,0.2-0.1,0.4-0.1c-0.1-0.4-0.1-0.7-0.1-0.9c0.1-0.2,0.2-0.4,0.4-0.4c0.2-0.1,0.4-0.1,0.6,0c0.2,0.1,0.3,0.2,0.4,0.4
		c0.1,0.2,0.1,0.4,0,0.6c-0.1,0.2-0.3,0.4-0.7,0.5c-0.1,0-0.2,0.1-0.3,0.1l0.3,1.2c0.1,0,0.2-0.1,0.3-0.2l0.3-0.2L36.4,86.9z"/>
	<path class="st7" d="M40.5,89.8l-0.7-4.1l0.4,0.1l0.5,3.1l1.9-2.5l0.4,0.1L40.5,89.8z"/>
	<path class="st7" d="M45.6,90.5l-0.4,0l0.4-3.6l0.4,0L45.6,90.5z"/>
	<path class="st7" d="M52.2,88.9c0-0.4-0.2-0.8-0.5-1c-0.3-0.3-0.6-0.4-1.1-0.4c-0.4,0-0.8,0.2-1,0.5c-0.3,0.3-0.4,0.6-0.4,1.1
		c0,0.4,0.2,0.8,0.5,1c0.3,0.3,0.6,0.4,1.1,0.4c0.4,0,0.8-0.2,1-0.5C52.1,89.7,52.2,89.3,52.2,88.9z M52.6,88.9c0,0.3,0,0.5-0.1,0.7
		c-0.1,0.2-0.2,0.4-0.4,0.6c-0.2,0.2-0.4,0.3-0.6,0.4c-0.2,0.1-0.5,0.2-0.7,0.2c-0.3,0-0.5,0-0.7-0.1c-0.2-0.1-0.4-0.2-0.6-0.4
		c-0.2-0.2-0.3-0.4-0.4-0.6c-0.1-0.2-0.2-0.5-0.2-0.7c0-0.3,0-0.5,0.1-0.7c0.1-0.2,0.2-0.4,0.4-0.6c0.2-0.2,0.4-0.3,0.6-0.4
		c0.2-0.1,0.5-0.2,0.7-0.2c0.3,0,0.5,0,0.7,0.1c0.2,0.1,0.4,0.2,0.6,0.4c0.2,0.2,0.3,0.4,0.4,0.6C52.5,88.4,52.6,88.6,52.6,88.9z"/>
	<path class="st7" d="M56.2,89.9l1.3-0.2l0.1,0.4l-1.3,0.2l-0.2,0l-0.2,0l-0.6-3.6l0.4-0.1L56.2,89.9z"/>
	<path class="st7" d="M60.8,87.9l1.2-0.4L61,86.1L60.8,87.9z M63.4,88.5L63,88.6l-0.7-0.8l-1.5,0.5l-0.1,1.1l-0.4,0.1l0.4-4.2
		L63.4,88.5z"/>
	<path class="st7" d="M66.4,85.2c-0.1,0.2-0.2,0.4-0.2,0.5c-0.1,0.2-0.1,0.4,0,0.5c0.1,0.2,0.2,0.3,0.4,0.3c0.2,0.1,0.3,0.1,0.5,0
		c0.2-0.1,0.3-0.3,0.4-0.6c0-0.1,0.1-0.2,0.1-0.2L66.4,85.2z M66.1,84.7c0.1,0,0.1,0,0.2,0.1c0-0.1,0.1-0.1,0.1-0.2
		c0-0.1,0.1-0.1,0.1-0.2c0-0.2,0-0.3,0-0.4c-0.1-0.1-0.1-0.2-0.3-0.2c-0.1,0-0.2,0-0.3,0c-0.1,0-0.2,0.1-0.2,0.2c0,0.1,0,0.2,0,0.4
		C65.7,84.5,65.9,84.6,66.1,84.7z M68.2,84.8c0,0.1-0.1,0.3-0.2,0.7l0.9,0.5l-0.4,0.2l-0.6-0.3c-0.1,0.2-0.2,0.4-0.2,0.5
		c-0.1,0.2-0.3,0.4-0.4,0.4C67.1,87,67,87,66.8,87c-0.1,0-0.3,0-0.4,0c-0.3-0.1-0.5-0.3-0.6-0.5c-0.2-0.3-0.1-0.7,0.1-1
		c0.1-0.1,0.1-0.2,0.2-0.3c-0.4-0.2-0.6-0.3-0.7-0.5c-0.1-0.2-0.1-0.4-0.1-0.6c0.1-0.2,0.2-0.3,0.4-0.4c0.2-0.1,0.4-0.1,0.6-0.1
		c0.2,0.1,0.3,0.2,0.4,0.4c0.1,0.2,0.1,0.5-0.1,0.8c0,0.1-0.1,0.2-0.1,0.3l1.1,0.5c0-0.1,0-0.2,0.1-0.3l0.1-0.3L68.2,84.8z"/>
	<path class="st7" d="M73.9,81.4c0.1,0.4,0.1,0.7-0.1,1.1c-0.1,0.4-0.3,0.6-0.6,0.8c-0.4,0.3-0.9,0.4-1.4,0.3
		c-0.5-0.1-0.9-0.3-1.2-0.8c-0.1-0.2-0.2-0.4-0.3-0.7c-0.1-0.2-0.1-0.5,0-0.7c0.1-0.5,0.3-0.9,0.7-1.2c0.3-0.2,0.6-0.3,1-0.3
		c0.4,0,0.7,0.1,1,0.3l-0.3,0.2c-0.4-0.2-0.7-0.2-1.1-0.1c-0.1,0.1-0.3,0.1-0.4,0.2c-0.1,0.1-0.2,0.2-0.3,0.4
		c-0.1,0.2-0.1,0.3-0.2,0.5c-0.1,0.4,0,0.8,0.3,1.1c0.2,0.3,0.5,0.5,0.9,0.6c0.4,0.1,0.8,0,1.1-0.2c0.2-0.2,0.4-0.4,0.5-0.6
		c0.1-0.2,0.1-0.5,0.1-0.8L73.9,81.4z"/>
	<path class="st7" d="M78.6,78.7l-1.5,1.5l-2.5-2.6l1.5-1.5l0.2,0.2L75,77.6l0.9,0.9l1.2-1.2l0.2,0.3l-1.2,1.2l0.9,0.9l1.3-1.2
		L78.6,78.7z"/>
	<path class="st7" d="M80.8,75.6l0.8-1l0.3,0.2l-0.8,1L81,75.9l-0.1,0.1L78,73.8l0.2-0.3L80.8,75.6z"/>
	<path class="st7" d="M83.6,71.7l0.7-1.1l0.3,0.2l-0.7,1.1L83.8,72l-0.1,0.2l-3.1-1.9l0.2-0.3L83.6,71.7z"/>
	<path class="st7" d="M85.6,64.3c-0.4-0.2-0.8-0.2-1.1,0c-0.4,0.2-0.6,0.4-0.8,0.8c-0.2,0.4-0.2,0.8,0,1.1c0.2,0.4,0.4,0.6,0.8,0.8
		c0.4,0.2,0.8,0.2,1.1,0c0.4-0.2,0.7-0.4,0.8-0.8c0.2-0.4,0.2-0.8,0-1.1C86.3,64.7,86,64.4,85.6,64.3z M85.8,63.9
		c0.2,0.1,0.4,0.2,0.6,0.4c0.2,0.2,0.3,0.4,0.4,0.6c0.1,0.2,0.1,0.5,0.1,0.7c0,0.2-0.1,0.5-0.1,0.7c-0.1,0.2-0.2,0.4-0.4,0.6
		c-0.2,0.2-0.4,0.3-0.6,0.4c-0.2,0.1-0.4,0.1-0.7,0.1c-0.2,0-0.5,0-0.7-0.1c-0.2-0.1-0.4-0.2-0.6-0.4c-0.2-0.2-0.3-0.4-0.4-0.6
		c-0.1-0.2-0.1-0.5-0.1-0.7c0-0.2,0-0.5,0.1-0.7c0.1-0.2,0.2-0.4,0.4-0.6c0.2-0.2,0.4-0.3,0.6-0.4c0.2-0.1,0.5-0.1,0.7-0.1
		C85.3,63.8,85.5,63.8,85.8,63.9z"/>
</g>
</svg>
