<svg width="386" height="386" viewBox="0 0 386 386" fill="none" xmlns="http://www.w3.org/2000/svg">
<g clip-path="url(#clip0_3151_16258)">
<mask id="mask0_3151_16258" style="mask-type:luminance" maskUnits="userSpaceOnUse" x="-1" y="-1" width="387" height="387">
<path d="M-0.0527344 -0.0517578H385.947V385.948H-0.0527344V-0.0517578Z" fill="white"/>
</mask>
<g mask="url(#mask0_3151_16258)">
<mask id="mask1_3151_16258" style="mask-type:luminance" maskUnits="userSpaceOnUse" x="-1" y="-1" width="388" height="388">
<path d="M192.994 -0.0517578C86.3796 -0.0517578 -0.0527344 86.3805 -0.0527344 192.995C-0.0527344 299.615 86.3796 386.042 192.994 386.042C299.614 386.042 386.041 299.615 386.041 192.995C386.041 86.3805 299.614 -0.0517578 192.994 -0.0517578Z" fill="white"/>
</mask>
<g mask="url(#mask1_3151_16258)">
<path d="M192.994 -0.0517578C86.3796 -0.0517578 -0.0527344 86.3805 -0.0527344 192.995C-0.0527344 299.615 86.3796 386.042 192.994 386.042C299.614 386.042 386.041 299.615 386.041 192.995C386.041 86.3805 299.614 -0.0517578 192.994 -0.0517578Z" stroke="#716657" stroke-width="6"/>
</g>
</g>
<mask id="mask2_3151_16258" style="mask-type:luminance" maskUnits="userSpaceOnUse" x="27" y="186" width="26" height="26">
<path d="M27.834 186.219H52.834V211.219H27.834V186.219Z" fill="white"/>
</mask>
<g mask="url(#mask2_3151_16258)">
<path d="M40.3027 186.219C39.084 196.49 38.0996 197.474 27.834 198.688C27.8548 198.688 27.8757 198.693 27.8965 198.693C38.1048 199.906 39.0892 200.911 40.3027 211.156C41.5163 200.885 42.5007 199.901 52.7715 198.688C42.5007 197.474 41.5163 196.49 40.3027 186.219Z" fill="#716657"/>
</g>
<mask id="mask3_3151_16258" style="mask-type:luminance" maskUnits="userSpaceOnUse" x="334" y="186" width="26" height="26">
<path d="M334.197 186.219H359.197V211.219H334.197V186.219Z" fill="white"/>
</mask>
<g mask="url(#mask3_3151_16258)">
<path d="M346.666 186.219C345.447 196.49 344.463 197.474 334.197 198.688C334.218 198.688 334.239 198.693 334.26 198.693C344.468 199.906 345.452 200.911 346.666 211.156C347.88 200.885 348.864 199.901 359.135 198.688C348.864 197.474 347.88 196.49 346.666 186.219Z" fill="#716657"/>
</g>
<path d="M170.859 211.661C170.219 211.75 169.651 211.838 169.448 211.875L170.453 212.119L170.411 212.349C170.411 212.349 169.552 212.208 169.229 212.172C169.167 212.437 169.156 212.807 169.156 212.807C169.25 212.823 169.745 212.927 170.448 213.088L170.859 211.661Z" fill="#716657"/>
<path d="M177.954 214.766L180.501 214.63V213.094C179.61 213.318 178.719 213.547 177.85 213.828C177.886 214.141 177.923 214.453 177.954 214.766Z" fill="#716657"/>
<path d="M191.49 233.036C190.954 232.369 190.631 231.557 190.423 230.734C190.235 229.901 190.147 229.036 190.147 228.172C190.141 227.307 190.193 226.437 190.292 225.573C190.376 224.703 190.501 223.838 190.621 222.963C190.735 222.088 190.855 221.213 190.959 220.338C191.183 218.593 191.386 216.849 191.636 215.099C191.157 216.802 190.798 218.531 190.49 220.271C190.193 222.01 189.886 223.739 189.683 225.51C189.516 227.271 189.459 229.099 189.964 230.859C190.225 231.724 190.636 232.567 191.266 233.229C191.579 233.557 191.938 233.838 192.324 234.073C192.709 234.297 193.126 234.463 193.548 234.588C193.147 234.401 192.766 234.187 192.412 233.937C192.063 233.677 191.756 233.369 191.49 233.036Z" fill="#716657"/>
<path d="M192.334 230.578C192.094 228.63 193.167 222.823 193.558 216.932C193.995 210.427 189.214 210.464 188.302 212.703C188.292 212.729 188.297 212.745 188.302 212.766C188.287 212.818 188.282 212.88 188.276 212.938C188.292 212.635 188.36 212.328 188.407 211.984C188.141 212.203 187.938 212.49 187.813 212.823C187.688 213.156 187.662 213.557 187.787 213.927C187.901 214.292 188.193 214.641 188.584 214.76C188.953 214.885 189.407 214.797 189.605 214.495C189.271 214.568 188.995 214.469 188.782 214.328C188.578 214.182 188.448 213.974 188.365 213.729C188.287 213.505 188.261 213.266 188.271 213.005C188.266 213.464 188.552 213.943 189.094 214.021C189.881 214.323 190.933 213.328 190.391 212.412C190.151 212.005 189.735 211.854 189.334 211.896C189.969 211.557 190.641 211.724 191.224 212.146C191.943 212.667 192.308 213.552 192.193 214.432C191.646 218.75 190.006 226.287 190.886 230.625C191.339 232.865 194.313 235.578 196.719 233.839C197.485 233.287 198.12 232.089 197.61 231.203C197.167 230.443 195.969 230.188 195.355 230.896C194.849 231.484 194.98 232.375 195.563 232.906C193.959 233.719 192.547 232.297 192.334 230.578Z" fill="#716657"/>
<path d="M205.921 189.333C205.749 190.276 205.681 191.255 205.806 192.224C205.942 193.182 206.291 194.125 206.916 194.838C206.525 193.984 206.369 193.078 206.405 192.187C206.421 191.291 206.609 190.411 206.853 189.547C207.353 187.817 208.114 186.146 208.791 184.401C209.457 182.677 210.15 180.906 210.499 179.021C210.681 178.083 210.76 177.119 210.713 176.161C210.655 175.208 210.468 174.26 210.103 173.396C210.332 175.26 210.088 177.067 209.577 178.802C209.067 180.541 208.338 182.224 207.655 183.958C206.994 185.682 206.27 187.437 205.921 189.333Z" fill="#716657"/>
<path d="M170.801 168.135C171.583 166.943 172.494 165.844 173.468 164.797C175.426 162.708 177.765 160.974 180.359 159.625C177.567 160.51 174.963 162.083 172.801 164.125C171.708 165.135 170.729 166.271 169.854 167.479C168.994 168.703 168.244 170.005 167.63 171.37C167.025 172.74 166.551 174.167 166.234 175.63L166.124 176.182C166.093 176.38 166.062 176.568 166.041 176.766C165.999 177.151 165.984 177.536 165.984 177.917C165.984 178.677 166.051 179.411 166.114 180.135C166.171 180.854 166.208 181.563 166.171 182.26C166.14 182.964 166.036 183.672 165.895 184.375C165.609 185.776 165.098 187.135 164.416 188.432C166.223 186.13 167.213 183.094 167.062 180.089C167.051 179.354 167.025 178.635 167.051 177.938C167.067 177.583 167.093 177.24 167.145 176.906C167.166 176.734 167.202 176.568 167.234 176.406L167.359 175.891C167.692 174.51 168.15 173.156 168.739 171.865C169.307 170.557 170.01 169.323 170.801 168.135Z" fill="#716657"/>
<path d="M155.093 223.265C154.301 224.739 153.369 226.166 152.598 227.698C151.806 229.213 151.135 230.776 150.421 232.302L149.89 233.448L149.369 234.625C149.187 235.01 149.041 235.416 148.874 235.812L148.64 236.416L148.421 237.021C147.864 238.651 147.395 240.312 147.103 242.01C146.822 243.713 146.65 245.432 146.681 247.156C146.697 250.604 147.494 254.026 148.921 257.104C147.968 253.843 147.473 250.5 147.629 247.172C147.713 245.51 147.9 243.854 148.239 242.229C148.556 240.593 149.015 238.989 149.572 237.422L149.775 236.833L149.999 236.25C150.15 235.864 150.291 235.468 150.463 235.088L151.473 232.771C152.129 231.203 152.775 229.646 153.452 228.109C154.135 226.583 154.942 225.093 155.624 223.521C156.301 221.958 156.838 220.276 156.848 218.567C156.567 220.25 155.9 221.797 155.093 223.265Z" fill="#716657"/>
<path d="M184.938 158.974C184.021 159.146 183.125 159.396 182.266 159.729C183.099 159.64 183.927 159.578 184.75 159.552C184.807 159.354 184.87 159.161 184.938 158.974Z" fill="#716657"/>
<path d="M159.928 226.266C160.173 226.276 160.423 226.234 160.652 226.141C161.11 225.948 161.475 225.589 161.766 225.203C162.344 224.417 162.704 223.51 163.006 222.604C163.313 221.703 163.516 220.766 163.761 219.865C164.011 218.943 164.183 218.005 164.365 217.078C164.537 216.156 164.719 215.24 164.964 214.339C165.084 213.891 165.225 213.458 165.386 213.01C165.542 212.568 165.693 212.125 165.865 211.688C166.204 210.823 166.584 209.969 167.141 209.234C167.423 208.87 167.74 208.531 168.12 208.266C168.501 208.005 168.933 207.813 169.386 207.688C168.917 207.75 168.454 207.891 168.032 208.13C167.61 208.37 167.24 208.688 166.912 209.047C166.266 209.771 165.808 210.635 165.423 211.505C165.23 211.943 165.053 212.385 164.886 212.828C164.714 213.266 164.548 213.724 164.412 214.182C164.136 215.104 163.949 216.042 163.766 216.969C163.594 217.896 163.428 218.818 163.204 219.724C162.99 220.656 162.798 221.568 162.553 222.469C162.298 223.365 162.006 224.255 161.521 225.036C161.282 225.422 160.98 225.781 160.584 225.995C160.183 226.208 159.693 226.219 159.24 226.078C159.459 226.167 159.683 226.25 159.928 226.266Z" fill="#716657"/>
<path d="M156.916 226.657C156.728 226.282 156.619 225.865 156.593 225.427C156.567 224.99 156.624 224.542 156.76 224.073C156.4 224.412 156.187 224.901 156.119 225.407C156.051 225.917 156.13 226.453 156.369 226.927C156.603 227.407 156.989 227.792 157.437 228.042C157.88 228.297 158.406 228.417 158.89 228.334C158.432 228.162 158.041 227.933 157.702 227.651C157.369 227.37 157.103 227.032 156.916 226.657Z" fill="#716657"/>
<path d="M206.568 108.271C206.234 108.235 205.911 108.354 205.666 108.568C205.646 108.584 205.63 108.61 205.609 108.625C205.578 108.657 205.547 108.683 205.521 108.719C205.5 108.745 205.484 108.771 205.469 108.802C205.359 108.964 205.286 109.151 205.276 109.36C205.255 110.011 205.943 110.787 206.635 110.526C206.693 110.5 206.739 110.464 206.781 110.427C207.031 110.323 207.224 110.11 207.338 109.86C207.62 109.266 207.396 108.365 206.568 108.271Z" fill="#716657"/>
<path d="M210.886 100.333L210.475 100.375C210.636 100.39 210.761 100.375 210.886 100.333Z" fill="#716657"/>
<mask id="mask4_3151_16258" style="mask-type:luminance" maskUnits="userSpaceOnUse" x="144" y="93" width="73" height="200">
<path d="M144.375 93.2236H216.234V292.765H144.375V93.2236Z" fill="white"/>
</mask>
<g mask="url(#mask4_3151_16258)">
<path d="M212.136 108.563L211.563 108.349L211.683 107.927L211.98 106.932L212.12 106.427L212.152 106.307L212.724 106.443L212.672 106.625L212.136 108.563ZM208.068 106.802C208.131 106.464 208.287 106.344 208.506 106.005L211.683 106.849L211.417 107.761C210.245 107.537 209.198 107.151 208.068 106.802ZM207.412 110.266C207.099 110.818 206.813 111.495 206.553 112.078L205.683 111.776C205.532 111.719 205.36 111.745 205.235 111.849C204.849 112.172 204.355 112.198 204.657 113.526L204.688 113.682L205.532 113.974C205.464 114.068 205.391 114.167 205.329 114.255C205.157 114.495 204.948 114.943 204.787 115.104C204.641 115.25 204.501 115.344 204.339 115.401C204.094 115.245 203.823 115.12 203.563 114.985C203.376 114.886 203.178 114.771 202.969 114.698C202.933 114.615 202.896 114.537 202.865 114.453C202.751 114.115 202.678 113.745 202.657 113.38C202.709 113.099 202.771 112.818 202.844 112.542C203.183 111.208 203.678 109.922 204.329 108.729C204.48 108.422 204.667 108.136 204.834 107.844C205.027 107.563 205.204 107.271 205.412 107.005C205.589 106.75 205.787 106.505 205.99 106.271C206.105 106.162 206.214 106.052 206.329 105.938C207.027 105.318 207.678 104.662 208.323 103.979C208.62 103.672 208.933 103.354 209.235 103.037C209.469 102.807 209.735 102.526 209.902 102.266C210.36 102.318 210.855 102.141 211.214 101.906C211.412 101.776 211.667 101.563 211.865 101.313C212.12 103.485 211.027 104.615 210.105 106.005C209.495 105.854 208.24 105.63 208.24 105.63C208.24 105.63 207.506 106 207.537 107.177C207.537 107.25 207.573 107.328 207.652 107.344L209.011 107.693C209.037 107.703 209.063 107.714 209.094 107.724C208.506 108.552 207.844 109.479 207.412 110.266ZM209.355 113.542L209.021 114.427C208.48 114.042 207.792 113.86 207.172 113.62C206.49 113.354 205.803 113.115 205.11 112.891C205.089 112.578 205.188 112.464 205.511 112.203L209.355 113.542ZM209.641 113.646L209.813 113.167L210.329 113.281L210.355 113.287L210.386 113.292L210.292 113.568L210.047 114.292L209.646 115.406C209.641 115.417 209.532 115.37 209.532 115.37L209.084 115.162L209.256 114.672L209.641 113.646ZM210.553 114.526C210.61 114.318 210.61 114.136 210.771 114.016C210.99 113.854 211.245 113.714 211.521 113.677C211.792 113.646 212.073 113.703 212.308 113.844C212.224 113.792 212.141 113.615 212.068 113.542C211.975 113.443 211.896 113.38 211.771 113.333C211.511 113.24 211.219 113.229 210.943 113.281C211.256 112.688 211.688 112.943 211.766 112.943C215.646 114.073 209.792 117.849 210.417 115L210.553 114.526ZM211.271 117.011C210.995 116.906 210.698 116.927 210.433 116.729C210.308 116.636 210.214 116.516 210.136 116.38C210.136 116.37 210.131 116.354 210.126 116.344C210.136 116.354 210.167 116.365 210.245 116.391L210.745 116.537C210.907 116.583 211.063 116.61 211.224 116.615C211.652 116.636 212.047 116.547 212.381 116.38C212.1 116.771 211.74 117.037 211.271 117.011ZM203.719 116.932C203.532 117.255 203.417 117.62 203.193 117.922C202.844 118.396 202.459 118.323 202.016 118.297L202.511 116.198C202.698 116.281 202.891 116.37 203.079 116.458C203.219 116.5 203.365 116.542 203.516 116.568C203.652 116.594 203.797 116.604 203.943 116.604C203.86 116.708 203.787 116.823 203.719 116.932ZM201.938 110.281C201.646 110.813 201.433 111.469 201.334 112.146L200.396 113.891C200.37 113.943 200.344 114 200.323 114.063C200.308 114.11 200.292 114.156 200.277 114.203L200.251 114.292L200.068 114.948L199.969 115.302L188.256 157.068L187.948 158.172L176.74 198.13C176.756 198.136 176.771 198.136 176.782 198.141C176.599 198.703 176.428 199.271 176.261 199.839C176.146 200.229 176.032 200.615 175.922 201C175.803 201.438 175.683 201.875 175.568 202.313C175.464 202.708 175.36 203.11 175.261 203.505C175.141 203.912 175.016 204.313 174.891 204.719C174.818 204.964 174.745 205.208 174.667 205.453C174.271 206.755 173.881 208.063 173.501 209.37L172.896 211.438L172.349 213.297C172.334 213.417 172.329 213.5 172.318 213.583C172.152 215.224 172.016 216.87 171.86 218.511L171.391 223.693L171.178 226.271L171.162 226.495L170.834 226.469C170.839 226.391 170.448 230.828 170.349 232.297C169.98 232.235 169.626 232.167 169.303 232.099C169.407 231.047 169.511 229.995 169.615 228.948L170.105 223.844L170.599 218.74L171.146 213.667L171.235 213.333C171.474 213.391 171.724 213.443 171.98 213.505C171.995 213.354 172.001 213.344 172.001 213.339L172.521 211.485C172.287 211.516 172.011 211.552 171.719 211.589L171.943 210.776C172.303 210.641 172.558 210.292 172.605 209.922C172.615 209.906 172.62 209.891 172.62 209.865C172.615 209.578 172.542 209.297 172.422 209.037L172.865 207.432L173.422 205.344C173.735 204.188 174.037 203.026 174.339 201.865C174.417 201.662 174.495 201.453 174.563 201.245C174.787 200.589 174.99 199.927 175.183 199.261C175.303 198.833 175.417 198.406 175.527 197.974C175.766 197.995 176.021 198.026 176.287 198.063L187.48 158.151L187.792 157.042L199.615 114.865L199.698 114.583L199.792 114.24L199.839 114.078C199.844 114.047 199.86 114.016 199.87 113.979C199.902 113.88 199.943 113.776 199.99 113.682L202.188 109.594C202.099 109.818 202.021 110.042 201.948 110.271C201.943 110.276 201.938 110.276 201.938 110.281ZM201.688 115.823L190.797 157.333L190.511 158.422L180.594 196.245C180.36 196.891 180.146 197.542 179.948 198.203C179.891 198.396 179.834 198.589 179.782 198.781C179.605 199.396 179.433 200.011 179.271 200.625C179.068 201.438 178.865 202.255 178.693 203.073C178.61 203.443 178.537 203.813 178.469 204.177L177.98 206.026C177.641 207.313 177.297 208.604 176.98 209.896L176.417 212.11L175.995 213.771C175.974 214.011 175.959 214.208 175.938 214.412C175.813 215.927 175.693 217.443 175.584 218.958L175.204 224.115L175.027 226.875L174.719 226.854C174.568 229.276 174.433 231.464 174.344 232.833C173.902 232.787 173.407 232.729 172.891 232.667C173.016 231.458 173.136 230.255 173.256 229.047L173.745 223.787L174.188 218.526C174.313 217.047 174.433 215.568 174.547 214.089C174.886 214.167 175.214 214.245 175.521 214.313C175.568 213.61 175.573 213.583 175.579 213.568L175.985 212.016C175.646 211.938 175.313 211.865 175.006 211.802L175.683 209.271C176.047 207.927 176.391 206.583 176.74 205.235L177.001 204.219C177.303 203.229 177.584 202.235 177.849 201.235C178.084 200.323 178.313 199.401 178.521 198.479C178.849 198.552 179.172 198.63 179.48 198.703L190.058 158.365L190.344 157.271L201.261 115.636L201.287 115.547L201.313 115.438L201.381 115.182L201.428 115.016L201.485 114.787C201.506 114.927 201.527 115.073 201.558 115.214C201.563 115.255 201.568 115.297 201.579 115.333C201.589 115.396 201.631 115.427 201.678 115.438C201.714 115.448 201.756 115.448 201.792 115.427L201.688 115.823ZM194.027 155.453L194.073 155.651L194.089 155.703C194.084 155.724 194.089 155.735 194.084 155.761C194.079 155.802 194.084 155.839 194.094 155.875C194.115 155.964 194.12 155.953 194.126 155.969C194.136 155.99 194.152 156.021 194.157 156.031C194.183 156.073 194.198 156.094 194.219 156.115L194.303 156.214L194.454 156.391C194.657 156.61 194.865 156.818 195.073 157.026C195.797 157.724 196.573 158.37 197.391 158.958C196.235 158.526 195.053 158.177 193.855 157.896C193.855 157.682 193.855 157.469 193.849 157.255C193.688 157.417 193.584 157.615 193.48 157.807C193.464 157.807 193.443 157.802 193.433 157.797C193.417 157.854 193.396 157.912 193.381 157.969C193.282 158.203 193.193 158.406 193.115 158.615C192.938 159.083 192.797 159.563 192.688 160.042C192.631 160.287 192.579 160.526 192.537 160.761C192.527 160.797 192.521 160.828 192.516 160.865C192.198 160.86 191.881 160.87 191.553 160.901L193.474 153.094C193.516 153.318 193.558 153.547 193.61 153.771C193.724 154.344 193.891 154.901 194.027 155.453ZM174.422 235.698C174.292 235.641 174.141 235.646 174.016 235.708C173.891 235.766 173.808 235.88 173.777 236.005C173.714 236.25 173.855 236.469 174.042 236.547C174.219 236.636 174.48 236.594 174.626 236.386C174.698 236.281 174.724 236.141 174.688 236.011C174.657 235.875 174.553 235.761 174.422 235.698C174.683 235.813 174.86 236.13 174.766 236.448C174.719 236.604 174.599 236.75 174.438 236.823C174.282 236.901 174.084 236.901 173.917 236.828C173.751 236.75 173.62 236.604 173.573 236.432C173.521 236.261 173.553 236.078 173.636 235.938C173.813 235.656 174.167 235.578 174.422 235.698ZM174.589 234.333C174.584 234.365 174.584 234.396 174.584 234.432C174.584 234.396 174.589 234.365 174.589 234.333L174.709 234.344C174.709 234.344 174.724 234.12 174.745 233.719C174.777 233.787 174.787 233.86 174.787 233.938C174.995 234.037 175.141 234.24 175.141 234.479C175.141 234.818 174.865 235.089 174.516 235.089C174.172 235.089 173.891 234.818 173.891 234.479C173.891 234.229 174.053 234.011 174.277 233.917C174.261 234.172 174.251 234.313 174.251 234.313L174.589 234.333ZM198.704 160.745C201.573 162.11 204.115 164.203 205.73 166.932C207.355 169.646 208.058 172.87 207.948 176.037C207.938 176.438 207.912 176.828 207.87 177.224C207.823 177.62 207.777 178 207.688 178.37C207.501 179.12 207.23 179.88 206.948 180.636C206.381 182.146 205.751 183.651 205.178 185.188C204.61 186.719 204.073 188.281 203.73 189.917C203.558 190.729 203.438 191.568 203.448 192.432C203.454 193.281 203.599 194.188 204.089 194.985L203.902 195.005C203.49 195.047 203.079 195.089 202.662 195.156C201.829 195.292 200.974 195.521 200.198 195.958C199.422 196.391 198.766 197.037 198.287 197.766C197.808 198.495 197.469 199.292 197.224 200.099C196.751 201.698 196.438 203.313 196.219 204.948C196.011 206.583 195.907 208.229 195.922 209.88C195.943 211.531 196.084 213.188 196.412 214.818C196.745 216.448 197.266 218.073 198.188 219.516C198.652 220.235 199.23 220.901 199.938 221.427C200.641 221.958 201.469 222.328 202.334 222.495L202.464 222.521C202.485 222.526 202.495 222.531 202.511 222.537C202.542 222.552 202.568 222.573 202.589 222.599C202.61 222.625 202.615 222.651 202.626 222.677C202.626 222.714 202.631 222.693 202.61 222.833L202.537 223.464L202.495 224.089C202.448 224.917 202.448 225.74 202.464 226.563C202.537 229.844 202.844 233.094 203.204 236.339C203.292 237.146 203.396 237.958 203.501 238.766L203.657 239.985C203.714 240.365 203.745 240.761 203.766 241.162C204.709 259.323 194.115 272.932 173.323 272.297C179.693 272.151 186.172 270.208 191.584 266.797C199.511 261.849 202.777 252.078 202.537 242.735C202.511 241.906 202.443 241.083 202.37 240.261C202.756 261.292 188.849 272.229 170.141 271.125C170.589 270.745 170.886 270.182 170.907 269.547C171.126 263.401 171.636 248.203 172.047 247.219C172.553 246 176.105 233.011 176.105 233.011C176.105 233.011 175.584 232.964 174.803 232.886C174.823 232.505 174.849 232.068 174.881 231.573C174.959 230.813 175.032 230.052 175.11 229.287L175.584 224.146L176.016 218.995C176.141 217.5 176.261 216.005 176.37 214.511C176.943 214.641 177.386 214.745 177.605 214.792C177.573 214.537 177.537 214.276 177.511 214.026L176.657 213.813L176.636 213.589C176.636 213.589 177.245 213.62 177.579 213.63C178.448 213.354 179.329 213.136 180.219 212.948C179.678 212.828 178.256 212.516 176.829 212.198L177.365 209.99C177.683 208.698 177.985 207.401 178.287 206.099L178.787 203.953C178.87 203.688 178.954 203.427 179.037 203.162C179.282 202.36 179.501 201.552 179.714 200.74C179.87 200.12 180.021 199.5 180.162 198.875C180.579 198.985 180.959 199.089 181.266 199.172C181.719 199.302 182.188 199.026 182.303 198.568L191.48 161.214C191.792 161.36 192.115 161.474 192.438 161.573L192.615 161.625L192.709 161.651C192.766 161.667 192.834 161.667 192.886 161.656C193.001 161.646 193.126 161.537 193.141 161.5L193.167 161.464C193.178 161.443 193.198 161.417 193.209 161.396C193.292 161.219 193.323 161.115 193.37 160.985C193.454 160.74 193.516 160.5 193.573 160.255C193.667 159.854 193.735 159.448 193.782 159.037C195.48 159.448 197.136 160 198.704 160.745ZM207.339 165.031C208.709 166.063 209.943 167.245 211.006 168.563C211.532 169.224 212.016 169.917 212.428 170.651C212.85 171.38 213.204 172.146 213.485 172.932C214.063 174.511 214.355 176.188 214.365 177.865C214.37 178.703 214.308 179.547 214.183 180.38L214.131 180.693C214.12 180.792 214.099 180.88 214.079 180.974C214.032 181.167 213.98 181.365 213.917 181.563C213.797 181.958 213.652 182.365 213.501 182.761C212.886 184.375 212.183 185.985 211.563 187.641C210.948 189.302 210.37 190.995 210.058 192.802C209.907 193.703 209.823 194.641 209.912 195.604C209.959 196.083 210.047 196.573 210.214 197.052C210.23 197.11 210.261 197.172 210.282 197.229C210.292 197.255 210.303 197.292 210.313 197.323C210.146 197.245 209.98 197.162 209.813 197.083C209.24 196.469 208.183 196.297 207.433 195.948C206.745 195.63 206.073 195.271 205.391 194.943C205.37 194.766 205.287 194.573 205.198 194.448L205.136 194.354C204.813 193.844 204.672 193.151 204.667 192.422C204.657 191.688 204.761 190.922 204.917 190.162C205.235 188.636 205.751 187.115 206.308 185.61C206.865 184.094 207.485 182.599 208.063 181.052C208.349 180.276 208.631 179.5 208.844 178.646C208.891 178.438 208.938 178.198 208.969 177.985C209.001 177.771 209.027 177.563 209.047 177.349C209.089 176.927 209.12 176.5 209.131 176.078C209.24 172.708 208.485 169.266 206.724 166.339C205.933 165.021 204.943 163.823 203.818 162.792C205.047 163.453 206.23 164.193 207.339 165.031ZM209.553 198.016C209.225 198.11 208.907 198.24 208.61 198.401L203.87 196.245C203.922 196.24 203.969 196.229 204.021 196.229L204.318 196.198C204.329 196.198 204.386 196.193 204.48 196.177C204.558 196.162 204.631 196.136 204.704 196.104C204.792 196.063 204.87 196.016 204.948 195.958C206.391 196.74 208.016 197.458 209.553 197.974C209.573 197.985 209.589 197.99 209.61 198L209.553 198.016ZM206.157 200.781C205.641 201.578 205.256 202.427 204.933 203.281C204.61 204.141 204.365 205 204.152 205.88C203.724 207.625 203.459 209.406 203.36 211.203C203.261 212.995 203.323 214.807 203.62 216.604C203.922 218.391 204.464 220.188 205.433 221.802C205.626 222.115 205.834 222.422 206.063 222.714C205.287 222.432 204.506 222.172 203.724 221.958C203.693 221.906 203.657 221.849 203.62 221.797C203.474 221.615 203.292 221.469 203.084 221.37C202.985 221.318 202.876 221.281 202.766 221.255L202.589 221.219C201.902 221.083 201.271 220.802 200.714 220.391C200.157 219.974 199.672 219.432 199.271 218.818C198.474 217.578 197.98 216.089 197.667 214.563C197.355 213.037 197.214 211.453 197.193 209.87C197.172 208.281 197.266 206.688 197.469 205.11C197.672 203.542 197.974 201.958 198.417 200.464C198.855 199.011 199.599 197.698 200.808 197.037C201.402 196.693 202.099 196.495 202.855 196.375L202.698 196.714L203.042 196.87C202.834 196.901 202.626 196.953 202.422 197.021C201.876 197.214 201.381 197.542 200.948 197.932C200.079 198.74 199.563 199.839 199.235 200.927C199.068 201.474 198.938 202.021 198.834 202.568C198.724 203.11 198.62 203.651 198.521 204.198C198.329 205.292 198.198 206.396 198.084 207.505C198.001 208.62 197.975 209.74 198.011 210.865C198.079 211.985 198.209 213.115 198.469 214.214C198.73 215.313 199.131 216.38 199.636 217.386C200.167 218.375 200.834 219.287 201.61 220.073C201.047 219.12 200.542 218.156 200.183 217.146C199.823 216.125 199.573 215.083 199.402 214.031C199.099 211.912 199.11 209.761 199.297 207.61C199.386 206.526 199.511 205.453 199.657 204.37C199.803 203.292 199.943 202.198 200.152 201.167C200.24 200.771 200.349 200.375 200.48 199.995C201.209 198.781 202.329 197.807 203.823 197.224L207.714 198.995C207.084 199.511 206.579 200.136 206.157 200.781ZM207.021 224.229C207.23 224.297 207.438 224.386 207.657 224.474C207.808 224.537 207.964 224.599 208.12 224.662C208.62 224.995 209.146 225.281 209.704 225.5C209.928 225.583 210.157 225.662 210.386 225.729L210.469 225.755C210.417 225.985 210.381 226.188 210.349 226.391L203.834 223.698L203.839 223.583L203.896 223.089C204.928 223.5 205.98 223.86 207.021 224.229ZM205.11 241.083C205.084 240.667 205.053 240.235 204.99 239.802L204.829 238.594C204.724 237.797 204.626 236.99 204.532 236.188C204.167 232.974 203.86 229.74 203.777 226.537C203.761 226.136 203.766 225.74 203.766 225.344C203.771 225.12 203.777 224.891 203.782 224.667L204.573 224.995C204.86 228.75 205.297 232.485 205.579 236.219C205.709 238.12 205.834 240.016 205.849 241.912C205.881 243.807 205.839 245.703 205.652 247.578C205.485 249.458 205.172 251.313 204.688 253.13C204.224 254.953 203.584 256.735 202.834 258.464C202.245 259.802 201.573 261.104 200.823 262.365C200.136 263.235 199.417 264.078 198.657 264.87C197.433 266.115 196.12 267.271 194.678 268.229C193.245 269.208 191.719 269.995 190.068 270.552C190.063 270.552 190.053 270.557 190.047 270.563C191.501 269.844 192.881 268.979 194.178 267.995C195.511 266.964 196.751 265.797 197.844 264.516C200.047 261.953 201.704 258.969 202.86 255.833C204.016 252.693 204.719 249.406 205.006 246.094C205.152 244.432 205.198 242.771 205.11 241.083ZM211.266 239.771C211.605 241.438 211.709 243.141 211.704 244.86C211.698 246.573 211.563 248.287 211.313 249.985C210.808 253.38 209.818 256.714 208.277 259.766C206.74 262.818 204.62 265.578 202.001 267.776C200.704 268.886 199.271 269.833 197.777 270.667C196.277 271.49 194.693 272.167 193.068 272.719C189.808 273.828 186.37 274.396 182.922 274.62C182.308 274.656 181.698 274.688 181.084 274.703C181.834 274.636 182.584 274.516 183.313 274.344C184.027 274.307 184.74 274.24 185.454 274.146C186.001 274.063 186.547 273.979 187.094 273.88L188.719 273.516C189.256 273.375 189.787 273.208 190.323 273.057L191.902 272.516L193.438 271.88C193.943 271.641 194.448 271.412 194.943 271.167L196.407 270.365C196.881 270.078 197.349 269.781 197.813 269.479C199.657 268.25 201.36 266.807 202.803 265.141C201.021 266.432 199.209 267.62 197.318 268.672C196.839 268.917 196.365 269.167 195.891 269.427L194.443 270.13C193.948 270.344 193.459 270.568 192.969 270.787L191.469 271.38L189.954 271.927C189.683 272.011 189.412 272.094 189.141 272.177C189.589 272.016 190.037 271.854 190.485 271.698C192.193 271.094 193.855 270.235 195.339 269.177C196.818 268.11 198.172 266.88 199.355 265.516C200.771 263.886 201.99 262.094 202.995 260.198C203.016 260.156 203.042 260.11 203.068 260.063C203.099 260 203.131 259.938 203.167 259.875C203.344 259.542 203.527 259.208 203.698 258.865C204.568 257.13 205.256 255.302 205.803 253.432C206.334 251.563 206.672 249.63 206.86 247.693C207.214 243.818 206.99 239.938 206.521 236.12C206.063 232.38 205.365 228.688 204.599 225.005L210.24 227.333C210.183 227.964 210.167 228.589 210.162 229.208C210.162 231 210.297 232.766 210.49 234.526C210.683 236.281 210.943 238.031 211.266 239.771ZM167.584 290.828L166.813 291.292L166.636 290.208L169.152 274.307C169.438 274.391 169.724 274.479 170.011 274.557L167.584 290.828ZM170.089 255.922C170.245 253.714 170.36 251.521 170.599 249.292C170.964 247.078 171.61 244.958 172.297 242.854C172.068 243.938 171.823 245.016 171.615 246.104C171.402 247.188 171.193 248.271 171.068 249.354L170.698 255.964C170.553 258.172 170.402 260.38 170.214 262.583C170.032 264.787 169.818 266.99 169.558 269.193C169.579 266.979 169.641 264.766 169.74 262.552C169.829 260.344 169.954 258.13 170.089 255.922ZM170.495 235.38C170.376 235.443 170.292 235.552 170.261 235.672C170.204 235.917 170.339 236.141 170.527 236.219C170.709 236.302 170.969 236.261 171.11 236.052C171.157 235.985 171.183 235.896 171.188 235.802C171.224 235.917 171.23 236.047 171.193 236.172C171.146 236.328 171.027 236.474 170.865 236.547C170.709 236.625 170.511 236.625 170.344 236.552C170.178 236.479 170.047 236.328 170.001 236.156C169.948 235.99 169.98 235.802 170.063 235.667C170.167 235.5 170.329 235.412 170.495 235.38ZM172.292 236.365C172.474 236.448 172.735 236.406 172.881 236.198C172.948 236.099 172.974 235.958 172.938 235.823C172.907 235.688 172.803 235.573 172.678 235.516C172.938 235.625 173.11 235.943 173.016 236.261C172.969 236.417 172.855 236.563 172.693 236.641C172.532 236.714 172.334 236.714 172.167 236.641C172.001 236.568 171.87 236.417 171.823 236.245C171.771 236.078 171.803 235.891 171.891 235.755C172.063 235.469 172.422 235.391 172.672 235.516C172.547 235.458 172.391 235.458 172.266 235.521C172.146 235.583 172.058 235.698 172.032 235.818C171.969 236.063 172.105 236.287 172.292 236.365ZM172.933 233.604C172.933 233.646 172.933 233.688 172.922 233.729C172.922 233.766 172.922 233.781 172.917 233.797C173.183 233.87 173.376 234.099 173.376 234.38C173.376 234.714 173.099 234.99 172.751 234.99C172.407 234.99 172.126 234.714 172.126 234.38C172.126 234.214 172.198 234.073 172.308 233.964C172.313 233.948 172.297 234.162 172.297 234.162L172.724 234.188C172.719 234.229 172.719 234.266 172.719 234.302C172.719 234.266 172.724 234.229 172.73 234.188C172.756 234.193 172.797 233.526 172.797 233.526C172.803 233.469 172.813 233.412 172.818 233.354C172.886 233.386 172.948 233.453 172.938 233.531C172.938 233.552 172.933 233.568 172.928 233.583C172.933 233.589 172.933 233.599 172.933 233.604ZM173.969 212.708C174.001 212.511 174.073 212.182 174.214 211.63C173.829 211.547 173.521 211.485 173.334 211.448L173.891 209.485C174.266 208.172 174.636 206.86 174.99 205.542C175.006 205.495 175.016 205.443 175.032 205.396C175.527 203.985 175.954 202.557 176.365 201.125C176.631 200.156 176.891 199.177 177.126 198.198C177.344 198.24 177.563 198.281 177.787 198.328C177.876 197.995 177.964 197.662 178.058 197.323C180.282 189.146 183.407 177.745 187.334 163.448C187.813 161.703 188.292 159.964 188.766 158.229C188.87 157.86 188.969 157.495 189.073 157.125C194.235 138.365 199.105 120.703 200.506 115.641C200.563 115.422 200.62 115.224 200.667 115.057C200.756 114.729 200.823 114.495 200.86 114.354C200.886 114.261 200.902 114.208 200.902 114.198L200.912 114.167L201.277 112.87C201.271 113.281 201.308 113.693 201.412 114.078L201.36 114.25L201.344 114.323C201.339 114.333 201.334 114.36 201.323 114.401C201.292 114.516 201.219 114.766 201.12 115.136C201.084 115.266 201.042 115.412 200.995 115.573C199.678 120.36 194.777 138.115 189.537 157.172C189.433 157.537 189.334 157.901 189.235 158.266C185.448 172.026 181.521 186.349 178.652 196.865C178.485 197.375 178.323 197.886 178.167 198.401C177.896 199.302 177.646 200.208 177.407 201.12C177.146 202.136 176.896 203.151 176.672 204.172C176.631 204.354 176.594 204.542 176.553 204.729L176.433 205.151C176.292 205.63 176.157 206.11 176.021 206.589C175.777 207.448 175.532 208.302 175.297 209.167L174.589 211.714L174.183 213.188C174.152 213.479 174.131 213.735 174.11 213.99C173.985 215.49 173.87 216.99 173.761 218.49L173.365 223.761L173.178 226.578L173.037 226.568L172.808 226.552L172.402 232.604C171.87 232.537 171.323 232.458 170.803 232.375C170.808 232.287 170.813 232.198 170.823 232.11C170.948 231.037 171.073 229.969 171.198 228.896L171.756 223.729L172.282 218.552C172.438 216.927 172.61 215.307 172.756 213.682C173.12 213.766 173.49 213.849 173.855 213.932L173.948 212.792C173.969 212.771 173.969 212.74 173.974 212.714L173.969 212.708ZM170.589 233.995C170.589 234.016 170.589 234.042 170.584 234.063C170.589 234.042 170.594 234.016 170.594 233.995L170.698 234C170.698 233.99 170.719 233.636 170.761 233.052C170.777 233.052 170.792 233.057 170.808 233.063C170.928 233.063 171.047 233.167 171.027 233.318C171.011 233.396 170.995 233.469 170.974 233.542C171.24 233.615 171.438 233.833 171.438 234.099C171.438 234.422 171.146 234.682 170.792 234.682C170.438 234.682 170.157 234.422 170.157 234.099C170.157 233.985 170.193 233.88 170.256 233.792C170.245 233.906 170.245 233.969 170.245 233.974L170.589 233.995ZM167.277 263.229L166.849 265.979L166.646 267.36L166.553 268.047L166.516 268.391C166.511 268.505 166.48 268.625 166.511 268.735C166.469 268.625 166.49 268.505 166.485 268.391L166.495 268.042C166.501 267.807 166.516 267.578 166.532 267.344L166.641 265.953C166.724 265.031 166.813 264.104 166.912 263.182C167.11 261.333 167.329 259.49 167.568 257.646C167.797 255.807 168.058 253.969 168.313 252.13C168.584 250.297 168.839 248.469 169.131 246.641C169.12 244.745 169.126 242.849 169.146 240.953C169.152 240.005 169.167 239.052 169.188 238.099C169.198 237.516 169.209 236.932 169.224 236.354C169.167 236.38 169.11 236.406 169.053 236.417C168.876 236.448 168.688 236.401 168.542 236.281C168.402 236.167 168.318 235.99 168.313 235.813C168.308 235.636 168.386 235.464 168.506 235.354C168.626 235.24 168.782 235.188 168.933 235.188C168.823 235.229 168.73 235.302 168.678 235.396C168.558 235.62 168.636 235.865 168.792 235.99C168.917 236.099 169.115 236.136 169.287 236.057C169.308 236.047 169.334 236.031 169.355 236.016C169.37 236.005 169.386 235.995 169.402 235.985C169.474 235.922 169.527 235.833 169.547 235.735C169.563 235.87 169.542 236.011 169.459 236.136C169.422 236.198 169.37 236.255 169.308 236.297C169.339 236.896 169.37 237.495 169.396 238.094C169.443 239.047 169.485 239.995 169.516 240.948C169.584 242.849 169.641 244.755 169.683 246.656C169.678 246.698 168.917 252.214 168.917 252.214L168.11 257.724L167.277 263.229ZM169.48 233.849C169.48 234.198 169.245 234.479 168.959 234.479C168.672 234.479 168.443 234.198 168.443 233.849C168.443 233.594 168.563 233.38 168.74 233.276C168.73 233.573 168.719 233.74 168.719 233.75L169.115 233.761C169.11 233.86 169.105 233.953 169.099 234.047C169.11 233.953 169.12 233.86 169.131 233.761L169.178 233.766C169.178 233.755 169.188 233.495 169.204 233.052C169.209 233.037 169.209 233.021 169.209 233C169.282 233.068 169.323 233.172 169.251 233.281C169.245 233.287 169.24 233.302 169.235 233.307C169.381 233.422 169.48 233.62 169.48 233.849ZM165.24 270.448C164.454 270.261 163.667 270.063 162.896 269.807C162.12 269.568 161.365 269.276 160.615 268.964C159.881 268.63 159.152 268.287 158.454 267.87C157.047 267.057 155.73 266.089 154.49 265.026C152.006 262.896 149.876 260.344 148.245 257.469C148.943 258.969 149.813 260.386 150.803 261.714C151.797 263.042 152.896 264.302 154.11 265.443C155.318 266.594 156.641 267.625 158.058 268.526C158.766 268.974 159.506 269.375 160.271 269.74C161.037 270.083 161.808 270.412 162.599 270.682C163.308 270.932 164.021 271.146 164.745 271.333C164.214 271.229 163.688 271.11 163.167 270.979C163.058 270.922 162.943 270.87 162.834 270.807L162.797 270.88C162.193 270.724 161.599 270.552 161.011 270.36C157.99 269.36 155.152 267.807 152.839 265.646C150.521 263.5 148.756 260.787 147.62 257.823C146.474 254.865 145.917 251.682 145.792 248.49C145.683 245.302 145.974 242.078 146.735 238.985C146.928 238.219 147.146 237.453 147.422 236.724C147.558 236.349 147.704 236.005 147.87 235.641C148.032 235.271 148.198 234.906 148.376 234.542C149.058 233.083 149.797 231.646 150.568 230.224L152.922 225.943C153.704 224.505 154.469 223.031 155.027 221.432C155.308 220.636 155.521 219.802 155.641 218.948C155.704 218.521 155.735 218.094 155.74 217.656V217.333C155.74 217.255 155.74 217.287 155.745 217.271C155.756 217.224 155.777 217.198 155.808 217.188C155.818 217.188 155.813 217.188 155.839 217.177L156.001 217.146C156.105 217.125 156.214 217.104 156.318 217.078C156.527 217.026 156.74 216.969 156.948 216.906C157.36 216.776 157.766 216.62 158.157 216.438C158.943 216.078 159.678 215.625 160.355 215.104C161.709 214.057 162.829 212.761 163.751 211.36C164.678 209.964 165.417 208.453 166.016 206.906C166.615 205.354 167.089 203.776 167.459 202.156C167.818 200.542 168.058 198.886 168.063 197.208C168.068 196.365 168.011 195.521 167.844 194.677C167.683 193.839 167.407 192.995 166.943 192.235C166.485 191.469 165.797 190.807 164.98 190.412C164.344 190.099 163.657 189.943 162.974 189.896C163.073 189.776 163.167 189.651 163.261 189.526C163.516 189.182 163.745 188.818 163.948 188.448C164.36 187.703 164.688 186.922 164.922 186.11C165.412 184.49 165.553 182.787 165.448 181.12C165.422 180.703 165.386 180.287 165.323 179.875L165.251 179.281C165.23 179.089 165.214 178.896 165.209 178.698C165.172 177.922 165.224 177.13 165.329 176.349C165.547 174.781 165.98 173.235 166.563 171.75C167.74 168.787 169.532 166.057 171.823 163.839C174.11 161.625 176.922 159.964 179.974 159.052C181.777 158.505 183.641 158.224 185.521 158.151C180.349 175.755 175.323 192.891 174.178 197.198C174.073 197.573 174.36 197.932 174.745 197.932L186.131 158.136L186.448 157.016L198.563 114.677L198.61 114.511C198.652 114.37 198.704 114.235 198.771 114.104C198.777 114.094 198.782 114.073 198.792 114.057L198.829 113.99L198.922 113.813L198.974 113.724C198.974 113.589 198.98 113.448 198.985 113.313C199.063 113.339 199.167 113.323 199.219 113.235C199.344 113.031 199.454 112.813 199.553 112.599C199.553 112.615 199.553 112.63 199.553 112.646L203.079 106.11L203.48 106.323L203.303 106.656L203.474 106.708L203.235 107.573C202.829 108.198 202.48 108.87 202.198 109.568L202.704 107.761L199.667 113.396C199.672 113.469 199.667 113.537 199.672 113.61C199.667 113.719 199.667 113.833 199.672 113.943C199.641 113.776 199.636 113.615 199.636 113.448L199.579 113.563C199.584 113.688 199.594 113.813 199.61 113.932L199.396 113.896L199.251 114.167L199.193 114.271C199.141 114.37 199.099 114.474 199.068 114.583C199.058 114.615 199.053 114.625 199.053 114.636L199.016 114.755L186.928 157.021L186.605 158.136L175.756 196.068C175.615 196.427 175.485 196.792 175.365 197.151C175.271 197.417 175.188 197.682 175.105 197.943C174.98 198.339 174.86 198.74 174.745 199.136C174.558 199.802 174.376 200.474 174.219 201.146C174.136 201.516 174.053 201.886 173.985 202.255C173.98 202.287 173.974 202.313 173.969 202.339C173.876 202.656 173.782 202.974 173.688 203.287C173.495 203.943 173.297 204.599 173.105 205.255L172.495 207.328L172.136 208.583C172.037 208.458 171.922 208.344 171.797 208.24C170.407 207.083 167.615 207.344 166.204 211.948C164.474 217.589 163.412 223.396 162.49 225.136C161.683 226.667 159.855 227.49 158.652 226.156C159.381 225.875 159.818 225.089 159.558 224.354C159.235 223.474 158.027 223.287 157.344 223.839C156.547 224.485 156.714 225.833 157.235 226.625C158.865 229.099 162.605 227.625 163.829 225.693C166.396 221.625 167.537 212.974 168.631 209.073C169.573 208.307 170.87 207.886 171.714 208.531C171.797 208.594 171.876 208.662 171.948 208.745C171.86 208.703 171.771 208.667 171.683 208.646C171.381 208.578 171.058 208.63 170.777 208.849C170.058 209.422 170.428 210.464 171.079 210.745C171.183 210.787 171.297 210.813 171.417 210.813C171.443 210.818 171.469 210.818 171.495 210.823L171.261 211.651L170.808 213.24L170.714 213.563C170.501 215.297 170.339 217 170.178 218.703C170.021 220.401 169.865 222.104 169.735 223.813L169.573 226.12L169.178 226.089C168.985 228.302 168.86 230.547 168.792 232.031C168.37 232.078 168.037 232.5 168.079 232.958L168.287 239.958C168.626 243.761 168.516 247.813 167.933 251.583L165.594 269.026C165.506 269.599 165.646 270.146 165.948 270.589C165.714 270.542 165.474 270.495 165.24 270.448ZM203.297 107.474L203.438 106.896L203.62 106.943L204.599 105.115L205.006 105.333L204.876 105.568C204.438 105.99 204.032 106.453 203.662 106.953C203.589 107.047 203.521 107.151 203.454 107.25C203.402 107.328 203.344 107.396 203.297 107.474ZM199.105 111.886C199.167 110.943 199.329 110 199.636 109.104C200.584 106.307 202.61 104.578 205.131 103.156C205.376 103.188 205.626 103.203 205.876 103.198C206.141 103.188 206.407 103.146 206.667 103.099C206.891 103 207.626 102.625 207.829 102.557C208.068 102.479 208.662 102.255 209.115 102.235C208.745 102.672 208.396 103.136 208.032 103.568C207.922 103.651 207.834 103.729 207.777 103.781C207.068 104.474 206.313 105.125 205.657 105.865C205.631 105.886 205.626 105.917 205.626 105.943C205.115 106.5 204.657 107.104 204.256 107.75C204.214 107.714 204.141 107.703 204.105 107.766C203.849 108.208 203.594 108.672 203.355 109.156C202.61 110.636 202.021 112.276 202.188 113.87C202.198 113.948 202.204 114.026 202.219 114.104C202.209 114.203 202.209 114.302 202.204 114.401L202.167 114.396C202.157 114.375 202.146 114.349 202.136 114.328C202.094 113.542 202.105 112.766 202.188 111.995C202.188 111.969 202.193 111.948 202.198 111.927C202.297 111.412 202.422 110.906 202.573 110.412C202.844 109.511 203.214 108.651 203.683 107.818C204.204 106.891 204.86 106 205.662 105.125C206.063 104.755 206.485 104.406 206.928 104.094L207.542 103.662L206.813 103.589C206.198 103.526 205.573 103.583 204.995 103.781C204.407 103.974 203.87 104.292 203.391 104.656C202.428 105.396 201.646 106.349 201.032 107.396C200.422 108.443 199.974 109.594 199.751 110.787C199.704 111.021 199.672 111.25 199.641 111.485C199.417 111.87 199.204 112.266 199.032 112.672C199.058 112.37 199.089 112.094 199.105 111.886ZM199.157 106.49C199.11 106.479 199.063 106.49 199.027 106.511L199.245 105.526L200.589 105.87C200.391 106.151 200.204 106.443 200.032 106.745C199.735 106.636 199.448 106.542 199.157 106.49ZM198.688 106.62L198.568 107.146L198.547 107.245L197.959 107.188L198.001 107L198.48 104.766L199.063 104.953L198.954 105.448L198.688 106.62ZM196.126 104.193C196.063 104.271 196.167 104.386 196.245 104.307C196.443 104.115 196.745 104.083 197.011 104.182C197.287 104.287 197.433 104.589 197.501 104.865C197.599 105.292 197.438 105.714 197.454 106.136C197.349 106.38 197.245 106.531 197.027 106.63C196.839 106.719 196.626 106.729 196.433 106.651L195.969 106.464C195.183 106.151 194.797 105.235 195.099 104.422C195.745 102.688 198.323 103.511 197.99 104.677C197.928 104.495 197.834 104.333 197.714 104.203C197.277 103.729 196.547 103.667 196.126 104.193ZM196.704 107.495C196.469 107.464 196.235 107.438 196.011 107.391C195.834 107.323 195.652 107.266 195.474 107.198C195.443 107.182 195.407 107.162 195.376 107.141C194.98 106.88 194.709 106.432 194.678 105.958C195.141 106.849 196.188 107.391 197.001 107.229C196.912 107.349 196.818 107.448 196.704 107.495ZM203.829 101.297C203.454 100.886 203.204 100.422 203.063 99.8126C202.933 99.2397 202.855 98.6616 202.86 98.0783C202.865 97.1564 203.068 96.2293 203.563 95.4428C204.349 94.1824 205.823 93.4168 207.308 93.6147C204.146 93.8022 202.37 99.5053 205.303 100.865C204.573 99.1876 203.813 98.0731 204.98 95.7866C205.224 95.4428 205.558 95.1824 205.933 94.9689C205.511 95.6043 205.271 96.3543 205.292 97.1043C205.303 98.2397 205.823 99.3543 206.693 100.011C206.006 99.1772 205.698 98.1199 205.766 97.1199C205.808 96.6147 205.928 96.1303 206.172 95.6981C206.407 95.2658 206.704 94.8595 207.099 94.5678C207.141 94.5366 207.178 94.5106 207.214 94.4845C206.24 95.3803 206.167 96.9012 206.391 98.1199C206.511 98.771 206.709 99.4741 207.058 100.042C207.188 100.25 208.251 101.604 208.542 101.38C207.766 101.974 206.615 102.016 205.808 101.474C205.735 101.427 205.646 101.375 205.568 101.406C205.417 101.469 205.506 101.688 205.495 101.849C205.48 102.052 205.256 102.188 205.053 102.172C204.85 102.156 204.667 102.037 204.506 101.912C204.251 101.708 204.021 101.511 203.829 101.297ZM210.105 94.9116C210.573 95.3803 210.891 95.9793 211.198 96.5678C210.933 96.3074 210.527 96.2397 210.162 96.3022C209.058 96.4845 208.709 97.4741 208.849 98.521C208.933 99.1147 209.308 99.9168 209.881 100.167C210.235 100.323 210.62 100.37 210.98 100.302C211.032 100.287 211.084 100.261 211.136 100.24C211.178 100.224 211.23 100.208 211.282 100.193C211.277 100.203 211.271 100.214 211.266 100.224C211.172 100.261 211.079 100.287 210.98 100.302C210.948 100.318 210.917 100.323 210.886 100.333L211.23 100.297C211.172 100.422 211.105 100.537 211.032 100.651C210.756 100.797 210.469 100.922 210.391 100.938C209.933 101.042 209.412 101.011 208.959 100.865C208.844 100.828 208.735 100.787 208.626 100.735C208.573 100.677 208.521 100.62 208.48 100.563C208.422 100.485 208.334 100.479 208.271 100.516C207.954 100.125 207.698 99.7137 207.615 99.5731C207.162 98.8126 206.839 97.9272 206.782 97.0314C206.657 95.1408 208.36 93.1668 210.105 94.9116ZM211.511 97.4272C210.928 97.2345 210.277 97.3491 210.079 98.0053C209.922 98.547 210.162 99.1251 210.678 99.3647C210.876 99.4533 211.105 99.4741 211.313 99.4168C211.313 99.5053 211.318 99.5887 211.323 99.6772C211.094 99.7137 210.886 99.7345 210.683 99.7189C210.667 99.7189 210.657 99.7137 210.641 99.7137C209.771 99.2553 209.282 98.3387 209.818 97.2553C209.943 97.0001 210.615 96.797 210.876 96.8283C210.969 96.8439 211.053 96.8856 211.131 96.9428C211.287 97.0678 211.402 97.271 211.511 97.4272ZM211.245 98.9741C210.714 98.9689 210.355 98.297 210.641 97.8387C210.803 97.5835 211.032 97.547 211.261 97.6303C211.876 97.8647 212.428 98.9897 211.245 98.9741ZM212.907 108.688C213.032 108.38 213.126 108.047 213.204 107.724C213.266 107.531 213.256 107.604 213.287 107.432C213.344 107.219 213.48 107.047 213.667 106.943C214.297 106.589 215.704 106.886 215.235 108.505L215.084 109.031C214.839 109.891 213.99 110.302 213.146 110.115C212.943 110.068 212.745 109.948 212.662 109.755C213.443 110.011 214.329 109.828 214.891 109.198C214.954 109.125 214.87 108.995 214.787 109.057C214.204 109.464 213.532 109.641 212.886 109.266C212.787 109.208 212.735 109.156 212.709 109.099C212.777 108.974 212.844 108.839 212.891 108.682L212.907 108.688ZM214.422 106.026L214.724 106.063C215.251 106.224 215.532 106.781 215.568 107.37C215.089 106.406 214.49 106.11 213.641 106.349C213.813 106.057 214.047 105.912 214.422 106.026ZM198.454 112.75C198.021 112.61 197.527 112.417 197.068 112.406C197.032 112.401 197.001 112.417 196.974 112.432L197.209 111.391L198.511 111.656C198.501 112.063 198.521 112.458 198.573 112.839C198.547 112.802 198.511 112.771 198.454 112.75ZM196.646 112.511L196.579 112.797C196.553 112.771 196.516 112.75 196.469 112.745C196.313 112.708 196.162 112.693 196.001 112.693L196.172 111.886L196.23 111.641L196.454 110.604L196.495 110.615L196.881 110.74L197.032 110.792L196.912 111.328L196.646 112.511ZM194.084 109.547C194.032 109.589 194.058 109.677 194.131 109.662C195.011 109.443 195.641 110.193 195.693 111.021C195.709 111.323 195.667 111.62 195.61 111.922L195.537 112.224C195.485 112.438 195.355 112.615 195.178 112.729C194.995 112.839 194.782 112.875 194.579 112.823L194.131 112.703C193.818 112.625 193.573 112.464 193.396 112.266C193.11 111.604 193.006 110.917 193.131 110.24C193.412 109.438 194.094 108.818 195.016 109.057L195.464 109.172C195.876 109.276 196.126 109.703 196.042 110.125C196.027 110.099 196.011 110.068 195.995 110.037C195.626 109.375 194.714 109.068 194.084 109.547ZM194.464 113.677L193.579 113.448C192.974 113.297 192.756 112.807 192.704 112.245C192.948 112.714 193.36 113.094 193.995 113.255L194.443 113.375C194.532 113.396 194.62 113.412 194.709 113.417C194.891 113.422 195.068 113.391 195.24 113.323C195.089 113.604 194.771 113.761 194.464 113.677ZM212.105 110.182C212.303 110.511 213.105 110.912 213.464 110.927C215.042 111 215.725 109.568 216.068 108.016C216.605 106.146 214.792 104.292 213.079 106.297L213.105 106.193L211.907 106.057L211.823 106.349L211.068 106.193C211.084 106.141 211.084 106.089 211.115 106.047C212.235 104.479 213.204 103.146 212.719 100.542C212.672 100.292 212.339 99.6928 212.157 99.271C212.131 99.1668 212.089 99.0626 212.047 98.9585C212.027 98.9116 211.995 98.8856 211.964 98.8699C212.094 98.7658 212.188 98.6147 212.235 98.4481C212.287 98.2449 212.277 98.0262 212.214 97.8231C212.152 97.6303 212.037 97.4585 211.881 97.3283C211.948 96.6408 211.516 95.8335 211.136 95.3178C210.761 94.8074 210.282 94.3751 209.714 94.1043C209.428 93.8491 209.037 93.646 208.386 93.4845C208.042 93.4012 207.527 93.4324 207.209 93.3335C204.48 92.4533 200.214 97.1772 202.954 101.297C203.058 101.448 203.172 101.589 203.303 101.724C203.501 101.938 203.719 102.136 203.943 102.302C203.933 102.276 203.922 102.245 203.907 102.219C203.922 102.224 203.933 102.24 203.943 102.245C204.073 102.328 203.704 102.708 203.844 102.771C203.855 102.833 203.855 102.896 203.855 102.958C203.006 103.333 202.198 104.063 201.599 104.656C201.339 104.917 201.105 105.193 200.886 105.474L199.365 104.995L199.422 104.75L198.573 104.479C198.605 103.073 196.308 102.245 195.099 103.412L195.094 103.386C195.089 103.391 195.084 103.401 195.079 103.412C195.063 103.406 195.047 103.406 195.037 103.422C194.61 103.849 194.219 104.521 194.136 105.172C194.027 105.557 193.995 105.99 194.152 106.5C194.511 107.724 195.506 107.735 196.006 108.016C196.652 108.271 197.376 107.927 197.62 107.266L197.641 107.208L197.589 107.458L198.782 107.573L198.865 107.219L199.683 107.427C199.652 107.495 199.615 107.557 199.584 107.63C198.995 108.755 198.646 109.938 198.542 111.083L197.334 110.833L197.391 110.583L196.563 110.323C196.751 109.563 196.313 108.802 195.599 108.62C195.37 108.594 194.527 108.151 193.568 108.75C192.428 109.458 191.964 111 192.256 112.266C192.438 113.068 192.865 113.74 193.667 114.011C194.511 114.287 195.542 114.406 195.834 113.323L196.756 113.412L196.818 113.13L198.693 113.511C198.714 113.604 198.74 113.693 198.766 113.781L198.381 113.714C198.131 113.667 197.896 113.833 197.849 114.083C197.808 114.328 197.969 114.568 198.219 114.615C197.292 118.141 191.532 137.703 185.849 157.026C183.761 157.083 181.672 157.386 179.657 158C176.448 158.979 173.485 160.745 171.094 163.089C168.698 165.422 166.844 168.281 165.631 171.38C165.027 172.932 164.579 174.552 164.36 176.214C164.245 177.047 164.198 177.891 164.24 178.745C164.245 178.958 164.266 179.172 164.287 179.386L164.37 180C164.428 180.396 164.464 180.787 164.49 181.182C164.594 182.755 164.469 184.339 164.027 185.844C163.813 186.594 163.511 187.318 163.141 188C162.954 188.339 162.745 188.672 162.521 188.985C162.297 189.287 162.037 189.604 161.797 189.833L162.402 190.521C162.402 190.516 162.402 190.787 162.402 190.787C163.162 190.792 163.912 190.927 164.558 191.255C165.209 191.578 165.735 192.099 166.11 192.735C166.49 193.37 166.724 194.104 166.86 194.865C167.001 195.62 167.047 196.406 167.032 197.193C167.006 198.776 166.761 200.36 166.396 201.917C166.032 203.474 165.558 205.016 164.974 206.5C164.386 207.979 163.667 209.412 162.787 210.719C161.912 212.026 160.86 213.219 159.626 214.156C159.011 214.625 158.349 215.021 157.657 215.339C157.308 215.495 156.948 215.625 156.584 215.74C156.407 215.797 156.219 215.844 156.037 215.886C155.943 215.912 155.849 215.922 155.761 215.943L155.62 215.969C155.542 215.985 155.443 216.011 155.355 216.047C155.006 216.182 154.719 216.474 154.589 216.833C154.558 216.922 154.532 217.016 154.521 217.11C154.506 217.193 154.511 217.323 154.506 217.349V217.636C154.495 218.016 154.464 218.396 154.407 218.776C154.292 219.531 154.099 220.281 153.834 221.016C153.308 222.49 152.563 223.912 151.787 225.323L149.396 229.583C148.61 231.021 147.844 232.474 147.136 233.953C146.959 234.323 146.787 234.698 146.615 235.068C146.443 235.443 146.266 235.854 146.126 236.245C145.829 237.042 145.599 237.844 145.391 238.656C144.594 241.896 144.287 245.224 144.396 248.547C144.521 251.865 145.099 255.198 146.308 258.333C147.506 261.469 149.391 264.386 151.876 266.688C155.521 270.099 159.954 271.854 164.792 272.807C165.813 273.271 166.839 273.557 167.902 273.912L165.704 290.193L166.131 292.766L168.407 291.401L170.896 274.781C174.865 275.761 177.912 275.198 182.995 275.813C186.506 276.24 190.073 275.052 193.469 273.927C195.167 273.365 196.823 272.667 198.407 271.823C199.98 270.964 201.49 269.974 202.87 268.813C205.652 266.516 207.917 263.615 209.553 260.417C211.204 257.219 212.256 253.745 212.808 250.214C213.073 248.443 213.209 246.656 213.219 244.87C213.219 243.974 213.193 243.078 213.12 242.182C213.084 241.729 213.037 241.281 212.98 240.833C212.948 240.604 212.912 240.38 212.876 240.156L212.756 239.495C212.141 236.104 211.662 232.641 211.62 229.219C211.62 228.365 211.646 227.511 211.761 226.698C211.787 226.495 211.823 226.292 211.865 226.104L211.907 225.912C211.928 225.802 211.933 225.688 211.922 225.578C211.907 225.36 211.834 225.141 211.709 224.958C211.594 224.771 211.422 224.62 211.23 224.516C211.136 224.464 211.011 224.422 210.938 224.401L210.792 224.36C210.599 224.307 210.407 224.24 210.224 224.172C208.719 223.615 207.469 222.49 206.615 221.089C205.751 219.682 205.235 218.052 204.938 216.38C204.646 214.708 204.568 212.99 204.646 211.271C204.73 209.557 204.969 207.844 205.365 206.172C205.761 204.505 206.287 202.844 207.178 201.438C207.626 200.735 208.167 200.104 208.829 199.662C209.157 199.438 209.511 199.266 209.876 199.162L210.027 199.12C210.089 199.099 210.162 199.078 210.224 199.052C210.36 199.005 210.485 198.943 210.599 198.87C210.834 198.724 211.042 198.542 211.204 198.307C211.37 198.073 211.501 197.787 211.511 197.458C211.516 197.297 211.495 197.125 211.438 196.974L211.323 196.667C211.193 196.292 211.11 195.896 211.073 195.485C210.99 194.672 211.058 193.828 211.193 192.99C211.475 191.313 212.016 189.662 212.615 188.031C213.214 186.401 213.902 184.797 214.521 183.146C214.672 182.729 214.823 182.307 214.954 181.875C215.016 181.662 215.079 181.443 215.131 181.214C215.157 181.099 215.178 180.979 215.198 180.865L215.245 180.531C215.376 179.646 215.438 178.75 215.422 177.854C215.407 176.057 215.079 174.266 214.454 172.578C214.146 171.735 213.761 170.917 213.308 170.146C212.87 169.36 212.344 168.63 211.787 167.932C210.657 166.547 209.35 165.313 207.922 164.25C205.407 162.37 202.579 161 199.678 159.891C199.178 159.5 198.698 159.089 198.219 158.677C197.36 157.927 196.527 157.151 195.704 156.37C195.501 156.172 195.297 155.974 195.105 155.776L194.969 155.636L194.954 155.557L194.922 155.432C194.902 155.354 194.881 155.287 194.855 155.214C194.667 154.656 194.49 154.12 194.292 153.578C194.11 153.042 193.917 152.505 193.751 151.958L201.907 118.776C202.428 118.99 203.058 118.922 203.48 118.521C203.756 118.255 203.917 117.896 204.079 117.552C204.313 117.057 204.563 116.729 205.042 116.448C205.115 116.406 205.136 116.323 205.12 116.255C205.131 116.245 205.141 116.24 205.157 116.229C205.318 116.11 205.459 115.964 205.573 115.813C205.61 115.755 205.646 115.703 205.683 115.646C205.969 115.302 206.24 114.677 206.36 114.313C206.365 114.297 206.365 114.281 206.37 114.266L208.782 115.104L208.704 115.328L209.631 115.75C209.626 115.781 209.615 115.807 209.615 115.807C209.318 116.865 210.251 117.531 211.204 117.573C212.167 117.62 213.037 116.766 213.308 115.818C213.349 115.266 213.631 114.578 213.198 113.761C212.589 112.62 211.193 112.011 210.511 113.011L209.615 112.813L209.547 113.005L207.209 112.193C207.506 111.703 207.808 111.219 208.131 110.755C208.641 110.021 209.23 109.354 209.823 108.61C209.902 108.505 210.037 108.229 210.11 108.12L211.23 108.401L211.193 108.531L212.152 108.896C211.969 110.005 212.047 110.089 212.105 110.182Z" fill="#716657"/>
</g>
<path d="M209.453 104.677C209.885 105.219 210.771 104.958 210.958 104.323C211.146 103.672 210.438 103.052 209.807 103.266C209.339 103.422 209.141 104 209.323 104.427C209.354 104.521 209.391 104.604 209.453 104.677Z" fill="#716657"/>
<path d="M208.527 99.9067C208.938 100.386 209.532 100.735 210.147 100.761C209.605 100.485 209.204 100.084 208.902 99.6202C208.605 99.1567 208.417 98.6306 208.339 98.0994C208.277 97.5733 208.329 97.0265 208.626 96.6202C208.923 96.2036 209.47 95.99 210.068 95.9015C209.777 95.8181 209.464 95.7973 209.147 95.8546C208.834 95.9119 208.516 96.0629 208.272 96.3077C208.016 96.5473 207.871 96.8702 207.787 97.1931C207.704 97.5213 207.699 97.8546 207.74 98.1775C207.824 98.8233 208.105 99.4275 208.527 99.9067Z" fill="#716657"/>
<mask id="mask5_3151_16258" style="mask-type:luminance" maskUnits="userSpaceOnUse" x="223" y="105" width="19" height="183">
<path d="M223.516 105.849H241.375V287.922H223.516V105.849Z" fill="white"/>
</mask>
<g mask="url(#mask5_3151_16258)">
<path d="M229.474 111.26C229.615 112.052 229.615 112.828 229.568 113.593C229.521 114.364 229.427 115.125 229.266 115.88C229.187 115.114 229.167 114.354 229.125 113.593C229.089 112.838 229.052 112.083 228.911 111.369C228.786 110.656 228.51 109.994 227.964 109.557C227.411 109.114 226.698 108.833 225.964 108.619C226.734 108.588 227.536 108.744 228.234 109.187C228.589 109.406 228.875 109.744 229.083 110.104C229.281 110.474 229.401 110.864 229.474 111.26ZM238.302 268.39C238.318 268.343 238.328 268.286 238.339 268.208C238.333 268.286 238.318 268.343 238.302 268.39ZM240.865 285.526C240.214 285.916 239.688 285.817 238.979 285.786L238.906 284.885C239.391 284.968 240.089 284.833 240.745 284.625L240.865 285.526ZM241.021 287.015C240.365 287.401 239.849 287.307 239.135 287.271L239.063 286.375C239.547 286.458 240.25 286.323 240.901 286.114L241.021 287.015ZM235.974 272.396C235.766 272.531 235.521 272.588 235.286 272.588C235.047 272.583 234.823 272.541 234.609 272.468C235.052 272.5 235.521 272.468 235.849 272.213C236.177 271.963 236.323 271.541 236.396 271.119C236.479 270.692 236.495 270.25 236.505 269.802C236.516 269.359 236.516 268.901 236.552 268.448C236.698 269.338 236.839 270.244 236.682 271.177C236.635 271.406 236.568 271.635 236.458 271.854C236.349 272.067 236.188 272.265 235.974 272.396ZM235.516 278.713C235.016 278.771 234.516 278.812 234.016 278.854L233.807 278.869L233.776 278.64C233.693 277.953 233.62 277.271 233.563 276.583C233.495 275.896 233.453 275.203 233.406 274.515C233.365 273.828 233.333 273.135 233.318 272.448C233.307 271.755 233.307 271.062 233.333 270.364C233.479 271.047 233.589 271.729 233.688 272.416C233.786 273.099 233.865 273.786 233.943 274.474C234.005 275.161 234.073 275.843 234.12 276.536C234.167 277.151 234.203 277.771 234.229 278.396C234.651 278.401 235.078 278.406 235.505 278.422C236.005 278.442 236.51 278.463 237.01 278.51C236.51 278.599 236.016 278.656 235.516 278.713ZM238.344 267.468C238.313 266.583 238.188 264.937 237.911 261.802C237.75 259.948 237.432 256.468 237.323 255.515L238.172 255.427L239.099 267.463L238.344 267.468ZM238.026 268.646C238.063 268.635 238.099 268.614 238.135 268.593C238.104 268.619 238.063 268.635 238.026 268.646ZM237.87 268.823C237.984 269.666 238.052 270.51 238.104 271.349C238.167 272.192 238.208 273.036 238.25 273.88C238.281 274.718 238.318 275.562 238.333 276.406C238.344 277.255 238.349 278.099 238.313 278.953C238.115 278.119 237.984 277.281 237.885 276.437C237.781 275.599 237.724 274.75 237.677 273.906C237.646 273.057 237.63 272.208 237.661 271.364C237.688 270.51 237.745 269.666 237.87 268.823ZM237.891 268.041L237.88 267.838L237.896 268.041H237.891ZM238.182 267.463L237.911 267.468C237.911 267.463 238.182 267.463 238.182 267.463ZM237.047 267.755L237.495 267.75C237.495 267.755 237.047 267.755 237.047 267.755ZM236.453 255.317C236.448 255.369 236.448 255.422 236.458 255.474C236.464 255.5 236.469 255.547 236.474 255.604C236.62 256.843 237.359 265.01 237.49 267.468C237.484 267.468 237.156 267.468 237.156 267.468L236.219 255.63L236.474 255.604C236.469 255.547 236.458 255.5 236.453 255.474C236.443 255.422 236.448 255.369 236.453 255.317ZM229.599 109.192C229.109 108.307 228.286 108.213 227.422 107.906C227.094 107.786 226.891 107.729 226.641 107.474C226.453 107.281 226.266 106.526 226.021 106.479C225.969 106.463 223.656 106.13 223.656 106.13L223.974 110.244L223.813 110.255L232.953 268.187L232.802 268.182L232.656 270.307L232.651 270.416L233.859 270.297L233.896 270.291L233.755 268.218L233.526 268.208L224.469 111.656C226 111.349 227.542 112.156 228.156 113.609C228.156 113.609 228.13 138.338 230.635 190.656C231.151 201.385 233.755 231.317 235.896 255.088C235.719 255.109 235.49 255.354 235.5 255.51L236.385 267.776C236.385 267.807 236.396 267.838 236.406 267.859L235.734 268.229L235.964 270.911C236.036 271.547 235.521 272.099 234.875 272.067C233.969 272.026 233.875 270.843 233.865 270.297L232.651 270.416L232.656 270.307C232.63 270.307 232.609 270.307 232.589 270.307L233.167 279.552L237.984 279.817L238.167 279.843C238.604 284.609 238.875 287.484 238.875 287.484C238.875 287.484 239.813 288.026 241.604 287.338C241.156 284.729 240.365 277.609 239.401 268.036C239.438 268.036 239.464 268.036 239.484 268.026C239.536 268.015 239.583 267.984 239.62 267.942C239.677 267.885 239.703 267.807 239.698 267.729L238.719 255.088C238.714 255.01 238.677 254.942 238.62 254.89C238.557 254.843 238.479 254.817 238.401 254.828L238.125 254.854L236.995 254.974C236.922 254.953 236.844 254.948 236.766 254.968C236.734 254.979 236.703 254.994 236.677 255.01L236.469 255.031L236.672 255.005C236.703 254.994 236.729 254.979 236.766 254.968C236.844 254.948 236.922 254.953 236.995 254.974L238.125 254.854C236.396 236.583 234.448 214.099 233.057 196.13C230.891 168.093 230.01 126.958 230.214 113.297C230.234 112.218 230.104 110.088 229.599 109.192Z" fill="#716657"/>
</g>
<path d="M42.957 128.797L38.0195 140.026C38.1602 139.708 38.457 139.5 38.9154 139.401C39.3633 139.292 39.8477 139.338 40.3737 139.547L64.3529 150.088C64.8529 150.338 65.2227 150.667 65.457 151.068C65.6758 151.474 65.7174 151.833 65.582 152.151L68.2695 146.026C68.1133 146.375 67.7956 146.599 67.3112 146.693C66.8372 146.776 66.3164 146.693 65.7487 146.443L57.4154 142.776L60.207 136.443C61.1237 134.307 61.5143 132.411 61.3737 130.755C61.2383 129.088 60.6862 127.651 59.7279 126.443C58.7695 125.234 57.5404 124.307 56.0404 123.651C54.4049 122.901 52.7643 122.521 51.1237 122.505C49.4883 122.495 47.9674 122.974 46.5612 123.943C45.1602 124.917 43.957 126.536 42.957 128.797ZM40.707 134.776L41.9362 131.943C42.6185 130.432 43.3685 129.255 44.1862 128.422C45.0091 127.578 45.8633 126.995 46.7487 126.672C47.6393 126.338 48.5091 126.172 49.3529 126.172C50.1862 126.172 50.957 126.271 51.6654 126.463C52.3737 126.646 52.9727 126.849 53.457 127.068C53.9466 127.276 54.2591 127.411 54.3945 127.463C54.6445 127.578 55.0612 127.797 55.6445 128.13C56.2174 128.453 56.8112 128.896 57.4362 129.463C58.0612 130.021 58.5977 130.729 59.0404 131.588C59.4727 132.437 59.7018 133.474 59.7279 134.693C59.7435 135.901 59.4102 137.307 58.7279 138.901L57.082 142.63L42.1029 136.026C41.7435 135.875 41.4466 135.687 41.207 135.463C40.9727 135.245 40.806 135.015 40.707 134.776Z" fill="#716657"/>
<path d="M54.8379 106.613C54.8535 106.587 54.89 106.55 54.9421 106.509C54.9837 106.457 55.0462 106.399 55.1296 106.342C55.3535 106.175 55.64 106.165 55.9837 106.3C56.3171 106.441 56.6712 106.728 57.0462 107.155L73.8171 128.384C74.2233 128.915 74.4681 129.462 74.5671 130.03C74.6764 130.587 74.6296 131.019 74.4212 131.321L76.5046 128.259C76.2962 128.582 75.9941 128.696 75.6087 128.613C75.2181 128.519 74.8275 128.248 74.4421 127.8L66.4629 117.675C66.1869 117.358 66.1869 116.988 66.4629 116.571L70.4629 110.738C70.6191 110.519 70.7858 110.379 70.9629 110.321C71.1296 110.254 71.3066 110.248 71.4837 110.3L83.8171 114.05C84.3848 114.233 84.7754 114.498 84.9837 114.842C85.2025 115.175 85.2129 115.504 85.0046 115.821L88.7962 110.259C88.5723 110.566 88.1816 110.774 87.6296 110.884C87.0723 110.983 86.4733 110.941 85.8379 110.759L59.9629 102.884C59.3275 102.675 58.89 102.405 58.6504 102.071C58.4004 101.738 58.39 101.405 58.6087 101.071L54.8379 106.613ZM69.9629 109.842C70.0879 109.884 70.1921 109.946 70.2754 110.03C70.3587 110.113 70.3379 110.259 70.2129 110.467L66.1296 116.446C65.9941 116.629 65.8691 116.696 65.7546 116.655C65.6452 116.603 65.5462 116.53 65.4629 116.446L57.4212 106.3C57.3379 106.165 57.2754 106.061 57.2337 105.988C57.291 105.988 57.3535 106.004 57.4212 106.03C57.4785 106.061 57.5358 106.071 57.5879 106.071L69.9629 109.842Z" fill="#716657"/>
<path d="M105.048 89.0251C104.783 89.2907 104.408 89.374 103.923 89.2751C103.434 89.1657 102.97 88.8896 102.528 88.4417L97.4651 83.2542C97.0068 82.7855 96.7411 82.3167 96.6734 81.8584C96.6161 81.4001 96.7203 81.0407 96.9859 80.7751L92.2151 85.4417C92.4651 85.1917 92.8088 85.1084 93.2568 85.1917C93.7151 85.2646 94.1578 85.4938 94.5901 85.8792L101.278 92.7126C101.637 93.1449 101.84 93.5251 101.882 93.8584C101.934 94.1917 101.903 94.5615 101.778 94.9626C101.512 95.6709 101.199 96.348 100.84 96.9834C100.491 97.624 100.111 98.1917 99.6943 98.6917C98.7463 99.7751 97.5901 100.546 96.2151 101.004C94.8401 101.452 93.3245 101.603 91.6734 101.463C90.0328 101.327 88.3713 100.879 86.6734 100.129C84.9807 99.3688 83.3557 98.3376 81.7984 97.0459C80.2568 95.7438 78.9807 94.3063 77.9651 92.7334C76.9391 91.1501 76.2151 89.5615 75.7984 87.9626C75.3818 86.3532 75.2932 84.8324 75.5276 83.4001C75.7516 81.9574 76.3401 80.7021 77.2984 79.6292C78.0797 78.7699 78.9234 78.0876 79.8401 77.5876C80.7463 77.0771 81.6266 76.7438 82.4859 76.5876C83.3505 76.4365 84.1005 76.4834 84.7359 76.7334C85.0588 76.8896 85.1838 77.1449 85.1109 77.5042C85.0276 77.8688 84.913 78.1449 84.7568 78.3376L88.3401 74.1084C88.1057 74.4417 87.6943 74.5824 87.1109 74.5251C86.3766 74.3896 85.4391 74.4417 84.2984 74.6917C83.163 74.9313 81.9599 75.4209 80.6943 76.1709C79.4338 76.9105 78.2099 77.9834 77.0276 79.4001C75.7516 80.8896 74.8505 82.5459 74.3193 84.3792C73.7932 86.2126 73.6318 88.0667 73.8401 89.9417C74.038 91.8167 74.5901 93.6292 75.5068 95.3792C76.4234 97.1188 77.6682 98.6657 79.2359 100.025C80.8193 101.358 82.5484 102.332 84.4234 102.942C86.288 103.556 88.163 103.812 90.0484 103.713C91.9495 103.619 93.7568 103.166 95.4651 102.358C97.1838 101.541 98.6786 100.379 99.9443 98.8792C100.679 98.0355 101.283 97.1449 101.757 96.2126C102.226 95.2699 102.621 94.348 102.944 93.4417C103.278 92.5407 103.601 91.7074 103.923 90.9417C104.257 90.1657 104.632 89.5251 105.048 89.0251Z" fill="#716657"/>
<path d="M99.1602 60.9222C99.1914 60.9118 99.2383 60.8962 99.306 60.8805C99.3633 60.8545 99.431 60.8337 99.5143 60.818C99.806 60.7503 100.087 60.8493 100.348 61.1097C100.598 61.3597 100.816 61.7555 100.993 62.2972L108.243 88.3805C108.395 89.0055 108.415 89.5993 108.306 90.1514C108.191 90.7087 107.978 91.0889 107.66 91.2972L110.764 89.2764C110.441 89.4847 110.118 89.4795 109.785 89.2555C109.462 89.0368 109.212 88.641 109.035 88.068L105.618 75.6305C105.483 75.2295 105.629 74.8962 106.056 74.6305L111.973 70.7764C112.207 70.641 112.415 70.5785 112.598 70.5889C112.775 70.5889 112.941 70.6514 113.098 70.7764L123.014 79.0055C123.473 79.3962 123.728 79.792 123.785 80.193C123.853 80.5837 123.728 80.8805 123.41 81.0889L129.056 77.4222C128.749 77.6305 128.311 77.6826 127.743 77.568C127.186 77.443 126.65 77.1826 126.139 76.7764L105.327 59.4847C104.827 59.042 104.53 58.6201 104.431 58.2139C104.337 57.8128 104.452 57.5003 104.785 57.2764L99.1602 60.9222ZM111.848 69.7555C111.957 69.8389 112.035 69.9378 112.077 70.0472C112.118 70.1618 112.035 70.292 111.827 70.443L105.764 74.3805C105.587 74.4951 105.452 74.5055 105.368 74.4222C105.275 74.3285 105.202 74.2243 105.16 74.1097L101.66 61.6305C101.634 61.4795 101.618 61.3597 101.618 61.2764C101.676 61.3076 101.733 61.3493 101.785 61.4014C101.827 61.443 101.863 61.4743 101.889 61.4847L111.848 69.7555Z" fill="#716657"/>
<path d="M124.126 46.8626L117.96 49.4251C117.975 49.4251 117.98 49.4251 117.98 49.4251C117.98 49.4251 117.991 49.4199 118.001 49.4043L117.918 49.446C118.267 49.3105 118.642 49.3626 119.043 49.6126C119.449 49.8626 119.772 50.2793 120.022 50.8626L129.897 74.7376C130.147 75.3105 130.22 75.8366 130.126 76.321C130.043 76.7949 129.814 77.1074 129.439 77.2585L130.73 76.7168L131.564 76.3626L132.855 75.8418C132.522 75.9824 132.158 75.9355 131.772 75.696C131.397 75.446 131.074 75.0658 130.814 74.5501L120.772 50.3835C120.762 50.3574 120.751 50.3418 120.751 50.3418C120.751 50.3314 120.746 50.3105 120.73 50.2793C120.746 50.3105 120.788 50.3314 120.855 50.3418L142.397 69.696C142.897 70.1439 143.158 70.5501 143.189 70.9251C143.215 71.2897 143.069 71.5397 142.751 71.6751L148.918 69.1543C148.387 69.3626 147.98 69.3158 147.689 69.0085C147.397 68.6908 147.126 68.3105 146.876 67.8626L136.855 43.696C136.658 43.1543 136.611 42.6647 136.71 42.2168C136.819 41.7741 137.048 41.4824 137.397 41.3418L134.001 42.7585C134.345 42.623 134.715 42.6751 135.105 42.9251C135.507 43.1751 135.835 43.5918 136.085 44.1751L145.98 68.0501C145.991 68.0658 146.007 68.0918 146.022 68.1335C146.033 68.1647 146.053 68.2064 146.085 68.2585C146.027 68.2168 145.986 68.1855 145.96 68.1543C145.928 68.1126 145.897 68.0918 145.855 68.0918L124.564 48.9668C124.038 48.4668 123.746 48.0293 123.689 47.6543C123.621 47.2793 123.767 47.0189 124.126 46.8626Z" fill="#716657"/>
<path d="M141.699 40.1393C142.033 40.0456 142.387 40.1341 142.762 40.4102C143.126 40.6914 143.397 41.0977 143.574 41.6393L150.824 66.806C150.949 67.3633 150.928 67.8581 150.762 68.2852C150.605 68.7174 150.366 68.9831 150.033 69.0768L156.449 67.2227C156.1 67.3372 155.73 67.2435 155.345 66.9518C154.97 66.6497 154.699 66.1914 154.533 65.5768L147.387 40.7435C147.194 40.1185 147.178 39.5872 147.345 39.1393C147.512 38.681 147.772 38.3997 148.116 38.2852L141.699 40.1393Z" fill="#716657"/>
<path d="M159.085 35.6689L152.481 36.7731C152.497 36.7731 152.502 36.7731 152.502 36.7731C152.502 36.7731 152.518 36.7731 152.544 36.7731L152.439 36.7939C152.814 36.7262 153.169 36.8669 153.502 37.2106C153.835 37.5439 154.054 38.0335 154.148 38.6689L158.398 64.1273C158.492 64.7523 158.445 65.2887 158.252 65.7314C158.07 66.1637 157.778 66.4137 157.377 66.4814L158.752 66.2523L159.648 66.1064L161.044 65.8564C160.679 65.9294 160.335 65.8044 160.002 65.4814C159.679 65.1637 159.45 64.7262 159.314 64.1689L155.002 38.3356C155.002 38.3096 155.002 38.2939 155.002 38.2939C155.002 38.2835 154.997 38.2627 154.981 38.2314C154.997 38.2627 155.033 38.2939 155.085 38.3356L171.71 62.0439C172.085 62.5856 172.242 63.0439 172.189 63.4189C172.148 63.7835 171.95 63.9919 171.606 64.0439L178.189 62.9814C177.632 63.0804 177.242 62.9502 177.023 62.5856C176.799 62.2106 176.617 61.7731 176.481 61.2731L172.189 35.4606C172.117 34.8929 172.179 34.4085 172.377 34.0023C172.585 33.5856 172.877 33.3512 173.252 33.2939L169.606 33.8981C169.981 33.846 170.335 33.9814 170.669 34.3148C171.002 34.6481 171.215 35.1377 171.314 35.7731L175.585 61.2314C175.585 61.2471 175.585 61.2731 175.585 61.3148C175.596 61.3564 175.611 61.4085 175.627 61.4606C175.585 61.4189 175.549 61.3773 175.523 61.3356C175.507 61.2939 175.486 61.2679 175.46 61.2523L159.023 37.8356C158.617 37.2262 158.429 36.7314 158.46 36.3564C158.486 35.971 158.695 35.7419 159.085 35.6689Z" fill="#716657"/>
<path d="M177.703 33.1032C178.052 33.0928 178.38 33.2646 178.682 33.624C178.974 33.973 179.151 34.4261 179.203 34.9782L180.578 61.124C180.578 61.7074 180.443 62.1969 180.182 62.5824C179.932 62.9574 179.63 63.1553 179.286 63.1657L185.974 62.8115C185.599 62.8428 185.255 62.6657 184.953 62.2907C184.661 61.9157 184.5 61.4105 184.474 60.7699L183.12 34.9782C183.078 34.3271 183.182 33.8011 183.432 33.3949C183.693 32.9938 184.016 32.7803 184.391 32.749L177.703 33.1032Z" fill="#716657"/>
<path d="M222.138 60.2766C222.18 60.0995 222.263 59.8807 222.388 59.6307C222.523 59.3807 222.711 59.1516 222.951 58.9432C223.185 58.7349 223.503 58.662 223.909 58.7141L217.68 56.8807C217.914 57.0214 218.143 57.2349 218.367 57.5266C218.602 57.8182 218.753 58.1411 218.826 58.4849C218.852 59.1411 218.992 59.912 219.242 60.7974C219.503 61.6724 219.93 62.563 220.513 63.4641C221.096 64.3703 221.888 65.2036 222.888 65.9849C223.898 66.7609 225.164 67.3651 226.68 67.7974C230.107 68.8391 232.909 68.9641 235.076 68.1724C237.242 67.3911 238.721 65.8078 239.513 63.4224C239.997 61.938 240.122 60.6255 239.888 59.4849C239.648 58.3495 239.185 57.3182 238.492 56.4016C237.794 55.4849 236.956 54.6464 235.971 53.8807C234.997 53.1047 234.013 52.3495 233.013 51.6099C232.023 50.8755 231.117 50.1099 230.284 49.3182C229.461 48.5266 228.831 47.662 228.388 46.7141C227.956 45.7714 227.831 44.7036 228.013 43.5057C228.206 42.438 228.602 41.5161 229.201 40.7349C229.794 39.9589 230.607 39.4224 231.638 39.1307C232.68 38.8391 233.94 38.9224 235.43 39.3807C236.273 39.662 236.997 40.1672 237.596 40.9016C238.19 41.6255 238.471 42.5578 238.43 43.6932C238.414 43.8339 238.378 44.0578 238.326 44.3599C238.284 44.6516 238.138 44.9016 237.888 45.1099C237.648 45.3078 237.227 45.3339 236.617 45.1932L242.951 47.0682C242.685 46.9172 242.43 46.6724 242.18 46.3391C241.93 46.0057 241.773 45.6307 241.721 45.2141C241.555 43.7714 240.898 42.4953 239.763 41.3807C238.622 40.2557 236.935 39.3964 234.701 38.7974C233.128 38.3391 231.622 38.2349 230.18 38.4849C228.747 38.7349 227.497 39.2245 226.43 39.9432C225.357 40.6672 224.586 41.537 224.117 42.5474C223.435 44.037 223.159 45.3599 223.284 46.5266C223.409 47.6932 223.826 48.7453 224.534 49.6724C225.253 50.6047 226.107 51.4849 227.096 52.3182C228.081 53.1411 229.096 53.938 230.138 54.7141C231.19 55.4953 232.128 56.2974 232.951 57.1307C233.768 57.9641 234.357 58.8703 234.721 59.8391C235.081 60.7974 235.055 61.8755 234.638 63.0682C234.315 64.0682 233.773 64.9745 233.013 65.7974C232.247 66.6307 231.31 67.2036 230.201 67.5266C229.102 67.8599 227.857 67.8026 226.471 67.3599C225.081 66.9016 224.039 66.2349 223.346 65.3599C222.648 64.5005 222.221 63.6047 222.055 62.6724C221.888 61.7297 221.914 60.9328 222.138 60.2766Z" fill="#716657"/>
<path d="M250.99 43.9609L249.157 47.6901C249.157 47.6901 249.282 47.5547 249.532 47.2734C249.792 46.9974 250.23 46.7266 250.844 46.4609C251.454 46.2005 252.251 46.1016 253.24 46.1693C254.24 46.2266 255.469 46.5859 256.928 47.2526L258.344 47.9609C258.511 48.4505 258.449 49.0234 258.157 49.6901L246.594 73.1901C246.313 73.6745 245.969 74.0234 245.553 74.2318C245.146 74.4401 244.792 74.4661 244.49 74.3151L250.511 77.2734C250.146 77.1068 249.928 76.7839 249.844 76.3151C249.771 75.8411 249.876 75.3151 250.157 74.7318L261.553 51.5651C261.896 50.8724 262.365 50.4297 262.949 50.2318L264.365 50.9193C265.782 51.6589 266.808 52.3984 267.449 53.1484C268.1 53.8984 268.511 54.6016 268.678 55.2526C268.844 55.8932 268.891 56.3984 268.824 56.7734C268.766 57.1484 268.74 57.3359 268.74 57.3359L270.574 53.6068L250.99 43.9609Z" fill="#716657"/>
<path d="M264.33 74.1387C263.19 75.6803 262.601 77.2793 262.56 78.9303C262.518 80.5866 262.919 82.1647 263.768 83.6803C264.612 85.1908 265.81 86.5189 267.351 87.6595C268.851 88.7533 270.419 89.4928 272.06 89.8678C273.695 90.2533 275.273 90.2116 276.789 89.7428C278.315 89.2845 279.664 88.3574 280.83 86.972C280.841 86.9408 281.06 86.6387 281.476 86.0553C281.903 85.4824 282.461 84.7324 283.143 83.8053C283.836 82.873 284.586 81.8522 285.393 80.7428C286.211 79.6491 287.023 78.5449 287.83 77.4303C288.648 76.321 289.398 75.3053 290.08 74.3887C290.757 73.4616 291.299 72.7168 291.705 72.1595C292.122 71.6074 292.33 71.3262 292.33 71.3262C292.716 70.8001 293.132 70.4616 293.58 70.3053C294.039 70.1543 294.435 70.2012 294.768 70.4512L289.33 66.4512C289.622 66.6595 289.768 66.9928 289.768 67.4512C289.778 67.9095 289.622 68.3835 289.289 68.8678L275.935 87.0345C275.211 88.0033 274.382 88.6283 273.455 88.9095C272.523 89.1855 271.549 89.1803 270.539 88.8887C269.523 88.6074 268.523 88.1074 267.539 87.3887C266.565 86.6803 265.794 85.8783 265.226 84.9928C264.669 84.1178 264.377 83.1908 264.351 82.222C264.336 81.248 264.69 80.2793 265.414 79.3053L278.685 61.2637C279.06 60.7533 279.466 60.4199 279.914 60.2637C280.372 60.1126 280.752 60.1491 281.06 60.3678L275.643 56.3887C275.945 56.6126 276.091 56.9512 276.08 57.4095C276.08 57.8574 275.919 58.321 275.601 58.8053C275.601 58.8053 275.398 59.0762 274.997 59.6178C274.591 60.1595 274.06 60.8887 273.393 61.8053C272.726 62.7116 271.987 63.7012 271.185 64.7845C270.393 65.8678 269.591 66.9616 268.789 68.0553C267.997 69.1387 267.268 70.1387 266.601 71.0553C265.935 71.9616 265.393 72.696 264.976 73.2637C264.56 73.821 264.341 74.1126 264.33 74.1387Z" fill="#716657"/>
<path d="M282.91 100.781C284.628 102.614 286.331 103.916 288.014 104.697C289.691 105.489 291.311 105.885 292.868 105.885C294.436 105.895 295.899 105.64 297.264 105.114C298.639 104.583 299.873 103.926 300.972 103.135C302.081 102.354 303.035 101.593 303.826 100.843C304.545 100.176 305.305 99.3223 306.097 98.2806C306.889 97.2389 307.566 96.041 308.139 94.6973C308.722 93.3535 309.061 91.8952 309.16 90.3223C309.253 88.7546 308.977 87.1087 308.326 85.3848C307.67 83.666 306.498 81.916 304.805 80.1348L299.201 74.1973C299.436 74.4473 299.514 74.8014 299.43 75.2598C299.357 75.7077 299.123 76.1452 298.722 76.5723L279.701 94.5514C279.285 94.9264 278.837 95.1348 278.368 95.1764C277.91 95.2285 277.561 95.1348 277.326 94.8848L282.91 100.781ZM302.993 78.7181L303.222 78.9473C304.732 80.5723 305.753 82.1452 306.285 83.6556C306.826 85.1556 307.024 86.5879 306.889 87.9473C306.764 89.3118 306.415 90.5618 305.847 91.6973C305.29 92.8379 304.665 93.8327 303.972 94.6764C303.29 95.5202 302.66 96.2181 302.076 96.7598C301.503 97.3118 301.139 97.666 300.972 97.8223C300.831 97.9577 300.462 98.291 299.868 98.8223C299.285 99.3483 298.519 99.916 297.576 100.531C296.644 101.156 295.581 101.687 294.389 102.135C293.191 102.593 291.894 102.848 290.493 102.906C289.102 102.973 287.665 102.708 286.18 102.114C284.691 101.515 283.18 100.452 281.639 98.9264C281.665 98.6608 281.748 98.3848 281.889 98.0931C282.024 97.8118 282.243 97.5358 282.535 97.2598L301.305 79.5098C301.581 79.2493 301.873 79.0462 302.18 78.9056C302.482 78.7702 302.753 78.7077 302.993 78.7181Z" fill="#716657"/>
<path d="M317.364 94.3311C317.572 94.6123 317.614 94.9717 317.489 95.4144C317.364 95.8467 317.077 96.2477 316.635 96.6227L295.593 112.227C295.135 112.529 294.666 112.685 294.197 112.685C293.739 112.685 293.406 112.545 293.197 112.269L297.176 117.644C296.952 117.336 296.911 116.956 297.051 116.498C297.202 116.05 297.536 115.633 298.051 115.248L318.801 99.8519C319.312 99.4665 319.807 99.2686 320.281 99.2686C320.765 99.2581 321.119 99.404 321.343 99.7061L317.364 94.3311Z" fill="#716657"/>
<path d="M331.683 115.984C330.751 114.275 329.527 112.853 328.017 111.713C326.501 110.562 324.819 109.744 322.975 109.254C321.142 108.77 319.251 108.64 317.308 108.859C315.36 109.067 313.465 109.671 311.621 110.671C309.814 111.661 308.288 112.916 307.038 114.442C305.788 115.973 304.86 117.64 304.267 119.442C303.668 121.244 303.439 123.093 303.579 124.984C303.73 126.885 304.272 128.692 305.204 130.4C306.147 132.135 307.371 133.572 308.871 134.713C310.381 135.848 312.058 136.655 313.892 137.129C315.735 137.614 317.642 137.744 319.6 137.525C321.558 137.301 323.439 136.697 325.246 135.713C327.09 134.713 328.631 133.447 329.871 131.921C331.105 130.405 332.022 128.744 332.621 126.942C333.215 125.15 333.444 123.306 333.308 121.421C333.168 119.53 332.626 117.723 331.683 115.984ZM331.308 116.192C332.001 117.458 332.314 118.817 332.246 120.275C332.189 121.734 331.793 123.197 331.058 124.671C330.319 126.14 329.293 127.53 327.975 128.838C326.668 130.155 325.126 131.301 323.35 132.275C321.584 133.234 319.793 133.905 317.975 134.296C316.168 134.681 314.444 134.78 312.808 134.588C311.183 134.405 309.735 133.947 308.475 133.213C307.209 132.473 306.23 131.473 305.538 130.213C304.855 128.963 304.548 127.609 304.621 126.15C304.689 124.692 305.084 123.223 305.808 121.754C306.543 120.28 307.564 118.885 308.871 117.567C310.173 116.234 311.709 115.088 313.475 114.129C315.251 113.161 317.048 112.484 318.871 112.109C320.689 111.734 322.418 111.645 324.058 111.838C325.694 112.02 327.142 112.478 328.392 113.213C329.652 113.952 330.626 114.942 331.308 116.192Z" fill="#716657"/>
<path d="M46.3535 256.459L57.8952 244.751L58.4994 246.251L49.7077 255.105L62.166 255.272L62.7702 256.751L46.3535 256.459Z" fill="#716657"/>
<path d="M55.931 274.324L55.2227 273.053L67.681 266.074L68.3893 267.345L55.931 274.324Z" fill="#716657"/>
<path d="M76.4024 291.785C77.6785 290.811 78.4337 289.519 78.6732 287.91C78.892 286.311 78.517 284.858 77.5482 283.556C76.5743 282.28 75.2878 281.524 73.6941 281.285C72.0795 281.066 70.6368 281.441 69.3607 282.41C68.0535 283.384 67.2878 284.675 67.0691 286.285C66.8295 287.894 67.1993 289.337 68.1732 290.618C69.142 291.92 70.4337 292.686 72.0482 292.91C73.642 293.128 75.0951 292.753 76.4024 291.785ZM77.2982 292.951C76.4753 293.545 75.6003 293.972 74.6732 294.222C73.7149 294.441 72.7774 294.483 71.8607 294.347C70.9128 294.233 70.017 293.931 69.1732 293.431C68.3399 292.957 67.616 292.311 67.0066 291.493C66.392 290.701 65.9753 289.832 65.7566 288.889C65.517 287.941 65.4753 286.998 65.6316 286.056C65.741 285.139 66.0378 284.259 66.5274 283.41C66.9962 282.55 67.642 281.821 68.4649 281.222C69.2566 280.613 70.1316 280.196 71.0899 279.972C72.0326 279.753 72.9753 279.701 73.9232 279.826C74.8243 279.967 75.7045 280.28 76.5691 280.764C77.4024 281.238 78.1212 281.868 78.7357 282.66C79.3451 283.483 79.7618 284.363 79.9857 285.306C80.2045 286.264 80.2618 287.201 80.1524 288.118C80.0118 289.045 79.7045 289.936 79.2357 290.785C78.7357 291.618 78.0899 292.337 77.2982 292.951Z" fill="#716657"/>
<path d="M82.5677 306.919L86.1927 310.502L85.151 311.565L81.526 307.981L81.0052 307.481L80.4844 306.961L90.5052 296.794L91.5469 297.815L82.5677 306.919Z" fill="#716657"/>
<path d="M95.6973 320.581L94.5723 319.664L103.447 308.477L104.572 309.393L95.6973 320.581Z" fill="#716657"/>
<path d="M113.487 320.363L108.008 329.342L106.758 328.592L114.674 315.634L115.549 329.571L121.029 320.613L122.279 321.363L114.383 334.28L113.487 320.363Z" fill="#716657"/>
<path d="M133.591 334.725C132.602 334.964 131.909 335.162 131.508 335.329C130.618 335.693 130.06 336.141 129.841 336.683C129.56 337.339 129.555 338.016 129.821 338.725C130.071 339.443 130.519 339.943 131.175 340.225C131.894 340.527 132.862 340.443 134.071 339.975C134.362 339.86 134.644 339.751 134.925 339.641L133.591 334.725ZM134.362 332.495C134.446 332.719 134.519 332.954 134.591 333.204C134.852 333.12 135.123 333.053 135.404 332.995C135.68 332.943 135.946 332.865 136.196 332.766C136.779 332.532 137.164 332.178 137.362 331.704C137.571 331.204 137.571 330.756 137.362 330.35C137.154 329.964 136.852 329.673 136.466 329.475C136.076 329.298 135.675 329.261 135.258 329.37C134.81 329.511 134.472 329.865 134.237 330.433C133.998 331.006 134.039 331.693 134.362 332.495ZM139.383 338.975C139.076 339.157 138.185 339.631 136.716 340.412L137.758 344.308L135.946 343.6L135.321 341.12C134.388 341.495 133.68 341.73 133.196 341.829C132.206 341.98 131.404 341.933 130.779 341.683C130.18 341.433 129.685 341.11 129.3 340.725C128.909 340.334 128.618 339.896 128.425 339.412C127.993 338.386 128.008 337.324 128.466 336.225C128.993 334.964 130.071 334.131 131.696 333.725C132.164 333.615 132.659 333.495 133.175 333.37C132.685 331.902 132.618 330.756 132.966 329.933C133.3 329.115 133.841 328.548 134.591 328.225C135.326 327.907 136.118 327.928 136.966 328.287C137.784 328.636 138.347 329.173 138.654 329.891C138.987 330.615 138.987 331.386 138.654 332.204C138.289 333.037 137.43 333.662 136.071 334.079C135.706 334.204 135.368 334.318 135.05 334.412L136.3 338.995C136.701 338.803 137.081 338.6 137.446 338.391L138.55 337.766L139.383 338.975Z" fill="#716657"/>
<path d="M155.569 350.573L152.84 334.323L154.402 334.719L156.423 347.052L163.861 337.011L165.423 337.386L155.569 350.573Z" fill="#716657"/>
<path d="M175.665 353.253L174.207 353.087L175.832 338.92L177.29 339.087L175.665 353.253Z" fill="#716657"/>
<path d="M201.78 346.873C201.748 345.264 201.155 343.894 199.988 342.769C198.821 341.644 197.425 341.097 195.8 341.123C194.186 341.154 192.821 341.759 191.696 342.936C190.571 344.102 190.019 345.493 190.05 347.102C190.092 348.727 190.696 350.102 191.863 351.227C193.03 352.352 194.415 352.904 196.03 352.873C197.655 352.847 199.03 352.243 200.155 351.061C201.28 349.894 201.821 348.498 201.78 346.873ZM203.259 346.831C203.285 347.847 203.118 348.805 202.759 349.706C202.384 350.613 201.868 351.394 201.217 352.061C200.561 352.759 199.79 353.305 198.905 353.706C198.014 354.113 197.061 354.321 196.05 354.331C195.05 354.358 194.102 354.186 193.217 353.811C192.311 353.451 191.519 352.936 190.842 352.269C190.16 351.634 189.623 350.868 189.238 349.977C188.821 349.092 188.597 348.139 188.571 347.123C188.556 346.123 188.743 345.175 189.134 344.269C189.477 343.368 189.977 342.576 190.634 341.894C191.285 341.227 192.056 340.696 192.946 340.29C193.821 339.889 194.759 339.675 195.759 339.644C196.769 339.634 197.727 339.811 198.634 340.186C199.535 340.55 200.326 341.05 201.009 341.686C201.686 342.342 202.238 343.113 202.655 343.998C203.04 344.889 203.243 345.831 203.259 346.831Z" fill="#716657"/>
<path d="M217.688 350.761L222.729 349.907L222.979 351.366L217.938 352.22L217.208 352.345L216.5 352.449L214.125 338.386L215.563 338.157L217.688 350.761Z" fill="#716657"/>
<path d="M235.859 342.811L240.797 341.249L236.38 335.749L235.859 342.811ZM245.88 345.186L244.359 345.665L241.755 342.395L235.755 344.27L235.443 348.436L233.922 348.915L235.359 332.457L245.88 345.186Z" fill="#716657"/>
<path d="M257.807 332.26C257.348 333.151 257.041 333.802 256.89 334.219C256.583 335.125 256.557 335.838 256.807 336.365C257.124 337.005 257.63 337.458 258.327 337.719C259.036 338.01 259.708 338 260.348 337.677C261.041 337.333 261.619 336.562 262.077 335.365C262.187 335.047 262.291 334.755 262.39 334.49L257.807 332.26ZM256.64 330.198C256.874 330.281 257.103 330.38 257.327 330.49C257.437 330.255 257.567 330.005 257.723 329.74C257.859 329.505 257.978 329.26 258.077 329.01C258.255 328.401 258.234 327.865 258.015 327.406C257.775 326.937 257.442 326.651 257.015 326.552C256.567 326.443 256.15 326.463 255.765 326.615C255.364 326.797 255.067 327.088 254.869 327.49C254.692 327.896 254.739 328.38 255.015 328.948C255.281 329.49 255.822 329.906 256.64 330.198ZM264.807 330.677C264.749 331.042 264.536 332.026 264.161 333.635L267.765 335.427L266.057 336.323L263.786 335.177C263.452 336.125 263.161 336.812 262.911 337.24C262.369 338.088 261.796 338.656 261.202 338.948C260.619 339.229 260.057 339.385 259.515 339.427C258.958 339.484 258.437 339.427 257.952 339.26C256.88 338.885 256.088 338.172 255.577 337.115C254.968 335.88 255.046 334.51 255.807 333.01C256.046 332.583 256.275 332.135 256.515 331.677C255.098 331.083 254.197 330.38 253.807 329.573C253.421 328.781 253.343 328 253.577 327.219C253.827 326.458 254.369 325.875 255.202 325.469C255.994 325.083 256.765 325.005 257.515 325.24C258.275 325.479 258.853 325.99 259.244 326.781C259.645 327.604 259.562 328.656 258.994 329.948C258.838 330.312 258.687 330.646 258.536 330.948L262.827 333.031C262.921 332.604 263.015 332.172 263.098 331.74L263.369 330.51L264.807 330.677Z" fill="#716657"/>
<path d="M287.715 317.2C288.059 318.648 287.991 320.055 287.507 321.43C287.007 322.82 286.163 323.94 284.986 324.784C283.372 325.94 281.575 326.325 279.59 325.95C277.648 325.591 276.09 324.596 274.924 322.971C274.356 322.169 273.96 321.284 273.736 320.325C273.528 319.409 273.481 318.487 273.59 317.555C273.882 315.57 274.835 314.002 276.445 312.846C277.627 312.002 278.95 311.555 280.424 311.513C281.882 311.502 283.226 311.898 284.465 312.7L283.132 313.638C281.684 312.93 280.205 312.836 278.695 313.346C278.195 313.544 277.684 313.825 277.153 314.2C276.627 314.575 276.169 315.091 275.778 315.742C275.419 316.409 275.189 317.107 275.09 317.825C274.84 319.383 275.184 320.815 276.111 322.117C277.028 323.398 278.273 324.18 279.84 324.471C281.408 324.794 282.83 324.492 284.111 323.575C284.986 322.95 285.616 322.148 286.007 321.159C286.408 320.2 286.533 319.2 286.382 318.159L287.715 317.2Z" fill="#716657"/>
<path d="M306.063 306.383L300.001 312.321L290.021 302.112L296.084 296.175L297.042 297.154L292.021 302.071L295.563 305.696L300.438 300.925L301.417 301.925L296.542 306.696L300.084 310.321L305.105 305.404L306.063 306.383Z" fill="#716657"/>
<path d="M314.882 294.062L318.049 290.062L319.215 290.979L316.049 294.979L315.611 295.562L315.153 296.124L303.924 287.312L304.82 286.166L314.882 294.062Z" fill="#716657"/>
<path d="M325.747 278.64L328.393 274.285L329.664 275.056L327.018 279.41L326.643 280.035L326.247 280.66L314.039 273.265L314.81 272.015L325.747 278.64Z" fill="#716657"/>
<path d="M333.835 249.486C332.351 248.876 330.856 248.876 329.356 249.486C327.856 250.1 326.793 251.152 326.168 252.652C325.543 254.142 325.538 255.632 326.148 257.132C326.762 258.632 327.809 259.689 329.293 260.298C330.793 260.939 332.293 260.954 333.793 260.34C335.304 259.73 336.377 258.684 337.002 257.194C337.627 255.694 337.627 254.194 337.002 252.694C336.387 251.194 335.335 250.126 333.835 249.486ZM334.398 248.111C335.325 248.517 336.132 249.059 336.814 249.736C337.491 250.46 338.002 251.251 338.335 252.111C338.72 253.001 338.918 253.934 338.918 254.902C338.918 255.876 338.72 256.829 338.335 257.757C337.944 258.673 337.403 259.465 336.71 260.132C336.012 260.814 335.22 261.335 334.335 261.694C333.476 262.059 332.559 262.23 331.585 262.215C330.601 262.257 329.642 262.079 328.71 261.673C327.793 261.298 327.002 260.746 326.335 260.007C325.658 259.329 325.137 258.548 324.773 257.673C324.429 256.798 324.247 255.876 324.231 254.902C324.22 253.934 324.408 252.986 324.793 252.069C325.184 251.142 325.731 250.34 326.439 249.673C327.148 248.996 327.929 248.465 328.773 248.09C329.663 247.746 330.595 247.559 331.564 247.527C332.538 247.543 333.481 247.736 334.398 248.111Z" fill="#716657"/>
</g>
<defs>
<clipPath id="clip0_3151_16258">
<rect width="386" height="386" fill="white"/>
</clipPath>
</defs>
</svg>
