<svg width="289" height="289" viewBox="0 0 289 289" fill="none" xmlns="http://www.w3.org/2000/svg">
<g clip-path="url(#clip0_927_10432)">
<mask id="mask0_927_10432" style="mask-type:luminance" maskUnits="userSpaceOnUse" x="0" y="0" width="289" height="289">
<path d="M0.48291 0.483154H288.439V288.439H0.48291V0.483154Z" fill="white"/>
</mask>
<g mask="url(#mask0_927_10432)">
<mask id="mask1_927_10432" style="mask-type:luminance" maskUnits="userSpaceOnUse" x="0" y="0" width="289" height="289">
<path d="M144.496 0.483154C64.9614 0.483154 0.48291 64.9616 0.48291 144.496C0.48291 224.035 64.9614 288.509 144.496 288.509C224.034 288.509 288.509 224.035 288.509 144.496C288.509 64.9616 224.034 0.483154 144.496 0.483154Z" fill="white"/>
</mask>
<g mask="url(#mask1_927_10432)">
<path d="M144.496 0.483154C64.9614 0.483154 0.48291 64.9617 0.48291 144.496C0.48291 224.035 64.9614 288.509 144.496 288.509C224.034 288.509 288.509 224.035 288.509 144.496C288.509 64.9617 224.034 0.483154 144.496 0.483154Z" stroke="white" stroke-opacity="0.7" stroke-width="2"/>
</g>
</g>
<mask id="mask2_927_10432" style="mask-type:luminance" maskUnits="userSpaceOnUse" x="21" y="139" width="19" height="20">
<path d="M21.2856 139.441H39.9356V158.091H21.2856V139.441Z" fill="white"/>
</mask>
<g mask="url(#mask2_927_10432)">
<path d="M30.5873 139.441C29.6781 147.103 28.9438 147.838 21.2856 148.743C21.3012 148.743 21.3167 148.747 21.3323 148.747C28.9477 149.652 29.682 150.402 30.5873 158.045C31.4926 150.382 32.227 149.648 39.889 148.743C32.227 147.838 31.4926 147.103 30.5873 139.441Z" fill="#FEFBF6" fill-opacity="0.7"/>
</g>
<mask id="mask3_927_10432" style="mask-type:luminance" maskUnits="userSpaceOnUse" x="249" y="139" width="20" height="20">
<path d="M249.833 139.441H268.483V158.091H249.833V139.441Z" fill="white"/>
</mask>
<g mask="url(#mask3_927_10432)">
<path d="M259.135 139.441C258.226 147.103 257.492 147.838 249.833 148.743C249.849 148.743 249.865 148.747 249.88 148.747C257.496 149.652 258.23 150.402 259.135 158.045C260.04 150.382 260.775 149.648 268.437 148.743C260.775 147.838 260.04 147.103 259.135 139.441Z" fill="#FEFBF6" fill-opacity="0.7"/>
</g>
<path d="M127.983 158.421C127.505 158.487 127.082 158.554 126.93 158.581L127.68 158.763L127.649 158.934C127.649 158.934 127.008 158.829 126.767 158.802C126.72 159 126.712 159.276 126.712 159.276C126.782 159.288 127.151 159.366 127.676 159.486L127.983 158.421Z" fill="white" fill-opacity="0.7"/>
<path d="M133.275 160.737L135.175 160.636V159.49C134.511 159.657 133.846 159.828 133.197 160.038C133.224 160.271 133.252 160.504 133.275 160.737Z" fill="white" fill-opacity="0.7"/>
<path d="M143.373 174.367C142.973 173.87 142.732 173.264 142.577 172.65C142.437 172.028 142.371 171.383 142.371 170.738C142.367 170.093 142.406 169.444 142.48 168.799C142.542 168.151 142.635 167.506 142.724 166.853C142.81 166.2 142.899 165.547 142.977 164.895C143.144 163.593 143.296 162.291 143.482 160.986C143.125 162.256 142.856 163.546 142.627 164.844C142.406 166.142 142.177 167.432 142.025 168.753C141.901 170.066 141.858 171.43 142.235 172.743C142.429 173.388 142.736 174.018 143.206 174.511C143.439 174.756 143.707 174.966 143.995 175.14C144.282 175.307 144.593 175.432 144.908 175.525C144.609 175.385 144.325 175.226 144.061 175.039C143.801 174.845 143.571 174.616 143.373 174.367Z" fill="white" fill-opacity="0.7"/>
<path d="M144.003 172.533C143.824 171.08 144.624 166.748 144.916 162.353C145.242 157.501 141.675 157.528 140.995 159.199C140.988 159.218 140.992 159.23 140.995 159.245C140.984 159.284 140.98 159.331 140.976 159.373C140.988 159.148 141.038 158.919 141.073 158.662C140.875 158.826 140.723 159.039 140.63 159.288C140.537 159.537 140.518 159.836 140.611 160.112C140.696 160.384 140.914 160.644 141.205 160.733C141.481 160.827 141.819 160.76 141.967 160.535C141.718 160.59 141.512 160.516 141.353 160.411C141.201 160.302 141.104 160.147 141.042 159.964C140.984 159.797 140.964 159.618 140.972 159.424C140.968 159.766 141.182 160.123 141.586 160.182C142.173 160.407 142.958 159.665 142.553 158.981C142.375 158.678 142.064 158.565 141.765 158.596C142.239 158.344 142.74 158.468 143.175 158.783C143.711 159.171 143.983 159.832 143.898 160.488C143.49 163.709 142.266 169.332 142.923 172.568C143.261 174.239 145.479 176.263 147.274 174.966C147.845 174.554 148.319 173.66 147.939 173C147.608 172.432 146.715 172.242 146.256 172.77C145.879 173.209 145.977 173.874 146.412 174.27C145.215 174.876 144.162 173.815 144.003 172.533Z" fill="white" fill-opacity="0.7"/>
<path d="M154.14 141.765C154.012 142.468 153.961 143.198 154.054 143.921C154.155 144.636 154.416 145.339 154.882 145.872C154.59 145.234 154.474 144.558 154.501 143.894C154.513 143.226 154.653 142.569 154.835 141.924C155.208 140.634 155.776 139.387 156.281 138.085C156.778 136.799 157.295 135.478 157.555 134.072C157.691 133.372 157.749 132.653 157.714 131.938C157.672 131.227 157.532 130.52 157.26 129.875C157.431 131.266 157.248 132.615 156.867 133.908C156.487 135.206 155.943 136.461 155.434 137.755C154.94 139.041 154.4 140.35 154.14 141.765Z" fill="white" fill-opacity="0.7"/>
<path d="M127.94 125.951C128.523 125.061 129.203 124.241 129.93 123.46C131.391 121.902 133.135 120.609 135.07 119.602C132.987 120.263 131.045 121.436 129.432 122.959C128.616 123.713 127.886 124.56 127.233 125.461C126.592 126.375 126.033 127.346 125.574 128.364C125.123 129.386 124.77 130.45 124.533 131.542L124.451 131.954C124.428 132.102 124.405 132.241 124.389 132.389C124.358 132.677 124.346 132.964 124.346 133.248C124.346 133.815 124.397 134.363 124.443 134.903C124.486 135.439 124.513 135.968 124.486 136.488C124.463 137.013 124.385 137.541 124.28 138.066C124.067 139.111 123.686 140.125 123.177 141.092C124.525 139.375 125.263 137.11 125.151 134.868C125.143 134.32 125.123 133.784 125.143 133.263C125.154 132.999 125.174 132.743 125.213 132.494C125.228 132.366 125.255 132.241 125.279 132.121L125.372 131.736C125.621 130.707 125.963 129.697 126.402 128.733C126.825 127.758 127.35 126.837 127.94 125.951Z" fill="white" fill-opacity="0.7"/>
<path d="M116.222 167.078C115.631 168.178 114.936 169.242 114.361 170.385C113.77 171.515 113.269 172.681 112.737 173.819L112.34 174.674L111.952 175.552C111.816 175.84 111.707 176.143 111.583 176.438L111.408 176.889L111.245 177.34C110.829 178.556 110.479 179.795 110.262 181.062C110.052 182.332 109.924 183.615 109.947 184.901C109.959 187.473 110.553 190.025 111.618 192.322C110.907 189.889 110.538 187.395 110.654 184.912C110.716 183.673 110.856 182.437 111.109 181.225C111.346 180.005 111.688 178.808 112.103 177.639L112.255 177.2L112.422 176.765C112.535 176.477 112.64 176.182 112.768 175.898L113.522 174.169C114.011 173 114.493 171.838 114.998 170.692C115.507 169.553 116.109 168.442 116.618 167.269C117.123 166.103 117.524 164.848 117.531 163.574C117.322 164.829 116.824 165.983 116.222 167.078Z" fill="white" fill-opacity="0.7"/>
<path d="M138.485 119.117C137.802 119.245 137.133 119.431 136.492 119.68C137.114 119.614 137.732 119.567 138.346 119.548C138.388 119.4 138.435 119.256 138.485 119.117Z" fill="white" fill-opacity="0.7"/>
<path d="M119.828 169.316C120.01 169.324 120.197 169.293 120.368 169.223C120.71 169.079 120.982 168.811 121.199 168.524C121.631 167.937 121.899 167.261 122.124 166.585C122.353 165.913 122.505 165.213 122.687 164.541C122.874 163.853 123.002 163.154 123.138 162.462C123.266 161.775 123.402 161.091 123.585 160.419C123.674 160.084 123.779 159.762 123.9 159.428C124.016 159.098 124.129 158.767 124.257 158.441C124.51 157.796 124.793 157.159 125.209 156.611C125.419 156.339 125.656 156.086 125.94 155.888C126.223 155.694 126.546 155.55 126.884 155.457C126.534 155.504 126.188 155.608 125.874 155.787C125.559 155.966 125.283 156.203 125.038 156.471C124.556 157.011 124.214 157.656 123.927 158.305C123.783 158.631 123.651 158.962 123.527 159.292C123.399 159.618 123.274 159.96 123.173 160.302C122.967 160.99 122.827 161.689 122.691 162.381C122.563 163.072 122.439 163.76 122.272 164.436C122.112 165.132 121.969 165.812 121.786 166.484C121.596 167.152 121.378 167.816 121.017 168.399C120.838 168.687 120.613 168.955 120.317 169.114C120.018 169.273 119.653 169.281 119.315 169.176C119.478 169.242 119.645 169.305 119.828 169.316Z" fill="white" fill-opacity="0.7"/>
<path d="M117.582 169.608C117.442 169.328 117.36 169.017 117.341 168.691C117.321 168.364 117.364 168.03 117.465 167.68C117.197 167.933 117.038 168.298 116.987 168.675C116.937 169.056 116.995 169.456 117.174 169.81C117.349 170.167 117.636 170.455 117.97 170.641C118.3 170.831 118.693 170.921 119.054 170.859C118.712 170.73 118.421 170.56 118.168 170.35C117.92 170.14 117.722 169.887 117.582 169.608Z" fill="white" fill-opacity="0.7"/>
<path d="M154.622 81.292C154.373 81.2648 154.132 81.3542 153.949 81.5135C153.934 81.5252 153.922 81.5446 153.907 81.5562C153.883 81.5796 153.86 81.599 153.841 81.6262C153.825 81.6456 153.813 81.665 153.802 81.6883C153.72 81.8088 153.666 81.9487 153.658 82.1041C153.643 82.5898 154.155 83.1687 154.672 82.9744C154.715 82.955 154.75 82.9278 154.781 82.9006C154.967 82.8229 155.111 82.6636 155.197 82.4771C155.406 82.0342 155.239 81.362 154.622 81.292Z" fill="white" fill-opacity="0.7"/>
<path d="M157.843 75.3707L157.536 75.4017C157.656 75.4134 157.749 75.4017 157.843 75.3707Z" fill="white" fill-opacity="0.7"/>
<mask id="mask4_927_10432" style="mask-type:luminance" maskUnits="userSpaceOnUse" x="108" y="70" width="54" height="149">
<path d="M108.226 70.0671H161.833V218.925H108.226V70.0671Z" fill="white"/>
</mask>
<g mask="url(#mask4_927_10432)">
<path d="M158.775 81.51L158.347 81.3507L158.437 81.036L158.658 80.2939L158.763 79.917L158.786 79.8276L159.214 79.9286L159.175 80.0646L158.775 81.51ZM155.74 80.1967C155.787 79.9442 155.903 79.8548 156.067 79.6022L158.437 80.2317L158.239 80.9116C157.364 80.7446 156.583 80.457 155.74 80.1967ZM155.251 82.7805C155.018 83.1924 154.804 83.6975 154.61 84.1326L153.961 83.9073C153.848 83.8646 153.72 83.884 153.627 83.9617C153.339 84.2026 152.97 84.222 153.195 85.2128L153.219 85.3294L153.848 85.5469C153.798 85.6169 153.743 85.6907 153.697 85.7567C153.568 85.9355 153.413 86.2696 153.292 86.3901C153.184 86.4989 153.079 86.5688 152.958 86.6115C152.776 86.495 152.574 86.4017 152.379 86.3007C152.24 86.2269 152.092 86.1414 151.936 86.087C151.909 86.0248 151.882 85.9666 151.859 85.9044C151.773 85.6518 151.719 85.376 151.703 85.104C151.742 84.8942 151.789 84.6844 151.843 84.4784C152.096 83.4838 152.465 82.5241 152.951 81.6343C153.063 81.4051 153.203 81.1914 153.327 80.9738C153.471 80.764 153.603 80.5464 153.759 80.3482C153.891 80.1579 154.038 79.9752 154.19 79.8004C154.275 79.7188 154.357 79.6372 154.443 79.5517C154.963 79.0894 155.449 78.5998 155.931 78.0908C156.152 77.8616 156.385 77.6246 156.611 77.3876C156.785 77.2166 156.984 77.0068 157.108 76.8125C157.45 76.8514 157.819 76.7193 158.087 76.5444C158.235 76.4473 158.425 76.288 158.573 76.1015C158.763 77.7217 157.947 78.5648 157.259 79.6022C156.805 79.4896 155.868 79.3225 155.868 79.3225C155.868 79.3225 155.321 79.5984 155.344 80.4765C155.344 80.5309 155.371 80.5891 155.429 80.6008L156.444 80.8611C156.463 80.8689 156.482 80.8767 156.506 80.8844C156.067 81.5022 155.573 82.1938 155.251 82.7805ZM156.7 85.2244L156.451 85.885C156.047 85.5974 155.534 85.4615 155.072 85.2827C154.563 85.0846 154.05 84.9058 153.533 84.7388C153.518 84.5056 153.592 84.4202 153.833 84.2259L156.7 85.2244ZM156.914 85.3022L157.042 84.9447L157.427 85.0302L157.446 85.0341L157.469 85.0379L157.399 85.2439L157.217 85.7839L156.918 86.6154C156.914 86.6232 156.832 86.5882 156.832 86.5882L156.498 86.4328L156.626 86.0676L156.914 85.3022ZM157.594 85.9588C157.636 85.8034 157.636 85.6674 157.757 85.578C157.92 85.4576 158.11 85.3527 158.316 85.3255C158.518 85.3022 158.728 85.3449 158.903 85.4498C158.841 85.4109 158.779 85.2788 158.724 85.2244C158.654 85.1506 158.596 85.104 158.503 85.069C158.309 84.9991 158.091 84.9913 157.885 85.0302C158.118 84.5872 158.441 84.7776 158.499 84.7776C161.394 85.6208 157.026 88.4377 157.493 86.3124L157.594 85.9588ZM158.13 87.8121C157.924 87.7344 157.702 87.75 157.504 87.6023C157.411 87.5324 157.341 87.443 157.283 87.342C157.283 87.3342 157.279 87.3226 157.275 87.3148C157.283 87.3226 157.306 87.3303 157.364 87.3498L157.737 87.4586C157.858 87.4935 157.974 87.513 158.095 87.5168C158.413 87.5324 158.709 87.4663 158.957 87.342C158.748 87.6334 158.479 87.8316 158.13 87.8121ZM152.496 87.7539C152.356 87.9947 152.271 88.2667 152.104 88.4921C151.843 88.8457 151.556 88.7913 151.225 88.7718L151.595 87.206C151.734 87.2682 151.878 87.3342 152.018 87.4003C152.123 87.4314 152.232 87.4624 152.344 87.4819C152.445 87.5013 152.554 87.5091 152.663 87.5091C152.601 87.5868 152.546 87.6723 152.496 87.7539ZM151.167 82.7922C150.95 83.1885 150.79 83.6781 150.716 84.1832L150.017 85.4848C149.998 85.5236 149.978 85.5664 149.963 85.613C149.951 85.648 149.939 85.6829 149.928 85.7179L149.908 85.7839L149.772 86.2735L149.698 86.5377L140.96 117.695L140.731 118.519L132.369 148.328C132.381 148.331 132.393 148.331 132.401 148.335C132.265 148.755 132.136 149.178 132.012 149.602C131.927 149.893 131.841 150.181 131.759 150.468C131.67 150.795 131.581 151.121 131.495 151.447C131.418 151.743 131.34 152.042 131.266 152.337C131.177 152.64 131.083 152.939 130.99 153.243C130.936 153.425 130.881 153.608 130.823 153.79C130.528 154.762 130.236 155.737 129.953 156.712L129.502 158.255L129.094 159.642C129.082 159.731 129.079 159.793 129.071 159.856C128.946 161.079 128.845 162.307 128.729 163.531L128.379 167.397L128.22 169.32L128.208 169.487L127.963 169.468C127.967 169.41 127.676 172.72 127.602 173.816C127.326 173.769 127.062 173.719 126.821 173.668C126.899 172.883 126.977 172.098 127.054 171.318L127.419 167.51L127.789 163.702L128.197 159.918L128.263 159.669C128.441 159.712 128.628 159.751 128.818 159.797C128.83 159.685 128.834 159.677 128.834 159.673L129.222 158.29C129.047 158.313 128.842 158.34 128.624 158.367L128.791 157.761C129.059 157.66 129.249 157.4 129.284 157.124C129.292 157.112 129.296 157.101 129.296 157.081C129.292 156.868 129.238 156.658 129.148 156.464L129.479 155.267L129.894 153.709C130.128 152.846 130.353 151.98 130.578 151.113C130.637 150.962 130.695 150.806 130.745 150.651C130.912 150.161 131.064 149.668 131.208 149.171C131.297 148.852 131.383 148.533 131.464 148.211C131.643 148.226 131.833 148.25 132.031 148.277L140.381 118.503L140.614 117.675L149.434 86.2113L149.496 86.0015L149.566 85.7451L149.601 85.6246C149.605 85.6013 149.617 85.578 149.625 85.5508C149.648 85.477 149.679 85.3993 149.714 85.3294L151.354 82.2793C151.288 82.4464 151.229 82.6134 151.175 82.7844C151.171 82.7883 151.167 82.7883 151.167 82.7922ZM150.981 86.9263L142.856 117.893L142.643 118.705L135.245 146.921C135.07 147.403 134.911 147.888 134.763 148.382C134.72 148.526 134.677 148.669 134.639 148.813C134.506 149.272 134.378 149.73 134.258 150.189C134.106 150.795 133.955 151.405 133.827 152.015C133.764 152.291 133.71 152.566 133.659 152.838L133.294 154.218C133.042 155.177 132.785 156.141 132.548 157.105L132.129 158.756L131.814 159.995C131.798 160.174 131.787 160.322 131.771 160.473C131.678 161.604 131.589 162.735 131.507 163.865L131.223 167.712L131.091 169.771L130.862 169.756C130.749 171.562 130.648 173.194 130.582 174.216C130.252 174.181 129.883 174.138 129.498 174.092C129.591 173.19 129.681 172.293 129.77 171.391L130.135 167.467L130.466 163.543C130.559 162.439 130.648 161.336 130.734 160.232C130.986 160.291 131.231 160.349 131.46 160.399C131.495 159.875 131.499 159.856 131.503 159.844L131.806 158.686C131.554 158.628 131.305 158.573 131.076 158.527L131.581 156.638C131.853 155.636 132.109 154.634 132.369 153.627L132.564 152.87C132.789 152.131 132.999 151.389 133.197 150.643C133.372 149.963 133.543 149.276 133.698 148.588C133.943 148.642 134.184 148.701 134.413 148.755L142.304 118.662L142.518 117.846L150.662 86.7864L150.681 86.7203L150.701 86.6387L150.751 86.4484L150.786 86.324L150.829 86.1531C150.845 86.258 150.86 86.3668 150.883 86.4717C150.887 86.5027 150.891 86.5338 150.899 86.561C150.907 86.6077 150.938 86.631 150.973 86.6387C151 86.6465 151.031 86.6465 151.058 86.631L150.981 86.9263ZM145.265 116.49L145.3 116.638L145.312 116.677C145.308 116.692 145.312 116.7 145.308 116.72C145.304 116.751 145.308 116.778 145.316 116.805C145.331 116.871 145.335 116.863 145.339 116.875C145.347 116.891 145.358 116.914 145.362 116.922C145.382 116.953 145.393 116.968 145.409 116.984L145.471 117.058L145.584 117.19C145.735 117.353 145.891 117.508 146.046 117.664C146.586 118.184 147.165 118.666 147.775 119.105C146.913 118.783 146.031 118.522 145.137 118.313C145.137 118.153 145.137 117.994 145.133 117.835C145.013 117.955 144.935 118.103 144.857 118.247C144.846 118.247 144.83 118.243 144.822 118.239C144.811 118.282 144.795 118.324 144.783 118.367C144.71 118.542 144.644 118.693 144.585 118.849C144.453 119.199 144.348 119.556 144.267 119.913C144.224 120.096 144.185 120.275 144.154 120.45C144.146 120.477 144.142 120.5 144.138 120.527C143.901 120.523 143.664 120.531 143.42 120.555L144.853 114.73C144.884 114.897 144.915 115.068 144.954 115.235C145.04 115.663 145.164 116.079 145.265 116.49ZM130.64 176.353C130.543 176.31 130.431 176.314 130.337 176.361C130.244 176.404 130.182 176.489 130.159 176.582C130.112 176.765 130.217 176.928 130.357 176.986C130.489 177.052 130.683 177.021 130.792 176.866C130.846 176.788 130.866 176.683 130.839 176.586C130.815 176.485 130.738 176.4 130.64 176.353C130.835 176.438 130.967 176.676 130.897 176.913C130.862 177.029 130.773 177.138 130.652 177.192C130.536 177.251 130.388 177.251 130.264 177.196C130.139 177.138 130.042 177.029 130.007 176.901C129.968 176.773 129.992 176.637 130.054 176.532C130.186 176.322 130.45 176.264 130.64 176.353ZM130.765 175.335C130.761 175.358 130.761 175.382 130.761 175.409C130.761 175.382 130.765 175.358 130.765 175.335L130.854 175.343C130.854 175.343 130.866 175.176 130.881 174.877C130.905 174.927 130.912 174.981 130.912 175.04C131.068 175.114 131.177 175.265 131.177 175.444C131.177 175.696 130.971 175.898 130.71 175.898C130.454 175.898 130.244 175.696 130.244 175.444C130.244 175.257 130.365 175.094 130.532 175.024C130.52 175.215 130.512 175.319 130.512 175.319L130.765 175.335ZM148.754 120.438C150.895 121.456 152.791 123.018 153.996 125.054C155.208 127.078 155.732 129.483 155.651 131.846C155.643 132.145 155.624 132.436 155.593 132.731C155.558 133.027 155.523 133.31 155.457 133.586C155.317 134.146 155.115 134.713 154.905 135.276C154.481 136.403 154.011 137.526 153.584 138.672C153.16 139.815 152.76 140.98 152.504 142.2C152.375 142.806 152.286 143.432 152.294 144.077C152.298 144.71 152.407 145.386 152.772 145.981L152.632 145.996C152.325 146.027 152.018 146.058 151.707 146.109C151.086 146.21 150.448 146.381 149.869 146.707C149.29 147.03 148.801 147.512 148.443 148.056C148.086 148.599 147.833 149.194 147.651 149.796C147.297 150.989 147.064 152.193 146.901 153.414C146.746 154.634 146.668 155.861 146.679 157.093C146.695 158.325 146.8 159.56 147.045 160.776C147.293 161.993 147.682 163.205 148.37 164.281C148.715 164.817 149.147 165.315 149.675 165.707C150.2 166.103 150.817 166.379 151.462 166.503L151.56 166.523C151.575 166.527 151.583 166.531 151.595 166.535C151.618 166.546 151.637 166.562 151.653 166.581C151.668 166.601 151.672 166.62 151.68 166.639C151.68 166.667 151.684 166.651 151.668 166.756L151.614 167.226L151.583 167.692C151.548 168.31 151.548 168.924 151.56 169.538C151.614 171.986 151.843 174.41 152.111 176.831C152.177 177.433 152.255 178.039 152.333 178.642L152.449 179.551C152.492 179.834 152.515 180.13 152.531 180.429C153.234 193.977 145.331 204.13 129.821 203.656C134.573 203.547 139.406 202.098 143.443 199.553C149.357 195.862 151.793 188.573 151.614 181.602C151.595 180.984 151.544 180.371 151.49 179.757C151.777 195.446 141.403 203.605 127.447 202.782C127.781 202.498 128.002 202.078 128.018 201.604C128.181 197.02 128.562 185.682 128.869 184.948C129.246 184.038 131.895 174.348 131.895 174.348C131.895 174.348 131.507 174.313 130.924 174.255C130.94 173.971 130.959 173.645 130.982 173.276C131.041 172.708 131.095 172.141 131.153 171.57L131.507 167.735L131.829 163.892C131.923 162.777 132.012 161.662 132.094 160.547C132.521 160.644 132.851 160.722 133.014 160.757C132.991 160.567 132.964 160.372 132.945 160.186L132.307 160.026L132.292 159.859C132.292 159.859 132.746 159.883 132.995 159.891C133.644 159.685 134.301 159.521 134.965 159.382C134.561 159.292 133.5 159.059 132.436 158.822L132.836 157.175C133.073 156.211 133.298 155.244 133.523 154.272L133.896 152.671C133.959 152.473 134.021 152.279 134.083 152.081C134.266 151.482 134.429 150.88 134.588 150.274C134.705 149.812 134.817 149.349 134.922 148.883C135.233 148.965 135.517 149.042 135.746 149.105C136.084 149.202 136.434 148.996 136.519 148.654L143.365 120.788C143.598 120.896 143.839 120.982 144.08 121.056L144.212 121.095L144.282 121.114C144.325 121.126 144.375 121.126 144.414 121.118C144.5 121.11 144.593 121.029 144.605 121.001L144.624 120.974C144.632 120.959 144.647 120.939 144.655 120.924C144.717 120.792 144.741 120.714 144.776 120.617C144.838 120.434 144.884 120.255 144.927 120.073C144.997 119.774 145.048 119.471 145.083 119.164C146.349 119.471 147.585 119.882 148.754 120.438ZM155.196 123.636C156.218 124.405 157.139 125.287 157.932 126.27C158.324 126.763 158.685 127.28 158.992 127.828C159.307 128.372 159.571 128.943 159.781 129.53C160.212 130.707 160.43 131.958 160.438 133.209C160.442 133.835 160.395 134.464 160.302 135.086L160.263 135.319C160.255 135.393 160.24 135.459 160.224 135.529C160.189 135.673 160.15 135.82 160.104 135.968C160.014 136.263 159.905 136.566 159.793 136.862C159.334 138.066 158.81 139.267 158.347 140.502C157.889 141.742 157.458 143.004 157.224 144.353C157.112 145.025 157.05 145.724 157.116 146.443C157.151 146.801 157.217 147.166 157.341 147.523C157.353 147.566 157.376 147.613 157.392 147.655C157.399 147.675 157.407 147.702 157.415 147.725C157.291 147.667 157.166 147.605 157.042 147.547C156.614 147.088 155.826 146.96 155.266 146.7C154.753 146.463 154.252 146.194 153.743 145.95C153.728 145.818 153.665 145.674 153.599 145.581L153.553 145.511C153.312 145.13 153.207 144.613 153.203 144.069C153.195 143.521 153.273 142.95 153.39 142.383C153.627 141.244 154.011 140.11 154.427 138.987C154.843 137.856 155.305 136.741 155.736 135.587C155.95 135.008 156.16 134.429 156.319 133.792C156.354 133.637 156.389 133.458 156.412 133.299C156.436 133.139 156.455 132.984 156.471 132.825C156.502 132.51 156.525 132.191 156.533 131.877C156.614 129.363 156.051 126.795 154.738 124.611C154.147 123.628 153.409 122.734 152.57 121.965C153.487 122.458 154.369 123.01 155.196 123.636ZM156.848 148.242C156.603 148.312 156.366 148.409 156.144 148.53L152.609 146.921C152.647 146.917 152.682 146.909 152.721 146.909L152.943 146.886C152.951 146.886 152.993 146.882 153.063 146.87C153.121 146.859 153.176 146.839 153.23 146.816C153.296 146.785 153.355 146.75 153.413 146.707C154.489 147.29 155.701 147.826 156.848 148.211C156.863 148.219 156.875 148.223 156.89 148.23L156.848 148.242ZM154.314 150.305C153.93 150.9 153.642 151.533 153.401 152.17C153.16 152.811 152.978 153.452 152.818 154.109C152.5 155.411 152.302 156.739 152.228 158.08C152.154 159.416 152.201 160.769 152.422 162.109C152.647 163.442 153.052 164.782 153.774 165.987C153.918 166.22 154.073 166.449 154.244 166.667C153.665 166.457 153.083 166.263 152.5 166.103C152.477 166.064 152.449 166.022 152.422 165.983C152.313 165.847 152.177 165.738 152.022 165.664C151.948 165.625 151.867 165.598 151.785 165.579L151.653 165.552C151.14 165.451 150.67 165.241 150.254 164.934C149.838 164.623 149.477 164.219 149.178 163.76C148.583 162.836 148.214 161.724 147.981 160.586C147.748 159.448 147.643 158.266 147.628 157.085C147.612 155.9 147.682 154.711 147.833 153.534C147.985 152.364 148.21 151.183 148.541 150.068C148.867 148.984 149.423 148.005 150.324 147.512C150.767 147.255 151.288 147.107 151.851 147.018L151.734 147.271L151.991 147.387C151.835 147.411 151.68 147.449 151.528 147.5C151.121 147.644 150.751 147.888 150.429 148.18C149.78 148.782 149.395 149.602 149.151 150.414C149.026 150.822 148.929 151.23 148.851 151.638C148.77 152.042 148.692 152.446 148.618 152.854C148.475 153.67 148.377 154.494 148.292 155.321C148.23 156.153 148.21 156.988 148.238 157.827C148.288 158.663 148.385 159.506 148.579 160.326C148.774 161.146 149.073 161.942 149.45 162.692C149.846 163.43 150.343 164.11 150.922 164.697C150.503 163.986 150.126 163.267 149.858 162.513C149.59 161.752 149.403 160.975 149.275 160.19C149.05 158.608 149.057 157.004 149.197 155.399C149.263 154.591 149.357 153.79 149.465 152.982C149.574 152.178 149.679 151.362 149.834 150.593C149.9 150.297 149.982 150.002 150.079 149.718C150.623 148.813 151.459 148.087 152.574 147.651L155.476 148.972C155.006 149.357 154.629 149.823 154.314 150.305ZM154.959 167.797C155.115 167.848 155.27 167.914 155.433 167.98C155.546 168.027 155.663 168.073 155.779 168.12C156.152 168.368 156.545 168.582 156.96 168.745C157.127 168.808 157.298 168.866 157.469 168.916L157.531 168.936C157.493 169.107 157.465 169.258 157.442 169.41L152.581 167.401L152.585 167.316L152.628 166.946C153.397 167.253 154.182 167.521 154.959 167.797ZM153.533 180.371C153.514 180.06 153.491 179.737 153.444 179.415L153.324 178.513C153.246 177.919 153.172 177.317 153.102 176.718C152.83 174.321 152.601 171.908 152.539 169.519C152.527 169.219 152.531 168.924 152.531 168.629C152.535 168.462 152.539 168.291 152.543 168.124L153.133 168.368C153.347 171.17 153.673 173.956 153.883 176.742C153.98 178.16 154.073 179.574 154.085 180.988C154.108 182.403 154.077 183.817 153.937 185.216C153.813 186.618 153.58 188.002 153.219 189.358C152.873 190.717 152.395 192.046 151.835 193.336C151.396 194.335 150.895 195.306 150.336 196.246C149.823 196.895 149.287 197.525 148.719 198.115C147.806 199.044 146.827 199.906 145.751 200.621C144.682 201.352 143.544 201.938 142.312 202.354C142.308 202.354 142.301 202.358 142.297 202.362C143.381 201.826 144.41 201.181 145.378 200.446C146.373 199.677 147.297 198.807 148.113 197.851C149.757 195.939 150.992 193.713 151.855 191.374C152.717 189.031 153.242 186.579 153.456 184.108C153.564 182.869 153.599 181.629 153.533 180.371ZM158.126 179.391C158.378 180.635 158.456 181.905 158.452 183.187C158.448 184.466 158.347 185.744 158.161 187.011C157.784 189.544 157.046 192.031 155.896 194.308C154.749 196.584 153.168 198.644 151.214 200.283C150.246 201.111 149.178 201.818 148.063 202.44C146.944 203.054 145.763 203.559 144.55 203.971C142.118 204.798 139.554 205.222 136.981 205.389C136.523 205.416 136.068 205.439 135.61 205.451C136.169 205.4 136.729 205.311 137.273 205.183C137.805 205.156 138.337 205.105 138.87 205.035C139.278 204.973 139.686 204.911 140.094 204.837L141.306 204.565C141.706 204.46 142.102 204.336 142.503 204.223L143.68 203.819L144.826 203.345C145.203 203.166 145.58 202.995 145.949 202.813L147.041 202.214C147.394 202.001 147.744 201.779 148.09 201.554C149.465 200.637 150.736 199.561 151.812 198.317C150.483 199.281 149.131 200.167 147.721 200.952C147.363 201.134 147.01 201.321 146.656 201.515L145.576 202.04C145.207 202.199 144.842 202.366 144.476 202.529L143.357 202.972L142.227 203.38C142.025 203.442 141.823 203.504 141.621 203.566C141.955 203.446 142.289 203.326 142.623 203.209C143.898 202.758 145.137 202.117 146.244 201.328C147.348 200.532 148.358 199.615 149.24 198.597C150.297 197.381 151.206 196.044 151.956 194.63C151.971 194.599 151.991 194.564 152.01 194.529C152.034 194.482 152.057 194.436 152.084 194.389C152.216 194.14 152.352 193.892 152.48 193.635C153.129 192.342 153.642 190.978 154.05 189.583C154.446 188.188 154.699 186.747 154.839 185.301C155.103 182.41 154.936 179.516 154.586 176.668C154.244 173.878 153.724 171.123 153.153 168.376L157.36 170.113C157.318 170.583 157.306 171.049 157.302 171.512C157.302 172.848 157.403 174.166 157.547 175.479C157.691 176.788 157.885 178.094 158.126 179.391ZM125.539 217.48L124.964 217.826L124.832 217.018L126.708 205.156C126.922 205.218 127.136 205.284 127.35 205.342L125.539 217.48ZM127.408 191.44C127.524 189.793 127.61 188.157 127.789 186.494C128.061 184.843 128.542 183.261 129.055 181.692C128.884 182.5 128.702 183.304 128.546 184.116C128.387 184.924 128.232 185.732 128.138 186.541L127.862 191.471C127.754 193.119 127.641 194.766 127.501 196.41C127.365 198.053 127.206 199.697 127.011 201.34C127.027 199.689 127.074 198.038 127.147 196.386C127.214 194.739 127.307 193.088 127.408 191.44ZM127.711 176.116C127.621 176.163 127.559 176.244 127.536 176.334C127.493 176.516 127.594 176.683 127.734 176.742C127.87 176.804 128.064 176.773 128.169 176.617C128.204 176.567 128.224 176.501 128.228 176.431C128.255 176.516 128.259 176.613 128.232 176.707C128.197 176.823 128.107 176.932 127.987 176.986C127.87 177.045 127.723 177.045 127.598 176.99C127.474 176.936 127.377 176.823 127.342 176.695C127.303 176.571 127.326 176.431 127.388 176.33C127.466 176.205 127.587 176.139 127.711 176.116ZM129.051 176.85C129.187 176.913 129.382 176.881 129.49 176.726C129.541 176.652 129.56 176.547 129.533 176.446C129.51 176.345 129.432 176.26 129.339 176.217C129.533 176.299 129.661 176.536 129.591 176.773C129.556 176.889 129.471 176.998 129.351 177.056C129.23 177.111 129.082 177.111 128.958 177.056C128.834 177.002 128.737 176.889 128.702 176.761C128.663 176.637 128.686 176.497 128.752 176.396C128.88 176.182 129.148 176.124 129.335 176.217C129.242 176.174 129.125 176.174 129.032 176.221C128.943 176.268 128.876 176.353 128.857 176.442C128.81 176.625 128.911 176.792 129.051 176.85ZM129.529 174.791C129.529 174.822 129.529 174.853 129.521 174.884C129.521 174.912 129.521 174.923 129.518 174.935C129.716 174.989 129.859 175.16 129.859 175.37C129.859 175.619 129.654 175.825 129.393 175.825C129.137 175.825 128.927 175.619 128.927 175.37C128.927 175.246 128.981 175.141 129.063 175.059C129.067 175.048 129.055 175.207 129.055 175.207L129.374 175.226C129.37 175.257 129.37 175.285 129.37 175.312C129.37 175.285 129.374 175.257 129.378 175.226C129.397 175.23 129.428 174.733 129.428 174.733C129.432 174.69 129.44 174.647 129.444 174.605C129.494 174.628 129.541 174.678 129.533 174.737C129.533 174.752 129.529 174.764 129.525 174.776C129.529 174.779 129.529 174.787 129.529 174.791ZM130.302 159.203C130.326 159.055 130.38 158.81 130.485 158.399C130.198 158.336 129.968 158.29 129.828 158.263L130.244 156.798C130.524 155.819 130.8 154.839 131.064 153.856C131.076 153.821 131.083 153.783 131.095 153.748C131.464 152.695 131.783 151.63 132.09 150.562C132.288 149.839 132.482 149.108 132.657 148.378C132.82 148.409 132.983 148.44 133.15 148.475C133.216 148.226 133.283 147.978 133.352 147.725C135.012 141.625 137.343 133.12 140.272 122.455C140.63 121.153 140.987 119.855 141.341 118.561C141.419 118.285 141.492 118.013 141.57 117.738C145.421 103.742 149.053 90.5669 150.099 86.7903C150.141 86.6271 150.184 86.4794 150.219 86.3551C150.285 86.1103 150.336 85.9355 150.363 85.8306C150.382 85.7606 150.394 85.7218 150.394 85.714L150.402 85.6907L150.674 84.7232C150.67 85.0302 150.697 85.3371 150.775 85.6246L150.736 85.7529L150.724 85.8073C150.72 85.815 150.716 85.8345 150.709 85.8655C150.685 85.951 150.631 86.1375 150.557 86.4134C150.53 86.5105 150.499 86.6193 150.464 86.7398C149.481 90.3105 145.825 103.556 141.916 117.773C141.838 118.045 141.764 118.317 141.691 118.589C138.866 128.854 135.936 139.539 133.795 147.383C133.671 147.764 133.551 148.145 133.434 148.53C133.232 149.202 133.046 149.878 132.867 150.558C132.673 151.315 132.486 152.073 132.319 152.835C132.288 152.971 132.261 153.11 132.23 153.25L132.14 153.565C132.035 153.923 131.934 154.28 131.833 154.637C131.651 155.279 131.468 155.916 131.293 156.561L130.765 158.461L130.462 159.56C130.438 159.778 130.423 159.968 130.407 160.159C130.314 161.278 130.229 162.397 130.147 163.516L129.852 167.448L129.712 169.55L129.607 169.542L129.436 169.53L129.133 174.045C128.737 173.995 128.329 173.936 127.94 173.874C127.944 173.808 127.948 173.742 127.956 173.676C128.049 172.876 128.142 172.079 128.235 171.279L128.651 167.424L129.044 163.562C129.16 162.35 129.288 161.142 129.397 159.929C129.669 159.992 129.945 160.054 130.217 160.116L130.287 159.265C130.302 159.249 130.302 159.226 130.306 159.207L130.302 159.203ZM127.781 175.082C127.781 175.098 127.781 175.117 127.777 175.133C127.781 175.117 127.785 175.098 127.785 175.082L127.862 175.086C127.862 175.079 127.878 174.814 127.909 174.379C127.921 174.379 127.932 174.383 127.944 174.387C128.033 174.387 128.123 174.465 128.107 174.577C128.096 174.636 128.084 174.69 128.068 174.744C128.266 174.799 128.414 174.962 128.414 175.16C128.414 175.401 128.197 175.595 127.932 175.595C127.668 175.595 127.458 175.401 127.458 175.16C127.458 175.075 127.486 174.997 127.532 174.931C127.524 175.016 127.524 175.063 127.524 175.067L127.781 175.082ZM125.31 196.891L124.991 198.943L124.84 199.972L124.77 200.485L124.742 200.742C124.739 200.827 124.715 200.917 124.739 200.998C124.707 200.917 124.723 200.827 124.719 200.742L124.727 200.481C124.731 200.307 124.742 200.136 124.754 199.961L124.836 198.923C124.898 198.236 124.964 197.544 125.038 196.856C125.185 195.477 125.349 194.102 125.527 192.726C125.698 191.355 125.892 189.983 126.083 188.612C126.285 187.244 126.475 185.88 126.693 184.516C126.685 183.102 126.689 181.688 126.705 180.273C126.708 179.566 126.72 178.855 126.736 178.144C126.743 177.709 126.751 177.274 126.763 176.843C126.72 176.862 126.677 176.881 126.635 176.889C126.502 176.913 126.363 176.878 126.254 176.788C126.149 176.703 126.087 176.571 126.083 176.438C126.079 176.306 126.137 176.178 126.227 176.097C126.316 176.011 126.433 175.972 126.545 175.972C126.464 176.003 126.394 176.058 126.355 176.128C126.265 176.295 126.324 176.477 126.44 176.571C126.534 176.652 126.681 176.679 126.809 176.621C126.825 176.613 126.844 176.602 126.86 176.59C126.872 176.582 126.883 176.574 126.895 176.567C126.949 176.52 126.988 176.454 127.004 176.38C127.015 176.481 127 176.586 126.938 176.679C126.91 176.726 126.872 176.769 126.825 176.8C126.848 177.247 126.872 177.693 126.891 178.14C126.926 178.851 126.957 179.558 126.98 180.27C127.031 181.688 127.074 183.11 127.105 184.528C127.101 184.559 126.534 188.674 126.534 188.674L125.931 192.784L125.31 196.891ZM126.953 174.974C126.953 175.234 126.778 175.444 126.565 175.444C126.351 175.444 126.18 175.234 126.18 174.974C126.18 174.783 126.269 174.624 126.401 174.546C126.394 174.768 126.386 174.892 126.386 174.9L126.681 174.908C126.677 174.981 126.673 175.051 126.67 175.121C126.677 175.051 126.685 174.981 126.693 174.908L126.728 174.912C126.728 174.904 126.736 174.709 126.747 174.379C126.751 174.368 126.751 174.356 126.751 174.34C126.806 174.391 126.837 174.469 126.782 174.55C126.778 174.554 126.774 174.566 126.771 174.57C126.879 174.655 126.953 174.803 126.953 174.974ZM123.79 202.277C123.204 202.137 122.617 201.989 122.042 201.799C121.463 201.62 120.9 201.402 120.34 201.169C119.792 200.921 119.248 200.664 118.728 200.353C117.679 199.747 116.696 199.024 115.771 198.232C113.918 196.643 112.328 194.739 111.112 192.594C111.633 193.713 112.282 194.77 113.02 195.761C113.762 196.751 114.582 197.692 115.487 198.543C116.389 199.401 117.376 200.171 118.432 200.843C118.961 201.177 119.513 201.476 120.084 201.748C120.655 202.005 121.23 202.249 121.821 202.451C122.349 202.638 122.881 202.797 123.421 202.937C123.025 202.859 122.633 202.77 122.244 202.673C122.162 202.63 122.077 202.591 121.995 202.545L121.968 202.599C121.518 202.482 121.075 202.354 120.636 202.21C118.382 201.464 116.264 200.307 114.539 198.694C112.81 197.093 111.493 195.069 110.646 192.858C109.791 190.651 109.376 188.277 109.282 185.896C109.201 183.518 109.418 181.113 109.986 178.805C110.129 178.234 110.293 177.662 110.498 177.118C110.599 176.839 110.708 176.582 110.833 176.31C110.953 176.034 111.077 175.762 111.209 175.49C111.718 174.403 112.27 173.33 112.845 172.269L114.601 169.076C115.184 168.003 115.755 166.904 116.171 165.711C116.381 165.116 116.54 164.495 116.63 163.858C116.676 163.539 116.7 163.22 116.703 162.894V162.653C116.703 162.595 116.703 162.618 116.707 162.606C116.715 162.571 116.731 162.552 116.754 162.544C116.762 162.544 116.758 162.544 116.777 162.536L116.898 162.513C116.975 162.498 117.057 162.482 117.135 162.463C117.29 162.424 117.449 162.381 117.605 162.334C117.912 162.237 118.215 162.121 118.506 161.985C119.093 161.717 119.641 161.379 120.146 160.99C121.156 160.209 121.992 159.242 122.679 158.196C123.371 157.155 123.923 156.028 124.369 154.874C124.816 153.717 125.17 152.539 125.446 151.331C125.714 150.126 125.892 148.891 125.896 147.64C125.9 147.01 125.858 146.381 125.733 145.751C125.613 145.126 125.407 144.496 125.061 143.929C124.719 143.358 124.206 142.865 123.596 142.569C123.122 142.336 122.609 142.22 122.1 142.185C122.174 142.095 122.244 142.002 122.314 141.909C122.504 141.652 122.675 141.38 122.827 141.105C123.134 140.549 123.379 139.966 123.553 139.36C123.919 138.152 124.024 136.881 123.946 135.638C123.926 135.327 123.899 135.016 123.853 134.709L123.798 134.266C123.783 134.122 123.771 133.979 123.767 133.831C123.74 133.252 123.779 132.662 123.857 132.079C124.02 130.909 124.342 129.755 124.777 128.648C125.655 126.437 126.992 124.401 128.702 122.746C130.407 121.095 132.505 119.855 134.782 119.175C136.127 118.767 137.518 118.557 138.92 118.503C135.062 131.636 131.313 144.419 130.458 147.632C130.38 147.912 130.594 148.18 130.881 148.18L139.375 118.491L139.612 117.656L148.649 86.0715L148.684 85.9471C148.715 85.8422 148.754 85.7412 148.805 85.6441C148.809 85.6363 148.813 85.6208 148.82 85.6091L148.848 85.5586L148.917 85.4265L148.956 85.3604C148.956 85.2594 148.96 85.1545 148.964 85.0535C149.022 85.0729 149.1 85.0613 149.139 84.9952C149.232 84.8437 149.314 84.6805 149.388 84.5212C149.388 84.5328 149.388 84.5445 149.388 84.5562L152.018 79.68L152.317 79.8393L152.185 80.0879L152.313 80.1268L152.135 80.7718C151.832 81.238 151.571 81.7392 151.361 82.2599L151.738 80.9116L149.473 85.1157C149.477 85.17 149.473 85.2206 149.477 85.275C149.473 85.3566 149.473 85.442 149.477 85.5236C149.454 85.3993 149.45 85.2788 149.45 85.1545L149.407 85.24C149.411 85.3332 149.419 85.4265 149.43 85.5159L149.271 85.4887L149.162 85.6907L149.12 85.7684C149.081 85.8422 149.05 85.9199 149.026 86.0015C149.018 86.0248 149.015 86.0326 149.015 86.0404L148.987 86.1297L139.969 117.66L139.728 118.491L131.635 146.789C131.53 147.057 131.433 147.329 131.344 147.597C131.274 147.795 131.212 147.993 131.149 148.188C131.056 148.483 130.967 148.782 130.881 149.077C130.741 149.575 130.605 150.076 130.489 150.577C130.427 150.853 130.365 151.129 130.314 151.405C130.31 151.428 130.306 151.447 130.302 151.467C130.232 151.704 130.163 151.941 130.093 152.174C129.949 152.664 129.801 153.153 129.657 153.643L129.203 155.189L128.935 156.126C128.861 156.032 128.775 155.947 128.682 155.869C127.645 155.007 125.562 155.201 124.509 158.636C123.219 162.843 122.427 167.176 121.739 168.473C121.137 169.616 119.773 170.23 118.875 169.235C119.419 169.025 119.746 168.438 119.551 167.891C119.311 167.234 118.409 167.094 117.9 167.506C117.306 167.988 117.43 168.994 117.819 169.585C119.035 171.43 121.824 170.331 122.738 168.889C124.653 165.855 125.504 159.401 126.32 156.491C127.023 155.92 127.991 155.605 128.62 156.087C128.682 156.133 128.74 156.184 128.795 156.246C128.729 156.215 128.663 156.188 128.597 156.172C128.371 156.122 128.13 156.161 127.921 156.324C127.384 156.751 127.66 157.528 128.146 157.738C128.224 157.769 128.309 157.788 128.399 157.788C128.418 157.792 128.437 157.792 128.457 157.796L128.282 158.414L127.944 159.599L127.874 159.84C127.715 161.134 127.594 162.404 127.474 163.675C127.357 164.942 127.241 166.212 127.144 167.486L127.023 169.208L126.728 169.184C126.584 170.836 126.491 172.51 126.44 173.618C126.126 173.653 125.877 173.967 125.908 174.309L126.063 179.531C126.316 182.368 126.234 185.391 125.799 188.204L124.055 201.216C123.989 201.643 124.094 202.051 124.319 202.381C124.144 202.346 123.965 202.311 123.79 202.277ZM152.181 80.6979L152.286 80.2667L152.422 80.3016L153.153 78.9378L153.456 79.101L153.359 79.2759C153.032 79.5906 152.729 79.9364 152.453 80.3094C152.399 80.3793 152.348 80.457 152.298 80.5309C152.259 80.5891 152.216 80.6397 152.181 80.6979ZM149.053 83.9889C149.1 83.2856 149.221 82.5824 149.45 81.9141C150.157 79.8276 151.668 78.5376 153.549 77.4769C153.732 77.5002 153.918 77.5119 154.104 77.508C154.303 77.5002 154.501 77.4692 154.695 77.4342C154.862 77.3604 155.41 77.0806 155.562 77.0301C155.74 76.9718 156.183 76.8047 156.521 76.7892C156.245 77.1156 155.985 77.4614 155.713 77.7839C155.631 77.846 155.565 77.9043 155.523 77.9432C154.994 78.4599 154.431 78.9456 153.941 79.4973C153.922 79.5129 153.918 79.5362 153.918 79.5556C153.537 79.9714 153.195 80.4221 152.896 80.9039C152.865 80.8767 152.811 80.8689 152.783 80.9155C152.593 81.2458 152.403 81.5916 152.224 81.9529C151.668 83.0564 151.229 84.2803 151.354 85.4692C151.361 85.5275 151.365 85.5858 151.377 85.6441C151.369 85.7179 151.369 85.7917 151.365 85.8655L151.338 85.8617C151.33 85.8461 151.323 85.8267 151.315 85.8111C151.284 85.2244 151.291 84.6455 151.354 84.0705C151.354 84.0511 151.358 84.0355 151.361 84.02C151.435 83.6353 151.528 83.2584 151.641 82.8893C151.843 82.2171 152.119 81.576 152.469 80.9544C152.857 80.2628 153.347 79.5984 153.945 78.9456C154.244 78.6697 154.559 78.4094 154.889 78.1763L155.348 77.8538L154.804 77.7994C154.345 77.7528 153.879 77.7955 153.448 77.9432C153.009 78.0869 152.609 78.3239 152.251 78.5959C151.532 79.1477 150.95 79.8587 150.491 80.6397C150.036 81.4206 149.702 82.2793 149.535 83.1691C149.5 83.3439 149.477 83.5149 149.454 83.6897C149.287 83.9772 149.127 84.2725 148.999 84.5756C149.018 84.3502 149.042 84.1443 149.053 83.9889ZM149.092 79.9636C149.057 79.9558 149.022 79.9636 148.995 79.9791L149.158 79.2448L150.161 79.5012C150.013 79.711 149.873 79.9286 149.745 80.154C149.524 80.0724 149.31 80.0024 149.092 79.9636ZM148.743 80.0607L148.653 80.4532L148.638 80.527L148.199 80.4842L148.23 80.3444L148.587 78.6775L149.022 78.8174L148.941 79.1865L148.743 80.0607ZM146.831 78.2501C146.784 78.3084 146.862 78.3939 146.92 78.3356C147.068 78.1918 147.293 78.1685 147.492 78.2424C147.697 78.3201 147.806 78.5454 147.857 78.7513C147.931 79.0699 147.81 79.3847 147.822 79.6994C147.744 79.882 147.666 79.9947 147.503 80.0685C147.363 80.1346 147.204 80.1423 147.06 80.084L146.714 79.9442C146.128 79.711 145.84 79.0272 146.066 78.4211C146.547 77.1272 148.471 77.7411 148.222 78.6115C148.175 78.4755 148.105 78.355 148.016 78.2579C147.69 77.9043 147.146 77.8577 146.831 78.2501ZM147.262 80.7135C147.087 80.6902 146.913 80.6707 146.746 80.6358C146.613 80.5853 146.477 80.5425 146.345 80.492C146.322 80.4804 146.295 80.4648 146.271 80.4493C145.976 80.255 145.774 79.9209 145.751 79.5673C146.097 80.2317 146.878 80.6358 147.484 80.5153C147.418 80.6047 147.348 80.6785 147.262 80.7135ZM152.578 76.0898C152.298 75.7829 152.111 75.4371 152.006 74.9825C151.909 74.5551 151.851 74.1238 151.855 73.6886C151.859 73.0009 152.01 72.3093 152.379 71.7226C152.966 70.7824 154.066 70.2112 155.173 70.3588C152.815 70.4987 151.49 74.7532 153.677 75.7673C153.133 74.5162 152.566 73.6848 153.436 71.9791C153.619 71.7226 153.867 71.5284 154.147 71.369C153.833 71.8431 153.654 72.4026 153.669 72.9621C153.677 73.8091 154.066 74.6406 154.715 75.1301C154.202 74.5085 153.972 73.7197 154.023 72.9737C154.054 72.5968 154.143 72.2355 154.326 71.913C154.501 71.5905 154.722 71.2875 155.018 71.0699C155.049 71.0466 155.076 71.0271 155.103 71.0077C154.376 71.676 154.322 72.8105 154.489 73.7197C154.579 74.2054 154.726 74.7299 154.986 75.1534C155.084 75.3089 155.876 76.3191 156.094 76.152C155.515 76.5949 154.656 76.626 154.054 76.2219C154 76.187 153.934 76.1481 153.875 76.1714C153.763 76.218 153.829 76.3812 153.821 76.5017C153.809 76.6532 153.642 76.7542 153.491 76.7426C153.339 76.7309 153.203 76.6416 153.083 76.5483C152.892 76.3968 152.721 76.2491 152.578 76.0898ZM157.259 71.3263C157.609 71.676 157.846 72.1228 158.075 72.5619C157.877 72.3676 157.574 72.3171 157.302 72.3637C156.478 72.4997 156.218 73.2379 156.323 74.0189C156.385 74.4618 156.665 75.0602 157.092 75.2467C157.357 75.3633 157.644 75.3982 157.912 75.3477C157.951 75.3361 157.99 75.3166 158.029 75.3011C158.06 75.2894 158.099 75.2778 158.138 75.2661C158.134 75.2739 158.13 75.2817 158.126 75.2894C158.056 75.3166 157.986 75.3361 157.912 75.3477C157.889 75.3594 157.866 75.3633 157.842 75.371L158.099 75.3438C158.056 75.4371 158.005 75.5226 157.951 75.608C157.745 75.7168 157.531 75.8101 157.473 75.8217C157.131 75.8994 156.743 75.8761 156.405 75.7673C156.319 75.7401 156.238 75.7091 156.156 75.6702C156.117 75.6275 156.078 75.5847 156.047 75.542C156.004 75.4837 155.938 75.4798 155.892 75.507C155.655 75.2156 155.464 74.9087 155.402 74.8038C155.064 74.2365 154.823 73.576 154.781 72.9077C154.687 71.4973 155.958 70.0247 157.259 71.3263ZM158.309 73.203C157.873 73.0592 157.388 73.1447 157.24 73.6342C157.123 74.0383 157.302 74.4696 157.687 74.6483C157.835 74.7144 158.005 74.7299 158.161 74.6872C158.161 74.7532 158.165 74.8154 158.169 74.8815C157.998 74.9087 157.842 74.9242 157.691 74.9125C157.679 74.9125 157.671 74.9087 157.66 74.9087C157.011 74.5667 156.646 73.8829 157.046 73.0747C157.139 72.8844 157.64 72.7328 157.835 72.7561C157.904 72.7678 157.967 72.7989 158.025 72.8416C158.141 72.9349 158.227 73.0864 158.309 73.203ZM158.11 74.3569C157.714 74.353 157.446 73.8518 157.66 73.5099C157.78 73.3195 157.951 73.2923 158.122 73.3545C158.581 73.5293 158.992 74.3686 158.11 74.3569ZM159.35 81.6032C159.443 81.374 159.513 81.1253 159.571 80.8844C159.618 80.7407 159.61 80.7951 159.633 80.6669C159.676 80.5075 159.777 80.3793 159.917 80.3016C160.387 80.0374 161.436 80.2589 161.087 81.4672L160.974 81.8597C160.791 82.5008 160.158 82.8077 159.529 82.6678C159.377 82.6329 159.229 82.5435 159.167 82.3997C159.75 82.5901 160.411 82.4541 160.83 81.984C160.877 81.9296 160.815 81.8325 160.752 81.8791C160.317 82.1822 159.816 82.3143 159.334 82.0345C159.26 81.9918 159.222 81.9529 159.202 81.9102C159.253 81.8169 159.303 81.7159 159.338 81.5994L159.35 81.6032ZM160.48 79.6178L160.706 79.645C161.098 79.7654 161.308 80.1812 161.335 80.6202C160.978 79.9014 160.531 79.68 159.898 79.8587C160.026 79.6411 160.201 79.5323 160.48 79.6178ZM148.568 84.6339C148.245 84.529 147.876 84.3852 147.534 84.3774C147.507 84.3735 147.484 84.3852 147.464 84.3969L147.639 83.6198L148.611 83.8179C148.603 84.121 148.618 84.4163 148.657 84.6999C148.638 84.6727 148.611 84.6494 148.568 84.6339ZM147.22 84.4551L147.169 84.6688C147.15 84.6494 147.122 84.6339 147.087 84.63C146.971 84.6028 146.858 84.5911 146.738 84.5911L146.866 83.9889L146.909 83.8063L147.076 83.0331L147.107 83.0408L147.394 83.1341L147.507 83.1729L147.418 83.5731L147.22 84.4551ZM145.308 82.2443C145.269 82.2754 145.288 82.3415 145.343 82.3298C146 82.1666 146.47 82.7261 146.509 83.3439C146.52 83.5693 146.489 83.7907 146.446 84.0161L146.392 84.2414C146.353 84.4007 146.256 84.5328 146.124 84.6183C145.988 84.6999 145.829 84.7271 145.677 84.6883L145.343 84.5989C145.11 84.5406 144.927 84.4202 144.795 84.2725C144.581 83.7791 144.504 83.2662 144.597 82.7611C144.807 82.1627 145.316 81.7004 146.003 81.8791L146.338 81.9646C146.645 82.0423 146.831 82.3609 146.769 82.6756C146.757 82.6562 146.746 82.6329 146.734 82.6096C146.458 82.1161 145.778 81.8869 145.308 82.2443ZM145.592 85.3255L144.931 85.1545C144.48 85.0418 144.317 84.6766 144.278 84.257C144.461 84.6067 144.768 84.8903 145.242 85.0107L145.576 85.1001C145.642 85.1157 145.708 85.1273 145.774 85.1312C145.91 85.1351 146.042 85.1118 146.17 85.0613C146.058 85.2711 145.821 85.3876 145.592 85.3255ZM158.751 82.7184C158.899 82.9631 159.497 83.2623 159.766 83.274C160.943 83.3284 161.452 82.2599 161.708 81.102C162.108 79.7072 160.756 78.3239 159.478 79.8198L159.497 79.7421L158.604 79.6411L158.542 79.8587L157.978 79.7421C157.99 79.7033 157.99 79.6644 158.013 79.6333C158.849 78.4638 159.571 77.4692 159.21 75.5264C159.175 75.3399 158.926 74.8931 158.79 74.5784C158.771 74.5007 158.74 74.423 158.709 74.3453C158.693 74.3103 158.67 74.2909 158.647 74.2792C158.744 74.2015 158.814 74.0888 158.849 73.9645C158.887 73.813 158.88 73.6498 158.833 73.4983C158.786 73.3545 158.701 73.2263 158.584 73.1291C158.635 72.6163 158.312 72.014 158.029 71.6294C157.749 71.2486 157.392 70.9261 156.968 70.7241C156.754 70.5337 156.463 70.3822 155.977 70.2617C155.721 70.1995 155.336 70.2229 155.099 70.149C153.063 69.4924 149.881 73.0165 151.925 76.0898C152.002 76.2025 152.088 76.3074 152.185 76.4084C152.333 76.5677 152.496 76.7154 152.663 76.8397C152.655 76.8203 152.647 76.797 152.636 76.7775C152.647 76.7814 152.655 76.7931 152.663 76.797C152.76 76.8591 152.484 77.1428 152.589 77.1894C152.597 77.236 152.597 77.2827 152.597 77.3293C151.964 77.609 151.361 78.153 150.915 78.5959C150.72 78.7902 150.545 78.9961 150.382 79.2059L149.248 78.8485L149.29 78.6659L148.657 78.4638C148.68 77.4148 146.967 76.797 146.066 77.6673L146.062 77.6479C146.058 77.6518 146.054 77.6595 146.05 77.6673C146.038 77.6634 146.027 77.6634 146.019 77.6751C145.7 77.9937 145.409 78.4949 145.347 78.9806C145.265 79.2681 145.242 79.5906 145.358 79.9714C145.627 80.8844 146.369 80.8922 146.742 81.102C147.223 81.2924 147.764 81.036 147.946 80.5425L147.962 80.4998L147.923 80.6863L148.813 80.7718L148.875 80.5076L149.485 80.663C149.461 80.7135 149.434 80.7601 149.411 80.8145C148.972 81.6537 148.712 82.5357 148.634 83.3905L147.732 83.204L147.775 83.0175L147.157 82.8233C147.297 82.256 146.971 81.6887 146.439 81.5527C146.268 81.5333 145.638 81.203 144.923 81.6499C144.072 82.1783 143.727 83.3284 143.944 84.2725C144.08 84.8709 144.399 85.3721 144.997 85.5741C145.627 85.7801 146.396 85.8694 146.613 85.0613L147.301 85.1273L147.348 84.9175L148.747 85.2011C148.762 85.2711 148.781 85.3371 148.801 85.4032L148.513 85.3527C148.327 85.3177 148.152 85.442 148.117 85.6285C148.086 85.8111 148.206 85.9899 148.393 86.0248C147.701 88.6553 143.404 103.249 139.165 117.664C137.607 117.707 136.049 117.932 134.545 118.39C132.152 119.121 129.941 120.438 128.158 122.186C126.37 123.927 124.987 126.06 124.082 128.372C123.631 129.53 123.297 130.738 123.134 131.978C123.048 132.599 123.013 133.229 123.044 133.866C123.048 134.025 123.064 134.185 123.079 134.344L123.142 134.802C123.184 135.098 123.212 135.389 123.231 135.684C123.309 136.858 123.215 138.039 122.885 139.162C122.726 139.721 122.501 140.261 122.225 140.77C122.085 141.023 121.929 141.272 121.762 141.505C121.595 141.73 121.401 141.967 121.222 142.138L121.673 142.651C121.673 142.647 121.673 142.849 121.673 142.849C122.24 142.853 122.8 142.954 123.281 143.199C123.767 143.44 124.16 143.828 124.439 144.302C124.723 144.776 124.898 145.324 124.999 145.891C125.104 146.455 125.139 147.041 125.127 147.628C125.108 148.809 124.925 149.99 124.653 151.152C124.381 152.314 124.027 153.464 123.592 154.571C123.153 155.675 122.617 156.743 121.96 157.719C121.308 158.694 120.523 159.584 119.602 160.283C119.144 160.633 118.65 160.928 118.133 161.165C117.873 161.281 117.605 161.379 117.333 161.464C117.201 161.507 117.061 161.542 116.925 161.573C116.855 161.592 116.785 161.6 116.719 161.616L116.614 161.635C116.556 161.647 116.482 161.666 116.416 161.693C116.156 161.794 115.942 162.012 115.845 162.28C115.821 162.346 115.802 162.416 115.794 162.486C115.783 162.548 115.787 162.645 115.783 162.665V162.878C115.775 163.162 115.752 163.446 115.709 163.729C115.623 164.293 115.48 164.852 115.281 165.4C114.889 166.5 114.333 167.56 113.754 168.613L111.971 171.792C111.384 172.864 110.813 173.948 110.285 175.051C110.153 175.327 110.024 175.607 109.896 175.883C109.768 176.163 109.636 176.47 109.531 176.761C109.31 177.355 109.139 177.954 108.983 178.56C108.389 180.977 108.159 183.459 108.241 185.938C108.334 188.413 108.766 190.9 109.667 193.239C110.561 195.578 111.967 197.754 113.82 199.471C116.54 202.016 119.847 203.326 123.456 204.037C124.218 204.382 124.983 204.596 125.776 204.86L124.136 217.006L124.455 218.926L126.153 217.908L128.01 205.509C130.971 206.24 133.244 205.82 137.036 206.279C139.655 206.597 142.316 205.711 144.849 204.872C146.116 204.452 147.352 203.932 148.533 203.302C149.706 202.661 150.833 201.923 151.863 201.057C153.937 199.343 155.628 197.179 156.848 194.793C158.079 192.408 158.864 189.816 159.276 187.182C159.474 185.861 159.575 184.528 159.583 183.195C159.583 182.527 159.564 181.859 159.509 181.19C159.482 180.852 159.447 180.518 159.404 180.184C159.381 180.013 159.354 179.846 159.326 179.679L159.237 179.185C158.779 176.656 158.421 174.072 158.39 171.52C158.39 170.882 158.41 170.245 158.495 169.639C158.514 169.487 158.542 169.336 158.573 169.196L158.604 169.052C158.619 168.971 158.623 168.885 158.615 168.804C158.604 168.64 158.549 168.477 158.456 168.341C158.371 168.201 158.242 168.089 158.099 168.011C158.029 167.972 157.936 167.941 157.881 167.926L157.772 167.894C157.629 167.856 157.485 167.805 157.349 167.755C156.226 167.339 155.293 166.5 154.656 165.454C154.011 164.405 153.627 163.189 153.405 161.942C153.188 160.695 153.129 159.413 153.188 158.13C153.25 156.852 153.428 155.574 153.724 154.327C154.019 153.083 154.411 151.844 155.076 150.795C155.41 150.27 155.814 149.8 156.308 149.47C156.552 149.303 156.817 149.175 157.089 149.097L157.201 149.066C157.248 149.05 157.302 149.035 157.349 149.015C157.45 148.98 157.543 148.934 157.629 148.879C157.803 148.77 157.959 148.634 158.079 148.46C158.204 148.285 158.301 148.071 158.309 147.826C158.312 147.706 158.297 147.578 158.254 147.465L158.169 147.236C158.072 146.956 158.009 146.661 157.982 146.354C157.92 145.748 157.97 145.118 158.072 144.493C158.281 143.241 158.685 142.01 159.132 140.794C159.579 139.578 160.092 138.381 160.554 137.149C160.667 136.838 160.78 136.524 160.877 136.201C160.923 136.042 160.97 135.879 161.009 135.708C161.028 135.622 161.044 135.533 161.059 135.447L161.094 135.199C161.192 134.538 161.238 133.87 161.226 133.202C161.215 131.861 160.97 130.525 160.504 129.266C160.275 128.636 159.987 128.026 159.649 127.451C159.323 126.864 158.93 126.321 158.514 125.8C157.671 124.766 156.696 123.845 155.631 123.053C153.755 121.65 151.645 120.628 149.481 119.801C149.108 119.509 148.75 119.202 148.393 118.895C147.752 118.336 147.13 117.757 146.516 117.174C146.365 117.027 146.213 116.879 146.069 116.731L145.968 116.626L145.957 116.568L145.933 116.475C145.918 116.417 145.902 116.366 145.883 116.312C145.743 115.896 145.611 115.496 145.463 115.092C145.327 114.691 145.184 114.291 145.059 113.883L151.144 89.1293C151.532 89.2886 152.002 89.2381 152.317 88.9389C152.523 88.7407 152.644 88.4727 152.764 88.2162C152.939 87.8471 153.125 87.6023 153.483 87.3925C153.537 87.3614 153.553 87.2993 153.541 87.2487C153.549 87.241 153.557 87.2371 153.568 87.2293C153.689 87.14 153.794 87.0312 153.879 86.9185C153.906 86.8757 153.934 86.8369 153.961 86.7942C154.174 86.5377 154.376 86.0715 154.466 85.7995C154.47 85.7878 154.47 85.7762 154.474 85.7645L156.273 86.3901L156.214 86.5571L156.906 86.8719C156.902 86.8952 156.894 86.9146 156.894 86.9146C156.673 87.7033 157.368 88.2007 158.079 88.2318C158.798 88.2667 159.447 87.6295 159.649 86.9224C159.68 86.5105 159.89 85.9976 159.567 85.3876C159.113 84.5367 158.072 84.0821 157.563 84.8281L156.894 84.6805L156.844 84.8242L155.099 84.2181C155.321 83.8529 155.546 83.4916 155.787 83.1457C156.168 82.5979 156.607 82.1006 157.05 81.545C157.108 81.4672 157.209 81.2613 157.263 81.1797L158.099 81.3895L158.072 81.4867L158.786 81.7587C158.65 82.5862 158.709 82.6484 158.751 82.7184Z" fill="white" fill-opacity="0.7"/>
</g>
<path d="M156.774 78.6111C157.097 79.0152 157.757 78.8209 157.897 78.3469C158.037 77.8612 157.509 77.3988 157.038 77.5581C156.689 77.6747 156.541 78.106 156.677 78.4246C156.7 78.4945 156.728 78.5567 156.774 78.6111Z" fill="white" fill-opacity="0.7"/>
<path d="M156.082 75.052C156.389 75.4095 156.832 75.6698 157.291 75.6892C156.887 75.4833 156.587 75.1841 156.362 74.8383C156.141 74.4925 156.001 74.1001 155.942 73.7038C155.896 73.3114 155.935 72.9034 156.156 72.6003C156.378 72.2895 156.786 72.1302 157.232 72.0642C157.015 72.002 156.782 71.9864 156.545 72.0292C156.312 72.0719 156.075 72.1846 155.892 72.3672C155.702 72.5459 155.593 72.7868 155.531 73.0277C155.468 73.2725 155.465 73.5212 155.496 73.7621C155.558 74.2439 155.768 74.6946 156.082 75.052Z" fill="white" fill-opacity="0.7"/>
<mask id="mask5_927_10432" style="mask-type:luminance" maskUnits="userSpaceOnUse" x="167" y="79" width="14" height="137">
<path d="M167.265 79.4854H180.588V215.312H167.265V79.4854Z" fill="white"/>
</mask>
<g mask="url(#mask5_927_10432)">
<path d="M171.71 83.5223C171.815 84.1129 171.815 84.6918 171.78 85.263C171.745 85.838 171.675 86.4053 171.554 86.9687C171.496 86.3975 171.48 85.8302 171.449 85.263C171.422 84.6996 171.395 84.1362 171.29 83.6039C171.197 83.0716 170.991 82.5781 170.583 82.2518C170.171 81.9215 169.639 81.7117 169.091 81.5524C169.666 81.5291 170.264 81.6456 170.785 81.9759C171.049 82.1391 171.263 82.3916 171.418 82.6597C171.566 82.9356 171.655 83.227 171.71 83.5223ZM178.295 200.741C178.307 200.706 178.315 200.664 178.323 200.605C178.319 200.664 178.307 200.706 178.295 200.741ZM180.207 213.524C179.721 213.816 179.329 213.742 178.801 213.719L178.746 213.047C179.107 213.109 179.628 213.008 180.118 212.852L180.207 213.524ZM180.324 214.636C179.834 214.923 179.449 214.853 178.917 214.826L178.863 214.158C179.224 214.22 179.749 214.119 180.234 213.964L180.324 214.636ZM176.559 203.729C176.403 203.83 176.221 203.873 176.046 203.873C175.867 203.869 175.7 203.838 175.541 203.784C175.871 203.807 176.221 203.784 176.465 203.593C176.71 203.407 176.819 203.092 176.873 202.777C176.936 202.459 176.947 202.129 176.955 201.794C176.963 201.464 176.963 201.122 176.99 200.784C177.099 201.449 177.204 202.125 177.087 202.82C177.052 202.991 177.002 203.162 176.92 203.325C176.838 203.485 176.718 203.632 176.559 203.729ZM176.217 208.442C175.844 208.485 175.471 208.516 175.098 208.547L174.942 208.559L174.919 208.388C174.857 207.875 174.802 207.366 174.76 206.853C174.709 206.34 174.678 205.824 174.643 205.311C174.612 204.798 174.589 204.281 174.577 203.768C174.569 203.251 174.569 202.735 174.589 202.214C174.698 202.723 174.779 203.232 174.853 203.745C174.927 204.254 174.985 204.767 175.043 205.28C175.09 205.792 175.14 206.301 175.175 206.818C175.21 207.277 175.238 207.739 175.257 208.205C175.572 208.209 175.89 208.213 176.209 208.225C176.582 208.24 176.959 208.256 177.332 208.291C176.959 208.357 176.59 208.4 176.217 208.442ZM178.327 200.054C178.303 199.393 178.21 198.165 178.004 195.826C177.884 194.443 177.647 191.848 177.565 191.137L178.198 191.071L178.89 200.05L178.327 200.054ZM178.089 200.932C178.117 200.924 178.144 200.909 178.171 200.893C178.148 200.912 178.117 200.924 178.089 200.932ZM177.973 201.064C178.058 201.693 178.109 202.323 178.148 202.948C178.194 203.578 178.225 204.207 178.257 204.837C178.28 205.462 178.307 206.092 178.319 206.721C178.327 207.354 178.33 207.984 178.303 208.621C178.156 207.999 178.058 207.374 177.985 206.744C177.907 206.119 177.864 205.486 177.829 204.856C177.806 204.223 177.794 203.589 177.818 202.96C177.837 202.323 177.88 201.693 177.973 201.064ZM177.988 200.481L177.981 200.33L177.992 200.481H177.988ZM178.206 200.05L178.004 200.054C178.004 200.05 178.206 200.05 178.206 200.05ZM177.359 200.267L177.693 200.264C177.693 200.267 177.359 200.267 177.359 200.267ZM176.916 190.989C176.912 191.028 176.912 191.067 176.92 191.106C176.924 191.125 176.928 191.16 176.932 191.203C177.04 192.127 177.592 198.22 177.689 200.054C177.685 200.054 177.441 200.054 177.441 200.054L176.741 191.222L176.932 191.203C176.928 191.16 176.92 191.125 176.916 191.106C176.908 191.067 176.912 191.028 176.916 190.989ZM171.803 81.9798C171.438 81.3193 170.824 81.2493 170.179 81.0201C169.934 80.9307 169.782 80.888 169.596 80.6976C169.456 80.5538 169.316 79.9905 169.134 79.9555C169.095 79.9438 167.37 79.6952 167.37 79.6952L167.607 82.7646L167.486 82.7724L174.305 200.59L174.192 200.586L174.084 202.171L174.08 202.253L174.981 202.163L175.008 202.16L174.903 200.613L174.732 200.605L167.976 83.8176C169.118 83.5883 170.268 84.1906 170.727 85.2746C170.727 85.2746 170.707 103.723 172.576 142.752C172.961 150.756 174.903 173.085 176.5 190.818C176.368 190.834 176.197 191.016 176.205 191.133L176.866 200.283C176.866 200.306 176.873 200.33 176.881 200.345L176.38 200.621L176.551 202.622C176.605 203.096 176.221 203.508 175.739 203.485C175.063 203.453 174.993 202.571 174.985 202.163L174.08 202.253L174.084 202.171C174.064 202.171 174.049 202.171 174.033 202.171L174.464 209.068L178.058 209.266L178.194 209.285C178.521 212.841 178.723 214.985 178.723 214.985C178.723 214.985 179.422 215.389 180.759 214.877C180.425 212.93 179.834 207.619 179.115 200.477C179.142 200.477 179.162 200.477 179.177 200.469C179.216 200.462 179.251 200.438 179.278 200.407C179.321 200.365 179.341 200.306 179.337 200.248L178.606 190.818C178.602 190.76 178.575 190.709 178.532 190.67C178.486 190.635 178.428 190.616 178.369 190.624L178.163 190.643L177.32 190.733C177.266 190.717 177.208 190.713 177.149 190.729C177.126 190.736 177.103 190.748 177.083 190.76L176.928 190.775L177.079 190.756C177.103 190.748 177.122 190.736 177.149 190.729C177.208 190.713 177.266 190.717 177.32 190.733L178.163 190.643C176.873 177.013 175.42 160.24 174.383 146.835C172.766 125.92 172.11 95.2329 172.261 85.0415C172.277 84.2372 172.18 82.6481 171.803 81.9798Z" fill="white" fill-opacity="0.7"/>
</g>
<path d="M30.7157 101.711L27.4209 110.259C27.5141 110.022 27.7278 109.855 28.0581 109.762C28.3806 109.661 28.7497 109.676 29.1616 109.808L47.3764 116.833C47.7727 117.012 48.0602 117.249 48.2467 117.548C48.4216 117.839 48.4643 118.104 48.3711 118.341L50.1739 113.694C50.069 113.954 49.8359 114.125 49.4745 114.206C49.121 114.292 48.7285 114.249 48.2934 114.082L41.9524 111.642L43.8174 106.809C44.4196 105.192 44.6411 103.77 44.4856 102.535C44.3302 101.303 43.8756 100.258 43.118 99.3952C42.3642 98.5249 41.4162 97.8722 40.2739 97.437C39.0305 96.9319 37.8027 96.6988 36.5905 96.7376C35.3705 96.7804 34.2515 97.1883 33.2335 97.9654C32.2194 98.7425 31.3801 99.9936 30.7157 101.711ZM29.2393 106.249L30.063 104.104C30.5098 102.947 31.0266 102.037 31.6171 101.385C32.2 100.732 32.8139 100.273 33.4666 100.001C34.1116 99.7333 34.7488 99.5817 35.3782 99.5507C36.0116 99.5196 36.5983 99.5623 37.1344 99.675C37.6629 99.7916 38.1136 99.9198 38.4866 100.064C38.8518 100.211 39.0849 100.304 39.1859 100.343C39.3841 100.417 39.6988 100.569 40.134 100.794C40.5691 101.012 41.0315 101.319 41.5172 101.711C42.0068 102.107 42.4303 102.612 42.7916 103.234C43.1452 103.856 43.3511 104.625 43.4133 105.534C43.4677 106.436 43.2656 107.492 42.8071 108.705L41.7037 111.549L30.3116 107.151C30.0436 107.05 29.8143 106.914 29.6278 106.746C29.4413 106.583 29.3131 106.416 29.2393 106.249Z" fill="white" fill-opacity="0.7"/>
<path d="M38.7979 84.7703C38.8212 84.7392 38.8445 84.7082 38.8756 84.6771C38.9066 84.646 38.9494 84.611 38.9999 84.5683C39.167 84.4245 39.3845 84.3973 39.6526 84.4906C39.913 84.5838 40.1811 84.7859 40.4608 85.0967L53.6868 100.343C54.0209 100.728 54.2307 101.128 54.324 101.54C54.4172 101.944 54.39 102.266 54.2463 102.503L55.6916 100.141C55.544 100.39 55.3264 100.491 55.0389 100.436C54.7475 100.386 54.4483 100.203 54.1375 99.8924L47.8431 92.6189C47.6255 92.3819 47.6177 92.1021 47.812 91.7796L50.5784 87.2881C50.695 87.1132 50.8193 87.0044 50.9514 86.9617C51.0758 86.9112 51.2079 86.9073 51.34 86.9462L60.665 89.324C61.1001 89.4289 61.3993 89.6038 61.5664 89.8524C61.7296 90.1011 61.7412 90.3459 61.5975 90.5829L64.224 86.3089C64.0764 86.5498 63.7966 86.7208 63.3848 86.8218C62.9807 86.9151 62.5339 86.9073 62.0482 86.7907L42.4812 81.8174C42.0072 81.6853 41.6731 81.4988 41.4866 81.2579C41.2923 81.0209 41.269 80.7722 41.4244 80.5119L38.7979 84.7703ZM50.1899 86.6509C50.2754 86.6742 50.3531 86.713 50.423 86.7752C50.4968 86.8374 50.4852 86.9462 50.3919 87.1016L47.5634 91.6864C47.4701 91.834 47.3846 91.8884 47.2991 91.8573C47.2059 91.8262 47.1282 91.7796 47.066 91.7174L40.725 84.4284C40.6551 84.3352 40.5968 84.2652 40.5541 84.2108C40.6085 84.2225 40.6551 84.2341 40.6939 84.2419C40.7367 84.2536 40.7833 84.2574 40.8338 84.2574L50.1899 86.6509Z" fill="white" fill-opacity="0.7"/>
<path d="M75.6245 69.9178C75.4263 70.1276 75.1466 70.2053 74.7852 70.1509C74.4317 70.0888 74.0781 69.8984 73.7284 69.5759L69.7808 65.877C69.4272 65.5467 69.2135 65.2087 69.1436 64.8668C69.0814 64.5248 69.1475 64.2529 69.3457 64.0431L65.942 67.6953C66.1285 67.5011 66.385 67.4234 66.7191 67.4622C67.0494 67.4933 67.3874 67.6487 67.7293 67.9285L72.9358 72.8086C73.2233 73.1 73.3904 73.3758 73.4331 73.6323C73.4836 73.8809 73.4681 74.1568 73.3865 74.456C73.2194 74.996 73.0135 75.5128 72.7648 76.0101C72.5239 76.4997 72.2558 76.9232 71.9567 77.2846C71.3039 78.1355 70.4685 78.7571 69.4544 79.1496C68.4481 79.5342 67.3291 79.7013 66.0974 79.6469C64.8619 79.5964 63.6069 79.3205 62.3208 78.8232C61.027 78.3258 59.7798 77.6226 58.5753 76.7095C57.3863 75.777 56.38 74.7435 55.5602 73.6012C54.7443 72.4628 54.1537 71.3088 53.7884 70.1354C53.4271 68.9542 53.3067 67.8275 53.431 66.7473C53.5553 65.6594 53.9516 64.7036 54.6122 63.8721C55.1717 63.2116 55.7855 62.6754 56.4461 62.2713C57.0988 61.8595 57.7477 61.5797 58.3888 61.4321C59.0221 61.2883 59.5816 61.3 60.0673 61.4631C60.3159 61.5564 60.4208 61.7429 60.3781 62.0226C60.3276 62.2946 60.246 62.5005 60.1294 62.6443L62.6627 59.3806C62.4995 59.6292 62.1965 59.7497 61.7613 59.738C61.2018 59.6564 60.5024 59.7225 59.6632 59.9401C58.8239 60.1576 57.9497 60.5695 57.0367 61.1678C56.1158 61.7584 55.2338 62.6055 54.3946 63.7011C53.5048 64.8629 52.8948 66.1373 52.5607 67.5244C52.2304 68.9037 52.1721 70.2869 52.3897 71.674C52.6073 73.065 53.0891 74.3938 53.8351 75.6682C54.5733 76.9426 55.5524 78.0578 56.7724 79.0097C57.9847 79.9538 59.3018 80.6221 60.72 81.0146C62.1304 81.3992 63.5408 81.5235 64.9474 81.3876C66.3655 81.2438 67.6982 80.8397 68.9416 80.1753C70.1927 79.5148 71.2728 78.6017 72.1742 77.44C72.6793 76.7795 73.0951 76.0956 73.4176 75.3885C73.7362 74.6736 74.0004 73.9742 74.2102 73.2903C74.4278 72.6065 74.6454 71.9693 74.8629 71.3787C75.0805 70.7881 75.3331 70.3025 75.6245 69.9178Z" fill="white" fill-opacity="0.7"/>
<path d="M92.0326 57.9835C91.8033 58.1389 91.5197 58.1545 91.1778 58.0301C90.8358 57.9058 90.525 57.6494 90.2453 57.253L87.1058 52.8547C86.8261 52.4507 86.6901 52.0777 86.7018 51.7357C86.7095 51.3861 86.83 51.1296 87.0592 50.9742L82.9873 53.865C83.2049 53.7095 83.473 53.6862 83.7955 53.7872C84.1141 53.8922 84.4094 54.1136 84.6813 54.4555L88.8154 60.2681C89.033 60.61 89.1418 60.9131 89.1418 61.1695C89.1418 61.4299 89.068 61.6941 88.9242 61.9622C88.6522 62.4712 88.3492 62.9374 88.0073 63.3609C87.6731 63.7883 87.3273 64.1613 86.966 64.4799C86.1578 65.1754 85.2136 65.6106 84.1374 65.7854C83.0689 65.9641 81.9344 65.9059 80.7338 65.6145C79.5409 65.3153 78.3637 64.7907 77.2058 64.0447C76.0479 63.291 74.9639 62.3468 73.9576 61.2162C72.9862 60.0661 72.213 58.8538 71.6419 57.5794C71.063 56.2972 70.7094 55.0422 70.5851 53.8183C70.4607 52.5867 70.5695 51.456 70.9114 50.4302C71.2533 49.3967 71.84 48.5342 72.6676 47.8503C73.332 47.3141 74.0314 46.9101 74.7658 46.6381C75.504 46.37 76.1956 46.2301 76.8483 46.2185C77.4933 46.199 78.0334 46.3195 78.4802 46.5759C78.6978 46.7313 78.7522 46.9411 78.6512 47.1976C78.5579 47.4462 78.4375 47.6327 78.2937 47.7571L81.4331 45.0528C81.2156 45.2704 80.8969 45.3287 80.4851 45.2238C79.945 45.0373 79.2418 44.9712 78.3714 45.0217C77.5128 45.0645 76.5764 45.286 75.5584 45.69C74.5443 46.0941 73.5147 46.7469 72.4656 47.6483C71.3583 48.6041 70.5073 49.727 69.9168 51.0208C69.3184 52.3069 68.9804 53.6551 68.9066 55.0617C68.8366 56.4604 69.0387 57.8592 69.5127 59.2579C69.9906 60.6489 70.7249 61.9311 71.7196 63.1122C72.7453 64.2934 73.911 65.2181 75.2165 65.8787C76.5142 66.5314 77.8624 66.9316 79.2728 67.0754C80.691 67.223 82.0742 67.0987 83.4225 66.7024C84.7785 66.2983 86.0179 65.6222 87.1369 64.6664C87.778 64.1186 88.322 63.528 88.7688 62.8947C89.2234 62.2652 89.6236 61.6319 89.9655 60.9986C90.3152 60.3691 90.6532 59.7863 90.9757 59.2579C91.306 58.7295 91.6596 58.306 92.0326 57.9835Z" fill="white" fill-opacity="0.7"/>
<path d="M90.9346 36.6062C90.9657 36.5868 91.0084 36.5712 91.0589 36.5596C91.1016 36.5518 91.1522 36.5401 91.2143 36.5285C91.4319 36.5207 91.6262 36.6295 91.7894 36.8549C91.9564 37.0724 92.0691 37.391 92.1313 37.8029L94.4625 57.8516C94.513 58.3412 94.4625 58.7841 94.3071 59.1882C94.1595 59.5845 93.9574 59.8371 93.701 59.9498L96.2343 58.8152C95.9623 58.9396 95.7214 58.9007 95.5038 58.6909C95.294 58.485 95.1619 58.1625 95.0997 57.7273L93.9963 48.1536C93.9419 47.8545 94.0895 47.6252 94.4314 47.4698L99.2338 45.3251C99.4281 45.2435 99.5952 45.2163 99.7312 45.2474C99.8633 45.2784 99.9798 45.3484 100.073 45.4494L106.43 52.6607C106.717 53.0026 106.865 53.3251 106.865 53.6243C106.865 53.9274 106.74 54.1333 106.492 54.246L111.077 52.1945C110.816 52.311 110.486 52.2955 110.082 52.1479C109.686 51.9924 109.324 51.736 108.994 51.3708L95.6437 36.2332C95.3212 35.8524 95.1464 35.5105 95.1153 35.2074C95.092 34.8966 95.2241 34.679 95.5038 34.5547L90.9346 36.6062ZM99.2804 44.5635C99.3426 44.6373 99.3815 44.7189 99.4048 44.8122C99.4359 44.8977 99.362 44.9754 99.1872 45.0453L94.2605 47.2522C94.1128 47.3144 94.0118 47.3105 93.9497 47.2367C93.8953 47.1668 93.8603 47.0813 93.8409 46.988L92.7063 37.3988C92.6985 37.2745 92.6985 37.189 92.7063 37.1346C92.7374 37.1579 92.7685 37.189 92.7996 37.2279C92.8307 37.2706 92.8617 37.2978 92.8928 37.3056L99.2804 44.5635Z" fill="white" fill-opacity="0.7"/>
<path d="M110.963 29.0915L106.114 30.2727C106.126 30.2727 106.13 30.2727 106.13 30.2727C106.13 30.2727 106.141 30.2688 106.161 30.2572L106.083 30.2882C106.355 30.2183 106.627 30.2999 106.907 30.5369C107.179 30.7778 107.369 31.1236 107.482 31.5782L112.02 50.3059C112.121 50.7644 112.113 51.1607 111.989 51.5026C111.872 51.8368 111.67 52.0388 111.383 52.1087L112.393 51.8601L113.061 51.7047L114.071 51.456C113.811 51.5182 113.551 51.4404 113.294 51.2229C113.034 51.0053 112.844 50.6944 112.719 50.2904L108.103 31.2984C108.096 31.279 108.088 31.2674 108.088 31.2674C108.088 31.2596 108.088 31.244 108.088 31.2207C108.088 31.244 108.115 31.2635 108.166 31.2829L121.811 48.0368C122.11 48.4215 122.254 48.7517 122.246 49.0315C122.235 49.3035 122.099 49.4667 121.842 49.5288L126.676 48.3787C126.26 48.4836 125.961 48.4059 125.774 48.1456C125.596 47.8775 125.448 47.5667 125.324 47.2131L120.723 28.2212C120.638 27.8093 120.661 27.4441 120.785 27.1333C120.91 26.8147 121.104 26.6165 121.376 26.5427L118.703 27.1954C118.971 27.1333 119.239 27.2226 119.511 27.4597C119.791 27.6889 119.985 28.0308 120.102 28.4854L124.64 47.2287C124.64 47.2403 124.64 47.2597 124.64 47.2908C124.648 47.3219 124.659 47.3608 124.671 47.3996C124.64 47.3608 124.613 47.3297 124.593 47.3064C124.581 47.2753 124.566 47.2559 124.547 47.2442L111.056 30.6923C110.726 30.2688 110.559 29.9152 110.559 29.6355C110.551 29.348 110.683 29.1654 110.963 29.0915Z" fill="white" fill-opacity="0.7"/>
<path d="M124.698 26.164C124.958 26.1329 125.207 26.2417 125.444 26.4904C125.685 26.739 125.84 27.0771 125.91 27.5006L128.35 46.881C128.381 47.2968 128.311 47.6542 128.148 47.9534C127.981 48.2565 127.767 48.4197 127.511 48.4507L132.453 47.8291C132.181 47.8602 131.925 47.7475 131.676 47.4872C131.435 47.2191 131.287 46.85 131.225 46.3837L128.816 27.2675C128.754 26.7818 128.805 26.3816 128.972 26.0707C129.147 25.7521 129.368 25.5734 129.64 25.5423L124.698 26.164Z" fill="white" fill-opacity="0.7"/>
<path d="M138.034 24.8646L133.045 24.9267C133.056 24.9267 133.06 24.9267 133.06 24.9267C133.06 24.9267 133.072 24.9267 133.091 24.9267H133.014C133.293 24.9267 133.534 25.0744 133.744 25.3619C133.95 25.6417 134.059 26.0224 134.071 26.4964L134.257 45.7681C134.257 46.2344 134.156 46.6229 133.962 46.9337C133.775 47.2368 133.53 47.3844 133.231 47.3844L134.273 47.3689H134.956L135.998 47.3534C135.726 47.3534 135.489 47.2213 135.283 46.9493C135.085 46.6812 134.972 46.3354 134.941 45.908L134.739 26.3721C134.739 26.3527 134.739 26.341 134.739 26.341C134.739 26.3333 134.739 26.3177 134.739 26.2944C134.739 26.3177 134.758 26.341 134.801 26.3721L144.312 45.7681C144.518 46.2149 144.581 46.5724 144.499 46.8405C144.425 47.1008 144.258 47.229 144.002 47.229L148.975 47.1979C148.548 47.2096 148.276 47.0658 148.151 46.7628C148.035 46.4636 147.957 46.1256 147.918 45.7526L147.732 26.2167C147.739 25.7932 147.844 25.4474 148.042 25.1754C148.237 24.8957 148.478 24.7519 148.757 24.7402L146.007 24.7713C146.286 24.7713 146.527 24.919 146.737 25.2065C146.943 25.4979 147.052 25.8825 147.063 26.3566L147.25 45.6282C147.25 45.6399 147.25 45.6593 147.25 45.6904C147.25 45.7215 147.25 45.7603 147.25 45.7992C147.227 45.7603 147.211 45.7215 147.203 45.6904C147.192 45.6593 147.176 45.6399 147.157 45.6282L137.754 26.4654C137.525 25.968 137.443 25.5795 137.505 25.2997C137.567 25.02 137.742 24.8762 138.034 24.8646Z" fill="white" fill-opacity="0.7"/>
<path d="M152.069 25.1321C152.326 25.1632 152.543 25.3264 152.722 25.6139C152.908 25.9053 152.986 26.2627 152.955 26.6862L150.966 46.1133C150.892 46.5407 150.737 46.8826 150.5 47.1391C150.27 47.3877 150.025 47.4965 149.769 47.4655L154.727 47.9783C154.447 47.9472 154.218 47.7763 154.043 47.4655C153.876 47.1546 153.814 46.7661 153.857 46.2998L155.83 27.1214C155.881 26.6357 156.021 26.2627 156.25 26.0024C156.487 25.7343 156.747 25.6139 157.027 25.645L152.069 25.1321Z" fill="white" fill-opacity="0.7"/>
<path d="M171.175 46.6303C171.214 46.4981 171.284 46.335 171.377 46.1485C171.478 45.962 171.626 45.8027 171.812 45.6667C171.999 45.5346 172.236 45.4918 172.527 45.5423L167.958 43.9571C168.133 44.0736 168.3 44.2446 168.455 44.47C168.611 44.6875 168.712 44.9284 168.766 45.1849C168.743 45.6744 168.817 46.2495 168.984 46.91C169.147 47.5744 169.434 48.2544 169.839 48.946C170.243 49.6376 170.806 50.2903 171.533 50.9042C172.255 51.5142 173.172 52.0116 174.283 52.3962C176.809 53.286 178.892 53.4764 180.531 52.9713C182.179 52.4623 183.333 51.3277 183.997 49.5676C184.409 48.4797 184.549 47.5122 184.417 46.6613C184.281 45.8027 183.966 45.0217 183.469 44.3145C182.979 43.5996 182.388 42.943 181.697 42.3408C181.001 41.7307 180.29 41.1363 179.568 40.5535C178.853 39.9629 178.2 39.3645 177.609 38.7506C177.027 38.129 176.588 37.4607 176.288 36.7458C175.997 36.0231 175.939 35.2188 176.117 34.3368C176.292 33.5519 176.615 32.8759 177.081 32.3164C177.555 31.7491 178.188 31.3761 178.977 31.1974C179.762 31.0109 180.702 31.1197 181.79 31.5238C182.4 31.753 182.917 32.1532 183.344 32.7205C183.768 33.28 183.943 33.9871 183.873 34.8341C183.861 34.9274 183.83 35.0906 183.779 35.3159C183.725 35.5452 183.608 35.7317 183.422 35.8754C183.235 36.0114 182.913 36.0153 182.458 35.891L187.121 37.5073C186.923 37.383 186.736 37.1926 186.561 36.9323C186.394 36.6758 186.301 36.3883 186.282 36.0775C186.196 35.0012 185.753 34.026 184.945 33.1556C184.137 32.2853 182.913 31.582 181.277 31.042C180.115 30.6495 178.996 30.5252 177.92 30.669C176.84 30.805 175.888 31.1274 175.061 31.6325C174.241 32.1299 173.638 32.7477 173.258 33.482C172.698 34.5699 172.442 35.5568 172.496 36.4349C172.547 37.3053 172.823 38.1056 173.32 38.8283C173.817 39.5433 174.416 40.2232 175.123 40.8643C175.826 41.5093 176.556 42.1387 177.314 42.7604C178.068 43.3743 178.736 44.0037 179.319 44.6565C179.91 45.3014 180.318 45.9892 180.547 46.7235C180.784 47.4617 180.725 48.2699 180.376 49.148C180.104 49.8823 179.669 50.5468 179.07 51.1373C178.48 51.7279 177.765 52.1203 176.926 52.3185C176.094 52.5128 175.169 52.4273 174.144 52.0543C173.126 51.658 172.372 51.1257 171.875 50.4535C171.385 49.7774 171.101 49.0975 171.02 48.402C170.934 47.6987 170.989 47.1082 171.175 46.6303Z" fill="white" fill-opacity="0.7"/>
<path d="M193.234 35.4727L191.742 38.1925C191.742 38.1925 191.839 38.0953 192.037 37.8972C192.243 37.7029 192.574 37.5164 193.032 37.3377C193.498 37.1628 194.097 37.1123 194.835 37.1823C195.581 37.2561 196.482 37.5708 197.539 38.1303L198.565 38.6898C198.689 39.0628 198.631 39.4941 198.394 39.9798L188.96 57.0911C188.742 57.4525 188.471 57.7012 188.152 57.8371C187.841 57.9809 187.569 57.9926 187.344 57.8682L191.727 60.2772C191.466 60.1295 191.315 59.8809 191.276 59.5312C191.233 59.1776 191.326 58.793 191.556 58.3811L200.849 41.4873C201.129 40.9822 201.487 40.6636 201.922 40.5393L202.948 41.1143C203.981 41.7049 204.727 42.2955 205.186 42.8861C205.652 43.4689 205.932 44.0012 206.025 44.4869C206.126 44.9764 206.149 45.3572 206.087 45.6369C206.033 45.9167 206.009 46.0566 206.009 46.0566L207.501 43.3368L193.234 35.4727Z" fill="white" fill-opacity="0.7"/>
<path d="M202.148 58.4121C201.246 59.5311 200.749 60.7084 200.656 61.9401C200.57 63.1718 200.819 64.3646 201.402 65.5147C201.98 66.6725 202.824 67.7061 203.935 68.6075C205.023 69.4778 206.165 70.0762 207.37 70.4103C208.57 70.7522 209.747 70.7755 210.898 70.488C212.048 70.1966 213.081 69.5478 214.006 68.5453C214.014 68.5337 214.185 68.32 214.519 67.9081C214.861 67.4924 215.3 66.9484 215.84 66.2762C216.388 65.6002 216.982 64.8658 217.627 64.0693C218.268 63.2806 218.909 62.4918 219.554 61.6914C220.195 60.8949 220.786 60.1645 221.326 59.5001C221.862 58.8279 222.293 58.2956 222.616 57.8993C222.946 57.4952 223.113 57.2931 223.113 57.2931C223.412 56.9124 223.735 56.6715 224.077 56.5782C224.427 56.485 224.722 56.5316 224.963 56.7181L221.046 53.5631C221.252 53.7302 221.345 53.9828 221.326 54.3247C221.314 54.6666 221.19 55.0085 220.953 55.3504L210.369 68.4365C209.798 69.1281 209.157 69.5633 208.442 69.742C207.727 69.9169 206.997 69.8819 206.251 69.6332C205.512 69.3923 204.794 68.9883 204.09 68.421C203.395 67.8498 202.847 67.2243 202.443 66.5404C202.047 65.8644 201.86 65.165 201.883 64.4423C201.914 63.7157 202.214 63.0086 202.785 62.3131L213.291 49.3203C213.578 48.9473 213.897 48.7141 214.239 48.6209C214.589 48.5276 214.876 48.5704 215.094 48.7452L211.193 45.5903C211.41 45.769 211.508 46.0254 211.488 46.3674C211.465 46.7015 211.333 47.0356 211.084 47.3776C211.084 47.3776 210.921 47.5757 210.602 47.9681C210.28 48.3645 209.856 48.8851 209.328 49.5379C208.799 50.1906 208.217 50.9133 207.587 51.6981C206.954 52.4752 206.32 53.2523 205.691 54.0294C205.058 54.8065 204.479 55.5292 203.95 56.1897C203.422 56.8424 202.991 57.3786 202.66 57.7905C202.326 58.1946 202.155 58.4044 202.148 58.4121Z" fill="white" fill-opacity="0.7"/>
<path d="M215.089 78.9252C216.309 80.3433 217.533 81.373 218.757 82.0179C219.977 82.659 221.17 83.0126 222.332 83.0748C223.501 83.1369 224.604 82.9971 225.642 82.6552C226.675 82.3132 227.62 81.8664 228.47 81.3186C229.317 80.7668 230.048 80.2307 230.662 79.7022C231.21 79.2243 231.8 78.6143 232.434 77.8683C233.063 77.1223 233.619 76.252 234.097 75.2573C234.571 74.2743 234.874 73.2019 234.998 72.0402C235.122 70.8823 234.971 69.6468 234.547 68.3413C234.12 67.0358 233.308 65.6914 232.107 64.3004L228.129 59.6846C228.292 59.8827 228.338 60.1469 228.268 60.4772C228.195 60.8113 228.008 61.1261 227.709 61.4252L212.913 74.1849C212.571 74.4336 212.229 74.5657 211.888 74.589C211.546 74.6201 211.289 74.5346 211.126 74.3404L215.089 78.9252ZM230.817 63.1659L230.973 63.3524C232.049 64.6268 232.76 65.8352 233.102 66.9736C233.444 68.1159 233.541 69.1883 233.397 70.1907C233.25 71.1971 232.95 72.114 232.496 72.9416C232.037 73.7614 231.54 74.4802 231.004 75.1019C230.464 75.7236 229.966 76.2248 229.512 76.6094C229.065 77.0019 228.781 77.2505 228.657 77.3554C228.54 77.4487 228.253 77.674 227.787 78.0393C227.328 78.4123 226.745 78.8086 226.03 79.236C225.316 79.6712 224.5 80.0364 223.59 80.3394C222.689 80.6503 221.714 80.7979 220.669 80.7902C219.619 80.7902 218.555 80.5415 217.467 80.0442C216.387 79.5468 215.307 78.692 214.219 77.4798C214.219 77.301 214.273 77.1068 214.39 76.8892C214.514 76.6794 214.689 76.4773 214.918 76.2831L229.512 63.6943C229.729 63.5078 229.951 63.3757 230.18 63.2902C230.417 63.197 230.631 63.1581 230.817 63.1659Z" fill="white" fill-opacity="0.7"/>
<path d="M240.994 75.3055C241.138 75.5231 241.154 75.799 241.041 76.1292C240.924 76.4517 240.699 76.7431 240.357 76.9996L224.147 87.9098C223.782 88.1157 223.432 88.209 223.09 88.1896C222.748 88.1779 222.504 88.0652 222.36 87.8476L225.142 91.9817C224.986 91.7525 224.971 91.4727 225.095 91.1425C225.22 90.8083 225.484 90.5091 225.888 90.2411L241.865 79.4862C242.269 79.2065 242.646 79.0744 242.999 79.0821C243.361 79.0938 243.621 79.2142 243.776 79.4396L240.994 75.3055Z" fill="white" fill-opacity="0.7"/>
<path d="M250.911 91.9664C250.277 90.6531 249.419 89.5419 248.331 88.6404C247.243 87.7313 246.019 87.063 244.663 86.6356C243.315 86.2121 241.912 86.045 240.451 86.1382C238.99 86.2315 237.553 86.62 236.146 87.3039C234.767 87.9799 233.586 88.8658 232.603 89.9615C231.627 91.0494 230.885 92.2539 230.38 93.5827C229.871 94.9076 229.638 96.2753 229.681 97.6857C229.72 99.1039 230.058 100.472 230.691 101.789C231.332 103.114 232.198 104.229 233.286 105.13C234.374 106.032 235.59 106.688 236.939 107.104C238.295 107.527 239.705 107.687 241.166 107.586C242.635 107.492 244.061 107.108 245.44 106.436C246.847 105.752 248.039 104.866 249.015 103.778C249.986 102.69 250.728 101.482 251.237 100.157C251.742 98.8397 251.975 97.4759 251.936 96.0694C251.894 94.659 251.552 93.2913 250.911 91.9664ZM250.631 92.0907C251.097 93.0543 251.276 94.0723 251.175 95.1524C251.082 96.2403 250.732 97.3205 250.134 98.4006C249.543 99.4769 248.739 100.483 247.725 101.416C246.707 102.348 245.518 103.141 244.15 103.794C242.802 104.454 241.446 104.901 240.078 105.13C238.71 105.356 237.42 105.367 236.208 105.161C234.996 104.963 233.928 104.571 233.007 103.98C232.094 103.397 231.406 102.628 230.94 101.664C230.473 100.701 230.291 99.675 230.396 98.5871C230.497 97.4992 230.846 96.4152 231.437 95.3389C232.035 94.2704 232.843 93.2641 233.861 92.3238C234.876 91.3913 236.057 90.5948 237.405 89.9304C238.773 89.2777 240.14 88.8425 241.508 88.6249C242.876 88.3995 244.166 88.384 245.378 88.5783C246.59 88.7764 247.651 89.1689 248.564 89.7594C249.473 90.35 250.165 91.1271 250.631 92.0907Z" fill="white" fill-opacity="0.7"/>
<path d="M35.1011 191.841L43.7112 183.106L44.1619 184.225L37.6033 190.83L46.8972 190.955L47.3479 192.058L35.1011 191.841Z" fill="#FEFBF6" fill-opacity="0.7"/>
<path d="M42.2457 205.168L41.7173 204.22L51.0112 199.013L51.5396 199.961L42.2457 205.168Z" fill="#FEFBF6" fill-opacity="0.7"/>
<path d="M57.5181 218.194C58.47 217.467 59.0334 216.504 59.2122 215.303C59.3754 214.11 59.0956 213.026 58.3729 212.055C57.6463 211.103 56.6866 210.539 55.4977 210.361C54.2932 210.198 53.217 210.477 52.265 211.2C51.2898 211.927 50.7186 212.89 50.5555 214.091C50.3767 215.291 50.6526 216.368 51.3792 217.323C52.1019 218.295 53.0654 218.866 54.2699 219.033C55.4589 219.196 56.5429 218.916 57.5181 218.194ZM58.1864 219.064C57.5725 219.507 56.9198 219.826 56.2282 220.012C55.5132 220.175 54.8139 220.206 54.13 220.105C53.4229 220.02 52.7546 219.795 52.1252 219.422C51.5035 219.068 50.9634 218.586 50.5088 217.976C50.0504 217.386 49.7395 216.737 49.5763 216.033C49.3976 215.326 49.3665 214.623 49.4831 213.92C49.5647 213.236 49.7861 212.579 50.1514 211.946C50.5011 211.305 50.9829 210.761 51.5967 210.314C52.1873 209.859 52.8401 209.549 53.555 209.382C54.2583 209.218 54.9615 209.18 55.6687 209.273C56.3408 209.378 56.9975 209.611 57.6425 209.972C58.2641 210.326 58.8003 210.796 59.2588 211.386C59.7134 212 60.0242 212.657 60.1913 213.36C60.3545 214.075 60.3972 214.775 60.3156 215.458C60.2107 216.15 59.9815 216.814 59.6318 217.448C59.2588 218.069 58.777 218.606 58.1864 219.064Z" fill="#FEFBF6" fill-opacity="0.7"/>
<path d="M62.1181 229.483L64.8224 232.157L64.0453 232.949L61.341 230.276L60.9525 229.903L60.564 229.515L68.0395 221.93L68.8166 222.692L62.1181 229.483Z" fill="#FEFBF6" fill-opacity="0.7"/>
<path d="M71.912 239.675L71.0728 238.991L77.6935 230.646L78.5328 231.329L71.912 239.675Z" fill="#FEFBF6" fill-opacity="0.7"/>
<path d="M85.183 239.512L81.0956 246.211L80.1631 245.651L86.0689 235.984L86.7217 246.382L90.8091 239.699L91.7416 240.258L85.8513 249.894L85.183 239.512Z" fill="#FEFBF6" fill-opacity="0.7"/>
<path d="M100.181 250.227C99.4427 250.405 98.926 250.553 98.6268 250.677C97.9624 250.949 97.5467 251.283 97.3835 251.687C97.1737 252.177 97.1698 252.682 97.3679 253.211C97.5544 253.747 97.8886 254.12 98.3781 254.33C98.9143 254.555 99.637 254.493 100.538 254.143C100.756 254.058 100.966 253.976 101.176 253.894L100.181 250.227ZM100.756 248.564C100.818 248.731 100.873 248.906 100.927 249.092C101.121 249.03 101.323 248.979 101.533 248.937C101.739 248.898 101.937 248.839 102.124 248.766C102.559 248.591 102.846 248.327 102.994 247.973C103.149 247.6 103.149 247.266 102.994 246.963C102.839 246.675 102.613 246.458 102.326 246.31C102.034 246.178 101.735 246.151 101.424 246.232C101.09 246.337 100.838 246.601 100.663 247.025C100.484 247.452 100.515 247.965 100.756 248.564ZM104.502 253.397C104.272 253.533 103.608 253.887 102.512 254.469L103.289 257.376L101.937 256.847L101.471 254.998C100.775 255.278 100.247 255.452 99.8857 255.526C99.1475 255.639 98.5491 255.604 98.0829 255.417C97.636 255.231 97.2669 254.99 96.9794 254.703C96.688 254.411 96.4704 254.085 96.3266 253.723C96.0042 252.958 96.0158 252.165 96.3577 251.346C96.7502 250.405 97.5544 249.784 98.7667 249.481C99.1164 249.399 99.4855 249.31 99.8701 249.216C99.5049 248.121 99.4544 247.266 99.7147 246.652C99.9634 246.042 100.367 245.618 100.927 245.378C101.475 245.141 102.065 245.156 102.699 245.424C103.309 245.685 103.728 246.085 103.958 246.621C104.206 247.161 104.206 247.736 103.958 248.346C103.686 248.968 103.045 249.434 102.03 249.745C101.758 249.838 101.506 249.924 101.269 249.993L102.201 253.413C102.501 253.269 102.784 253.117 103.056 252.962L103.88 252.496L104.502 253.397Z" fill="#FEFBF6" fill-opacity="0.7"/>
<path d="M116.576 262.05L114.541 249.927L115.706 250.222L117.214 259.423L122.762 251.932L123.928 252.212L116.576 262.05Z" fill="#FEFBF6" fill-opacity="0.7"/>
<path d="M131.568 264.049L130.48 263.924L131.693 253.356L132.781 253.48L131.568 264.049Z" fill="#FEFBF6" fill-opacity="0.7"/>
<path d="M151.049 259.289C151.026 258.089 150.583 257.067 149.713 256.228C148.842 255.389 147.801 254.981 146.589 255C145.384 255.023 144.366 255.474 143.527 256.352C142.688 257.222 142.276 258.26 142.299 259.46C142.331 260.673 142.781 261.698 143.652 262.538C144.522 263.377 145.555 263.789 146.76 263.765C147.972 263.746 148.998 263.295 149.837 262.413C150.676 261.543 151.08 260.502 151.049 259.289ZM152.153 259.258C152.172 260.016 152.048 260.731 151.78 261.403C151.5 262.079 151.115 262.662 150.63 263.159C150.14 263.68 149.565 264.088 148.905 264.387C148.24 264.69 147.529 264.846 146.775 264.853C146.029 264.873 145.322 264.745 144.662 264.465C143.986 264.197 143.395 263.812 142.89 263.315C142.381 262.841 141.981 262.27 141.693 261.605C141.382 260.945 141.215 260.234 141.196 259.476C141.184 258.73 141.324 258.023 141.616 257.347C141.872 256.675 142.245 256.084 142.735 255.575C143.22 255.078 143.795 254.681 144.46 254.378C145.112 254.079 145.812 253.92 146.558 253.897C147.312 253.889 148.027 254.021 148.703 254.301C149.375 254.573 149.965 254.946 150.474 255.42C150.979 255.909 151.391 256.484 151.702 257.145C151.99 257.809 152.141 258.512 152.153 259.258Z" fill="#FEFBF6" fill-opacity="0.7"/>
<path d="M162.916 262.19L166.677 261.553L166.864 262.641L163.103 263.278L162.559 263.371L162.031 263.449L160.259 252.958L161.331 252.787L162.916 262.19Z" fill="#FEFBF6" fill-opacity="0.7"/>
<path d="M176.474 256.259L180.157 255.094L176.862 250.991L176.474 256.259ZM183.949 258.031L182.815 258.389L180.872 255.948L176.396 257.347L176.163 260.456L175.028 260.813L176.101 248.535L183.949 258.031Z" fill="#FEFBF6" fill-opacity="0.7"/>
<path d="M192.846 248.388C192.504 249.053 192.275 249.538 192.162 249.849C191.933 250.525 191.914 251.057 192.1 251.45C192.337 251.928 192.714 252.266 193.235 252.46C193.763 252.678 194.264 252.67 194.742 252.429C195.259 252.172 195.69 251.597 196.032 250.704C196.114 250.467 196.192 250.249 196.265 250.051L192.846 248.388ZM191.976 246.849C192.151 246.912 192.322 246.985 192.489 247.067C192.57 246.892 192.668 246.706 192.784 246.508C192.885 246.333 192.975 246.15 193.048 245.964C193.18 245.509 193.165 245.109 193.002 244.767C192.823 244.417 192.574 244.204 192.256 244.13C191.922 244.048 191.611 244.064 191.323 244.176C191.024 244.312 190.803 244.53 190.655 244.829C190.523 245.132 190.558 245.493 190.764 245.917C190.962 246.321 191.366 246.632 191.976 246.849ZM198.068 247.207C198.026 247.479 197.866 248.213 197.586 249.414L200.275 250.75L199.001 251.419L197.307 250.564C197.058 251.271 196.84 251.784 196.654 252.103C196.25 252.736 195.823 253.159 195.38 253.377C194.944 253.587 194.525 253.703 194.121 253.734C193.705 253.777 193.316 253.734 192.955 253.61C192.155 253.33 191.564 252.798 191.183 252.009C190.729 251.088 190.787 250.067 191.354 248.948C191.533 248.629 191.704 248.295 191.883 247.953C190.826 247.51 190.154 246.985 189.862 246.383C189.575 245.793 189.516 245.21 189.691 244.627C189.878 244.06 190.282 243.625 190.904 243.322C191.494 243.034 192.069 242.976 192.629 243.151C193.196 243.329 193.627 243.71 193.919 244.301C194.218 244.915 194.156 245.699 193.732 246.663C193.616 246.935 193.503 247.184 193.39 247.409L196.592 248.963C196.662 248.645 196.732 248.322 196.794 248L196.996 247.083L198.068 247.207Z" fill="#FEFBF6" fill-opacity="0.7"/>
<path d="M215.159 237.153C215.415 238.234 215.364 239.283 215.003 240.308C214.63 241.346 214.001 242.181 213.123 242.811C211.918 243.673 210.578 243.961 209.097 243.681C207.648 243.413 206.486 242.671 205.616 241.459C205.192 240.86 204.897 240.2 204.73 239.485C204.575 238.801 204.54 238.113 204.621 237.418C204.839 235.937 205.55 234.768 206.75 233.905C207.632 233.276 208.619 232.942 209.719 232.911C210.807 232.903 211.809 233.198 212.734 233.796L211.739 234.496C210.659 233.967 209.556 233.898 208.429 234.278C208.056 234.426 207.675 234.636 207.279 234.915C206.886 235.195 206.545 235.58 206.253 236.066C205.985 236.563 205.814 237.084 205.74 237.62C205.554 238.781 205.81 239.85 206.502 240.821C207.186 241.777 208.114 242.36 209.284 242.578C210.453 242.818 211.514 242.593 212.47 241.909C213.123 241.443 213.593 240.845 213.884 240.106C214.183 239.391 214.277 238.645 214.164 237.868L215.159 237.153Z" fill="#FEFBF6" fill-opacity="0.7"/>
<path d="M228.845 229.084L224.322 233.514L216.878 225.898L221.401 221.469L222.115 222.199L218.37 225.867L221.012 228.571L224.649 225.012L225.379 225.758L221.742 229.317L224.385 232.022L228.13 228.354L228.845 229.084Z" fill="#FEFBF6" fill-opacity="0.7"/>
<path d="M235.424 219.892L237.786 216.908L238.657 217.592L236.294 220.576L235.968 221.011L235.626 221.431L227.249 214.857L227.917 214.002L235.424 219.892Z" fill="#FEFBF6" fill-opacity="0.7"/>
<path d="M243.53 208.387L245.504 205.139L246.452 205.714L244.478 208.962L244.198 209.428L243.903 209.895L234.795 204.377L235.37 203.445L243.53 208.387Z" fill="#FEFBF6" fill-opacity="0.7"/>
<path d="M249.563 186.638C248.456 186.183 247.341 186.183 246.222 186.638C245.103 187.096 244.31 187.881 243.844 189C243.378 190.112 243.374 191.223 243.829 192.342C244.287 193.461 245.068 194.25 246.175 194.704C247.294 195.182 248.413 195.194 249.532 194.735C250.659 194.281 251.46 193.5 251.926 192.388C252.392 191.269 252.392 190.15 251.926 189.031C251.467 187.912 250.682 187.116 249.563 186.638ZM249.983 185.612C250.675 185.915 251.277 186.319 251.786 186.824C252.291 187.365 252.672 187.955 252.92 188.596C253.208 189.261 253.356 189.956 253.356 190.679C253.356 191.405 253.208 192.116 252.92 192.808C252.629 193.492 252.225 194.082 251.708 194.58C251.188 195.089 250.597 195.477 249.936 195.745C249.295 196.017 248.612 196.146 247.885 196.134C247.151 196.165 246.436 196.033 245.74 195.73C245.056 195.45 244.466 195.038 243.968 194.487C243.463 193.981 243.075 193.399 242.803 192.746C242.546 192.093 242.41 191.405 242.399 190.679C242.391 189.956 242.531 189.249 242.818 188.565C243.11 187.874 243.518 187.275 244.046 186.778C244.575 186.273 245.157 185.876 245.787 185.597C246.451 185.34 247.147 185.2 247.869 185.177C248.596 185.189 249.299 185.332 249.983 185.612Z" fill="#FEFBF6" fill-opacity="0.7"/>
</g>
<defs>
<clipPath id="clip0_927_10432">
<rect width="289" height="289" fill="white"/>
</clipPath>
</defs>
</svg>
