<svg width="300" height="300" viewBox="0 0 300 300" fill="none" xmlns="http://www.w3.org/2000/svg">
<path d="M151.873 299.972C145.187 300.175 138.469 299.275 132.04 297.337C129.732 296.642 127.462 295.813 125.243 294.852C115.164 290.492 105.764 283.254 101.561 272.416C101.422 272.057 101.213 271.621 101.296 271.293C101.926 268.792 100.625 266.23 100.068 263.842C99.3987 260.965 99.0631 258.007 99.0078 255.047C98.9012 249.178 99.8943 243.312 101.628 237.746C102.471 235.037 103.488 232.374 104.021 229.577C104.71 225.966 103.843 223.064 103.253 219.573C103.164 219.046 103.103 218.44 103.266 217.957C103.395 217.573 105.942 217.733 106.587 217.648C108.471 217.397 110.34 216.982 112.115 216.262C118.258 213.771 122.599 207.083 122.686 200.169C122.737 196.074 121.965 192.178 120.41 188.511C118.877 184.901 116.147 182.505 112.435 181.478C111.47 181.211 111.065 180.412 111.369 179.043C112.346 174.648 111.685 170.717 111.217 166.296C110.704 161.456 110.307 156.604 110.025 151.744C109.896 149.543 109.792 147.334 109.936 145.133C110.34 138.953 112.745 132.975 116.498 128.2C121.448 121.902 128.313 118.38 135.576 115.917C136.65 115.552 138.005 115.934 138.676 114.758C139.061 114.082 139.105 113.258 139.138 112.472C140.009 92.0287 141.051 71.5689 141.663 51.1217C141.681 50.5491 141.642 49.9953 142.283 49.7007C142.447 49.626 142.504 49.2921 142.609 49.0784C142.421 48.9892 142.23 48.8191 142.05 48.8295C141.572 48.8585 141.085 48.9187 140.625 49.0535C138.398 49.7069 136.159 49.682 133.936 49.122C133.28 48.956 132.599 48.6324 132.086 48.1823C130.783 47.0413 131.063 45.3735 132.648 44.7595C133.799 44.3135 135.002 44.0148 136.183 43.6601C137.817 43.1705 139.235 43.8323 140.639 44.5894C141.012 44.7906 141.397 45.0064 141.799 45.1059C142.591 45.3009 143.016 45.0209 142.954 44.0604C142.877 42.8262 143.162 41.6521 142.007 40.5755C140.919 39.5611 141.337 38.6359 142.72 38.0613C142.992 37.9472 143.292 37.5718 143.347 37.271C143.509 36.3873 143.568 35.4828 143.64 34.5826C143.691 33.9395 143.946 32.9604 143.661 32.7239C143.253 32.3837 142.433 32.5123 141.798 32.5683C140.573 32.6762 139.341 32.7944 138.141 33.0496C136.127 33.4748 134.19 33.2238 132.269 32.5683C131.324 32.2468 130.68 31.6701 130.629 30.5333C130.577 29.3841 131.324 29.017 132.155 28.6436C134.528 27.5753 136.874 27.9051 139.237 28.6768C140.463 29.0771 141.719 29.3821 142.96 29.7306C143.837 29.9774 144.263 29.6766 144.307 28.6747C144.356 27.5504 144.494 26.4281 144.635 25.31C144.718 24.6462 144.714 24.3102 143.859 24.3288C142.988 24.3475 142.186 23.0614 142.273 22.1424C142.374 21.07 143.136 20.9911 143.914 20.9165C144.153 20.8936 144.384 20.8065 144.619 20.7484C144.414 20.6157 144.22 20.4477 144.001 20.3543C143.456 20.1241 143.203 19.9125 143.669 19.2632C144.042 18.7425 144.26 18.0704 144.445 17.4315C144.787 16.2532 144.67 15.9587 143.46 15.9607C141.703 15.9649 140.988 14.9132 140.568 13.3823C140.433 12.8948 140.273 12.4156 140.157 11.924C139.647 9.77699 140.009 9.20238 142.021 8.93893C142.234 8.91197 142.451 8.92649 142.662 8.89952C144.396 8.67549 144.394 8.67341 144.702 6.81683C144.864 5.84394 144.797 4.69473 146.222 4.68643C146.319 4.68643 146.455 4.24666 146.498 3.99566C146.605 3.38579 146.656 2.76762 146.749 2.15567C147.006 0.477492 147.339 0.124845 148.895 0.0480928C150.076 -0.00999013 151.26 -0.00791574 152.443 0.0149026C153.497 0.0356465 153.861 0.425632 153.93 1.55825C153.961 2.0644 153.94 2.57678 153.91 3.08293C153.869 3.7654 153.79 4.31719 154.676 4.63872C155.053 4.77563 155.215 5.75682 155.353 6.38536C155.543 7.25245 155.337 8.4556 155.821 8.94101C156.307 9.42849 157.43 9.21898 158.277 9.29988C159.705 9.43471 159.896 9.6546 159.863 11.1855C159.857 11.4676 159.821 11.7497 159.803 12.0298C159.638 14.4195 158.893 15.353 156.68 15.4857C155.563 15.5521 155.381 15.8715 155.776 16.8818C155.934 17.2863 155.853 17.7904 155.985 18.2115C156.23 18.9935 156.283 19.5992 155.397 20.0079C154.816 20.2755 154.988 20.8791 155.476 20.9455C156.617 21.1011 157.809 21.6238 158.933 20.8833C160.388 19.9208 161.985 19.8938 163.608 20.0535C164.729 20.1635 165.857 20.2776 166.958 20.4995C167.679 20.6447 168.506 20.8418 168.55 21.8811C168.589 22.827 168.145 23.6215 167.334 23.8932C165.865 24.3869 164.352 24.8765 162.83 25.0092C161.523 25.1233 160.171 24.7603 158.846 24.5632C158.21 24.4699 157.592 24.2251 156.956 24.138C155.744 23.972 155.545 24.1318 155.464 25.4054C155.407 26.3016 155.474 27.2081 155.464 28.1084C155.456 28.9195 155.529 29.5086 156.435 29.938C157.434 30.411 157.363 32.1078 156.317 32.7488C155.669 33.145 155.541 33.5454 155.586 34.205C155.663 35.3314 155.659 36.4661 155.809 37.58C155.847 37.858 156.346 38.2791 156.625 38.2708C157.42 38.2459 158.244 38.136 159 37.8767C161.294 37.0905 163.602 36.8561 165.993 37.2647C167.464 37.5178 168.092 37.9099 168.259 38.9782C168.437 40.115 167.857 41.4571 166.826 41.9591C165.596 42.5565 164.297 42.9258 162.915 42.5835C161.452 42.2205 159.993 41.8263 158.522 41.4986C157.138 41.1916 156.82 41.3824 156.836 42.8303C156.862 45.1765 156.575 47.5579 157.416 49.8521C157.636 50.4516 157.525 51.1901 157.541 51.8664C157.79 62.8669 158.115 73.8653 158.465 84.8637C158.641 90.365 158.822 95.8642 159.004 101.366C159.097 104.172 159.189 106.977 159.28 109.783C159.337 111.503 158.759 114.484 160.834 115.03C165.825 116.338 170.291 117.851 174.425 121.128C178.271 124.176 181.586 127.963 184.135 132.259C189.965 142.086 190.577 152.848 189.513 164.072C189.002 169.468 188.674 174.832 188.465 180.25C188.376 182.555 188.631 183.601 185.203 183.746C181.904 183.887 179.476 186.148 177.948 189.081C175.375 194.024 175.085 200.163 176.974 205.436C179.535 212.58 185.644 217.731 192.785 218.894C194.147 219.116 194.672 219.981 194.252 221.371C192.767 226.265 193.47 231.428 194.743 236.276C196.952 244.683 199.796 253.228 198.793 262.089C196.641 281.099 180.872 293.753 164.115 298.265C162.935 298.582 161.74 298.852 160.538 299.065C157.679 299.588 154.779 299.885 151.873 299.972ZM161.531 179.979C161.634 182.63 161.728 185.281 161.813 187.93C161.861 189.419 161.683 189.695 160.258 189.95C159.478 190.089 158.631 190.116 157.865 189.944C156.97 189.743 156.777 189.988 156.802 190.882C157.035 199.37 156.927 207.883 157.156 216.357C157.174 217.017 157.176 217.471 158.145 217.32C159.043 217.181 160.131 217.351 160.909 217.807C161.324 218.05 161.262 219.191 161.414 219.927C161.448 220.093 161.484 220.259 161.507 220.425C161.839 222.767 161.231 223.539 159.035 223.572C158.982 223.572 158.927 223.566 158.874 223.568C157.312 223.609 157.302 223.694 157.3 225.292C157.294 230.081 157.233 234.871 157.185 239.661C157.176 240.738 157.17 241.841 157.527 242.849C157.967 244.088 157.912 246.266 159.055 246.979C159.946 247.533 160.238 248.344 159.811 249.436C159.405 250.477 159.13 251.574 158.769 252.636C158.528 253.344 158.366 253.866 159.051 254.566C160.05 255.586 159.578 258.007 158.427 258.061C155.559 258.198 155.395 264.506 155.016 266.653C154.005 272.36 153.699 278.112 153.132 283.872C152.962 285.669 152.81 287.469 152.71 289.272C152.516 292.743 160.038 292.523 162.226 292.247C165.276 291.863 168.208 290.764 170.992 289.403C176.492 286.716 181.555 282.941 185.476 278.081C190.062 272.397 192.609 265.518 193.363 258.146C193.442 257.37 193.833 256.632 194.08 255.874C194.202 256.671 194.469 257.48 194.421 258.266C194.169 262.45 193.499 266.526 191.825 270.406C190.388 273.733 188.496 276.71 186.198 279.411C182.394 283.881 177.592 287.013 172.86 290.233C169.114 292.782 164.415 293.245 160.812 295.906C161.349 296.806 162.621 296.663 163.598 296.383C172.096 293.956 180.228 289.61 186.382 282.993C194.599 274.154 198.068 261.894 195.867 249.767C195.195 246.071 194.218 242.449 193.274 238.821C192.354 235.284 191.122 231.608 191.235 227.901C191.257 227.169 191.292 226.439 191.32 225.707C191.347 224.962 191.089 224.649 190.297 224.582C181.511 223.844 176.163 216.876 174.69 208.188C173.728 202.515 174.019 196.615 175.515 191.073C176.664 186.816 180.396 181.703 185.073 181.864C186.668 181.92 186.745 181.842 186.487 180.18C185.004 170.685 188.287 161.624 188.074 152.184C187.904 144.635 185.02 137.188 180.125 131.658C177.596 128.801 174.542 126.47 171.197 124.783C168.032 123.188 163.649 121.365 160.096 122.024C159.428 122.149 159.416 122.696 160.005 123.076C160.366 123.308 160.779 123.476 161.187 123.593C162.945 124.086 164.71 124.541 166.469 125.028C169.089 125.752 171.549 126.914 173.721 128.582C177.454 131.45 180.392 135.095 182.398 139.487C183.136 141.105 183.604 142.864 184.153 144.573C184.236 144.832 184.084 145.175 184.04 145.477C183.78 145.322 183.42 145.233 183.278 144.998C182.937 144.434 182.67 143.816 182.423 143.198C181.266 140.289 180.145 137.402 178.208 134.886C174.662 130.28 170.23 127.239 164.783 125.816C163.803 125.561 162.785 125.385 161.778 125.352C157.92 125.219 159.717 134.469 159.801 136.869C159.995 142.358 160.198 147.846 160.413 153.333C160.763 162.216 161.187 171.1 161.531 179.979ZM101.29 255.702C101.31 258.82 101.563 261.942 101.999 265.097C102.1 265.823 102.575 266.555 103.035 267.149C103.561 267.825 104.149 267.632 104.22 266.765C104.287 265.935 104.2 265.072 104.06 264.247C103.191 259.123 103.243 253.858 103.912 248.712C104.242 246.17 104.725 243.652 105.341 241.169C105.657 239.893 106.009 238.626 106.392 237.369C106.617 236.688 107.199 235.44 107.79 235.305C108.159 236.674 107.456 238.342 107.051 239.638C104.889 246.575 103.45 255.437 105.553 262.539C106.789 266.713 108.645 265.971 112.175 265.39C117.15 264.572 122.394 264.342 127.261 265.908C135.422 268.537 139.981 275.627 143.314 283.41C143.414 283.642 143.549 283.86 143.667 284.084C143.732 283.843 143.869 283.597 143.855 283.36C143.606 279.143 143.484 274.909 143.035 270.713C142.637 266.962 141.855 263.255 141.29 259.521C141.172 258.739 140.929 258.212 140.25 257.783C139.444 257.275 138.838 256.484 139.106 255.381C139.667 253.078 139.409 250.838 138.793 248.6C138.68 248.189 138.583 247.598 138.775 247.301C139.324 246.457 139.075 245.573 139.154 244.696C139.209 244.073 139.405 243.134 139.803 242.941C141.053 242.337 140.879 241.306 140.877 240.256C140.872 237.715 140.877 235.176 140.874 232.635C140.87 229.76 140.85 226.883 140.858 224.008C140.86 223.261 140.71 222.881 139.853 222.952C138.953 223.026 138.032 222.867 137.122 222.792C136.271 222.722 135.979 222.236 136.279 221.404C136.775 220.035 137.257 218.656 137.823 217.318C138.449 215.841 138.491 215.835 140.113 216.036C140.702 216.108 141.02 216.038 141.024 215.306C141.033 213.385 141.132 211.466 141.126 209.547C141.106 203.67 141.047 197.794 141.02 191.919C141.012 190.403 141.041 190.376 139.511 190.081C138.623 189.911 137.768 189.658 137.519 188.65C136.481 184.443 137.442 179.361 137.582 175.011C137.742 170.084 137.888 165.157 138.019 160.231C138.214 152.912 138.372 145.592 138.498 138.271C138.53 136.468 138.56 134.668 138.585 132.865C138.605 131.426 139 129.903 138.8 128.474C138.494 126.281 137.11 126.522 135.401 127.044C129.501 128.851 123.853 131.287 119.375 135.997C117.857 137.595 116.749 139.393 116.155 141.563C114.858 146.295 114.652 151.118 114.978 155.995C115 156.329 114.818 156.677 114.731 157.017C114.475 156.716 114.167 156.445 113.981 156.102C113.861 155.881 113.922 155.551 113.898 155.271C113.517 150.746 113.645 146.249 114.848 141.862C115.272 140.312 115.821 138.74 116.623 137.379C118.935 133.45 122.538 130.965 126.337 128.996C129.49 127.362 132.968 126.42 136.287 125.128C136.925 124.879 137.541 124.497 138.076 124.057C138.71 123.539 138.419 122.96 137.796 122.833C137.138 122.701 136.412 122.79 135.742 122.931C127.594 124.648 119.107 130.438 115.227 138.25C111.136 146.49 111.626 157.088 113.107 165.991C113.819 170.281 114.443 174.585 113.381 178.91C113.168 179.773 113.653 179.968 114.159 180.315C118.718 183.455 122.315 187.457 123.679 193.132C124.514 196.609 124.534 200.26 124.096 203.818C123.517 208.512 122.06 213.244 119.29 217.031C116.34 221.066 112.054 223.221 107.474 224.549C106.686 224.777 106.406 225.232 106.396 226.115C106.331 232.394 103.529 238.311 102.325 244.416C101.582 248.205 101.266 251.95 101.29 255.702ZM153.434 97.2769C153.399 95.6174 153.363 93.9599 153.328 92.3004C153.183 85.5566 153.037 78.8107 152.893 72.0668C152.753 65.5283 153.507 58.0916 152.368 51.6921C150.917 52.7791 151.811 61.0746 151.782 63.1677C151.722 67.3911 151.671 71.6167 151.628 75.8422C151.539 84.2912 151.482 92.7402 151.454 101.191C151.399 118.091 151.464 134.991 151.649 151.889C151.772 163.041 151.948 174.195 152.175 185.345C152.214 187.281 153.099 189.952 154.883 189.473C153.191 188.683 152.111 191.436 152.102 193.383C152.072 199.845 152.042 206.309 152.013 212.771C152.003 214.799 152.986 217.658 154.818 217.013C153.991 217.112 153.162 217.214 152.335 217.314C151.343 219.396 151.965 222.18 153.736 223.58C153.053 223.066 152.396 224.279 152.344 225.159C151.928 232.307 152.37 239.512 153.659 246.544C156.417 243.005 156.453 238.001 156.354 233.427C156.354 199.897 154.913 166.292 154.194 132.768C153.942 120.937 153.689 109.107 153.434 97.2769ZM145.701 146.021C145.651 114.544 146.078 83.0652 146.98 51.6029C147 50.9329 146.897 50.462 146.275 50.294C145.32 52.6318 146.019 57.7971 145.894 60.6452C145.713 64.8521 145.537 69.0589 145.367 73.2679C145.029 81.6837 144.718 90.0995 144.433 98.5174C143.865 115.351 143.401 132.191 143.045 149.031C142.423 178.504 142.127 207.983 142.157 237.464C142.161 240.719 142.206 244.133 143.709 246.979C145.162 242.532 145.197 237.73 145.217 233.027C145.239 227.64 145.262 222.255 145.284 216.868C145.318 208.904 145.351 200.943 145.385 192.979C145.391 191.479 145.045 189.521 143.63 189.32C145.223 189.845 146.036 187.366 146.011 185.613C145.827 172.415 145.722 159.218 145.701 146.021ZM150.406 115.679C150.419 94.4204 150.433 73.1642 150.445 51.9058C150.445 51.2669 150.404 50.5325 149.92 50.1405C148.24 48.788 148.412 58.5418 148.388 59.5831C148.293 63.8024 148.202 68.0217 148.115 72.2411C147.944 80.6797 147.792 89.1204 147.657 97.5611C147.391 114.442 147.201 131.324 147.089 148.205C147.043 154.957 147.012 161.712 146.99 168.464C146.98 171.841 146.972 175.216 146.968 178.593C146.966 180.282 146.964 181.97 146.964 183.659C146.964 184.785 146.437 187.787 146.966 188.724C147.511 189.691 149.031 189.455 149.681 188.563C150.331 187.668 150.358 186.455 150.36 185.331C150.378 162.116 150.392 138.897 150.406 115.679ZM150.335 247.986C148.512 248.071 146.692 248.193 144.876 248.353C144.364 248.398 141.332 248.369 141.543 249.118C141.659 249.531 145.043 249.682 145.024 249.807C144.879 250.738 143.717 250.96 142.818 250.956C141.92 250.952 140.759 251.159 140.599 252.089C140.477 252.794 141.069 253.404 141.651 253.773C142.234 254.142 142.917 254.476 143.182 255.136C143.517 255.974 143.026 256.893 142.814 257.773C142.536 258.932 142.753 260.152 142.96 261.33C144.313 269.007 145.156 276.784 145.482 284.584C145.527 285.696 145.57 286.841 146.011 287.853C146.451 288.866 147.395 289.722 148.451 289.668C149.304 289.625 150.054 288.996 150.496 288.231C150.941 287.463 151.128 286.567 151.294 285.686C152.797 277.645 152.891 269.329 154.941 261.423C155.294 260.056 155.711 258.685 155.719 257.268C155.722 256.748 155.671 256.219 155.796 255.715C156.036 254.736 156.872 254.07 157.448 253.261C158.025 252.452 158.265 251.12 157.466 250.556C156.952 250.193 156.271 250.342 155.653 250.384C155.035 250.425 154.267 250.216 154.133 249.581C155.46 249.178 156.798 248.822 158.149 248.515C156.753 247.844 155.16 247.84 153.626 247.874C152.528 247.896 151.43 247.934 150.335 247.986ZM156.244 159.95C156.542 169.48 156.862 179.008 157.205 188.533C158.111 188.847 159.14 188.747 159.975 188.264C157.938 142.515 156.404 96.7417 155.379 50.9536C155.369 50.516 154.149 51.047 154.025 51.1569C153.57 51.5635 153.859 52.887 153.857 53.4222C153.851 55.6148 153.918 57.8095 153.95 60.0021C154.011 64.2194 154.078 68.4387 154.149 72.6559C154.291 81.0925 154.449 89.527 154.627 97.9614C154.98 114.83 155.405 131.699 155.9 148.564C156.009 152.36 156.125 156.156 156.244 159.95ZM144.41 63.6614C144.441 62.4997 144.473 61.3381 144.5 60.1764C144.564 57.6498 145.243 54.1212 144.404 51.744C142.652 53.1504 143.472 60.2386 143.387 62.5723C143.231 66.7916 143.075 71.0109 142.919 75.2303C142.607 83.6689 142.293 92.1075 141.981 100.548C141.355 117.425 140.731 134.305 140.106 151.182C139.681 162.66 139.257 174.137 138.83 185.613C138.799 186.469 138.785 187.393 139.251 188.096C139.717 188.799 140.862 189.04 141.316 188.33C140.615 154.675 142.333 121.039 143.612 87.4235C143.843 81.3705 144.06 75.3153 144.246 69.2581C144.305 67.3932 144.358 65.5283 144.41 63.6614ZM118.763 267.784C115.875 267.757 112.98 268.064 110.113 268.46C108.419 268.694 105.888 269.009 104.897 270.677C105.156 271.04 105.499 271.076 105.936 271.024C110.07 270.526 114.175 269.684 118.333 269.538C122.491 269.393 126.793 269.993 130.392 272.185C135.482 275.287 138.498 281.128 140.362 286.992C140.951 288.847 141.541 290.871 143.047 292.021C144.09 292.817 145.414 293.06 146.686 293.282C148.437 293.587 150.188 293.892 151.94 294.197C153.16 294.408 154.536 294.728 155.164 295.848C155.476 296.406 155.586 297.138 156.106 297.485C156.771 297.929 157.742 297.335 157.896 296.524C158.05 295.713 157.574 294.881 156.927 294.41C156.279 293.937 155.488 293.749 154.718 293.568C151.409 292.794 148.1 292.021 144.789 291.247C144.402 291.156 144.003 291.06 143.687 290.813C143.185 290.421 142.988 289.741 142.814 289.108C140.996 282.489 138.104 275.778 132.722 271.845C129.523 269.507 125.651 268.327 121.772 267.941C120.769 267.842 119.766 267.792 118.763 267.784ZM150.879 202.349C150.85 202.349 150.82 202.347 150.789 202.347C150.654 198.87 150.536 195.393 150.378 191.919C150.285 189.857 150.258 189.857 148.218 189.884C148.003 189.886 147.79 189.894 147.574 189.89C147.059 189.884 146.814 190.089 146.798 190.689C146.733 193.041 146.548 195.391 146.546 197.744C146.544 201.492 146.672 205.241 146.712 208.991C146.727 210.559 146.552 212.136 146.65 213.696C146.832 216.556 146.891 216.552 149.582 216.48C150.84 216.447 150.893 216.332 150.885 214.999C150.866 210.781 150.879 206.564 150.879 202.349ZM146.564 231.998C146.522 231.998 146.481 231.998 146.437 231.998C146.437 234.483 146.37 236.973 146.467 239.454C146.512 240.613 146.68 241.852 147.14 242.883C147.57 243.845 148.151 244.696 148.226 245.818C148.248 246.143 148.637 246.44 148.858 246.751C149.041 246.407 149.381 246.065 149.383 245.72C149.389 244.374 149.474 243.119 150.712 242.3C150.891 242.179 150.998 241.825 151.018 241.567C151.13 240.105 151.296 238.638 151.278 237.176C151.233 233.51 151.12 229.847 150.992 226.184C150.887 223.172 150.862 223.172 147.944 223.178C146.569 223.18 146.566 223.18 146.564 224.73C146.562 227.15 146.564 229.573 146.564 231.998ZM150.735 15.2077C150.704 15.2077 150.672 15.2077 150.641 15.2057C150.641 15.4318 150.644 15.6579 150.641 15.8819C150.571 18.7736 150.571 18.7736 153.29 18.6637C154.802 18.6035 154.919 18.4293 154.506 16.8465C154.196 15.6537 153.823 14.4713 153.592 13.262C152.903 9.65875 152.494 6.02234 152.654 2.33822C152.684 1.67856 152.566 1.24917 151.794 1.2865C151.091 1.32177 150.86 1.69101 150.879 2.36311C150.907 3.2634 150.951 4.16576 150.937 5.06812C150.881 8.44938 150.804 11.8286 150.735 15.2077ZM149.462 10.3329C149.458 10.3329 149.456 10.3329 149.452 10.3329C149.507 9.2086 149.584 8.08428 149.612 6.95789C149.647 5.43736 149.663 3.91683 149.645 2.3963C149.64 1.87771 149.507 1.384 148.826 1.38608C148.186 1.38608 148.019 1.71798 148.011 2.33822C147.999 3.23643 147.91 4.13672 147.839 5.03285C147.535 8.84973 147.304 12.6728 146.202 16.3653C145.187 19.7652 145.413 18.6554 148.129 18.8877C148.834 18.9479 149.148 18.5703 149.166 17.7592C149.219 15.2845 149.357 12.8097 149.462 10.3329ZM150.976 220.031C150.951 216.565 151.257 217.295 148.267 217.021C148.054 217.002 147.839 217.007 147.626 216.99C147.018 216.94 146.765 217.218 146.781 217.872C146.808 219.044 146.956 220.253 146.739 221.379C146.508 222.566 147.051 222.585 147.815 222.58C147.975 222.58 148.137 222.574 148.297 222.587C150.976 222.805 150.976 222.807 150.976 220.031ZM154.171 31.5975C154.244 31.5934 154.315 31.5871 154.388 31.583C154.236 28.4859 154.106 25.3889 153.908 22.2959C153.869 21.6757 153.57 21.072 153.393 20.4601C153.355 21.072 153.264 21.684 153.286 22.2939C153.503 28.2743 153.722 34.2548 153.979 40.2332C154.092 42.8822 154.275 45.527 154.463 48.1698C154.487 48.4996 154.737 48.8108 154.883 49.1303C155.008 48.8004 155.253 48.4665 155.239 48.1428C155.14 45.72 155.014 43.2971 154.852 40.8783C154.644 37.7833 154.4 34.6904 154.171 31.5975ZM143.918 47.2903C143.918 47.6844 143.867 48.035 143.932 48.3586C144.001 48.6884 144.184 48.9913 144.319 49.3045C144.516 49.0162 144.846 48.7486 144.887 48.4374C145.033 47.3255 145.105 46.1991 145.164 45.0769C145.377 41.0837 145.525 37.0843 145.792 33.0931C146.06 29.0522 146.441 25.0175 146.761 20.9808C146.773 20.8356 146.67 20.68 146.621 20.5286C146.498 20.6696 146.327 20.792 146.269 20.958C146.198 21.1612 146.226 21.4039 146.206 21.628C145.689 27.3927 145.168 33.1595 144.65 38.9243C144.4 41.7309 144.159 44.5376 143.918 47.2903ZM140.781 218.876C140.828 218.598 140.879 218.479 140.862 218.376C140.779 217.911 140.676 217.448 140.579 216.986C140.102 217.266 139.596 217.507 139.158 217.845C138.968 217.99 138.923 218.338 138.81 218.596C137.703 221.106 137.711 221.074 140.107 221.848C140.777 222.064 140.899 221.722 140.899 221.236C140.899 220.394 140.818 219.552 140.781 218.876ZM157.395 220.292C157.395 220.794 157.357 221.301 157.413 221.794C157.436 222.012 157.612 222.323 157.79 222.394C158.885 222.819 159.922 222.11 159.995 220.915C160.027 220.415 160.07 219.9 159.991 219.415C159.95 219.162 159.701 218.83 159.474 218.741C157.507 217.967 157.322 218.121 157.395 220.292ZM149.865 47.4645C149.865 47.4894 149.865 47.5143 149.865 47.5392C150.72 47.5392 151.572 47.5434 152.427 47.5371C152.868 47.5351 153.401 47.5143 153.209 46.8567C153.12 46.5476 152.674 46.1328 152.398 46.139C150.532 46.1743 148.668 46.2966 146.806 46.4315C146.609 46.446 146.427 46.7198 146.238 46.8733C146.433 47.0704 146.621 47.4251 146.828 47.4355C147.837 47.4956 148.852 47.4645 149.865 47.4645ZM146.508 6.96411C146.398 6.83757 146.309 6.738 146.222 6.63843C146.119 6.81061 145.973 6.96826 145.924 7.15703C145.328 9.35381 144.729 11.5527 144.181 13.764C144.119 14.0087 144.277 14.4672 144.473 14.5979C144.949 14.9132 145.284 14.6331 145.373 14.0896C145.758 11.7186 146.129 9.34966 146.508 6.96411ZM150.453 245.098C150.613 246.457 150.919 246.923 151.549 246.529C151.859 246.334 151.991 245.648 152.019 245.173C152.058 244.519 152.003 243.681 151.195 243.665C150.958 243.658 150.702 244.594 150.453 245.098ZM145.221 245.198C145.448 245.741 145.557 246.235 145.837 246.569C145.981 246.739 146.433 246.621 146.747 246.633C146.759 246.156 146.885 245.641 146.755 245.214C146.591 244.673 146.216 244.204 145.932 243.704C145.697 244.196 145.462 244.687 145.221 245.198ZM140.208 245.2C140.455 245.749 140.72 246.368 141.029 246.957C141.053 247 141.568 246.865 141.57 246.799C141.604 246.108 141.679 245.388 141.527 244.731C141.456 244.426 140.913 244.241 140.583 244.003C140.479 244.345 140.37 244.687 140.208 245.2ZM142.196 256.117C142.021 255.657 141.734 255.198 141.288 255.034C139.598 254.414 140.662 256.437 141.294 256.937C141.594 256.665 141.896 256.391 142.196 256.117ZM152.753 30.8092C152.254 30.4089 152.003 30.0438 151.721 30.0168C151.154 29.9608 150.698 30.1558 150.745 30.971C150.783 31.6348 151.061 31.9709 151.622 31.8091C151.965 31.7116 152.224 31.2967 152.753 30.8092ZM151.093 39.5134C151.108 39.2084 151.185 38.9616 151.116 38.7687C151.022 38.499 150.82 38.2729 150.666 38.0281C150.467 38.2356 150.129 38.4202 150.098 38.6525C150.025 39.1981 150.052 39.7727 150.139 40.3182C150.165 40.4821 150.502 40.6564 150.718 40.6979C150.814 40.7165 151.033 40.4386 151.075 40.2643C151.138 40.0009 151.093 39.7105 151.093 39.5134ZM147.559 40.2747C148.017 39.8162 148.313 39.5196 148.609 39.2209C148.194 39.0508 147.786 38.7749 147.363 38.7521C147.134 38.7396 146.885 39.1607 146.645 39.3868C146.907 39.6399 147.168 39.8951 147.559 40.2747ZM150.816 22.7129C150.798 22.4743 150.83 22.1196 150.729 21.8085C150.666 21.6135 150.41 21.489 150.238 21.3313C150.135 21.5616 149.959 21.7877 149.948 22.0221C149.924 22.4619 149.969 22.912 150.038 23.3497C150.086 23.6484 150.222 23.9326 150.317 24.2251C150.467 23.9223 150.637 23.6256 150.761 23.3124C150.82 23.1651 150.795 22.9805 150.816 22.7129ZM152.733 39.5881C152.793 39.5673 152.852 39.5445 152.911 39.5238C152.714 39.0176 152.518 38.5135 152.321 38.0074C152.212 38.5467 152.088 39.084 152.001 39.6275C151.967 39.8391 151.989 40.0755 152.048 40.2788C152.086 40.4054 152.277 40.6004 152.34 40.5775C152.506 40.5174 152.716 40.3867 152.769 40.2311C152.832 40.0465 152.751 39.8059 152.733 39.5881ZM147.037 31.1515C147.073 31.166 147.108 31.1785 147.144 31.193C147.138 31.3029 147.106 31.4191 147.132 31.5208C147.189 31.7489 147.274 31.9688 147.349 32.1929C147.476 31.9813 147.616 31.7759 147.724 31.556C147.768 31.4668 147.766 31.3361 147.746 31.2324C147.663 30.7926 147.565 30.357 147.474 29.9193C147.328 30.328 147.182 30.7387 147.037 31.1515ZM158.344 256.202C158.078 255.862 157.794 255.412 157.736 255.443C157.407 255.615 157.13 255.901 156.836 256.148C157.093 256.364 157.324 256.679 157.614 256.756C157.776 256.798 158.034 256.449 158.344 256.202ZM148.483 31.2324C148.595 31.6182 148.682 31.9087 148.767 32.1991C148.978 31.9294 149.351 31.666 149.363 31.388C149.381 30.9441 149.158 30.4898 149.035 30.0396C148.852 30.44 148.664 30.8424 148.483 31.2324ZM155.657 13.5918C155.466 13.1499 155.286 12.6791 155.057 12.2372C154.982 12.0899 154.779 12.0173 154.635 11.9095C154.613 12.0713 154.542 12.2497 154.579 12.3949C154.708 12.8803 154.858 13.3595 155.043 13.8221C155.071 13.8926 155.339 13.8822 155.488 13.8594C155.551 13.849 155.592 13.7038 155.657 13.5918ZM157.105 245.189C156.862 244.87 156.66 244.606 156.459 244.341C156.335 244.677 156.106 245.019 156.119 245.351C156.131 245.648 156.41 245.934 156.569 246.224C156.731 245.911 156.891 245.6 157.105 245.189ZM147.734 22.9162C147.819 23.2045 147.906 23.5053 147.995 23.804C148.088 23.5136 148.254 23.2253 148.256 22.9349C148.258 22.6631 148.086 22.3914 147.991 22.1196C147.91 22.3685 147.831 22.6175 147.734 22.9162ZM154.22 7.6943C154.186 7.44952 154.157 7.23586 154.127 7.0222C154.09 7.22756 154.029 7.43085 154.023 7.63622C154.017 7.84988 154.064 8.06561 154.088 8.27928C154.133 8.07599 154.179 7.87684 154.22 7.6943ZM151.722 22.659C151.762 22.8104 151.813 23.0054 151.865 23.2024C151.89 23.0489 151.942 22.8913 151.934 22.7399C151.92 22.4826 151.867 22.2254 151.829 21.9703C151.798 22.1798 151.764 22.3893 151.722 22.659ZM154.394 10.7748C154.423 10.7623 154.471 10.7582 154.477 10.7374C154.489 10.6939 154.481 10.6441 154.481 10.5964C154.439 10.6109 154.378 10.615 154.362 10.6462C154.348 10.6752 154.382 10.7312 154.394 10.7748ZM156.449 243.721C156.415 243.683 156.384 243.644 156.352 243.606C156.317 243.642 156.256 243.675 156.254 243.712C156.252 243.75 156.311 243.789 156.344 243.826C156.378 243.791 156.413 243.756 156.449 243.721Z" fill="white"/>
<path d="M165.77 214.289C165.499 211.435 165.28 208.572 164.929 205.73C164.814 204.807 164.449 203.878 164.025 203.05C163.568 202.158 163.099 202.214 162.597 203.156C162.196 203.907 161.657 204.382 160.84 204.448C160.084 204.51 159.454 204.253 159.11 203.492C158.161 201.397 158.952 198.717 161.543 198.391C163.292 198.171 164.686 198.945 165.869 200.194C167.999 202.442 168.747 205.305 168.913 208.348C169.097 211.723 169.067 215.113 169.262 218.486C169.446 221.643 170.028 224.736 171.069 227.723C171.598 229.239 172.487 230.388 173.914 230.973C174.95 231.399 175.28 231.104 175.276 229.934C175.272 229.092 175.144 228.233 175.257 227.41C175.47 225.864 176.658 225.404 177.835 226.341C178.548 226.91 179.067 227.582 178.99 228.615C178.949 229.173 179.043 229.741 179.012 230.303C178.771 234.724 174.015 235.487 171.636 233.838C168.954 231.98 167.539 229.343 166.694 226.198C165.647 222.3 165.474 218.324 165.77 214.289Z" fill="white"/>
<path d="M170.755 201.677C170.755 199.596 170.876 197.518 171.112 195.452C171.298 193.838 171.533 192.211 171.888 190.627C171.94 190.396 173.203 187.245 173.436 187.797C173.788 188.629 173.551 189.592 173.334 190.473C171.914 196.23 171.567 202.274 172.315 208.168C171.294 207.977 170.966 206.631 170.889 205.546C170.801 204.26 170.755 202.969 170.755 201.677Z" fill="white"/>
<path d="M181.947 173.007C181.987 171.615 182.09 170.225 182.232 168.839C182.378 167.42 182.567 166.008 182.767 164.595C182.844 164.05 182.822 163.272 183.016 162.768C183.043 162.699 183.58 161.639 183.606 161.832C183.72 162.714 183.687 163.61 183.653 164.5C183.472 169.316 183.288 174.135 183.106 178.952C182.358 178.803 182.109 177.823 182.044 177.027C181.936 175.689 181.912 174.347 181.947 173.007Z" fill="white"/>
<path d="M122.335 228.845C122.374 230.011 122.431 231.129 123.318 231.699C124.005 232.141 124.937 231.965 125.584 231.461C126.232 230.957 126.643 230.185 126.955 229.405C127.867 227.125 128.094 224.618 128.335 222.157C128.921 216.171 129.656 210.176 131.172 204.374C131.679 202.43 132.343 200.401 133.823 199.121C135.304 197.841 137.843 197.723 138.931 199.38C139.59 200.384 139.549 201.722 139.306 202.915C139.115 203.851 138.516 204.967 137.618 204.801C136.876 204.664 136.56 203.735 136.479 202.946C136.398 202.16 136.362 201.256 135.772 200.764C134.534 201.691 134.273 203.477 134.125 205.068C133.634 210.333 133.233 215.606 132.919 220.886C132.714 224.348 132.461 228.061 130.4 230.772C128.732 232.965 125.958 234.168 123.304 233.853C121.614 233.651 119.948 232.822 118.925 231.392C117.991 230.086 117.604 228.057 118.337 226.545C118.959 225.265 120.755 224.632 121.748 226.055C122.277 226.81 122.301 227.845 122.335 228.845Z" fill="white"/>
<path d="M127.401 203.131C127.33 205.127 127.085 207.116 126.65 209.066C126.556 209.491 126.435 209.943 126.113 210.219C125.792 210.495 125.209 210.462 125.055 210.058C124.966 209.821 125.049 209.556 125.126 209.315C126.333 205.593 126.382 201.538 125.776 197.659C125.403 195.271 124.787 192.936 124.066 190.641C123.892 190.092 121.821 184.721 123.796 186.163C124.127 186.405 124.307 186.812 124.467 187.202C126.512 192.207 127.596 197.702 127.401 203.131Z" fill="white"/>
<path d="M116.25 174.291C116.23 175.017 116.178 175.741 116.094 176.463C115.995 177.295 115.829 178.176 115.27 178.778C114.812 178.313 114.832 177.548 114.885 176.882C114.988 175.591 114.635 172.357 115.742 171.521C116.163 171.835 116.234 172.449 116.248 172.99C116.261 173.424 116.261 173.857 116.25 174.291Z" fill="white"/>
<path d="M152.074 254.028C153.176 253.995 153.912 254.802 153.951 256.082C153.993 257.449 153.272 258.362 152.135 258.38C150.842 258.401 150.046 257.605 149.979 256.219C149.918 254.906 150.716 254.07 152.074 254.028ZM152.769 256.476C152.571 256.134 152.356 255.775 152.009 255.609C150.996 255.124 150.814 256.667 151.75 256.949C152.137 257.065 152.589 256.856 152.769 256.476Z" fill="white"/>
<path d="M146.824 253.709C147.989 253.69 148.915 254.704 148.919 256.005C148.923 257.161 148.313 257.893 147.31 257.93C146.114 257.976 144.891 256.874 144.866 255.727C144.84 254.634 145.721 253.727 146.824 253.709ZM146.858 256.777C147.253 256.75 147.484 256.244 147.399 255.837C147.314 255.43 147.022 255.115 146.741 254.821C146.641 254.715 146.096 255.385 146.068 255.54C146.001 255.906 146.633 256.563 146.858 256.777Z" fill="white"/>
</svg>
