<svg width="511" height="24" viewBox="0 0 511 24" fill="none" xmlns="http://www.w3.org/2000/svg">
<path d="M29.4325 20.5454C172.566 23.4375 315.752 24.1179 458.908 22.5868C474.86 22.4167 490.853 22.216 506.711 20.7257C509.596 20.4535 511.307 17.6227 509.964 15.2954C508.347 12.4884 507.821 9.15405 508.719 6.08846C509.22 4.38044 510.115 2.52271 507.997 1.04266C507.159 0.454035 499.393 1.66499 498.332 1.6718C327.716 13.0616 179.873 7.40501 16.9515 0.933591C13.4874 0.797494 -0.703198 -0.835487 1.03453 4.80914C2.52778 9.65421 19.8825 9.72226 24.2043 9.82433L24.0125 15.4281C23.9184 18.1841 26.3257 20.4841 29.3761 20.5454C29.3949 20.542 29.4137 20.542 29.4325 20.5454ZM365.342 20.3957C342.371 20.5148 319.401 20.6032 296.43 20.6304C235.275 20.7087 174.116 20.3889 112.972 19.2661C99.5211 19.0211 86.0706 18.7353 72.6201 18.4053C66.5079 18.2556 58.5603 19.2763 52.6663 17.8473C44.6998 15.9181 52.9145 12.2911 57.1573 12.2843C198.974 12.0427 340.953 17.2382 482.514 9.53172C485.068 9.39222 488.051 9.41263 489.635 11.2295C491.463 13.3288 490.06 16.653 487.566 18.082C485.072 19.5145 481.946 19.5825 478.994 19.6029C441.11 19.9023 403.226 20.1949 365.342 20.3957Z" fill="#716657"/>
</svg>
