<svg width="176" height="500" viewBox="0 0 176 500" fill="none" xmlns="http://www.w3.org/2000/svg">
<path d="M92.6554 499.38C80.9402 499.719 69.1663 498.22 57.9009 494.995C53.8563 493.838 49.8774 492.456 45.9885 490.857C28.3259 483.598 11.8534 471.55 4.48728 453.506C4.24509 452.908 3.87834 452.183 4.02366 451.638C5.12736 447.473 2.8473 443.208 1.87161 439.233C0.698714 434.443 0.110534 429.519 0.0136574 424.591C-0.173176 414.821 1.56714 405.055 4.60492 395.79C6.08229 391.28 7.86412 386.846 8.79829 382.191C10.0058 376.178 8.4869 371.347 7.4524 365.535C7.2967 364.658 7.18945 363.65 7.47662 362.845C7.70151 362.206 12.1648 362.472 13.2961 362.33C16.5969 361.913 19.8734 361.222 22.9838 360.024C33.7475 355.876 41.3558 344.742 41.508 333.232C41.5979 326.415 40.2451 319.93 37.5188 313.824C34.8339 307.816 30.0489 303.827 23.5443 302.118C21.8524 301.672 21.1431 300.343 21.676 298.063C23.3886 290.746 22.2295 284.202 21.4096 276.842C20.51 268.786 19.8145 260.708 19.3198 252.617C19.0949 248.953 18.9115 245.275 19.1641 241.611C19.8734 231.324 24.0875 221.371 30.6647 213.422C39.3386 202.937 51.3687 197.073 64.0975 192.974C65.9797 192.366 68.3532 193.002 69.5296 191.044C70.2042 189.918 70.2803 188.547 70.3392 187.238C71.865 153.205 73.6918 119.145 74.7644 85.1052C74.7955 84.1521 74.7263 83.23 75.8508 82.7396C76.1379 82.6153 76.2383 82.0593 76.4216 81.7036C76.0929 81.5551 75.7573 81.2719 75.4425 81.2892C74.6052 81.3376 73.7506 81.4377 72.9445 81.6622C69.0417 82.75 65.1182 82.7085 61.2224 81.7761C60.0737 81.4999 58.8801 80.9612 57.9805 80.2118C55.697 78.3124 56.1883 75.5359 58.9665 74.5137C60.9837 73.7713 63.0907 73.274 65.1597 72.6834C68.0245 71.8685 70.5087 72.9701 72.9687 74.2306C73.6226 74.5655 74.2973 74.9247 75.0031 75.0904C76.3905 75.4151 77.1344 74.9489 77.0271 73.3499C76.8922 71.2952 77.3904 69.3406 75.3664 67.5483C73.46 65.8596 74.1935 64.3194 76.6154 63.3628C77.0928 63.1729 77.6188 62.5478 77.7156 62.0471C77.9993 60.576 78.1031 59.0703 78.2277 57.5716C78.3176 56.501 78.764 54.871 78.2658 54.4773C77.5496 53.911 76.1137 54.1251 74.9996 54.2183C72.8545 54.3979 70.6955 54.5948 68.5919 55.0195C65.0629 55.7275 61.6687 55.3096 58.3022 54.2183C56.645 53.6831 55.517 52.723 55.4271 50.8306C55.3371 48.9174 56.645 48.3062 58.1016 47.6846C62.2604 45.9061 66.3707 46.4552 70.5122 47.7398C72.6607 48.4063 74.8612 48.914 77.0375 49.4942C78.5737 49.9051 79.321 49.4044 79.3971 47.7364C79.4836 45.8647 79.7258 43.9964 79.9715 42.1351C80.1168 41.03 80.1099 40.4705 78.6117 40.5016C77.0859 40.5327 75.6812 38.3916 75.8335 36.8618C76.0099 35.0764 77.3454 34.9452 78.7086 34.8208C79.1273 34.7829 79.5321 34.6378 79.9438 34.5411C79.584 34.3201 79.2449 34.0404 78.8609 33.885C77.9059 33.5017 77.4631 33.1494 78.2796 32.0685C78.9335 31.2017 79.3141 30.0828 79.6393 29.0192C80.2379 27.0577 80.0337 26.5673 77.9128 26.5708C74.8335 26.5777 73.5811 24.8268 72.8441 22.2782C72.6088 21.4667 72.3286 20.669 72.1245 19.8505C71.2318 16.2763 71.865 15.3197 75.3906 14.8812C75.7643 14.8363 76.1448 14.8604 76.5151 14.8155C79.5528 14.4426 79.5494 14.4391 80.0891 11.3484C80.3728 9.72874 80.2552 7.81558 82.7532 7.80177C82.9227 7.80177 83.1615 7.06966 83.2376 6.6518C83.4244 5.63652 83.5144 4.60741 83.677 3.58867C84.1268 0.794908 84.7115 0.207837 87.4379 0.0800629C89.5069 -0.0166311 91.5828 -0.0131778 93.6553 0.0248092C95.5029 0.0593427 96.1395 0.708574 96.2606 2.59411C96.3159 3.43673 96.2779 4.28971 96.226 5.13233C96.1533 6.26848 96.0149 7.18707 97.5684 7.72234C98.2293 7.95026 98.513 9.5837 98.7552 10.6301C99.0873 12.0736 98.7275 14.0765 99.5752 14.8846C100.426 15.6961 102.395 15.3474 103.879 15.482C106.381 15.7065 106.716 16.0726 106.658 18.6211C106.647 19.0908 106.585 19.5605 106.554 20.0267C106.263 24.0049 104.959 25.5589 101.08 25.7799C99.1219 25.8905 98.8036 26.4223 99.4956 28.1041C99.7724 28.7775 99.6305 29.6166 99.8623 30.3177C100.291 31.6196 100.385 32.628 98.8313 33.3083C97.8141 33.7538 98.1151 34.7587 98.9697 34.8692C100.969 35.1282 103.059 35.9984 105.028 34.7656C107.578 33.1632 110.377 33.1183 113.221 33.3842C115.186 33.5673 117.162 33.7572 119.092 34.1267C120.355 34.3685 121.805 34.6965 121.881 36.4267C121.95 38.0014 121.172 39.324 119.75 39.7764C117.176 40.5983 114.525 41.4133 111.858 41.6343C109.567 41.8242 107.197 41.2199 104.876 40.8918C103.762 40.7364 102.679 40.3289 101.565 40.1839C99.4402 39.9076 99.0908 40.1735 98.9489 42.2939C98.8486 43.7858 98.9662 45.2949 98.9489 46.7936C98.9351 48.1439 99.0631 49.1246 100.651 49.8395C102.402 50.6269 102.277 53.4517 100.444 54.5188C99.3087 55.1784 99.0839 55.8449 99.1634 56.943C99.2984 58.8182 99.2915 60.7072 99.5544 62.5617C99.6201 63.0244 100.495 63.7254 100.983 63.7116C102.378 63.6702 103.82 63.4872 105.146 63.0555C109.166 61.7467 113.211 61.3564 117.4 62.0367C119.978 62.4581 121.078 63.1107 121.372 64.8892C121.684 66.7817 120.667 69.016 118.861 69.8517C116.705 70.8463 114.428 71.461 112.007 70.8912C109.443 70.2868 106.886 69.6307 104.308 69.0851C101.883 68.574 101.326 68.8917 101.354 71.3021C101.398 75.2078 100.897 79.1723 102.371 82.9917C102.755 83.9897 102.561 85.2191 102.589 86.3449C103.025 104.658 103.596 122.968 104.208 141.277C104.516 150.436 104.834 159.591 105.152 168.749C105.315 173.421 105.478 178.09 105.637 182.763C105.737 185.626 104.723 190.588 108.36 191.496C117.106 193.675 124.933 196.193 132.178 201.649C138.917 206.722 144.727 213.028 149.193 220.18C159.41 236.538 160.483 254.454 158.618 273.14C157.722 282.123 157.148 291.053 156.781 300.073C156.625 303.91 157.071 305.65 151.065 305.892C145.284 306.127 141.028 309.891 138.35 314.774C133.842 323.004 133.333 333.222 136.644 342C141.132 353.894 151.837 362.468 164.351 364.406C166.738 364.775 167.659 366.215 166.922 368.529C164.32 376.676 165.552 385.271 167.783 393.342C171.655 407.338 176.637 421.562 174.879 436.315C171.108 467.962 143.474 489.027 114.11 496.538C112.041 497.067 109.948 497.516 107.841 497.871C102.831 498.741 97.7483 499.235 92.6554 499.38ZM109.581 299.621C109.761 304.034 109.927 308.448 110.076 312.858C110.159 315.337 109.848 315.796 107.35 316.221C105.983 316.453 104.499 316.497 103.156 316.211C101.589 315.876 101.25 316.283 101.295 317.772C101.703 331.903 101.513 346.075 101.914 360.182C101.945 361.281 101.949 362.037 103.647 361.785C105.222 361.553 107.128 361.837 108.491 362.596C109.218 363 109.111 364.9 109.377 366.126C109.436 366.402 109.498 366.678 109.54 366.954C110.121 370.853 109.055 372.138 105.208 372.193C105.114 372.193 105.018 372.183 104.924 372.186C102.187 372.255 102.17 372.397 102.167 375.056C102.156 383.03 102.049 391.004 101.966 398.977C101.949 400.77 101.938 402.607 102.564 404.285C103.336 406.347 103.239 409.973 105.242 411.161C106.803 412.083 107.315 413.433 106.568 415.25C105.855 416.983 105.374 418.81 104.741 420.578C104.319 421.756 104.035 422.626 105.236 423.79C106.986 425.489 106.159 429.519 104.142 429.609C99.115 429.837 98.8278 440.338 98.1635 443.913C96.3921 453.413 95.8558 462.989 94.8628 472.579C94.5652 475.569 94.2988 478.567 94.1224 481.568C93.7833 487.345 106.965 486.979 110.799 486.52C116.145 485.881 121.282 484.051 126.161 481.785C135.8 477.313 144.671 471.028 151.543 462.937C159.58 453.475 164.043 442.023 165.365 429.75C165.503 428.459 166.188 427.229 166.621 425.969C166.835 427.295 167.302 428.642 167.219 429.951C166.776 436.916 165.603 443.702 162.67 450.16C160.151 455.699 156.836 460.654 152.809 465.151C146.142 472.593 137.727 477.807 129.434 483.167C122.871 487.411 114.636 488.181 108.322 492.612C109.263 494.11 111.491 493.872 113.204 493.406C128.095 489.366 142.346 482.131 153.131 471.115C167.531 456.4 173.61 435.99 169.752 415.802C168.576 409.648 166.863 403.619 165.209 397.579C163.597 391.691 161.438 385.571 161.635 379.4C161.673 378.181 161.735 376.966 161.784 375.747C161.832 374.507 161.379 373.985 159.992 373.875C144.595 372.646 135.222 361.046 132.641 346.583C130.956 337.138 131.465 327.317 134.087 318.089C136.101 311.003 142.64 302.491 150.837 302.76C153.632 302.853 153.767 302.722 153.314 299.956C150.716 284.15 156.469 269.066 156.096 253.349C155.798 240.783 150.743 228.385 142.166 219.178C137.734 214.423 132.382 210.542 126.521 207.734C120.975 205.078 113.294 202.043 107.066 203.141C105.896 203.348 105.876 204.26 106.907 204.892C107.54 205.279 108.263 205.558 108.979 205.752C112.058 206.574 115.152 207.33 118.234 208.141C122.826 209.347 127.137 211.281 130.942 214.057C137.485 218.833 142.633 224.901 146.149 232.211C147.443 234.905 148.263 237.833 149.224 240.679C149.37 241.111 149.103 241.68 149.027 242.185C148.57 241.926 147.941 241.777 147.692 241.387C147.093 240.448 146.626 239.418 146.194 238.389C144.166 233.548 142.201 228.741 138.807 224.552C132.593 216.885 124.825 211.823 115.28 209.454C113.563 209.029 111.778 208.735 110.014 208.68C103.253 208.459 106.401 223.858 106.55 227.853C106.889 236.991 107.246 246.128 107.623 255.262C108.235 270.05 108.979 284.84 109.581 299.621ZM4.01328 425.682C4.04788 430.873 4.49074 436.07 5.25537 441.322C5.43183 442.531 6.26566 443.75 7.07181 444.738C7.99214 445.864 9.02318 445.542 9.14774 444.099C9.26538 442.718 9.11314 441.281 8.86749 439.907C7.34514 431.377 7.4351 422.612 8.608 414.044C9.1858 409.814 10.0335 405.622 11.113 401.488C11.6665 399.364 12.2824 397.254 12.9536 395.161C13.348 394.029 14.3687 391.95 15.4032 391.725C16.0502 394.005 14.8185 396.781 14.1092 398.939C10.3206 410.487 7.79839 425.24 11.4832 437.064C13.649 444.013 16.9013 442.776 23.0876 441.809C31.8065 440.449 40.9959 440.065 49.5245 442.673C63.8277 447.048 71.8165 458.852 77.6568 471.809C77.8333 472.195 78.0685 472.558 78.2761 472.931C78.3903 472.53 78.629 472.12 78.6048 471.726C78.1689 464.705 77.9544 457.657 77.169 450.671C76.4701 444.427 75.1 438.256 74.1104 432.04C73.9028 430.738 73.4773 429.861 72.2871 429.146C70.8755 428.3 69.8133 426.984 70.2838 425.147C71.2664 421.314 70.8132 417.584 69.7337 413.858C69.5365 413.174 69.3669 412.19 69.7026 411.696C70.6644 410.291 70.2284 408.819 70.3668 407.359C70.4637 406.323 70.8063 404.758 71.5051 404.437C73.6953 403.432 73.3908 401.716 73.3873 399.969C73.3769 395.738 73.3873 391.511 73.3804 387.281C73.3735 382.495 73.3389 377.705 73.3527 372.918C73.3562 371.675 73.0932 371.043 71.5916 371.161C70.0139 371.285 68.4016 371.019 66.8066 370.895C65.3154 370.777 64.8034 369.969 65.3293 368.584C66.1977 366.305 67.0419 364.009 68.0349 361.781C69.1317 359.322 69.2043 359.312 72.0483 359.647C73.0794 359.768 73.6364 359.651 73.6434 358.432C73.6607 355.234 73.8336 352.039 73.8233 348.845C73.7887 339.062 73.6849 329.278 73.6364 319.498C73.6226 316.974 73.6745 316.929 70.9931 316.439C69.4361 316.156 67.938 315.734 67.5021 314.056C65.6822 307.052 67.3671 298.592 67.6128 291.35C67.893 283.148 68.1491 274.947 68.3774 266.745C68.7199 254.561 68.9967 242.375 69.2182 230.188C69.2735 227.187 69.3254 224.189 69.3704 221.188C69.405 218.792 70.097 216.257 69.7475 213.877C69.2113 210.227 66.7859 210.628 63.7896 211.498C53.4515 214.506 43.5528 218.56 35.7058 226.403C33.0451 229.062 31.1041 232.056 30.0627 235.668C27.7896 243.545 27.4297 251.574 28.0006 259.693C28.0387 260.249 27.7204 260.829 27.5681 261.396C27.1184 260.895 26.5786 260.442 26.2534 259.873C26.0423 259.503 26.1496 258.954 26.1081 258.488C25.4403 250.956 25.6652 243.469 27.7723 236.165C28.5161 233.586 29.478 230.968 30.8827 228.703C34.9342 222.162 41.2485 218.025 47.9053 214.748C53.4307 212.026 59.5271 210.459 65.3431 208.307C66.4606 207.893 67.5401 207.257 68.4778 206.525C69.5884 205.662 69.0798 204.698 67.9865 204.488C66.8343 204.267 65.5611 204.415 64.3882 204.65C50.1093 207.509 35.2352 217.148 28.4366 230.153C21.2677 243.87 22.1257 261.513 24.7207 276.335C25.9697 283.476 27.063 290.642 25.2016 297.842C24.8279 299.279 25.679 299.604 26.5648 300.18C34.5536 305.409 40.8575 312.07 43.2483 321.519C44.7118 327.306 44.7464 333.384 43.9783 339.307C42.9646 347.122 40.4112 354.999 35.557 361.305C30.3879 368.021 22.8765 371.61 14.8496 373.82C13.4691 374.2 12.9778 374.956 12.9605 376.427C12.8464 386.88 7.93678 396.729 5.82625 406.892C4.52534 413.202 3.97176 419.435 4.01328 425.682ZM95.3922 161.942C95.3299 159.18 95.2676 156.42 95.2053 153.658C94.9527 142.431 94.6967 131.201 94.4441 119.974C94.1985 109.089 95.5202 96.7085 93.5238 86.0548C90.9808 87.8644 92.5481 101.674 92.4962 105.159C92.3924 112.19 92.3025 119.224 92.2264 126.259C92.0707 140.324 91.9703 154.39 91.9219 168.459C91.825 196.593 91.9392 224.728 92.2644 252.859C92.4789 271.424 92.7869 289.993 93.1847 308.555C93.2539 311.777 94.804 316.225 97.9317 315.427C94.9666 314.111 93.074 318.694 93.0567 321.936C93.0048 332.694 92.9529 343.454 92.901 354.212C92.8837 357.589 94.6068 362.348 97.8175 361.274C96.3678 361.439 94.9147 361.609 93.465 361.774C91.7281 365.242 92.818 369.876 95.9215 372.207C94.7244 371.351 93.5723 373.371 93.4823 374.835C92.7523 386.735 93.5273 398.729 95.7866 410.436C100.62 404.544 100.682 396.215 100.509 388.6C100.509 332.78 97.9836 276.836 96.7242 221.026C96.2813 201.331 95.8385 181.637 95.3922 161.942ZM81.8398 243.089C81.7533 190.688 82.5006 138.283 84.0818 85.9064C84.1164 84.7909 83.9365 84.007 82.8466 83.7273C81.1721 87.6192 82.3968 96.2181 82.1789 100.96C81.8606 107.963 81.5526 114.966 81.2551 121.973C80.6635 135.984 80.1168 149.994 79.6186 164.007C78.6221 192.031 77.8091 220.066 77.1863 248.1C76.0964 297.165 75.5774 346.241 75.6293 395.32C75.6362 400.739 75.7158 406.423 78.3488 411.161C80.8953 403.757 80.9575 395.762 80.9921 387.934C81.0302 378.965 81.0717 370 81.1098 361.032C81.1686 347.774 81.2274 334.52 81.2862 321.263C81.2966 318.766 80.6911 315.506 78.2104 315.171C81.0025 316.045 82.428 311.918 82.383 309C82.0612 287.03 81.8779 265.06 81.8398 243.089ZM90.0847 192.577C90.1089 157.187 90.1331 121.801 90.1539 86.4105C90.1539 85.3469 90.0812 84.1244 89.2336 83.4717C86.2892 81.2202 86.5902 97.4578 86.5487 99.1914C86.3826 106.216 86.2235 113.24 86.0712 120.264C85.7702 134.312 85.5038 148.364 85.2685 162.415C84.8015 190.519 84.4693 218.622 84.2721 246.726C84.1925 257.966 84.1372 269.211 84.0991 280.451C84.0818 286.073 84.068 291.692 84.0611 297.314C84.0576 300.125 84.0541 302.936 84.0541 305.747C84.0541 307.622 83.1303 312.619 84.0576 314.18C85.0125 315.789 87.6766 315.396 88.8149 313.911C89.9532 312.422 90.0017 310.402 90.0051 308.531C90.0363 269.884 90.0605 231.231 90.0847 192.577ZM89.9601 412.836C86.7667 412.977 83.5767 413.181 80.3936 413.447C79.4975 413.523 74.1831 413.475 74.5533 414.721C74.7574 415.408 80.6877 415.661 80.6531 415.868C80.4005 417.418 78.3626 417.788 76.7884 417.781C75.2141 417.774 73.1797 418.119 72.8995 419.666C72.685 420.841 73.7229 421.856 74.7436 422.471C75.7643 423.085 76.9614 423.641 77.425 424.739C78.0132 426.135 77.1517 427.664 76.7815 429.129C76.2936 431.059 76.6742 433.09 77.0375 435.051C79.4075 447.832 80.8849 460.779 81.4558 473.763C81.5353 475.614 81.6115 477.521 82.383 479.206C83.1546 480.891 84.8084 482.317 86.6594 482.228C88.1541 482.155 89.4688 481.109 90.2439 479.834C91.0223 478.557 91.351 477.065 91.6416 475.597C94.2746 462.212 94.4407 448.367 98.032 435.207C98.6514 432.931 99.3814 430.648 99.3952 428.289C99.4022 427.423 99.3122 426.542 99.5302 425.703C99.9523 424.073 101.416 422.964 102.426 421.618C103.436 420.271 103.858 418.054 102.457 417.114C101.558 416.51 100.364 416.759 99.2811 416.828C98.1981 416.897 96.8522 416.548 96.617 415.491C98.942 414.821 101.288 414.227 103.654 413.716C101.208 412.601 98.4161 412.594 95.7278 412.649C93.8041 412.687 91.8804 412.749 89.9601 412.836ZM100.316 266.279C100.838 282.143 101.398 298.005 102.001 313.862C103.589 314.384 105.391 314.218 106.855 313.414C103.284 237.253 100.596 161.051 98.8001 84.8255C98.7828 84.0968 96.6446 84.9809 96.4267 85.1639C95.6309 85.8407 96.136 88.044 96.1326 88.935C96.1222 92.5852 96.2398 96.2388 96.2952 99.889C96.4024 106.91 96.5201 113.934 96.6446 120.954C96.8938 134.999 97.1705 149.041 97.4819 163.082C98.1012 191.165 98.8451 219.247 99.7135 247.323C99.9038 253.643 100.108 259.962 100.316 266.279ZM79.577 105.981C79.6324 104.047 79.6878 102.113 79.7362 100.179C79.8469 95.9729 81.0371 90.0987 79.5667 86.1412C76.4978 88.4826 77.9336 100.283 77.7848 104.168C77.5115 111.192 77.2382 118.216 76.9648 125.24C76.4182 139.288 75.8681 153.337 75.3214 167.388C74.2246 195.485 73.1313 223.585 72.0345 251.681C71.2906 270.789 70.5468 289.896 69.7994 309C69.7441 310.426 69.7199 311.963 70.5364 313.134C71.3529 314.305 73.3596 314.705 74.1554 313.524C72.9272 257.497 75.9372 201.501 78.1793 145.539C78.5841 135.462 78.9647 125.382 79.2899 115.298C79.3937 112.193 79.4871 109.089 79.577 105.981ZM34.6332 445.795C29.5714 445.75 24.4992 446.261 19.4755 446.92C16.5069 447.311 12.0713 447.836 10.3345 450.612C10.7877 451.216 11.3897 451.275 12.1544 451.189C19.3994 450.36 26.5925 448.958 33.879 448.716C41.1655 448.474 48.7045 449.472 55.0119 453.123C63.9315 458.285 69.2182 468.01 72.4843 477.773C73.5153 480.86 74.5498 484.23 77.1897 486.144C79.0165 487.47 81.3381 487.874 83.5663 488.243C86.6352 488.751 89.7041 489.259 92.773 489.766C94.9112 490.118 97.3228 490.65 98.423 492.515C98.9697 493.444 99.1634 494.663 100.073 495.24C101.239 495.979 102.942 494.991 103.211 493.641C103.481 492.291 102.648 490.906 101.513 490.122C100.378 489.335 98.9904 489.02 97.6411 488.72C91.8423 487.432 86.0436 486.144 80.2413 484.855C79.5632 484.704 78.8643 484.545 78.3107 484.134C77.4319 483.481 77.0859 482.348 76.7815 481.295C73.5949 470.275 68.5262 459.104 59.0946 452.556C53.4896 448.664 46.7047 446.699 39.9061 446.057C38.1485 445.891 36.3908 445.808 34.6332 445.795ZM90.9151 336.862C90.8632 336.862 90.8113 336.858 90.7559 336.858C90.5206 331.071 90.313 325.283 90.0363 319.498C89.8736 316.066 89.8252 316.066 86.2512 316.111C85.874 316.114 85.5004 316.128 85.1232 316.121C84.2202 316.111 83.7912 316.453 83.7635 317.451C83.6493 321.367 83.3241 325.279 83.3206 329.195C83.3172 335.436 83.5421 341.676 83.6113 347.919C83.6389 350.53 83.331 353.155 83.504 355.752C83.8223 360.514 83.9261 360.507 88.6419 360.386C90.8459 360.331 90.9393 360.141 90.9254 357.92C90.8908 350.9 90.9151 343.879 90.9151 336.862ZM83.3518 386.221C83.2791 386.221 83.2065 386.221 83.1303 386.221C83.1303 390.358 83.0127 394.502 83.1822 398.632C83.2618 400.562 83.5559 402.624 84.3621 404.34C85.1163 405.943 86.1335 407.359 86.265 409.227C86.3031 409.769 86.9846 410.263 87.3722 410.781C87.6939 410.208 88.289 409.638 88.2925 409.065C88.3029 406.823 88.4516 404.734 90.621 403.37C90.9358 403.17 91.1227 402.579 91.1573 402.151C91.3545 399.716 91.6451 397.275 91.614 394.84C91.5344 388.738 91.3372 382.64 91.1123 376.541C90.9289 371.527 90.8839 371.527 85.7702 371.537C83.3622 371.54 83.3552 371.54 83.3518 374.12C83.3483 378.15 83.3518 382.184 83.3518 386.221ZM90.6625 25.3172C90.6071 25.3172 90.5518 25.3172 90.4964 25.3137C90.4964 25.6902 90.5033 26.0666 90.4964 26.4395C90.3753 31.2535 90.3753 31.2535 95.1396 31.0705C97.7898 30.9703 97.994 30.6803 97.2709 28.0454C96.7277 26.0597 96.0737 24.0913 95.6689 22.0779C94.4614 16.0795 93.7452 10.0257 94.0255 3.89257C94.0774 2.7944 93.8698 2.07956 92.517 2.14172C91.2853 2.20042 90.8805 2.81512 90.9151 3.93401C90.9635 5.43277 91.0396 6.93498 91.0154 8.43719C90.9185 14.0662 90.7836 19.6917 90.6625 25.3172ZM88.4309 17.2018C88.424 17.2018 88.4205 17.2018 88.4136 17.2018C88.5105 15.3301 88.6454 13.4584 88.6938 11.5832C88.7561 9.05189 88.7838 6.52057 88.7526 3.98926C88.7423 3.12592 88.5105 2.30403 87.3168 2.30748C86.1958 2.30748 85.9017 2.86002 85.8879 3.89257C85.8671 5.38787 85.7114 6.88663 85.5869 8.37848C85.054 14.7327 84.6492 21.0972 82.7186 27.2442C80.9402 32.9042 81.3347 31.0567 86.0955 31.4435C87.3306 31.5436 87.8808 30.9151 87.9119 29.5648C88.0053 25.445 88.2475 21.3251 88.4309 17.2018ZM91.0846 366.298C91.0396 360.528 91.5759 361.743 86.3377 361.287C85.964 361.256 85.5869 361.263 85.2132 361.236C84.1475 361.153 83.7047 361.616 83.7324 362.703C83.7808 364.654 84.0403 366.668 83.6597 368.543C83.2549 370.518 84.2064 370.549 85.5453 370.542C85.8256 370.542 86.1093 370.532 86.3895 370.553C91.0846 370.915 91.0846 370.919 91.0846 366.298ZM96.6827 52.6022C96.8107 52.5953 96.9353 52.5849 97.0633 52.578C96.7969 47.4221 96.5685 42.2663 96.2225 37.1173C96.1533 36.0848 95.6309 35.0798 95.3195 34.0611C95.2538 35.0798 95.0946 36.0986 95.1327 37.1139C95.5132 47.0699 95.8973 57.0259 96.3471 66.9785C96.5443 71.3884 96.8661 75.7915 97.1948 80.191C97.2363 80.7401 97.6757 81.2581 97.9317 81.79C98.1497 81.2409 98.5787 80.6849 98.5545 80.1462C98.3815 76.1126 98.1601 72.0791 97.8764 68.0525C97.5131 62.9001 97.084 57.7511 96.6827 52.6022ZM78.7155 78.7268C78.7155 79.383 78.6256 79.9666 78.7398 80.5053C78.8609 81.0544 79.1826 81.5586 79.4179 82.08C79.7639 81.6 80.3417 81.1545 80.4143 80.6365C80.6704 78.7855 80.7949 76.9104 80.8987 75.0421C81.2724 68.3944 81.5319 61.7363 81.999 55.092C82.4695 48.3649 83.1373 41.6481 83.6978 34.9279C83.7185 34.6862 83.5386 34.4272 83.4521 34.1751C83.2376 34.4099 82.9366 34.6136 82.8363 34.8899C82.7117 35.2283 82.7601 35.6324 82.7255 36.0053C81.819 45.6022 80.9056 55.2025 79.9992 64.7994C79.5597 69.4718 79.1376 74.1442 78.7155 78.7268ZM73.2178 364.375C73.3008 363.912 73.3908 363.715 73.3596 363.542C73.2143 362.769 73.0344 361.999 72.8649 361.229C72.0276 361.695 71.1419 362.096 70.3738 362.658C70.0416 362.9 69.962 363.48 69.7648 363.909C67.8238 368.087 67.8377 368.035 72.038 369.323C73.2109 369.683 73.4254 369.113 73.4254 368.305C73.4254 366.903 73.2835 365.501 73.2178 364.375ZM102.333 366.733C102.333 367.569 102.267 368.412 102.364 369.234C102.405 369.596 102.713 370.114 103.025 370.232C104.945 370.94 106.761 369.759 106.889 367.769C106.945 366.937 107.021 366.081 106.882 365.273C106.81 364.851 106.374 364.299 105.976 364.15C102.53 362.862 102.205 363.118 102.333 366.733ZM89.1367 79.0169C89.1367 79.0583 89.1367 79.0998 89.1367 79.1412C90.6348 79.1412 92.1295 79.1481 93.6276 79.1378C94.3992 79.1343 95.3333 79.0998 94.9977 78.0051C94.842 77.4905 94.0601 76.7999 93.5757 76.8102C90.3061 76.8689 87.04 77.0727 83.7773 77.2971C83.4314 77.3213 83.113 77.7772 82.7809 78.0327C83.1234 78.3608 83.4521 78.9513 83.8154 78.9686C85.5834 79.0687 87.3618 79.0169 89.1367 79.0169ZM83.2549 11.5936C83.0611 11.3829 82.9054 11.2171 82.7532 11.0514C82.5733 11.338 82.3173 11.6005 82.2308 11.9147C81.1859 15.5718 80.1376 19.2324 79.1757 22.9137C79.0685 23.3212 79.3452 24.0844 79.6878 24.3019C80.5216 24.8268 81.1098 24.3606 81.2655 23.4558C81.9401 19.5087 82.5906 15.5649 83.2549 11.5936ZM90.1677 408.029C90.448 410.291 90.9843 411.068 92.088 410.411C92.6312 410.087 92.863 408.944 92.9114 408.153C92.9806 407.065 92.8837 405.67 91.4686 405.642C91.0535 405.632 90.6037 407.189 90.1677 408.029ZM80.9991 408.194C81.3969 409.099 81.5872 409.921 82.0785 410.477C82.3311 410.76 83.1234 410.563 83.6735 410.584C83.6943 409.79 83.9157 408.933 83.6874 408.222C83.4002 407.321 82.7428 406.54 82.2446 405.708C81.8329 406.526 81.4212 407.345 80.9991 408.194ZM72.2144 408.198C72.6469 409.113 73.1105 410.142 73.6537 411.123C73.6953 411.195 74.5983 410.971 74.6017 410.86C74.6606 409.71 74.792 408.512 74.5256 407.417C74.4011 406.91 73.4496 406.602 72.8718 406.205C72.6884 406.775 72.4981 407.345 72.2144 408.198ZM75.6985 426.373C75.3906 425.606 74.8889 424.843 74.107 424.57C71.1453 423.538 73.0102 426.905 74.1174 427.737C74.6433 427.285 75.1726 426.829 75.6985 426.373ZM94.1985 51.2899C93.3231 50.6234 92.8837 50.0156 92.389 49.9707C91.396 49.8775 90.5967 50.2021 90.6798 51.5593C90.7455 52.6643 91.2334 53.2238 92.216 52.9544C92.818 52.7921 93.2712 52.1014 94.1985 51.2899ZM91.2887 65.7802C91.3164 65.2725 91.4513 64.8616 91.3302 64.5404C91.1642 64.0915 90.8113 63.7151 90.5414 63.3076C90.1919 63.6529 89.6003 63.9603 89.545 64.347C89.4169 65.2553 89.4654 66.2119 89.6176 67.1201C89.6626 67.3929 90.2542 67.683 90.6314 67.7521C90.8009 67.7831 91.1849 67.3204 91.2576 67.0303C91.3683 66.5917 91.2887 66.1083 91.2887 65.7802ZM85.0956 67.0476C85.8982 66.2844 86.4172 65.7906 86.9362 65.2933C86.2096 65.0101 85.4934 64.5508 84.753 64.5128C84.3517 64.4921 83.9157 65.1931 83.4936 65.5695C83.9538 65.9908 84.4105 66.4156 85.0956 67.0476ZM90.8044 37.8114C90.7732 37.4143 90.8286 36.8238 90.6521 36.3058C90.5414 35.9812 90.0916 35.774 89.7906 35.5115C89.6107 35.8948 89.3028 36.2713 89.282 36.6615C89.2405 37.3936 89.3201 38.143 89.4412 38.8716C89.5242 39.3689 89.7629 39.842 89.929 40.3289C90.1919 39.8248 90.4895 39.3309 90.7075 38.8095C90.8113 38.5643 90.7663 38.2569 90.8044 37.8114ZM94.1639 65.9045C94.2677 65.87 94.3715 65.832 94.4753 65.7974C94.1293 64.9548 93.7868 64.1157 93.4408 63.2731C93.2505 64.1709 93.0325 65.0653 92.8803 65.9701C92.8215 66.3224 92.8595 66.716 92.9633 67.0545C93.029 67.2651 93.3647 67.5897 93.4754 67.5518C93.766 67.4516 94.1328 67.234 94.2262 66.975C94.3369 66.6677 94.195 66.2671 94.1639 65.9045ZM84.1821 51.8597C84.2444 51.8839 84.3067 51.9046 84.369 51.9288C84.3586 52.1118 84.3032 52.3052 84.3482 52.4744C84.4486 52.8543 84.5973 53.2203 84.7288 53.5933C84.9502 53.241 85.1959 52.8992 85.3862 52.5331C85.4623 52.3846 85.4588 52.1671 85.4242 51.9944C85.2789 51.2623 85.1059 50.5371 84.9468 49.8084C84.6907 50.4887 84.4347 51.1725 84.1821 51.8597ZM103.997 426.514C103.53 425.948 103.032 425.199 102.931 425.251C102.353 425.537 101.869 426.014 101.354 426.425C101.803 426.784 102.208 427.309 102.717 427.437C103 427.506 103.454 426.925 103.997 426.514ZM86.7148 51.9944C86.912 52.6367 87.0642 53.1202 87.213 53.6036C87.5832 53.1547 88.2371 52.7161 88.2579 52.2534C88.289 51.5144 87.8981 50.7581 87.6835 50.0087C87.3618 50.6752 87.0331 51.3452 86.7148 51.9944ZM99.288 22.627C98.9524 21.8915 98.6375 21.1076 98.2362 20.372C98.1047 20.1268 97.7483 20.0059 97.4958 19.8264C97.4577 20.0957 97.3332 20.3927 97.3989 20.6344C97.6238 21.4425 97.8867 22.2403 98.212 23.0104C98.2604 23.1278 98.7309 23.1105 98.9904 23.0725C99.1012 23.0553 99.1738 22.8135 99.288 22.627ZM101.824 408.181C101.399 407.649 101.046 407.21 100.693 406.768C100.475 407.328 100.073 407.897 100.098 408.45C100.118 408.944 100.606 409.42 100.886 409.904C101.17 409.382 101.45 408.864 101.824 408.181ZM85.4035 38.1499C85.5523 38.6299 85.7045 39.1306 85.8602 39.6279C86.0228 39.1444 86.3134 38.6644 86.3169 38.181C86.3204 37.7286 86.0193 37.2762 85.8533 36.8238C85.7114 37.2382 85.573 37.6526 85.4035 38.1499ZM96.7692 12.8091C96.7104 12.4016 96.6585 12.0459 96.6066 11.6903C96.5408 12.0321 96.4336 12.3706 96.4232 12.7124C96.4128 13.0681 96.4959 13.4273 96.5374 13.783C96.617 13.4446 96.6965 13.113 96.7692 12.8091ZM92.3924 37.7217C92.4616 37.9738 92.5516 38.2984 92.6415 38.6264C92.6865 38.3709 92.7765 38.1084 92.7626 37.8563C92.7384 37.4281 92.645 36.9999 92.5793 36.5751C92.5239 36.9239 92.4651 37.2727 92.3924 37.7217ZM97.0737 17.9374C97.1255 17.9167 97.2086 17.9097 97.219 17.8752C97.2397 17.8027 97.2259 17.7198 97.2259 17.6404C97.1532 17.6646 97.046 17.6715 97.0183 17.7233C96.9941 17.7716 97.0529 17.8649 97.0737 17.9374ZM100.675 405.736C100.617 405.673 100.561 405.608 100.506 405.546C100.444 405.604 100.336 405.66 100.333 405.722C100.329 405.784 100.433 405.85 100.492 405.912C100.551 405.853 100.613 405.794 100.675 405.736Z" fill="#716657"/>
<path d="M117.01 356.74C116.536 351.988 116.152 347.222 115.536 342.491C115.335 340.955 114.695 339.408 113.951 338.03C113.152 336.545 112.328 336.638 111.45 338.206C110.747 339.456 109.803 340.247 108.37 340.357C107.045 340.461 105.941 340.033 105.339 338.765C103.675 335.277 105.063 330.816 109.602 330.273C112.667 329.907 115.11 331.195 117.183 333.274C120.916 337.018 122.227 341.783 122.518 346.85C122.839 352.468 122.788 358.111 123.13 363.726C123.452 368.982 124.473 374.131 126.296 379.104C127.223 381.628 128.78 383.541 131.282 384.515C133.098 385.223 133.676 384.733 133.669 382.785C133.662 381.383 133.437 379.953 133.634 378.582C134.008 376.01 136.091 375.243 138.153 376.804C139.402 377.75 140.312 378.869 140.177 380.589C140.104 381.518 140.27 382.464 140.215 383.4C139.793 390.759 131.458 392.03 127.289 389.284C122.59 386.19 120.11 381.801 118.629 376.566C116.795 370.077 116.491 363.457 117.01 356.74Z" fill="#716657"/>
<path d="M125.746 335.743C125.746 332.28 125.957 328.819 126.372 325.38C126.698 322.693 127.109 319.986 127.732 317.347C127.822 316.964 130.036 311.718 130.445 312.637C131.061 314.022 130.645 315.624 130.265 317.092C127.777 326.675 127.168 336.738 128.48 346.549C126.691 346.231 126.116 343.99 125.981 342.184C125.826 340.043 125.746 337.895 125.746 335.743Z" fill="#716657"/>
<path d="M145.36 288.015C145.429 285.698 145.609 283.384 145.858 281.077C146.114 278.715 146.446 276.363 146.796 274.011C146.931 273.103 146.893 271.808 147.232 270.969C147.28 270.855 148.221 269.09 148.266 269.412C148.467 270.879 148.408 272.371 148.349 273.853C148.031 281.871 147.709 289.893 147.391 297.912C146.08 297.663 145.644 296.033 145.529 294.707C145.339 292.48 145.298 290.246 145.36 288.015Z" fill="#716657"/>
<path d="M40.8919 380.973C40.9611 382.914 41.0614 384.775 42.6149 385.725C43.8189 386.46 45.452 386.167 46.5868 385.327C47.7217 384.488 48.4413 383.204 48.988 381.905C50.5864 378.11 50.9843 373.935 51.4064 369.839C52.434 359.873 53.7211 349.893 56.3783 340.233C57.2675 336.998 58.43 333.62 61.0249 331.49C63.6198 329.359 68.0692 329.162 69.9756 331.921C71.1312 333.593 71.0585 335.82 70.633 337.806C70.2974 339.363 69.249 341.221 67.6748 340.945C66.3739 340.717 65.8203 339.17 65.6784 337.858C65.5366 336.549 65.4743 335.043 64.4398 334.225C62.2704 335.768 61.8137 338.742 61.5542 341.39C60.6927 350.155 59.9904 358.933 59.4403 367.722C59.0804 373.486 58.6376 379.667 55.0255 384.181C52.1019 387.831 47.2407 389.834 42.5907 389.309C39.629 388.974 36.7089 387.593 34.9166 385.213C33.2801 383.038 32.602 379.66 33.8856 377.143C34.9755 375.012 38.1239 373.959 39.8643 376.328C40.7915 377.585 40.833 379.308 40.8919 380.973Z" fill="#716657"/>
<path d="M49.7706 338.164C49.646 341.486 49.217 344.798 48.4558 348.044C48.2897 348.752 48.0787 349.505 47.5147 349.964C46.9508 350.423 45.9301 350.368 45.6602 349.695C45.5045 349.301 45.6499 348.859 45.7848 348.458C47.8988 342.263 47.9853 335.512 46.9231 329.054C46.2692 325.079 45.1897 321.191 43.9268 317.371C43.6224 316.456 39.9929 307.515 43.4528 309.916C44.0341 310.32 44.3489 310.996 44.6292 311.646C48.2136 319.979 50.1131 329.127 49.7706 338.164Z" fill="#716657"/>
<path d="M30.229 290.152C30.1944 291.361 30.1044 292.566 29.9556 293.768C29.7827 295.153 29.492 296.62 28.5129 297.622C27.7102 296.848 27.7448 295.574 27.8382 294.465C28.0181 292.317 27.3988 286.934 29.3398 285.542C30.0767 286.063 30.2013 287.086 30.2255 287.987C30.2497 288.709 30.2497 289.43 30.229 290.152Z" fill="#716657"/>
<path d="M93.0083 422.896C94.939 422.84 96.2295 424.184 96.2987 426.315C96.3714 428.59 95.1085 430.11 93.1156 430.141C90.8494 430.175 89.4551 428.849 89.3374 426.542C89.2302 424.356 90.628 422.965 93.0083 422.896ZM94.2262 426.971C93.8802 426.401 93.5031 425.803 92.8942 425.527C91.1193 424.719 90.801 427.288 92.4409 427.758C93.1191 427.951 93.9114 427.603 94.2262 426.971Z" fill="#716657"/>
<path d="M83.8086 422.364C85.85 422.333 87.4727 424.022 87.4796 426.187C87.4865 428.111 86.4174 429.33 84.6598 429.392C82.5631 429.468 80.4214 427.634 80.3764 425.724C80.3315 423.904 81.8746 422.395 83.8086 422.364ZM83.8675 427.472C84.5594 427.427 84.9642 426.584 84.8155 425.907C84.6667 425.23 84.1546 424.706 83.6633 424.215C83.4869 424.039 82.532 425.154 82.4835 425.413C82.3659 426.021 83.473 427.116 83.8675 427.472Z" fill="#716657"/>
</svg>
